<svg width="138" height="138" viewBox="0 0 138 138" fill="none" xmlns="http://www.w3.org/2000/svg">
<g filter="url(#filter0_d_141_60)">
<circle cx="69" cy="65" r="56" fill="#F9F6EC"/>
<circle cx="69" cy="65" r="60.5" stroke="#502200" stroke-width="9"/>
</g>
<path d="M82.8955 80.6318L69.2637 67L55.6318 80.6318" stroke="#502200" stroke-width="3"/>
<path d="M61.645 46.582C61.645 46.7067 61.611 46.82 61.543 46.922C61.4863 47.0127 61.3843 47.058 61.237 47.058C61.0557 47.058 60.9253 47.024 60.846 46.956C60.7667 46.8767 60.7043 46.752 60.659 46.582C60.625 46.4347 60.5683 46.2477 60.489 46.021C60.4097 45.783 60.3247 45.5507 60.234 45.324C60.1547 45.0973 60.0753 44.9217 59.996 44.797C59.9507 44.729 59.8997 44.6667 59.843 44.61C59.7863 44.542 59.7297 44.4797 59.673 44.423C59.5823 44.321 59.4293 44.253 59.214 44.219C58.9987 44.1737 58.7777 44.151 58.551 44.151C58.3243 44.1397 58.143 44.134 58.007 44.134C57.9163 44.134 57.82 44.1397 57.718 44.151C57.616 44.151 57.5197 44.168 57.429 44.202C57.2363 44.2813 57.1343 44.4287 57.123 44.644C57.1117 44.8933 57.106 45.1427 57.106 45.392C57.106 45.63 57.106 45.8737 57.106 46.123V47.772C57.106 48.9393 57.106 50.1067 57.106 51.274C57.1173 52.4413 57.123 53.6087 57.123 54.776C57.123 54.8893 57.1343 55.031 57.157 55.201C57.191 55.3597 57.293 55.439 57.463 55.439C57.633 55.439 57.7973 55.4333 57.956 55.422C58.126 55.4107 58.296 55.405 58.466 55.405C58.5567 55.405 58.6303 55.439 58.687 55.507C58.755 55.575 58.789 55.6543 58.789 55.745C58.789 55.8357 58.755 55.915 58.687 55.983C58.619 56.0397 58.5397 56.068 58.449 56.068C58.3243 56.068 58.194 56.0567 58.058 56.034C57.9333 56.0227 57.8087 56.0113 57.684 56C57.5253 55.9887 57.3667 55.983 57.208 55.983C57.0493 55.983 56.8907 55.983 56.732 55.983C56.3127 55.983 55.882 55.983 55.44 55.983C54.998 55.983 54.5617 55.9943 54.131 56.017C53.995 56.0283 53.8533 56.0397 53.706 56.051C53.57 56.0623 53.434 56.068 53.298 56.068C53.0487 56.068 52.924 55.9433 52.924 55.694C52.924 55.558 52.9807 55.4787 53.094 55.456C53.2187 55.422 53.332 55.405 53.434 55.405C53.5473 55.405 53.655 55.4107 53.757 55.422C53.8703 55.4333 53.9837 55.439 54.097 55.439C54.3803 55.439 54.5333 55.3653 54.556 55.218C54.59 55.0707 54.607 54.8893 54.607 54.674V44.899C54.607 44.6157 54.5787 44.4287 54.522 44.338C54.4767 44.236 54.3803 44.1793 54.233 44.168C54.097 44.1567 53.8987 44.151 53.638 44.151H52.992C52.8673 44.151 52.72 44.1567 52.55 44.168C52.38 44.1793 52.2327 44.219 52.108 44.287C51.8247 44.4343 51.6377 44.6723 51.547 45.001C51.4677 45.2617 51.3827 45.528 51.292 45.8C51.2013 46.0607 51.1107 46.3213 51.02 46.582C50.9633 46.752 50.8953 46.8767 50.816 46.956C50.748 47.024 50.6177 47.058 50.425 47.058C50.1757 47.058 50.051 46.939 50.051 46.701C50.051 46.6783 50.051 46.6613 50.051 46.65C50.0623 46.6273 50.068 46.6047 50.068 46.582C50.0907 46.4913 50.102 46.4007 50.102 46.31C50.102 46.208 50.1077 46.1117 50.119 46.021C50.1417 45.7943 50.1643 45.5677 50.187 45.341C50.221 45.103 50.2437 44.8707 50.255 44.644C50.2663 44.474 50.2663 44.2927 50.255 44.1C50.2437 43.9073 50.2607 43.726 50.306 43.556C50.3173 43.4653 50.374 43.42 50.476 43.42C50.612 43.42 50.7423 43.437 50.867 43.471C51.003 43.505 51.1333 43.5333 51.258 43.556C51.394 43.5787 51.53 43.59 51.666 43.59C51.8133 43.59 51.955 43.5957 52.091 43.607C52.669 43.6183 53.298 43.6297 53.978 43.641C54.658 43.641 55.287 43.641 55.865 43.641C56.5337 43.641 57.2363 43.6353 57.973 43.624C58.7097 43.6127 59.4067 43.607 60.064 43.607C60.1207 43.607 60.183 43.607 60.251 43.607C60.3303 43.607 60.3983 43.6013 60.455 43.59C60.5797 43.5673 60.7043 43.5333 60.829 43.488C60.9537 43.4427 61.0783 43.42 61.203 43.42C61.2937 43.42 61.3503 43.4597 61.373 43.539C61.407 43.7543 61.4297 43.9753 61.441 44.202C61.4637 44.4287 61.4807 44.6497 61.492 44.865C61.526 45.1483 61.56 45.4373 61.594 45.732C61.628 46.0153 61.645 46.2987 61.645 46.582ZM72.0563 49.795C72.0563 49.387 72.0223 48.9337 71.9543 48.435C71.8976 47.925 71.7956 47.415 71.6483 46.905C71.5123 46.3837 71.314 45.9077 71.0533 45.477C70.804 45.035 70.481 44.6837 70.0843 44.423C69.699 44.151 69.2343 44.015 68.6903 44.015C68.237 44.015 67.829 44.1283 67.4663 44.355C67.115 44.5817 66.8033 44.8763 66.5313 45.239C66.2706 45.5903 66.0553 45.9757 65.8853 46.395C65.7266 46.803 65.602 47.194 65.5113 47.568C65.3413 48.2933 65.2563 49.0357 65.2563 49.795C65.2563 50.203 65.2903 50.662 65.3583 51.172C65.4263 51.6707 65.534 52.175 65.6813 52.685C65.84 53.1837 66.0496 53.6427 66.3103 54.062C66.571 54.4813 66.894 54.8213 67.2793 55.082C67.676 55.3427 68.1463 55.473 68.6903 55.473C69.2343 55.473 69.699 55.3427 70.0843 55.082C70.4696 54.8213 70.787 54.4813 71.0363 54.062C71.297 53.6313 71.501 53.1667 71.6483 52.668C71.7956 52.158 71.8976 51.6537 71.9543 51.155C72.0223 50.6563 72.0563 50.203 72.0563 49.795ZM74.6403 49.795C74.6403 51.053 74.4193 52.1523 73.9773 53.093C73.5466 54.0223 72.8893 54.7477 72.0053 55.269C71.1326 55.7903 70.0276 56.051 68.6903 56.051C67.3756 56.051 66.2763 55.7847 65.3923 55.252C64.5196 54.7193 63.8623 53.9827 63.4203 53.042C62.9896 52.1013 62.7743 51.019 62.7743 49.795C62.7743 48.9223 62.9046 48.1063 63.1653 47.347C63.426 46.5763 63.8113 45.902 64.3213 45.324C64.8313 44.7347 65.449 44.2757 66.1743 43.947C66.911 43.607 67.7496 43.437 68.6903 43.437C70.005 43.437 71.1043 43.7147 71.9883 44.27C72.8723 44.814 73.5353 45.5677 73.9773 46.531C74.4193 47.483 74.6403 48.571 74.6403 49.795ZM83.5366 46.65C83.5366 46.1967 83.4573 45.7773 83.2986 45.392C83.1513 45.0067 82.9133 44.695 82.5846 44.457C82.2673 44.2077 81.8536 44.083 81.3436 44.083C81.2303 44.083 81.117 44.083 81.0036 44.083C80.9016 44.083 80.794 44.083 80.6806 44.083C80.386 44.083 80.2046 44.1113 80.1366 44.168C80.0686 44.2133 80.0346 44.389 80.0346 44.695C80.0346 45.4543 80.0346 46.2193 80.0346 46.99C80.046 47.7607 80.0573 48.5313 80.0686 49.302C80.2273 49.4493 80.4143 49.54 80.6296 49.574C80.845 49.5967 81.0603 49.608 81.2756 49.608C81.865 49.608 82.3183 49.4663 82.6356 49.183C82.9643 48.8883 83.1966 48.5143 83.3326 48.061C83.4686 47.6077 83.5366 47.1373 83.5366 46.65ZM86.0866 46.599C86.0866 47.347 85.9563 47.959 85.6956 48.435C85.435 48.8997 85.078 49.2623 84.6246 49.523C84.1826 49.7723 83.667 49.948 83.0776 50.05C82.4996 50.152 81.8876 50.203 81.2416 50.203C81.049 50.203 80.8506 50.1973 80.6466 50.186C80.454 50.1633 80.2613 50.1407 80.0686 50.118V55.031C80.0686 55.1103 80.08 55.201 80.1026 55.303C80.1253 55.3937 80.1933 55.439 80.3066 55.439C80.454 55.439 80.5956 55.439 80.7316 55.439C80.879 55.4277 81.0263 55.422 81.1736 55.422C81.2643 55.422 81.338 55.4673 81.3946 55.558C81.4626 55.6373 81.4966 55.7167 81.4966 55.796C81.4966 55.8753 81.4626 55.9433 81.3946 56C81.338 56.0453 81.2643 56.068 81.1736 56.068C81.0263 56.068 80.879 56.0567 80.7316 56.034C80.5843 56.0227 80.4313 56.0113 80.2726 56C80.1026 55.9887 79.9326 55.983 79.7626 55.983C79.5926 55.983 79.4226 55.983 79.2526 55.983C78.924 55.983 78.5896 55.983 78.2496 55.983C77.921 55.983 77.5923 55.9943 77.2636 56.017C77.1503 56.0283 77.0313 56.0397 76.9066 56.051C76.782 56.0623 76.6573 56.068 76.5326 56.068C76.3173 56.068 76.2096 55.9433 76.2096 55.694C76.2096 55.6033 76.2493 55.541 76.3286 55.507C76.4193 55.4617 76.5043 55.439 76.5836 55.439C76.7196 55.439 76.85 55.4447 76.9746 55.456C77.1106 55.456 77.2466 55.456 77.3826 55.456C77.5186 55.456 77.598 55.371 77.6206 55.201C77.6433 55.0197 77.6546 54.8837 77.6546 54.793C77.6546 54.7363 77.6546 54.6797 77.6546 54.623C77.6546 54.5663 77.6546 54.5097 77.6546 54.453V45.171C77.6546 45.103 77.6546 44.9897 77.6546 44.831C77.666 44.6723 77.6546 44.525 77.6206 44.389C77.598 44.2417 77.5356 44.168 77.4336 44.168H77.2636C77.1503 44.168 77.037 44.1737 76.9236 44.185C76.8103 44.185 76.697 44.185 76.5836 44.185C76.5043 44.185 76.4193 44.151 76.3286 44.083C76.238 44.015 76.1926 43.9413 76.1926 43.862C76.1926 43.7713 76.2323 43.692 76.3116 43.624C76.4023 43.5447 76.493 43.505 76.5836 43.505C76.7083 43.505 76.833 43.5107 76.9576 43.522C77.0936 43.5333 77.224 43.5447 77.3486 43.556C77.6093 43.5673 77.8643 43.5787 78.1136 43.59C78.3743 43.59 78.6293 43.59 78.8786 43.59C79.4 43.59 79.9156 43.5787 80.4256 43.556C80.947 43.5333 81.4683 43.522 81.9896 43.522C82.4996 43.522 82.9983 43.5787 83.4856 43.692C83.973 43.794 84.4093 43.964 84.7946 44.202C85.1913 44.44 85.503 44.7573 85.7296 45.154C85.9676 45.5393 86.0866 46.021 86.0866 46.599Z" fill="#502200"/>
<defs>
<filter id="filter0_d_141_60" x="0" y="0" width="138" height="138" filterUnits="userSpaceOnUse" color-interpolation-filters="sRGB">
<feFlood flood-opacity="0" result="BackgroundImageFix"/>
<feColorMatrix in="SourceAlpha" type="matrix" values="0 0 0 0 0 0 0 0 0 0 0 0 0 0 0 0 0 0 127 0" result="hardAlpha"/>
<feOffset dy="4"/>
<feGaussianBlur stdDeviation="2"/>
<feComposite in2="hardAlpha" operator="out"/>
<feColorMatrix type="matrix" values="0 0 0 0 0 0 0 0 0 0 0 0 0 0 0 0 0 0 0.25 0"/>
<feBlend mode="normal" in2="BackgroundImageFix" result="effect1_dropShadow_141_60"/>
<feBlend mode="normal" in="SourceGraphic" in2="effect1_dropShadow_141_60" result="shape"/>
</filter>
</defs>
</svg>
