<svg xmlns="http://www.w3.org/2000/svg" xmlns:xlink="http://www.w3.org/1999/xlink" viewBox="0 0 114.75 107.11"><defs><style>.cls-1{isolation:isolate;}.cls-2{fill:url(#新規グラデーションスウォッチ_5);}</style><linearGradient id="新規グラデーションスウォッチ_5" x1="9.59" y1="245.91" x2="124.34" y2="245.91" gradientTransform="translate(-9.59 -192.36)" gradientUnits="userSpaceOnUse"><stop offset="0" stop-color="#c17bb1"/><stop offset="0.29" stop-color="#e95f91"/><stop offset="0.67" stop-color="#ff6161"/><stop offset="1" stop-color="#fccd19"/></linearGradient></defs><g id="レイヤー_2" data-name="レイヤー 2"><g id="レイヤー_1-2" data-name="レイヤー 1"><g class="cls-1"><path d="M26.25,107.11a28.49,28.49,0,0,1-9.79-1.73,22.28,22.28,0,0,1-8.4-5.48A26.94,26.94,0,0,1,2.2,90.26,40.6,40.6,0,0,1,0,76.05v-45A44.54,44.54,0,0,1,1.44,18.93a30.08,30.08,0,0,1,3.72-8.5,20.75,20.75,0,0,1,5.15-5.51,26.1,26.1,0,0,1,5.8-3.16A24.34,24.34,0,0,1,21.71.32,39.8,39.8,0,0,1,26.25,0a39.8,39.8,0,0,1,4.54.32,24.34,24.34,0,0,1,5.6,1.44,26.1,26.1,0,0,1,5.8,3.16,20.75,20.75,0,0,1,5.15,5.51,30.08,30.08,0,0,1,3.72,8.5A44.54,44.54,0,0,1,52.5,31.05v45a40.6,40.6,0,0,1-2.2,14.21,27.08,27.08,0,0,1-5.86,9.64,22.28,22.28,0,0,1-8.4,5.48A28.49,28.49,0,0,1,26.25,107.11Zm0-12.31a9.28,9.28,0,0,0,4.28-.93,9.53,9.53,0,0,0,3-2.46,13.62,13.62,0,0,0,2-3.52,24.33,24.33,0,0,0,1.2-4.07,35.27,35.27,0,0,0,.55-4.1c.1-1.35.15-2.57.15-3.67v-45q0-1.69-.09-3.75a29.52,29.52,0,0,0-.47-4.13,25.32,25.32,0,0,0-1.08-4,11.58,11.58,0,0,0-2-3.49,9.37,9.37,0,0,0-3.14-2.43,10.33,10.33,0,0,0-4.51-.91,10.33,10.33,0,0,0-4.51.91,9.37,9.37,0,0,0-3.14,2.43,11.58,11.58,0,0,0-2,3.49,25.32,25.32,0,0,0-1.08,4,29.52,29.52,0,0,0-.47,4.13Q15,29.36,15,31.05v45c0,1.1.05,2.32.15,3.67a33.24,33.24,0,0,0,.55,4.1,24.33,24.33,0,0,0,1.2,4.07,13.62,13.62,0,0,0,2,3.52,9.53,9.53,0,0,0,3,2.46A9.28,9.28,0,0,0,26.25,94.8Z"/><path d="M62.25,34.8V31.05a51.55,51.55,0,0,1,1.47-12.77A26.1,26.1,0,0,1,68.34,8.5a21,21,0,0,1,8.15-6.27A29.2,29.2,0,0,1,88.5,0a29.9,29.9,0,0,1,12,2.17A22.16,22.16,0,0,1,108.66,8a23.23,23.23,0,0,1,4.63,8.67,37.61,37.61,0,0,1,1.46,10.6,43.92,43.92,0,0,1-.67,7.91A38.56,38.56,0,0,1,112,42.45a52.45,52.45,0,0,1-3.52,7.15q-2.1,3.6-5,7.7L77.25,91.05h37.5v15H62.19v-15L88.5,53.55a113.74,113.74,0,0,0,6.24-9.72,51,51,0,0,0,3.37-7.06,23.88,23.88,0,0,0,1.38-5.25,37.14,37.14,0,0,0,.26-4.22,21.6,21.6,0,0,0-.7-5.5A15.77,15.77,0,0,0,96.94,17a11.3,11.3,0,0,0-3.52-3.4A9.21,9.21,0,0,0,88.5,12.3a9,9,0,0,0-4.92,1.35,10.73,10.73,0,0,0-3.52,3.81A20.06,20.06,0,0,0,78,23.38a39.21,39.21,0,0,0-.7,7.67V34.8Z"/></g><path class="cls-2" d="M26.25,107.11a28.49,28.49,0,0,1-9.79-1.73,22.28,22.28,0,0,1-8.4-5.48A26.94,26.94,0,0,1,2.2,90.26,40.6,40.6,0,0,1,0,76.05v-45A44.54,44.54,0,0,1,1.44,18.93a30.08,30.08,0,0,1,3.72-8.5,20.75,20.75,0,0,1,5.15-5.51,26.1,26.1,0,0,1,5.8-3.16A24.34,24.34,0,0,1,21.71.32,39.8,39.8,0,0,1,26.25,0a39.8,39.8,0,0,1,4.54.32,24.34,24.34,0,0,1,5.6,1.44,26.1,26.1,0,0,1,5.8,3.16,20.75,20.75,0,0,1,5.15,5.51,30.08,30.08,0,0,1,3.72,8.5A44.54,44.54,0,0,1,52.5,31.05v45a40.6,40.6,0,0,1-2.2,14.21,27.08,27.08,0,0,1-5.86,9.64,22.28,22.28,0,0,1-8.4,5.48A28.49,28.49,0,0,1,26.25,107.11Zm0-12.31a9.28,9.28,0,0,0,4.28-.93,9.53,9.53,0,0,0,3-2.46,13.62,13.62,0,0,0,2-3.52,24.33,24.33,0,0,0,1.2-4.07,35.27,35.27,0,0,0,.55-4.1c.1-1.35.15-2.57.15-3.67v-45q0-1.69-.09-3.75a29.52,29.52,0,0,0-.47-4.13,25.32,25.32,0,0,0-1.08-4,11.58,11.58,0,0,0-2-3.49,9.37,9.37,0,0,0-3.14-2.43,10.33,10.33,0,0,0-4.51-.91,10.33,10.33,0,0,0-4.51.91,9.37,9.37,0,0,0-3.14,2.43,11.58,11.58,0,0,0-2,3.49,25.32,25.32,0,0,0-1.08,4,29.52,29.52,0,0,0-.47,4.13Q15,29.36,15,31.05v45c0,1.1.05,2.32.15,3.67a33.24,33.24,0,0,0,.55,4.1,24.33,24.33,0,0,0,1.2,4.07,13.62,13.62,0,0,0,2,3.52,9.53,9.53,0,0,0,3,2.46A9.28,9.28,0,0,0,26.25,94.8Z"/><path class="cls-2" d="M62.25,34.8V31.05a51.55,51.55,0,0,1,1.47-12.77A26.1,26.1,0,0,1,68.34,8.5a21,21,0,0,1,8.15-6.27A29.2,29.2,0,0,1,88.5,0a29.9,29.9,0,0,1,12,2.17A22.16,22.16,0,0,1,108.66,8a23.23,23.23,0,0,1,4.63,8.67,37.61,37.61,0,0,1,1.46,10.6,43.92,43.92,0,0,1-.67,7.91A38.56,38.56,0,0,1,112,42.45a52.45,52.45,0,0,1-3.52,7.15q-2.1,3.6-5,7.7L77.25,91.05h37.5v15H62.19v-15L88.5,53.55a113.74,113.74,0,0,0,6.24-9.72,51,51,0,0,0,3.37-7.06,23.88,23.88,0,0,0,1.38-5.25,37.14,37.14,0,0,0,.26-4.22,21.6,21.6,0,0,0-.7-5.5A15.77,15.77,0,0,0,96.94,17a11.3,11.3,0,0,0-3.52-3.4A9.21,9.21,0,0,0,88.5,12.3a9,9,0,0,0-4.92,1.35,10.73,10.73,0,0,0-3.52,3.81A20.06,20.06,0,0,0,78,23.38a39.21,39.21,0,0,0-.7,7.67V34.8Z"/></g></g></svg>