<svg xmlns="http://www.w3.org/2000/svg" xmlns:xlink="http://www.w3.org/1999/xlink" viewBox="0 0 999.09 333.63"><defs><style>.cls-1{isolation:isolate;}.cls-2{mix-blend-mode:multiply;opacity:0.2;}.cls-3{fill:url(#新規グラデーションスウォッチ_1);}</style><linearGradient id="新規グラデーションスウォッチ_1" y1="166.81" x2="999.09" y2="166.81" gradientUnits="userSpaceOnUse"><stop offset="0" stop-color="#fff"/><stop offset="0" stop-color="#f6a400"/><stop offset="1" stop-color="#c70000"/></linearGradient></defs><g class="cls-1"><g id="レイヤー_2" data-name="レイヤー 2"><g id="レイヤー_1-2" data-name="レイヤー 1"><g class="cls-2"><path class="cls-3" d="M922.72,158.87c0,.36-.88-.08-1.9-1s-1.47-3.88-1.25-4.92.08-3.64-1-2.63-1.76,4.88-1.73,5.89-1.15,3-.18,2.59l.94-.22a1.81,1.81,0,0,1,1.45.45,1.12,1.12,0,0,1-.33,1.23,20.3,20.3,0,0,1-4.85,2c-1.55.3-3.35.57-4.82-.78l-.76-.7c-1.66-.45-2.73-.17-2.37.64s1.34,2.62-.2,2.86-5.49,3-6.72,3.51-3.14,1.68-2,.91-.42-3.75-1.8-3.38-5.71,2-6,2.74,1.27,3.53-.32,4-3.91-3.09-4.9-2.16l0,.52c-.06.75.85,2,.53,2.21-.78.51-2.33.3-3,.83l-.82.64a7.36,7.36,0,0,1-2.66,1.37l-.24-.17-.95-.68a27,27,0,0,0-3.17,2.21c-.91.74-3.76,1.53-3.93-.2l-1.89-.71c-.33-.12-.94-.18-1.1,0s-.1.61-.13.93c-.06.8-.84,2.72-1.39,2.84-1.6.37-2.74.93-2.84,2.45,0,.18-1.29.54-1.41.43-2.09-2-3.16-.2-4.67.64l-.77.43c-1.45,0-1.81-.82-.78-1.77s.61-3.45.57-2.7,2.71,1.24,3.25.9,1.4-6.94.89-7.88l-.06,1c0,1.06.66,2.15.67,3.22l0,1.74c2,.46,3.55-.26,3.52-1.6l-.65-.62-1.5-1.42c.48-1.6.66-3.09.42-3.33s-2.52,4.69-3.77,7.07l-.35-1.15c-.22-.71-.39-1.44-.6-2.16s-2.47-.79-1-2c.71-.58-.06-2,1.83-2,.43,0,.77-1.15,1.36-1.61s.92-.91,0-1.35a8.37,8.37,0,0,0-1.93-.74c-.17,0-.62.61-.78,1-.24.56-.31,1.66-.48,1.66-2.52,0-1.85,1.52-1.89,2.64l0,1.1c0,1.21-.44,1.86-1,1.44s-2.3-2.74-3-2.14-3.1,1.46-3.89.81-2.21-2.55-2.85-1.93,1.23,5,.41,4.87a12.18,12.18,0,0,0-3.07-.56c-.73.12-2.8-.53-3.65,0l-.51.63-.69.85c-.44.9-2.1,1.42-3.7,1.17l-1.4,0h-.44a1,1,0,0,0,.24,1.59l.56.28.16.08c.32.22-.43.69-1.66,1l-1.21-.48a7.11,7.11,0,0,0-2.59-.61l-1.56,0c.66,2,1.13,3.19,1.05,2.71s-2.78.79-3.67.83l-.82-.45-.43-.22a20.41,20.41,0,0,0-2.77.93,6.83,6.83,0,0,0-1.86,2.39c-.13.34-.24,1.62.44,1.1a7.54,7.54,0,0,1,2.46-1.34l0,.13.08.46a15.76,15.76,0,0,0,.41,2.37c.19.79,4.16.35,4.92,0s3.41-.7,4.23-.22,3.33.67,2.51-.3l-.65-.69a14.21,14.21,0,0,1-1.75-1.71c-.8-1.24-.76-1.3-1.22-.93L825.79,187c-1.68,1.37-3.77,1.7-4.65.71l.15-.55.53-1.9a19,19,0,0,1,5.9-.61l1.18-.3a32.68,32.68,0,0,0,6.81-2.78c.56-.28.49-1.32.86-2a1.64,1.64,0,0,1,1.06-.79,2,2,0,0,1,1.25.64l1.15,1.15c.68-.64,1.61-1.44,2.06-1.78l.45,0,4.67-.42c1.6-1.89,3.09-2.9,3.32-2.24s1.41,2.3-.17,2.44-4,2.88-4.49,2.77a2,2,0,0,0-1.88,1.87l.83,1.11.32.44a1.29,1.29,0,0,0,1.72-.14l.28-.47.48-.8a2.48,2.48,0,0,1,3.32-.3c1.18.76,0,3.84-.83,3.4l-.7,0c-1,.09-2,.74-3.06.85a18.47,18.47,0,0,1-2.78-.37l-.66,0c-.74.12-1.25,0-1.12-.23s-.33-1.13-1.29-1.41.1-2.64-.6-3.24l-.77-.35c-.19-.09-1.11.54-1.37,1-.64,1-1.25,1.94-2.92,1.84l-2.35-.13c-1.46,1.58-1.09,2.71.81,2.51s6.57.32,5.83,1.64l-.18.93-.22,1.08c-.25,1.33-.62,1.95-.81,1.36l-.43-.31a6.43,6.43,0,0,0-2-.7c-.39-.12-1.11-.3-1.2-.19-1.61,2-4.09,1.43-6.35,1.49l-1,0c-1.39,0-2.35.39-2.11.88s.07,1.68-1.08,1.11l-.88,0c-.81,0-1.68.9-2.44.83l-1.91-.18c-.07,1.11-.71,1.69-1.43,1.29a13.39,13.39,0,0,1-2.59-1.75l.09-.22.72-1.69c2,.1,3.1-.12,2.51-.48a6.57,6.57,0,0,0-4.76.22l-1.4,1-1.13.78c-1.3,1.06-2.06,2.16-1.68,2.44a9.24,9.24,0,0,0,2.42.73c.87.17,1.76,1.56.77,1.65s-5.39,2.45-6.33,2.71-2.32-1.64-.94-2.25.27-4-.22-4-.5.93,1.2,2.08l-3.79.83-2.73.6c1,2.28,1.07,4.05.12,3.94l-.47-.3c-.79-.51-1.26-.7-1.33.32-.09,1.19-1,1.26-1.92.83l-.29-.14a5.85,5.85,0,0,1,2.11-2.7l.59-.8.51-.71c.29-1.46-.17-1.48-1,0l-1.87,0c-.9,0-1.57,2.32-2.64,2.52-2.58.48-.18,1.18-.37,1.67-1,2.49-2.34,3.21-5.9,3.25h-1c-1.23,0-1.77-.64-1.19-1.41l-.13-.52-.18-.69c-1-.94-1.81-1.22-1.92-.62s-1.38,2.24-2.57,2.2l-1.1.1c-.44,0-1.09.41-1.15.71s.37,1.12.58,1.12c1.21,0,2,.32,1.63,1.33-.14.36-1.6.39-1.74.76-.69,1.84-2.61,2.29-4.45,2.74l-2.8.68c-3.11.7-6.59,1.58-7.74,2s-4,2.13-4.53,2.22-3.11.51-4.48.79l-1.11.49c-1.12.49-1.57,1.75-3.33,1.6-2.89-.26-4.42,1.65-6.33,2.93a6,6,0,0,1-1.57.83c-1.55-1.33-1.4.07-2.29.59-3.25,1.88-6.94,3.26-10.44,4.87-1.21.56-1.89-1.56-3.32-.27a6.76,6.76,0,0,1-3.31,1.5c-1.32.19-1.21.77-1.61,1.49s-1.14,2-2.94.62c-.63-.47-2.83-.52-4.3.49l-1,.72A30,30,0,0,0,708,235c-.82.33-1.61,1.54-1.94.57s-4.05.73-5.32,1.09-2,3.28-2.31,2.84-4.89-.18-9.32,2L685.22,243c-.49.19-1.19,0-1.66.21-1.35.55.78,2.3-1.37,2.71l-1.38.26a7.91,7.91,0,0,0-4-.59c-1,.2-5.41,2.63-7.7,3.55l-2.26.5-.49.11c-.87-.93-1.82-1.44-2.1-1.16a.82.82,0,0,1-1.36-.51l.3-.71.36-.88a6.86,6.86,0,0,1,3.44-.92c.8.1,3.24,0,3.19-.64s-1.44-1.64-3-1l-1.2,0c-1.66,0-2.84.07-3.2,1.73-.4,1.83-2.85-.1-3.67,1.13a1.32,1.32,0,0,0-.17,1l.48,1.89c2,0,2.8.34,1.72.7s-3.19,3.22-5,3.67l-1.53-1.09-.26-.18a2.2,2.2,0,0,0-1.83.77c-.48.53-1.48,1.24-1,.19s1.15-3.85-.83-2.95-7.88.85-7.61,1.18-.08,1.4-1.39,1.64-2.53,2.88-1.6,2.75l.45-.32c1.83-1.31,3.81-1.16,5.83-.5.54.18,1.33.75,1.28,1.07-.16,1.13-1.08,1-2.06.54a3.73,3.73,0,0,0-1.19-.3c-1.24,2.17-5.61,1.14-6.17,4l0,.13c-.2.12-1.09.55-2,1s-4.44,1.64-5.37,2.68L629,263.29l-.31-.22c-1.91,1.14-2.76,1.3-1.9.36s2.85-3.74,1.49-4.55l-1.09-.37-2-.67c-.69,1.83-2.32,3.43-3.62,3.57a10.05,10.05,0,0,1-4.95-1.81c-.28-.48-.16-1.72,1.14-1.32l.93.05.6,0a1.25,1.25,0,0,0,.64-1.71l-.37-.51c-.57-.78-1-.34-1.68,0a3,3,0,0,1-3.56-.43l-.83-.76c-1.27-1-2.41-1.1-2.52-.22s2.76,2.66,4.3,3.13l-.51,1.7-.05.16c1.34.41,2.14,1.37,1.79,2.14l1.4.36,1.69.42c2.33.69,3,1.9,1.51,2.68s-5.27,1.94-5.27,1.08-.58-3.05-1.3-2.91-.94,2.31-1.92,2.7-3.69,1.07-3.46.45a8,8,0,0,0,.59-2.38,1.47,1.47,0,0,0-1.15.52c-.34.42-2.43.62-3.78-.57l-1.19-.82-.21-.14c-.78.36-1.48.11-1.57-.56l-.17-.59-.6-2a2,2,0,0,0-1.28,2.91c.65,1.07,1.49,4.55.75,4.94s-4.25.22-5.12.37-4-1.28-5-1.68l-.82.33a23.39,23.39,0,0,0-2.41,1c-.38.21-.87.9-.77,1a3.37,3.37,0,0,0,1.58.87c.94.15,1.62.05,2-1.05.67-2,1.42.85,2.28.12l1.18-1a2.14,2.14,0,0,0-.12-3.67l-1.3-.77-.16-.1c-.56.1-.84.49-.62.86s.54,4.07,0,5.18-2.32,3-2.75,2.67-1.87-1-2.19-.73-.74,1.12-.1,1.23l.49.18,1.2.45a11.62,11.62,0,0,1-2.18,2.35c-.76.61-3.39,2.66-3.35,4.66l-1.06.72-2.25,1.51c-2.14-1.65-4.24-2.71-4.67-2.36s-1.71.67-1.94,0-3-.39-3.69-.16a4.11,4.11,0,0,0-1.77,3.65h2.58c-.25,1.49-1.3,1.76-2.35.61l-.91-1.06c-.86-1-1.42-1-2.38,0-.38.41-.77,1-1.3,1.1a37.7,37.7,0,0,0-5.06,1.85c-1,.63-.32,1,.24,1.36l1.43,1a11.66,11.66,0,0,1-2.12,2.59c-.45.31-3.8,1.83-6.29,2.92l-2.43.51-3,.62a61.32,61.32,0,0,1-7.11,3.33c-1.24.4-4.64-.2-4.6-.57a5.07,5.07,0,0,1,2.91-2.39l1.65-.35,1.82-.37c.13-.47.49-.89.8-.93s1.57-.3,1.63-.75-.09-1.88-.48-2a40.25,40.25,0,0,0-4.22.16c-1.73.09-4.87,2.87-6.22,2.16l.49,2.06.37,1.58c-1.37,0-2.36.13-2.2.26a28.74,28.74,0,0,1,2.34,3.13l-1.21.08-2.28.15a34.6,34.6,0,0,0-4.73,3.49c-.83.81-6.21,2.29-8.22,3.38l-1.18-.36-1.88-.58a11.82,11.82,0,0,0-3.41,1.79v.42c0,.94-.21,1.54-1.57,1.44l-1.94-.15a24.07,24.07,0,0,0-4.81,3.4l-1.06-.83-.95-.74a10.1,10.1,0,0,1-2.38,2.09c-.91.57-4.78,1.13-6,1.29l-.56,1.3c-.45,1-1.83,2.15-3.61.6-.64-.57-2-.51-1.92.7s-.15,2.05-2.14,2h-.71a2.3,2.3,0,0,1-3.17.24c-.84-.79-3.2-2.74-3.32-2.53l-.14.28-.14.27c-.15.32-.79-.18-1.42-1.1l-.64,0-2.68-.16c.17,1.67-.15,2.77-.72,2.44s-2.65-1-3.09-.67-1.47,3.42-2.47,6.19l-2.47,1.68c-2.23,1.52-4.61,3.06-7.66,3.4l-1,.12a14.41,14.41,0,0,0-4.77.49c-1.41.41-4.94,2.55-5.71,2.33s1.51-2.1,2.31-2.8.38-3.36-.14-3.36-2,.3-1.78.68.41,1.66,0,1.9l-.23,0-2.43-.37c-2.37-1.24-3.7-2.53-2.95-2.88l.56-.43.44-.35c.24-.59-.3-1.28-1.19-1.52l-.32.23c-1,.72-1.78,1.08-2.89.15-.8-.68-1.82-.71-2.17.28s.51,1.19,1.65,1.3l.8.08a3.92,3.92,0,0,1,2,2c.12.6.7,2.46,1.28,2.55s2.31.69,2.31,1.09-2.75,1.19-6.11.81l-.76-2.55c-.22-.75.08-1.6-.09-2.37-.06-.28-.82-.65-1.23-.63a1.53,1.53,0,0,0-1,.81c-.18.43.12,1-.08,1.41l-.4.82c-.62.79-1.43,1.93-1.81,2.53s-2.89,1.82-4,1.4-5.31.3-6.29,0-3.82-1.14-4.13-1.11a38.27,38.27,0,0,1-5.77,1.14l-1.08-.74c-.15-.1-.26-.28-.42-.32l-1.06-.25c-1.17-.24-1.8-.65-1.41-.91l0-.2c-.18-1.11-.85-2.25-.66-3.29.32-1.77-1.35-2.47-2.09-3.66l-.32-.51a3.74,3.74,0,0,0-2.48-1.15c-.94-.06-1.42-2.51-.38-3.38l-1.4-1.65-1.16-1.38a17.77,17.77,0,0,1-3.88-2h-.51c-1.4,0-2.37-.21-2-1.55.14-.5.57-1.25,1-1.32,1.33-.21,2.81-.25,2.65,1.48v.11a.85.85,0,0,0,1-.17,1.56,1.56,0,0,0-.42-2.06l-.92-.36-2.51-1c1.47-.81,2-1.56,1.26-1.67s-3.12,1.18-3.77.65.35-2.29,1.22-1.82l.64-.11.83-.15c.82-.67.62-1.46-.46-1.76s-2.89-1.7-1.4-2.38l.65-.86c.67-.89.47-2.11-.86-2.93-.19-.12.16-1.2.25-1.2h4a41.7,41.7,0,0,0-2.8-3.86l-.3-.22c-.32-.23-1-.53-1-.63a26.34,26.34,0,0,1,1.63-3.28c.75-1.26,2.37-.72,3.58-1l.17,0c.16-.17-.46-.79-1.37-1.36s-4.37.51-4.37,1.13-.6,1.81-1.33,1-.31-3.35-.87-3.35-2.48.23-2.18.5-.91.64-3.15.38l-.62-1.65c-.47-1.27-.84-2.58-1.41-3.83-.73-1.59-2.84-3.31.91-4.26.13,0,.17-.43.15-.65-.06-.5-3.34-6.22-3.7-6.89l-.44-.81c-.34-1-1.21-1.64-1.94-1.32l-.77.16c-1.39.3-1.44,1.09-.7,1.69l1.6,1.29c-1.33.46-2.9.17-3.49-.65l-.6-.66a1.79,1.79,0,0,0-2.45-.4,5.88,5.88,0,0,1-3.16.61c-2.15-.29-3.23.79-4.42,1.81-1,.85-1.58,1-3.64,1.17l-.46,0c-.47.47-1-.17-1.24-1.43s-4.11-.66-3,.14l.34.84.4,1c-.17,1.27-.29,1.17-.27-.23l-2.31-.43-1.34-.26c-1.41-1-3.14-1.45-3.84-1l-.34.5c-.88,1.31-1.22,2.72-3.81,2.87-1.7.1-3.21,1-5-.08l-.5-.31c-1,.14-1.81-.15-1.81-.65s-1-.66-2.18.37l-.2-2.45c-.05-.68.5-1.82-1-1.74a3.07,3.07,0,0,0-2.2,1.22l-.45,1c0,1.4-.7,2.58-1.49,2.62l-.7-.1a3,3,0,0,0-2.53,1.38,1.47,1.47,0,0,1-1.21.51l-.68-.2c-.78-.52-.77-1.81,0-2.85l.5-1,.22-.44a1.46,1.46,0,0,0-1.77-.78l-.66.2-.34.1c-2.24,1.16-4.07,1.65-4.07,1.09s3.46-1.16,3.52-1.52l-.14-.27-.18-.36a9.9,9.9,0,0,0-3.86-.73L311.81,270l-1.9,1.46a38.76,38.76,0,0,0,7.8,1.5l-1,1a2.33,2.33,0,0,0,.12,2.49c.7,1,2.41,1.56.65,2.87-.13.09,0,.66.26.82.72.52,2.7.11,2,1.61-.42.94-4,1.75-5.48,1.34l-.66-.19c-.85-.55-1.68-.47-1.85.17s-1.93,1.64-3.56.86l1.59-1.7c1-1.07-1.32-1.8-1.45-1.73-1.59.84-4.2.16-5,2-.63,1.42-2.07.93-2.87.73-1.11-.27-.43-1.09-.24-1.86l.27-1.11c-.47-1.51,0-2.3,1.08-1.75a29,29,0,0,0,3.88,1.71c.12-.09-.26-1-1.09-1.87l-.51-.86-.53-.9c-.38-1.29-1.27-2-2-1.56s-2.52,1.22-2.67.87-.83-1.07-1.16-.82-.77,1.31-.31,1.83-.52,1.74-2.77,2l2.86,2.19.65.5c-.31,1.52-1,1.91-1.45.86s-3-2.93-4.62-1.88-8.06,1.59-9.09,3.63l-1.88,1.42L279.05,287c1.06,1.54,1.4,2.81.75,2.81s-2.47-.52-2.59-1.15l.25-.16,1.66-1c-.53-1.43-2.91-.85-5.27,1.29l-.18,2.69-.1,1.53c1.31.08,2.16.54,1.88,1a1.69,1.69,0,0,1-2.49,0l-.65-.88a3.6,3.6,0,0,1-.89-1.61l-.2-2.45a11.15,11.15,0,0,0-2.69.25c-.36.13-1.93.24-2.35-.21l-.56-.42c-.91-.67-1.32-1-.28-2.12l.94-1c-1.36-1.21-2.31-1.48-2.1-.61s-3,1.73-3.27,2.29l.11.49.09.39a13.72,13.72,0,0,1,2.47,2.09c.76.8-.83,3.91-2.34,4.46l-.54-1.84-.11-.39a1.87,1.87,0,0,0-2.12.52l.09.47c.34,1.76-.67,3-1.91,2.16l-1.66-1a6.53,6.53,0,0,0-4.47,2.82l-.84,1.14-.3.4a1.64,1.64,0,0,1-1.78,0,2.16,2.16,0,0,0-2.75,1l-.65,1c-.18.3-.92.46-1.43.51-.26,0-.87-.36-.84-.47.7-2.42-1.88-2.54-3.47-3.33l-.63-.31c-1-.39-1.58-.08-1.34.68l.14.63.12.54c.06.61-.51,1.09-1.28,1.07l-.6-.21c-.5-.18-.79-.72-1.27-1l-2.28-1.2c-.63,1.76-.66,3.16-.06,3.12a6.21,6.21,0,0,1,2.89.58c.4.4,1.7,2.09,1.23,2.89s-4,1-4.75,2.31l-.81,1.1-.19.25c-.74,0-1.23-.3-1.07-.72l-.16-.24c-.54-.84-1.78-1.63-1.75-2.41l.09-2.82c-2.13.6-4,1.1-4.15,1.11a1.41,1.41,0,0,1-.77-1l.27-.19.51-.37c.8-.2,1.51-.73,1.58-1.19s1.41-1.51,3.13-1.31l1.09-1.36c.52-.65.63-.59-1-1.12a4.11,4.11,0,0,1-.79-.28c.5-1.68-.63-3-2.15-3.52l-2.28-.77a15.65,15.65,0,0,1,.43-5.1l1.41-.73a21.57,21.57,0,0,0,3.68-2.71l.11-.08c-.41-.52-1.53-.47-2.49.09v-1.56c0-.17-1-.52-1.42-.44a1.33,1.33,0,0,0-.83,1l-.12.9c0,1-.44,1.82-1.08,1.88s-2,.8-2,1.55,2.18,3.74,2.36,5.2l-1.36,1.54c-.89,1-.9,3.29,2.12,3.77l.5.08c.4.74-1.23,1-3.62.7L218,297c-.3-.18-.61-.81-.47-1,1.77-2,.6-2.91-1.68-3.67l-.58-.2a2.16,2.16,0,0,1-.13-2h.19c1.5,0,3.09-.94,2.5-1.64l-1.09-1.29c-.7-1.46-1.74-2.53-2.31-2.36s-2.51,1.15-1.53,1.26,2.8.67,2.57,1.05l-.21,0-2.39.41c-2.18-1-3-2.42-1.81-3.2s1.94-3.72,1.37-3.35-2.21,1-2.3.47-.72-1.72-1.17-1.55-2.14.24-2.25-.46-1.4-2.67-2.62-2.71l-.79-.49-.54-.33c0-1-.24-1.91-.58-2l-.19.1c-1.07.53-1.5,2-3.26,1.48a.85.85,0,0,1-.47-.76c.36-1.3,3.31-3.42,3.84-2.89,1.74,1.69,3,.38,4.46,0,.33-.09.89.49,1.4.64l.49.14a10.08,10.08,0,0,0,3.26-.87l.65-.57c1.18-1.05,1.45-2.81,2.68-3.8l1.1-.88c1.19-1.22,1.33-1.93.33-1.57l-.88.12-.92.12a3.15,3.15,0,0,0-3,1.78c-.38,1-4.09,2.18-5.76,1.14l-4.22.3a2.28,2.28,0,0,0-1.1.21l-.46.36a.9.9,0,0,1-1.45.06l-.49-.31-.52-.32a1.17,1.17,0,0,0-1.56.67l0,.54,0,.34c.3.37.3.71,0,.76a12.13,12.13,0,0,1-2.3-.26c-.69-.13-2.94-.59-4.43.25l-1.36,0-1.21,0c-1.45-.93-2.64-1.2-2.64-.59a3.77,3.77,0,0,1-3.14,2.49L181,273l-1.18,3.44c-2.18-1.54-3.31-3.35-2.52-4s2.87-2.36,2.37-2.76l-.27-.4c-1-1.49-1-1.45-2.4-.27a34.74,34.74,0,0,1-3.28,2.11l-1.2.75c-1.5.94-1.79,1.7-.65,1.7s3.92,1.33,3.84,2.86l-3.54.52a3.55,3.55,0,0,1-.8-.05c-.37,2.63-2.88,2.15-5,2.75-1.83.51-4.51.1-5.24,1-2,2.46-5.79,2.26-7.86,4.27-1,.92-1.74,1.33-3.09.37a3.71,3.71,0,0,0-2.2,1.12c-.66.9-.78,2.07-2.63,1.7l-1-.21a19.18,19.18,0,0,0-3.41.63l-.39.39-1,.93c-1,1.24-2.31,1.54-2.86.66s-1.6-3.15-1.22-3.27.32-.57-1-.75-4.4,1-3.18,1.86l.83.72.83.71c.84.88.07,2.14-1.73,2.81s-7,.34-6.94-.79l-.5-.32a11.36,11.36,0,0,0-3.54-1.07,2.09,2.09,0,0,0-1.23.27c-.48.27-.88,1-1.26,1-1.58-.11-3.12-.48-4.69-.63s-1.47,2.26-3.44,1.3l-1.66,1.53-1.4-2.12a42.2,42.2,0,0,0-5.23,1.19c-.78.3-3.44.47-3.15-.65s2.71-3.22,1.81-4l-.79-.6a2.9,2.9,0,0,0-.79-.38c-2,2.34-3.77-1.35-5.58-.13l-.63.43A3,3,0,0,1,89.32,289c-1.1-.15-3.78-1.77-3.49-2.68s.51-4.25-.14-4.92L85,280.6,83.54,279a63,63,0,0,0-6.93,1.56l-.55,1.79c-.4,1.32-2.27.08-2.36.14l-2.87,1.85c-2.21-1.6-4.27-3.58-4.58-4.41s-.59-3.17.07-3.37l.36.16a1.33,1.33,0,0,1,.56,1.19L67,280.17a5.72,5.72,0,0,0,4.15-3.9l-1.88-1.49c-2.9-2.29-2.73-3.07-.22-5.89l.38-.42c.35-1.07-.09-1.49-1-.94l-.34.25c-.89.64-1.95,2.11-2.15-.34,0-.17-1-.21-1.46-.46l-.22-.13c0-.42,1-.83,2.13-.9l-.35-1.09c-.44-1.36-2-.51-3-.71l-.36-.08c-.5,0-1.37-1.36-1.92-3.1l-.66-1.54a2.41,2.41,0,0,0-1.39-1l-1.7-.53c-1.87-.47-2.88-1.36-2.25-2s3.69-2.22,3.29-2.86-1.26-2.33-1.05-2.34,2.26.22,4.06.45L60.29,254,60,255a2.51,2.51,0,0,0,2.11,2.32c1,0,3.88-.84,4.31-1.67l.6-.12c2.34-.5,1.78-1.27.55-2.22l-1.41-1.09c-.13-1.39-2-2.43-4.16-2.33l-1.86-.26c-1.31-.19-3.14-.67-1.23-2.4.4-.37-.11-2-.79-2.46l-1.63-1.13c-2.84-.15-3.91.17-2.38.72l.79.63c1,.81,1,1.64-.79,1.84l-.33,0c-.56.31-.39.66.36.78s2.51.81,2.51,1.31a1.84,1.84,0,0,1-2,1.37c-1.09-.17-3.4-1.59-2.88-2.27s-1.44-3.25-2.34-4.38l.12-1.31.37-4.07c-2.51-.1-4.29-1-4-1.89s-2.29-3.34-2-4.92l-3-.16c-1.56-.08-1.18-1.7-.38-2.64l1.82-2.12c-1.75.28-2,.59-.62.69s5.21.25,5.52-.89l2,.25c2,.26,1.45-1.13,1.39-1.95-.09-1.18-1.35-1.22-2-.6l-1.48,1.47A25.09,25.09,0,0,0,43,222.41l-1.6.85a7.07,7.07,0,0,1-3.56-1,1.06,1.06,0,0,1,.08-.91,1,1,0,0,1,.77-.16l1.75,1.65c1.07-1.26,1-2.66-.09-3.13s-4.26-.65-4.09.75.71,5.06-.22,4.75-3.65-.74-4.34-1.23-2.94.15-3.37-.46l.2-.25.58-.72c1-.72-.18-1.73-2.6-2.24L25.3,222c-1.43,2.1-3.33,1-5.13.81l-.35,0c-.67-.21,0-1.15,1.53-2.08l1.29-.75,1.2-.69c-.76-1-.3-1.86,1-2s4.57,1.26,5.28.69-.63-2.8-1.54-2.8-3.41-.59-3.18-1.31l0-.56v-.21c-.31-.26-.26-.57.11-.69s1.22-.61,1.07-.79.21-.9,1.12-1.17l0-.19c-.22-2.29,2.49-2.66,3.71-4a1.44,1.44,0,0,0-.13-1.57L30.7,204a12.61,12.61,0,0,0,2.69-1.8c.9-.76.07-5.08.66-5.15s2.53-1.24,2.67-2.39-1.24-4.24-.48-4.33,2.44-.61,2.34-1l-.21-.1c-.77-.36-1.94-1.09-2.35-.88a28.57,28.57,0,0,0-4.14,2.79l-.37.26a34.81,34.81,0,0,1-5.35,2.76l-1.29,2.12-.2.33c-.64.21-1.86-1.75-2.7-4.35l.09-2.33a1.69,1.69,0,0,0-1-1.31L19.33,188c.43-1.15,1.22-2.17,1.76-2.27s2.24.27,2.32-.42-.14-2.59-.7-2.59-2.44-.58-2.65-1.29l0-.55.15-2.18c1.74-.73,2.83-2.09,2.41-3l-.65-.66-2.08-2.11c1.82.23,2.32.87,1.12,1.43s-3.74-2.38-2.67-4.05l2.48-.54a2.86,2.86,0,0,0-.17-2.44,17.34,17.34,0,0,0-3.72-3l-1.84-1.22c1-1.61.88-3.24-.39-3.6s-3.53,2.89-4.18,3.41-1.48,2.46-1.75,2.26a1.94,1.94,0,0,0-2.05.93l-.83.49c-.83.49-2.38.25-3.09.78-1.91,1.46-2.27-.26-2.75-.89s1.13-2.2,2.35-2.13c1.07.06,2.16,1.28,3.08-.21a2.13,2.13,0,0,0-.41-3l-1.5-1.55c1.57-1.12,3.23-1.66,3.7-1.21l.44,0c.44,0,3.92-4.28,4.06-4.72a2.45,2.45,0,0,0-.93-2.17l-1.4-1c.38-1.45.81-2.36,1-2a1.58,1.58,0,0,0,1.86.53c.72-.4,2.44-2,2.25-2.77s-1.41-3.22-2.21-3.58-2.51,2-3.49,2.33-3.47.4-2.88-.69l-.13-.72c-.27-1.56,1.26-1.3,2.15-1.6s2.16-.41,3.14-.78l.67-.26c.72-.66.75-1.49.08-1.84a33.45,33.45,0,0,1-3.38-2.1c-.58-.49-.07-1.49,1.32-.55s6.45,1.06,6.74-.06l.57-.88c1.08-1.64-.85-.69-1.21-1l-.33-.34c-.19-.45,1.1-.53,2.87-.18s4.69-.47,2.85-.26l1.93-2.38c1.37-1.69.46-3.43-2.2-4.21l-.45-.13c-.39-.54.26-1.24,1.46-1.55s2.25-2.92,3.06-2.92,3.23-1.36,3-3l-2.81-.46c-.73-.12-1.33-1.4-1.65-2.23l-.15-.38a37.78,37.78,0,0,1,4.1-3.4l2,1.88a2.56,2.56,0,0,0,1.58-.55c.93-.93,1.71-2,2.54-3l.71-.86a6.07,6.07,0,0,0,4,.15l-1.71-1.5c-.75-.66-.37-1,1.28-.74,2.3.36,3.58-1.3,5.42-1.66,1.41-.28,1.1-.93,1.37-1.64l1-2.5c2,.73,3.55.42,3.33-.69l.46-.37a38.16,38.16,0,0,1,5.24-3.43l.27-.15c.75.36,1.17.18.94-.42L56,97l-.12-.53c0-.61.4-.8.93-.43l.27-.09a5.7,5.7,0,0,0,1.68-1q2.54-2,5-4.07l.86-.72a4.27,4.27,0,0,1,2.34.8c.15.3,1,.33,1.57-.76s3.16-3.3,3.31-2.73.82,1.84,1.21,1.66,3.93,1.46,5.31,1.65l.46-.62c.87-1.16-.33-1.67-1.09-2.27-1.27-1-1.95,0-2.79.6-1.23.81-.57,1.44.22,2.09l.68.55A5.29,5.29,0,0,0,74.73,89c-.61-.81-.6-2.28.82-2.15l1-.29c1.48-.43,3.3-.75,2-2.9-.8-1.34,1.06-3.33,3.23-3.69,1.32-.22,2-.31,2.17-1.55.08-.53,1.38-1.33,2.13-1.34l3.54,0c4.14-.24,6.91-.33,6.16-.2a1.91,1.91,0,0,0-.89,3l1.94-1.38c.38-.27,1.31-.55,1.49-.41,1.43,1.13,1.51.55,2.35-.6l.63-.86c2.27-.34,3.25-1.74,2.19-3.11l-2.12,1.16-2,1.11c-2.14-1.34-2.9-3-1.68-3.69s5-3.87,7.49-4.09l1.7-2.25L110,61.47c5.61.53,10.21.48,10.21-.12a2.52,2.52,0,0,1,2.57-1.87c1.42.19,3.22-2.5,3.68-2.37s2,0,2.06-.57.65-2.46,1.12-2.65l.27.08c2.1.61,4-.21,4.62-2.07,1-3,1.9-3.6,5.9-3.71.59,0,1.18,0,1.77,0h.15c.11-.14-.66-.88-1.72-1.64l1.78-.13a3.3,3.3,0,0,0,3.21-1.84l.86-1.4c1.5.63,3,1,3.3.78l.26-.21c1.8-1.4,1.75-1.64,5-2.07a18.75,18.75,0,0,0,7.36-3c2-1.18,4.34-1.76,5.73-3.74.79-1.13,2.2-3.4,4.9-1.27l.21.16c1.22-.7,2.05-1.74,1.85-2.3s.45-1.93,2-1.39l.27-.24a4.56,4.56,0,0,1,4.29-.82l2.32.54c2.38-.4,4.57-1,4.86-1.34l.31,0c1.85-.17-1.81-2.56,1.28-2.1l1.24.19c1.44.44,2.7.41,2.82-.08A2.14,2.14,0,0,1,197,25.17l.79-.21A12.42,12.42,0,0,0,201,23.22a14.78,14.78,0,0,1,2.19-1.52c.52-.2,1.43.3,2,.14l1.86-.49c-.05-1.9,1.46-2.32,3.35-.93l.65-.19c1.81-.54,3.82-.46,5.38-1s2.77-2.05,4.95-1.9c.12,0,.47-.53.42-.77-.47-2.42,1.84-2.57,3.08-1.71L228,17c-.3-1.54-.5-2.72-.45-2.61l.16.38c.44,1.08,1.83,1.14,2.07.42.86-2.55,2.35-1.91,4.13-.84l6.66,1.19a13,13,0,0,0,1.29-1.15l2.78-3.15c2.77.87,5.11.91,5.2.1l.32-.61.53-1a7.31,7.31,0,0,0,3.6-.74l.41-.53.59-.74c.62-1.15,4.39-.57,8.39,1.29l4.12-.23c.86-.05,1.55-1.32,2.49-1.8s2.07-1.33,3.05.11l.79,1.15A30.49,30.49,0,0,1,277,12.4l-.82,1.12-.15.22c.38.5,1.55-.18,2.6-1.52s2.67-4.71,3.19-4.23,2.23,1.6,2,2.13a4.22,4.22,0,0,0,2.38,3.5l1.21-.31c.86-.23,2.9-.23,3.14-2.12.11-.94,2.93-.53,4.43.68.73.58,1.78.91,2.54,1.48,1,.75,1.49,3.59.66,3.76-1.14.23-2.14,2-3.67.52-.18-.18-.71-.15-1.08-.15-.92,0-2.18-.21-1.94,1,.07.35,1,.67,1.57.86l.5.16c.83,0,1.44,2.6,1.34,5.73l-3.09,2.06-.3.2a1.86,1.86,0,0,0,2.14,1.08l.05-.26c.39-1.88,1.33-1.68,2.65-.62l1.11.9c1.21,1,1.69,2.16,1.08,2.6l.09.21,1.41,3.09c3-.11,5.79-.45,6.3-.76l.49.89A8.57,8.57,0,0,1,308,39.71l0,.58c.18,1,.56,1.32.85.81s1.19-1.19,1.51-.7,3,1.8,2.9,2.27-1.21,1.68-2,1.68S308,45,308,45.68s1.07,3.3,2.06,3.27,3.79-1.48,3.79-1.92a2.28,2.28,0,0,1,1.92-1.72c1.05,0,3.38.36,2.92.81s-2.18,1.77-1.89,2.34,2.64,2.07,4.12,2.88l-1,1c-.77.74-1.55,1.33-1.41,2.44,0,.32-.89.69-1.27,1.09l-.4.42a.91.91,0,0,0,.35,1.38l.51.1.54.1c.78,0,1.12.63.75,1.37l-.42.56-.49.66c-.79.82-1.56,1-1.71.37s-.88-1.5-1.15.05,5.67,5.19,6.6,5.92l-.66,1.39-.25.53a3.46,3.46,0,0,1,.78,5.17L319.8,75l-1,.56c-.05.61.44.83,1.08.48l.51.07c.84.1,1.62.75,2.42.75s1.67-.74,2.51-.75c1.46,0,3.46-.67,4.22.8,1.09,2.1,4.64,2.92,4.31,5.64-.06.42-.93,1.19-1.18,1.13L329.91,83c-.36,1.69-1.12,4.41-1.68,6l2.71.45.19,0c.3.59-.3,1-1.32.83l-.45-.31c-.86-.59-1.58-.86-2.46-.12-.42.34-.81.93-1.26,1-1.07.09-2.5-.46-3.16-.07s-.36,1.82-1,2.46L318.82,96c.55,2-.15,3.77-1.56,4l-1,.53c-1.91,1-1.67,2.12.41,3.32l1.18.68c1.45.68,2.38.86,2.06.39s-.95-1.81-.66-2.27a4.74,4.74,0,0,1,4-1.07c1.51.47,3.46,4,2.78,3.77s-2.46-.29-2.36.22l.17.09c.77.39,1.66.65,2.39,1.08,1,.57,1,1.7,0,1.81l-2.05.22c.81.69,1.12,1.41.7,1.59s-1.52,1.12-1,1.43,1.48,1.67-.18,1.69l-.92,0c-1.1-.06-1.87.07-1.87,1.21,0,.24-1,.75-1.13.68-1.47-1-2.84-.82-3.46.54s1.23,1.79,2,2.64l.08.09a6.33,6.33,0,0,1-2.63.52l-1.43-.78-.91-.5c-1.71.23-1.79,2.06-.19,4.08l-2.84,1.66c-.14.08.31,1.21.81,1.54l1,.66a4.61,4.61,0,0,0,4.08-.19l-.15-.43-.34-1c-1-1.07-1.31-2-.6-2.05s3.34-.2,4.28-.42,2.32,2,3.24,2.07,4.12-.73,4.78-2.14l.77-1.14c2.09-3.07,6.16-3.21,9.66-4.15.88-.23,2,0,2.78-.31,1.47-.63,2.65-1.85,4.17-2.22l1.11-.26c1.89.62,3.32.53,3.18-.2a23,23,0,0,1-.39-2.72l.34-.06c1.27-.22,3,0,3.75-.65l2.59-2c3.48-.11,6.86-.21,7.5-.2s2.18-.49,2-1.1,2-1.28,2.59-.72,2.75,1.92,2.85,1,2.65-3.52,5.47-4.29l2.76.28a6.27,6.27,0,0,0,5.17-1.52l.59-.52a5.81,5.81,0,0,1,4.19,2.76l-2,1.14-.88.5a14.33,14.33,0,0,0-3,.6c-.6.22-2.85.68-3.16.3s-2.81-.15-4.81,1.44l-1.6,1.38c-2.22,1.92-4.55,3.62-8.05,3.69h-.14c-.2.44-1.74.94-3.43,1.1s-5.81,2.24-6,2.92,1.92,1.34,4-.07l2-1,.61-.3c1.28.38,2.33.32,2.33-.13s1.61-1.08,3.46-.31l1.47-.55,3-1.11c2.78-1.82,5.5-3.17,6-3a2.2,2.2,0,0,1,1.63,2.23l-.05,1.41,0,1.11a6.54,6.54,0,0,0-2.12,2.7c-.15.68-1.37,2.51-2.29,2.36s-2.88.31-3.2-.66-3.62-.44-3.57.25-.28,2.34-1.38,2.18l-.5,1.47c-.59,1.72-2-1.45-2.81-.13l-.68,1.11c-1.21.63-2.05,1.72-1.88,2.42l.43.16a2.91,2.91,0,0,0,2.18-.07c1.46-1.52,3.24-1.93,5.54-1.85L371,125c-.28-1,.09-2,.84-2.09s1.31-1.49,1.69-1.18a9.29,9.29,0,0,1,1.62,1.8c.14.37,2.81-.11,5.65-1.92l-.87-3.16a.55.55,0,0,1,0-.47c.19-.24.48-.62.71-.61a3.38,3.38,0,0,1,1.52.41c.2.11-.06.7.14.87a2.21,2.21,0,0,0,1.36.54c.37,0,1-.6.92-.87l-.45-2.66c1.82-2.25,3.86-3.16,4.53-2l1,.42,1.27.56c.83.91,1.76.67,2.07-.55l.83-.51a7.67,7.67,0,0,1,4.12-1l3.09.2a4.21,4.21,0,0,0-.14-5.72l-1.45.81c-1.46.83-1.74.25-2.62-.28a3.65,3.65,0,0,0-2.36-.56c-.83.25-1.32,1.35-2.14,1.52-.66.15-1.57-.7-2.41-.78a3.86,3.86,0,0,0-2,.66l-1.69.92c-.19,1.8-1,2.5-1.91,1.56s-3.83-1.68-3.14-2.16l.85-.07c1.14-.1,3.2.06,3.3-.23l.83-2.6c2.72.08,5.25-.24,5.61-.71s2.05-.52,2.42.38l.64.2c1.83.6,1.45-1,1.92-1.64,1.21-1.75,2.62-3.17,5.41-3.1l.86,0c1-.15,1.12-2.16.35-4.48l-3.49,1.6a3.81,3.81,0,0,0-1.37.75c-.95,1.22-2,.84-3.06.21l-.17-.09c-2.61,0-4.74-.28-4.74-.72s1.34-1.33,3-.83l.92-.4a9.07,9.07,0,0,0,3.14-3c.71-.92,2-1,2.13-.32l.37,1.55a8.47,8.47,0,0,1,5.05.23l.9,1.78c1.23,2.44,2.9,2.46,5.25.76l.74-.53c.74-.63,3.17-.2,5.39,1l2.58-.34c1.57-.21,2.53.18,2.68,1.61a3.34,3.34,0,0,0,1.53.25c.2,0,.49-.46.54-.74l.31-2a21.82,21.82,0,0,1-4.39-.46c-.44-.18-1.16-1.32-.08-1.85l.85-.32c1.7-.63-.47-1.85.16-1.95,1.6-.23,1.69-1.74,2.45-1.94a8.88,8.88,0,0,1,5,.06c1.2.47,1.82.37,2.1-.31l.63-1.55a42.06,42.06,0,0,1,7.37-.1l1,2c.2.41.76.71,1.15,1a1.7,1.7,0,0,0,2.45,0c.75-.58.44-1,.3-1.73L443.67,88c-1.91-.51-2.64-1.6-1.61-2.42s5.52-2.12,6.35-3.26l1.86,1.27c.48.33,2.1-.27,3.07-.65l1.16-.45c1.14-.67,1.92-1.37,1.72-1.55s-.85-1.16-.09-1,2.57.36,2.74.07a3,3,0,0,1,2.73-.59,33.8,33.8,0,0,0,4.07,1.33c.09-.09,0-.65-.41-1s-.46-1.8,1.6-1.43l.92.68.76.55c.22,1.28,0,1.32-.41.09s1.07-4.3,1.53-3.94l.44.21c.77.39,1.8,1.14,2.36,1,1.09-.33.53-1.09.15-1.89-.54-1.13.83-2.66,2.55-2.76l2-.11c-.26-1,.21-1.58,1.06-1.23s5.14-2.16,6.2-1.34l1.06.59A1.85,1.85,0,0,0,487,70a1.06,1.06,0,0,0,.12-1.23l-.6-.68c-.95-.7-1.21-1.41-.58-1.59l.36,0,1.45-.1a3.9,3.9,0,0,0,3.84.39l.61-.88.37-.53a1.38,1.38,0,0,1,1.93.14c.44.55,1.74.46,1.76-1.61l3.19.61c.18,0,.67-.59.83-1l.67-1.63c1.46.52,2.5,1.29,2.3,1.7s.54,2,2.33,2.17l1.15-.35c.73-.23,2.83-1,.74-2.33l-.12-.07a1.91,1.91,0,0,1,2.28-.72l0,.36c.12,1.2.5,2.52-1.17,3.42l-.88.47c-.94.88-1.11,1.66-.39,1.75s2.14.69,1.14,1.09-2.46,2.31-.45,3.07l1-.36c1.51-.55,2.52-1.36,3.85.1a2.84,2.84,0,0,0,1.47-.32V69.6c2.2.27,3.78.28,3.51,0s-.63-1-.34-1.22l.31,0c3.48-.64,4.48,2.47,7.09,3.2.11,0,.05,1.31-.33,1.51l-1.21.62c-1.47.47-1.81,1-.76,1.14s1.56,2.29.2,2.33-3.49,1.82-2.11,2.35,6.33-2.35,8.47-2.26l1.29.85c1.38.9,1.79,0,2.69-.11,1.1-.15,2,.07.68,1.17-.3.25,0,1.5.14,1.51.9.07,2.29.23,2.66-.18.7-.77.4-2.27,2.54-1.3,1.52.69.5,1.58.57,2.39l0,.24c.6.37.36.74-.53.81s-3.13.55-3.08.92l.15,0a24.29,24.29,0,0,0,3.18.68l1,.12c1.18,0,1.83-.34,1.45-.73s.92-2.07,1-3l-.59-.71c-1.63-1.94,1.5-.5,1.44-1.36,0-.28.33-.7.18-.86-1.49-1.6-.7-2.33,1.41-2.7l.51-.09a2.41,2.41,0,0,1,2.36.23,14.52,14.52,0,0,1,3.1,2.63c.15.46.15,2.19-.38,2.62s-1.84,2.15-1.26,2.5,2.51.84,2.85.27,2.24-1.93,3.32-1.5,3.05-2.59,3.29-3.52,1.84-1,3.6.82L565,77c.09-.08.43.05.57,0,1.58-.82,3.7,1.43,4.16.29.69-1.7,2.74-1.66,3.41-2.6.93-1.31,1.15-2.36,3-.83l.1.08a9.54,9.54,0,0,0,2.11-1.51l1.22-.26,2-.43a32.34,32.34,0,0,1,5.09-1.62c.74-.1,1-2,1-2.34s1.21-.6,2.69.38l.58-.21c2.06-.76,5-.42,6.06-2.42.55-1.08,1.23-.9,2.13-1a14.4,14.4,0,0,0,6.33-2.43c.39-.27,1.35-.53,1.49-.4,2.13,2,3.24.28,4.62-.74a4.86,4.86,0,0,1,2.32-1.16l2.43,0a4.56,4.56,0,0,1,4-3c1.69,0,6.09-.47,6.1-1l0-.43a2.57,2.57,0,0,0-.8,0l-1.17.22c-1.62.33-1.15-1.15,1-3.29l3.45,1.65c1.39.67.24-.68.32-1.14l.33-1.79c2.23,0,4-.6,4-1.43a11.29,11.29,0,0,1,.33-3c.18,0,.72.59.78,1.36s.69,3.07,1.25,3.07,2-.35,2-.78.14-1.78.64-1.84,1.93-.48,1.78-.76.37-.93,1.42-.88v.13c.21,1.54,1.2,2.29,2.42.91l1.35-1.53a46.39,46.39,0,0,0,6.63-1.45l1.6-.38,2-.49c2.37-1.13,3.52-2.39,2.56-2.81l-.29-.49-.5-.82c-.22-1.06.25-1.36,1.06-.66s3.45,2.45,4,2,3.61-2.31,5.52-3.52l3.61.15,2.85.12c1.06-1.52,3-2.39,4.23-1.94l.87-.23c2.23-.59,4.08-2,6.62-2.05h.13a2.27,2.27,0,0,1,1.21-1.17c.53-.22,2.3.19,2.4-.33a2.72,2.72,0,0,1,2.69-1.41l1.14.26,1.23.27c1.59.44,3.48.18,4.21-.58A32.84,32.84,0,0,1,706,26.08l1.9.43c1,.23,2.34.65,3.12.33s1-1.85,1.78-2.11,2.25.43,3.36.37a31,31,0,0,0,3.07-.88L720.6,24l4.81.2c1,0,3.07-2.11,3.59-2.31s2.68-.63,3.62-1.87l-1-1.52-.17-.27c1.31-.92,3.06-1.21,3.88-.63l.57.63c.11.13-1.43.68-.15,1.19l1.09.42c1.3.37,2.48-.08,2.64-1s-.08-3.36.94-3.47,2.6-.06,1,.58l.05,1.51c0,.45.82,2.82,1.32,2.89l1.26.19a11.55,11.55,0,0,1,2.39-3.76l2.11,1.47c.54.37,2.65-.54,3.89-1.1,1.61-.72,3-2.11,4.63-2.42,1.88-.35,1.34-1.18,1.54-2a1.41,1.41,0,0,1,.9-.91,2,2,0,0,1,1.38.52c.44.45.54,1.11,1,1.58.59.66.42.41,1.65-.54l1-.78c1.68-.38,3.18-.45,3.34-.15s2.88.56,5.69-.18l1-2.41.14-.33c.69-.22.72-.44,0-.49l-.35-.27A1.42,1.42,0,0,1,774,7.48l.45-1.83c-1.72-1.25-2.14-2.68-1-3.17l1-.35c.5-.17,1.48-.13,1.54-.34,1-2.95,2.77-1.57,4.56-.65l.43.22c.82.08.64.49-.4.91l-.77.32c-3.72,1.6-3.69,1.59-2.39,5.05l.26.68c0,.86,1,1.31,2.28,1l1-.05.66,0c.74.22,1,0,.66-.5l0-.47c-.1-1.49,2.87-3.58,4.46-2.81l2,1c2.32.51,4.71.66,5.33.33s3,.7,4.46.25L800,6.88c.41,0,1.08-.49,1.09-.76.08-1.64,1.59-1.18,2.55-1.08,1.86.18.72,1.49,1.05,2.27l.06.13a6.27,6.27,0,0,0,2.5-.44c1.23-.37,4.14-2.54,5.91-2l1.57-.06,1.36-.06c1.46-.71,2.5-1.43,2.31-1.6s1.27-1.33,4.15-1.78l1.18.82,2.2,1.51c1.59-.95,2.68-.69,2.42.58s3.16,2.74,2.92,1.77.44-3.3,2-3.14,5.88,1.84,6.57,1.28,3.33-1.85,4.27-1.57,2.79,3.58,3.53,4.47,2.59,3.34,2.27,3.43a1.14,1.14,0,0,0-.12,1.9l.83.1c1.18.15,2.23.16,3.05,1,.67.72.76.66-1,1.16l-3.64,1a59.4,59.4,0,0,1,2.21,6.41h0c-3,.33-1.46,1.18-.72,2.42l1.07,1.75a19.27,19.27,0,0,0,3.73,3.5l.53,0c1,.05,2-.09,1.93,1.13-.08,1.74.34,2.48,2.63,1.22L861,32c1.5.66,2.18,1.5,1.49,1.86s-2.54,1.89-2,2.3,1.13,1.47.5,1.63l-.19-.19-.81-.8a6.07,6.07,0,0,0-2.56-2l-.31.2a1.14,1.14,0,0,0-.41,1.22c.34.54,1.16.88,1.56,1.41a2.29,2.29,0,0,1,.55,1.61c-.09.55-.71,1-.95,1.58-.07.16.48.71.57.68,2.36-.71,1.1,2,3.06,2,2.84.13,3.9,2.48,5.37,4.06.71.75,1.71,1.87.56,3.44l-.85,1.16c.38,2-.07,4-1,4.35s-3.82,0-4.28.59l.18.24c.5.66,1.42,1.11,2,1.75a1.26,1.26,0,0,1,0,1.26l-1.16,2.07a3.07,3.07,0,0,0,3.19,2c1.34-.18,4.53-.28,4,.16s.75,2.19.91,2.58l-.81.33-.79.31a4.76,4.76,0,0,1-3.27,1.56l-.6.57c-.67.64-.69,1.7-1.29,2.41a13.13,13.13,0,0,1-2.35,1.8l-.3.23c-.32.26.33.88,1.43,1.39l.54,1c.16.3,1.85.32,2.63,0s1.32-1.34,2.14-1.54c.65-.16,1.55.65,2.39.74l1.43.17a1.53,1.53,0,0,1,.54-2c.65-.31,3-.62,3.77.07s2.52,2.89,2.39,3.37,0,2.13.74,2.37l.15-.11,1.81-1.28c2.2.63,3.09,1.08,2,1l-.66.36c-.76.41-3,.67-1.19,2.23.08.06-1.15,1-1.53,1.64a2.87,2.87,0,0,0-.18,1.56l2.87.4c1.33,1.77,2.47,3.09,2.54,2.93a1.48,1.48,0,0,1,1.67,0c.73.48,3.33,1,4.16.09s4.08-3,5.42-2.61,1.27,4.08.55,5l.4.78.48.94c1.08.82,3.27,0,4.87-1.76l2.38,2.11c.13.11,1.35-.25,1.37-.45.22-2,2.5-1.79,3.94-2.36L911.3,90a2.25,2.25,0,0,1,1.19-2.37h.82l3.36,0c.05-1,.09-2.75.09-3.78s1.54-3.49,3.42-2.31l1.26.94c.17.13-.11,1-.47,1.2l-.88.56c-1.12.36-1.83,1-1.58,1.44s.11,1.84.63,2,2.17.44,2.26,0,.85-1.65,1.47-1.4,1.62,1.64.7,2.47-2.52,3.6-1.83,4.14,2.65-.57,2.8.3-5.3,5.23-5.47,4.51l1.3-.32c2.42-.59,1.21-2.14,1-2.49l-.93-1.47c-1.26.92-2.58,1.41-2.93,1.1s-1.69-.77-1.76,0l-.17.57-.13.4a1.43,1.43,0,0,1-1.69.18l-.51-.32c-.5-.32-.91-1-1.42-1l-1.48-.13c-1.47,0-3,.72-3.33,1.5a3.6,3.6,0,0,0,.79,3.08c.57.44,2.57,1.08,3.06.46s3.15-2.3,4.47-1.89a63.74,63.74,0,0,0,7.44,2l1.48-.36a2.32,2.32,0,0,0,2-2.55,4,4,0,0,1,.6-2.17l.18-.37c1-.66,1.61-.61,1.33.1s-.15,2.68.76,3.23,4.79-1.83,4.41-2h-.35l-1.17,0c-1.19.28-1.81-.21-1.39-1.1l.75-.65,1.34-1.17C934.25,91,936,90,936.61,90s2.58-.31,2.58-1.2.35-3.11.78-3l.18.2c.49.51-.13,1.64,1.42,1.58l1.58-.06a2.44,2.44,0,0,1,.23-2.19,3.39,3.39,0,0,1,2.1-.31A8.14,8.14,0,0,1,946,88.9l2.39.51,1.78.37a4.93,4.93,0,0,1,4.75-1.34l1.17.76.35.23a1.6,1.6,0,0,0,1.42-1.21l-.16-.5-.17-.55c-.48-.58.37-1.33,1.9-1.68L960.5,85a3.45,3.45,0,0,1,3.67.2,2.47,2.47,0,0,0,1.94,0l3.13-2c1.64,1,2.26,2.11,1.36,2.45l-.71.4c-.18.1-.1.63,0,.91a1,1,0,0,0,.78.24l1.66-.63c1.06-1.31,1.39-2.78.73-3.26s-2-2.41-.63-2.56l.72,0,1.57,0c.94-1.06,2-1.55,2.42-1.09a5.51,5.51,0,0,0,4.37.76c1.56-.57,3.94-4.22,5.52-3.7l-1.58,1.56c-1,1,0,1.59,1.55,1.59h.57a1.06,1.06,0,0,1,.33,1.63l-.54.22c-1.51.62-3,1.7-2.08,2.86L987,86.82a18.05,18.05,0,0,0-3.6,3.28c-.24.5,0,2.32,1.17,2.32s3.27-.1,2-.22-5.15,2.4-5.42,2.84-2.41,1.78-3.76,1.37-4.18,2-5.38,1.51-5.77,3-8,1.92l-1.6,2.74-.28.48c-1.8.1-2.67.8-1.92,1.57l.13.65c.17.86.26,1.75,1.56,1.41,2-.52-.52-1-.16-1.48,1.84-2.53,3.82-2.86,8.45-1.59l2.25.61a4.36,4.36,0,0,1-.47-3.86l1.64,1.21a6.8,6.8,0,0,0,2.42,1,3.16,3.16,0,0,0,2-.13l1.1-.59a10.36,10.36,0,0,1,2.65,1.84c.48.53,2.15,1,2.48-.44l-.74-1.34c-.54-1,.49-1.85,1.66-1.41a5.49,5.49,0,0,0,4.8-.06c1.39-.77,1.49.49,2.06.85s-1.76,1-.18,1.53c.45.16,1.27-.46,2-.65a1,1,0,0,1,.79.21c.13.28.22.81,0,.91l-1.15.67c-1.51.74-2.17,1.65-1.46,2s2.67,1.92,2.67,2.61.65,3,1.45,2.72,2.85-.49,3-.09l-.12.13a8.3,8.3,0,0,1-5.5,2.93c-1.86.07-.39,2.5-2.22,1.63-1.61-.78-2.2-1-2.58.84l-.48,2.26a35.29,35.29,0,0,1-6.2,3.15l-.89-.1-2-.21a1.37,1.37,0,0,0,.58,2.18c.88.31,2.75,1.92,1.22,2.58l-1,.27-1.76.45c-.13-1.13-.93-1.75-1.76-1.38s-3-2.21-3.43-3.52l-1.78-.33-.19,0c-.43,0-.2,1.73.52,3.8l.75,1.82.19.45a1.33,1.33,0,0,0,1.76-.25l.39-.43.17-.19c.54-.28,1,.11,1,.86s-.26,2.61-.58,2.43a6.38,6.38,0,0,0-2.82-.45l-.94-.28c-1.17-.34-1.54.33-1.6,1.3-.08,1.34,1,1.93,2.1,2.46.51.23,3.68-1.43,3.84-1.91l0-.15c0-.36,1.62-1.45,3.65-2.44l1.78-.11,1.68-.11a2.53,2.53,0,0,1,3.54,1.65l.91.38L990,132a10,10,0,0,1-3.41,4.13l-.63,1.12-.72,1.27a11.63,11.63,0,0,0-4.27-.72c-.78.14-9.16,2.42-13.48,3.34l-.19-2.37a2.24,2.24,0,0,0-1.49-.29c-.36.14-.65,1.11-.6,1.13,2.05.85,1.54,4,5,3.66.24,0,.8.6.85.95.17,1.3,1.66,1.15,2.14.86,1.41-.85,3.57-2,3.59-3l.06-2.59c1-2.61,2.28-4.52,3-4.24s2.82-1.07,3.25-.45,2-1.21.64-2.14l-.73-1.06c-1-1.42-2.24-1-3.3-.51a3.42,3.42,0,0,0-1.45,1.86l-.69,1.65c-1.79,1-4.14,1-5.23.12l-1.3,1.39-.78.84c-1.07.94-1.28,2.14-.46,2.68s6.25.23,7,.7,1.46,4.37-.07,5.79-8,.18-7.78-.17-.33-1.48-1.86-1.33-4.61-1.24-3.72-1.62l.62-.48.15-.11c-.37-.59-2.28-1.24-4.25-1.44l-1.92.19c-1.52.15-3.24-1.12-4.87-1.76l-.17-.06A10.53,10.53,0,0,1,953,138a4.67,4.67,0,0,0-1.48-3c-.64-.37-2.7.2-2.23.38a1,1,0,0,1,0,1.83l-1,.27-1.42.4c.29.85,0,1.55-.57,1.55s-2.22.44-2.22,1a2.32,2.32,0,0,0,2.05,1.86l.87-.14.44-.07c.42-.28.83-.24.89.07s-.27,1.15-.88,1.15-1.23.59-.32,1.3l-1.71.58a3.1,3.1,0,0,1-2.22-.1l-.86-.61a19.55,19.55,0,0,0-2.61,1.73c-.77.6-2.44,2.61-1.63,3.07s2.4,2.35,1.07,2.78l-.33-.15c-1.89-.84-4.81,0-5.79-2.42-.08-.2-1.31-.25-1.91-.11l-.86.2c-1.39.66-1.64,1.55-.55,2l.63.51c.8.66,1.32.89,2.17.06.13-.13,1.07,1.87.62,2.26a2.39,2.39,0,0,1-.94.43c-1.4.34-2.82.61-4.21,1l-1.72.46c-.07,1.32-.5,1.95-1,1.4s-.16-2.92,0-3.53-2.6,0-3.09,2.7l.32,1.84ZM754.39,177.46c-1.56-1.42-1.84-2.6-.62-2.61s5.12-3.85,4.37-4.12-2.23,1.72-2.77,2.32l-1-.23-2.59-.61a4.06,4.06,0,0,1-3,3.32l-.45.72-.57.92c.24,1.58,1.23,2,2.21,1l.79-.13ZM958.11,97.75c0-.34,1.21-.37,2.74-.06l1.31.43,1.37.45c1.39.65,2.74,1,3,.8s.2-1.25-.62-1.92l-3.43-.4-.39,0c-.27-1,1.07-2,3-2.29s6.73,0,6.43-.79-1.9-2.49-2.85-2l-.66.48-1.3,1a16.12,16.12,0,0,0-3-2.11l-.93.54-1.6.91c.23,1.37-.32,2.48-1.24,2.48S956.24,97,954,96.93l-.66,2.12-2.67.24-2.33-.46c-1.94,1.32-3,2.87-2.27,3.43s2,2.56,1.2,3a3.93,3.93,0,0,1-4.33-1.89l-1.3-2c-.48-.76-.55-1.54-1.74-1.25a6.15,6.15,0,0,0-2.81,1.29c-.62.65-.49,1.73-.94,2.52s-1.61,1.22-1.6,1.82c0,2.17,1.35-.18,1.89.29.22.2.46.64.34.8a14.15,14.15,0,0,1-2.26,2.81c-1.17,1-2.66,1.74-3.87,2.7-.49.38-1,1.22-.83,1.56.52.88,1.44.73,2.32.11a1.46,1.46,0,0,1,1.19.06c1.43,1.22,2.78,2,4.9.76l1.29-.78c1.64-.76,2.65-1.61,2.25-1.89a1.83,1.83,0,0,1,.94-2.65c1.5-.76,6.72-1.9,8.26-.84l2.11.15,1.55.11c1.69,1,2.88,1.36,2.63.71s.52-2.84,1.21-4.43l-.86-1-.82-1c-1.9-.51-3.45-1.4-3.45-2s.28-2.08.64-2l.33.09c1.57.43.84,3.1,3,2.41.74-.24.53-2.42.74-3.72Zm-84,14.4c1.82-2,2.78-3.35,2.12-3l-.2.5a4.22,4.22,0,0,1-2.85,2.37c-.65.23-1.42,1.46-1.18,1.86.7,1.17,1.62.42,2.54-.1.26-.14,1.09.55,1.67.58.85,0,2.27.19.85-1.12-.33-.3-.24-1.15,0-1.57a20.86,20.86,0,0,1,1.84-1.79c.16-.18,0-.65-.15-.87l-.19-.2c-3.42,3.13-7.66,5.31-9.4,4.86s-4.77-1.86-4.47-.13L865,115a2.18,2.18,0,0,0,1.44.36l2.11-1.91C869.51,115,872.32,114.15,874.15,112.15ZM876,124.1c-2.91,1.34-5,2.05-4.53,1.59l.46-.2A12.18,12.18,0,0,1,874,125l.94-.23c1-.41.91-.91-.11-1.12l-.36-.89-.1-.25c.07.13-.78.9-1.9,1.7s-3.74,3.28-3,3.45l.55.23.54.23a8,8,0,0,0,1-.19c.56-.13,1.69-.64,1.07-.82s4.39-4.11,5.6-4.21,2.78,1.94,2.61,2.09h-.13c-1.2-.1-2.06.32-1.63,1.27.66,1.45,1.2-.43,1.84-.17l.43.18c.7.53,1.34-.25,1.42-1.75S878.92,122.75,876,124.1Zm-246.35,127a4.45,4.45,0,0,1-3.87.9l-1.1-.21c-.49-.09-1.1.27-1.65.42,0,0-1.72,1.3-1.73,1.34-.18.54-.7,1.4-.46,1.57.78.58,2.07,1.43,2.73,1.23a16.6,16.6,0,0,0,4.11-2.29l.19-.12c-.37-.78-.11-1.25.57-1a7.42,7.42,0,0,0,3.9-.22C633.26,252.13,630.73,250.17,629.65,251.06ZM871.1,165.73c3.62-.56,4.87-.87,2.8-.69l2.53-2.07.24-.2a2.24,2.24,0,0,0-2.13-1.14l0,.17c-.24,1.36.2,3-.58,4l-.63.86a17.13,17.13,0,0,0-2.53,1.65,6.6,6.6,0,0,0,2.91.73l1.4-.21c.47-.08,1.19-1.38,1-1.54l-2.28-2.07c-3.1,2.41-5.61,3.62-5.57,2.71s3.36-2.21,3.68-2.71l-.07-.45c0-.21-1.12-.59-1.4-.45-2.25,1.13-4.44,2.18-7.3,2-.55-.05-1.31,1-1.78,1.67l-.13.19C861.65,168.66,867.48,166.29,871.1,165.73Zm-45.59-20.94c-2.23-1.13-3.54-1-2.91.33l.7,1.19a1.55,1.55,0,0,0,1.2.4l.5-.06a.82.82,0,0,0,.34-1.23l-.35-.29c-.44-.37-1.41-.76-1.36-1,.43-1.81,1.09,0,1.62-.07.28,0,.68-.7.63-1-.24-1.57.7-1.89,2.36-1.78a1.45,1.45,0,0,0,1.15-.68l.09-.35c-.35-.46-2.09-.8-3.87-.77s.42,8.22.57,9.95l-2.4.49-2.66.54c1,1.39,2.25,1.89,2.84,1.12s3-.95,3.37-1.66,2.8-.22,3-.54S827.75,145.92,825.51,144.79Zm108.68-3.71c0-1.47.79-2.63,1.85-2.57l.73-.14.75-.13c.81-.37,1.54-.09,1.63.62a2.72,2.72,0,0,0,3.26,1.52l.32-1.32c.32-1.33-.82-2-2-2.55l-1.5-.69c-2.06-.66-4-.66-4.21,0s3.91,9,4.13,7.48l-1.47-.74-.29-.15c-.73.37-1.34-.08-1.35-1l-.51-.51-.78-.78c-.18-.95-.7-1.77-1.16-1.81l-.33.11-.37.12a4.26,4.26,0,0,0-.94,1.7C931.81,140.9,934.23,142.55,934.19,141.08ZM337.14,122.49c8.75-3.51,13.87-5.1,11.37-3.53s-3.17,3.89-1.3,2.62l1.94-.76,2.19-.86c-8.59,2.5-14.25,4.87-12.57,5.28l1.06.2.36.06a1,1,0,0,0,.65-1.19l-.34-.15c-.72-.33-2.19,0-1.78-1.2.18-.49,1.35-.71,2-1.14s1.46-1.62,2.07-1.57l3.59.32c-1.07-1.59-2.7-3-3.64-3.21l-.23.24-.77.79c-.76,1.27-1.73,1.91-2.16,1.42s-2-1-1.9.7l-.27,1Zm573.21-3.33c.29,1.08-.15,1.23-1,.33s-4.38.81-4.15,1.45l.49.25c.9.44,2.13.46,3,.94s1.12,1.57,1.9,1.78l.75.21A8.26,8.26,0,0,1,914.6,123c.75,0,2.17-1.85,3-2.89s3.15-5.38,3-3.69l1.69.75c.46.2,1.54-.65,2.39-.85s1.62.08,2.26-.16l.69-.26c.91-.87.69-1.53-.49-1.47l-.48.14c-.53.15-.93,1.24-1.51.14-.16-.3.27-.83.48-1.23,0-.07.35,0,.54-.07,1.83-.23,1.57-1,.72-1.9l-1.1-1.19c-1.73.34-2.93,1.09-2.68,1.65s.54,2.2-.12,2-3,2.14-3.57,1.94-3.08,1.1-3.91,3.59l-3.65-.28Zm-594,14a27.45,27.45,0,0,0,6.91-3.36c1.28-1,6.07,1.16,6.55,2.29l.58.9a2,2,0,0,0,1.32.53c.45-.36,1.06-1,.93-1.35l-.5-1.38c-.81-1.5-.52-2.8.65-2.88s1.25-3-.1-2.92l-1.1-.08-1.5-.1a3.13,3.13,0,0,1-3.48.89l-.35.28-2.05,1.7c-1.32,2.38-4,3.68-5.9,2.89l-.29.25c-1.32,1.16-2.87.65-4.32.86l-.4.06a1.47,1.47,0,0,0,.35,1.82l.37,0Zm533,6.7c4,.76,8.61,1.55,10.32,1.75l1.12-1.35a3.11,3.11,0,0,1,1.85-.89l.69-.07a1.45,1.45,0,0,0,1.89-.64l1-.41c1.15-.45,1.75-2.56,2.63-2.58l3.14-.05c-.61-1.57-.43-2.86.39-2.86s2.85.35,2.92.76l.1.29a7.94,7.94,0,0,0,.68,1.66,1.74,1.74,0,0,0,1.06,0l.28-.71c.15-.8-1.89-2.71-4.52-4.25l-2.26.66-2.09.61c-1,1.42-2.29,2.47-2.74,2.33s-1.92,0-2.24.66l.08.55.09.64c.41.56-.47,1.26-2,1.55s-5.26,1.46-5.26,2-6.52,4.06-4.69,3.16l3.23.47a2,2,0,0,0,1.41-.94c.4-.75-.11-1-1.12-1a6.63,6.63,0,0,1-2.16-.29Zm-79,31.48c0-.66,2.71-2.64,6-4.41l3.85,1.89c.24.11,1.2-.49,1.6-.91.91-.94,1.5-2.14,2.57-2.91.74-.52,2.67-.95,3-.64,1.2,1.07,2,.7,2.53-.21a2.58,2.58,0,0,0,.08-2.52l-1.15-1.4c-2.84-.55-4.61-.55-3.94,0s1.26,2.07.47,2.68-4.73,0-6.68,0l-1.59.43c-1.71.46-.48,1.93-.82,2.91l-.1.28c-.22.28-1.91,0-3.75-.66l-1.83.6c-1.6.52-.21,1.77-.66,2.29-.67.79-2.46,1-3,1.81-1.18,1.75,2.7.8,2.3,2.43l-.05.2C769.91,173.92,770.42,172,770.42,171.38ZM340.89,129.82c-.59-.21-1.07.4-1.07,1.35s-.82,2.54-1.84,1.69l-.67-.76a2,2,0,0,0-1.5-.36c-.35.11-.78,1-.67,1.06l2.15,1.55c-.34,2.21-.21,3.61.3,3.1s2.52-1.6,3.39-1.36l0-1.1v-.44c.2-.72.73-.92,1.17-.43s1.81,1.41,2.07,1,1-1.32,1.27-1.15,1.31.15,1.31-.78.43-3.22,1-3l.27.1.27.11c.31.12.58-.26.6-.85s-3.83-3.82-4.38-2.74S341.47,130,340.89,129.82Zm71.9-27.51a.68.68,0,0,1-1,.08,1,1,0,0,0-1.31.74c0,.63-3.09,1-4.72.18l-1.45,1.35-.45.41c-.19.67.39,1.4,1.3,1.63l.31-.24c1.11-.85,1.47-.73,1.57.47a1.07,1.07,0,0,0,.58.74c1.5.61,2.78-2.27,4.46-.22l0,0,3.61-1.14-.48-1.58-.18-.6c-.41-.62.52-.64,2.07,0l1.22.62a1.84,1.84,0,0,0,1.47-.39,1.05,1.05,0,0,0-.19-1.22l-.53-.34c-1-.21-1.32-1.36-.73-2.56l1.75,1.25.14.1a.64.64,0,0,0,.29-1.07,14.83,14.83,0,0,0-4.29-2.42l-1.23,1a11.78,11.78,0,0,0-2.12,3Zm553.74,21.41c1.41-.09,2.05-.78,1.42-1.55l-.44-.63c-1-1.52-1-1.48-2.39-.31-.85.69-2.17,1.06-2.83,1.83l-.73.86c-.57,1.66-1.9,1.78-3,.25l-.89-.84-.24-.23a3.22,3.22,0,0,0-2.16,1.69,5,5,0,0,0,1.77,4.1l.94-.19,2-.43C962.16,127.29,965.12,123.8,966.53,123.72Zm-76.9-27.21c3.28.23,7.53-.63,9.45-1.91l-4.22-.47c-1-.1-.06-2.2-1.84-1.72l-.79.22a6.71,6.71,0,0,1-1.66,2c-.34.15-1.42.3-1.61,0l0-.29,0-.33a.71.71,0,0,0-.64-.84l-.28.13-1.27.59c-3.47,3.52-4.21,5.66-1.64,4.77l2-1Zm13.89,59.12c-.95-1.16-2.27-.91-2.94.56l-.88.24c-1.23.34-2.85-.39-4.29-.32A16.3,16.3,0,0,0,891,157c-.32.12-.1,1.17-.24,1.77l-.06.25c-.23.15-.94,0-1.59-.37s-3.09-.69-3.14.53l.11.74c.33,2.23,1.46,2.62,4,1.59.77-.31,1.67-.07,1.94-1.2.31-1.3,1.67-1.76,3.44-1.87,1.37-.09,2.57-1.35,4.19-.87,2.36.69,1-2.12,3-2ZM792.3,158.28c0-.9-.26-1.43-.57-1.18a3.27,3.27,0,0,0-.78,2.32,21.6,21.6,0,0,0,3.82,5.57l2.11-1.54a14.91,14.91,0,0,0,2.45-2l.36-.4a1.24,1.24,0,0,0-1.32-1.2l-.64.11c-.52.09-1,.55-1.47.52-1.35-.08-.61-.5-.36-1.09l.16-.41C795.35,158.25,792.3,159.17,792.3,158.28ZM251.47,190.77a1.78,1.78,0,0,1,.15,1.95c-.35.56-.58,1.88.32,1.62l.57-.37c.8-.51,1.66-1,2.49-1.45l2.34-1.35c-.3-2.1-1.54-3.62-2.75-3.37S251,190.26,251.47,190.77ZM265,180.54c.81.05,1.48,0,1.49-.13a4.46,4.46,0,0,0-2.3-.65l-.8-.48c-.87-.53-1.14-.35-1.73.14s-.27.81-.23,1.36l.18,2.5c1.86,2,4.54,3,6,2.25s4.3-3.15,2.86-3.56l-.13.15c-2,2.49-4.26,1.06-6.43.4a1.22,1.22,0,0,1-.65-1.1c.05-.3.65-.67,1.08-.75Zm635.11-82c-.75-.33-2.35.16-3.56,1.07l-.94,1c-.3.3,2.36.87.13,1.37-1.68.37-1.77.93-.86,1.86a16,16,0,0,0,2,1.67l.17.12c.35,0,.71-.58.79-1.24s1.21-2.47,2.31-2.55S900.84,98.82,900.08,98.5ZM296.24,116.42c.63,1.78,1.89,2.59,2.81,1.8l.6-.4A62.5,62.5,0,0,1,305,114.5c1.56-.83,1.67-1,1.16-1-1.17,0-2.08-.32-1.62-1.28l.26-.54c1.53-.61,1.63-1.13.22-1.15l-.73,0c-2,.14-1.9.55-2.82,2.71-.43,1,.8,1.36.41,1.68a5.41,5.41,0,0,1-2.79,1.3Zm516.93,33.35c-.51-.54-1.56.29-2.33,1.85l.34,1,.4,1.21a12.78,12.78,0,0,0,4,2.31c.82.14,3-.35,3-1.18S813.68,150.31,813.17,149.77Zm136.38-18.71c-.38.69-.61,1.35-.5,1.45a2.06,2.06,0,0,0,1.54-.3c.63-.38,2.72-.59,2.67.7l.15,1c0,.24.81.5,1.28.58.27.05.86-.21.9-.39.14-.61-.21-1.59.17-1.81,1.69-1,.06-1.74-.06-2.58-.26-1.81-2.13-.69-3.19-1.07-1.85-.66-1.91-.52-2.72,1.72ZM326.8,142.28c.76-.15,1-1.2.48-2.32l-.46-.92a1.32,1.32,0,0,0-.72-.61,2,2,0,0,0-1.1.07c-.16.06-.28.55-.18.62,1.3.92.58,1.41-.58,1.13-1-.24-1.63-1.41-2.62-1.66s-2.52,0-2.92.45c-.61.75.22,1.31,1.47,1.36.29,0,.64.94.74,1.48l.12.72c0,1.18.83.87,2-.69l3.31.32Zm663.46-31.61a2.19,2.19,0,0,0-.19-2.76l-.76-.12a4.13,4.13,0,0,0-2.38.93,23,23,0,0,0-3.3,2.71l-.47.46c-.38,1.22-.11,1.78.58,1.25s2.7-1.5,3-1.09S989.66,111.4,990.26,110.67ZM146.92,283.2a4.84,4.84,0,0,0,1.29-4.21l-2.16.62c-1,.28-1.47,1.82-2.07,2.84l-.3.52c-.13.82-.5,1.2-.8.86l-.1-.13a9.54,9.54,0,0,0-1.06-1.3,1.59,1.59,0,0,0-1,.21c0,.54-.14,1.25.22,1.58l1,.87a2.6,2.6,0,0,0,3.62-.44l.66-.68Zm146.5-131.6c-.67-1.9-2.36-.27-3.77,3.61l4.84,1.4.42.12a1.61,1.61,0,0,0,.72-1.93h-.23c-1.28,0-1.48-.48-1.66-1.43Zm.91-24.8c1.06,0,.32-1.41-1.64-3.14l-1.52.35c-.17,0-.41.06-.5.16-.93,1.11-2.23,2.15-2.63,3.38-.27.8.68,1.92,1.28,2.82a1.81,1.81,0,0,0,1.5.3,1.19,1.19,0,0,0,.57-1.16l-.27-.77C290.42,127.67,293.26,126.8,294.33,126.8ZM685.66,235a6.08,6.08,0,0,0-2.76.94l-.78.87c-.41.45.07,1.46.26,2.19,0,.12.75.05,1,.22l.38.24a22.58,22.58,0,0,0,1.68,1.86l.84-.46c.28-.15.19-1.13-.11-1.54-.63-.87-1.46-1.64.44-2,1-.2,2.62.44,2.4-1.18l-.16-1.22A9.9,9.9,0,0,1,685.66,235ZM125.91,283.69c0,.24,0,.45-.09.44a.39.39,0,0,0-.24.34c0,.18.53.71,1.24.76l.25-.23.44-.42c.23-.64,1.15-.87,2-.51l.55-1.31c.31-.76,2.09-1.06,3-1.72.71-.5,0-1.51-1-1.53s-2.43-.37-2.38,1.22c0,.21-1.15.65-1.73.61-2.8-.22-2.89-.17-2.15,2.14ZM874.26,108.2c1.24-.63,1.91-1.25,1.49-1.37l-.34-.1c-1-.3-2.18-1-2.91-.78a2.76,2.76,0,0,0-1.64,2.15c0,1.33-1,1.28-2,1.7s-.43,1.23.25,1.89l.82.82C870.62,112,873,108.84,874.26,108.2ZM288.78,253.08c-.38-.61-1.94,0-3.47,1.31l-1.29.88L282,256.66a4.46,4.46,0,0,0,4.14.54C287.27,256.65,289.15,253.68,288.78,253.08ZM840.83,139.7c-.08.92.64.17,1.62-1.65l1.34-1.1,2-1.68c-1.61-1-3-1.55-3.16-1.3s-.34,1.68-.53,2.67l-1.62-1c-.33-.2-1.69.46-2.28,1l-.35.29C838,137.63,840.91,138.78,840.83,139.7ZM464.76,90a1.14,1.14,0,0,0,1.23.12V90c.07-1.08-.27-2.65,1.27-2.82,1.69-.18,2.55-2.65,4.9-1,.76.53,2.57-.92,2.1-1.78-.83-1.47-1.22.49-1.95.29-.51-.14-1.07-.5-1.52-.43-1.6.27-3.46.37-4.65,1.13l-1.2.76C464.14,87.66,464.41,89.69,464.76,90ZM919.4,110.6c.69-.54-.88-1.08-3.48-1.18l-2,.29-.74.11c-.6,1.11-.5,2.33.22,2.7l.56-.08c1.92-.27,1.31,1.21,2,1.68l.37.24A5.07,5.07,0,0,0,919,112l.34-1.05ZM302.32,137.77a.36.36,0,0,0,0,.46,7.86,7.86,0,0,0,3.24-.09l.41-.69c1-1.59,2.55-2.24,4.31-2.92.51-.19,1.24-.93,1.12-1.16-.84-1.62-1.2.46-1.82.22l-1.66-.66a9.17,9.17,0,0,0-4.74,3.42l-.82,1.3ZM577.06,269.85c-1-.22-1.55.14-1.31.82a5.54,5.54,0,0,0,2.2,2.53c.81.28,3.43-1.2,4.2-2.1l.79-.76.74-.71c-.11-.85-1.11-1.3-2.22-1l-.71.64-.43.4C580.23,270.17,578,270.08,577.06,269.85ZM304.67,142.58c-.28.68-.13,1,.32.62a1.6,1.6,0,0,1,2.18.9c.4,1.11,2,3.92,2.69,3.75l.36-.28c1-.82,2.92-1.75-.15-2.48-.39-.09-.94-.66-.88-.92.43-1.79-1.44-2.41-2.51-3.42l-.16-.15C306,140.51,304.94,141.9,304.67,142.58Zm604-.52c.33,2,1.15,3,1.83,2.37l.09-.54c.26-1.68,1.55-1.89,3.19-1.63.69.11,1.33.48,2,.59l.64.1a1.22,1.22,0,0,0,1-1.62l-.57-.39c-2.11-1.43-4.19-.41-6.19.35ZM631.31,256.5c-1.5-.07-2.12.51-1.38,1.31s3.08,2,3.9,1.36,2.77-2.72,2.56-3.07S632.81,256.58,631.31,256.5ZM520.8,294.61c-.57-.94-2.28-1.34-3.78-.9l-1.44.23-.46.07a1.37,1.37,0,0,0,.39,1.84l.17-.09c1.42-.79,2-.75,2.76.77l.6,1.23C521.33,298.16,521.38,295.55,520.8,294.61Zm366.3-138c1.52,0,2.11-1.28,1.31-2.83h-2.07l-2.25,0C882.88,155.3,885.58,156.56,887.1,156.56ZM20.27,140.86c-1.82-.48-2.94-.05-2.49.95s2,3.09,2.88,3.09S22.08,141.33,20.27,140.86Zm819.34,4.88c-1.09,1.71-.67,3.61.93,4.22l.86-2.14c.43-1.09,2.3-1.82,3.54-2.69l.71-.5C846.75,144,840.71,144,839.61,145.74ZM682.33,234.47c.57-.39,0-1-1.16-1.44l-.72-.6L678.8,231c-1.34,1-3.24,2.48-4.2,3.35l.34,1.16a1.54,1.54,0,0,0,1.13.71l1,.09a3.5,3.5,0,0,1,.38-2.4l.66-.49.19-.14C679,233.62,681.76,234.86,682.33,234.47Zm-295.44-96c-.24,1.58.28,2.3,1.16,1.59l0-.63A4.06,4.06,0,0,0,387,137l-1-1.18c-2.92,1.57-4.94,3.07-4.49,3.33a2.47,2.47,0,0,0,2.59-.72h.5Zm103.4-60.25c1.77-1,1.92-2.14.33-2.6l-1.2-.3a2,2,0,0,0-.79.08c.15,2.15-2,1.25-3.17,1.66a1.14,1.14,0,0,0-.47,1.19c.52.88,3,1.26,3.93.74Zm375.54,50c.3-1.48-.48-1.95-1.75-1s-2.16,4.9-2.11,5.4l1.2,0c1.19,0,2.25-.49,1.59-1.23-1-1.16-.5-1.6.38-2.49ZM426,96.67a2.63,2.63,0,0,0,2.53-.12c1-.47,2.17-2.63.66-3.79l-1.89.87-.89.41C425.18,94.58,425.56,96.27,426,96.67Zm-127,50c.64-.52.76-1.23.27-1.59s-2.6-.78-3.46,0S298.37,147.17,299,146.65ZM438.06,97c-3,0-3.77,1.18-1.71,2.63L438.43,98a12.15,12.15,0,0,0,2.41-2,3.44,3.44,0,0,0,.37-2.2c0-.18-.92-.35-1.43-.45a1.59,1.59,0,0,0-.38.81c0,.33.34.78.17,1ZM298.7,160c.66,1.24,3.17,1.59,5.57.77l.5-2,.09-.35c.18-.37-.21-.72-.86-.78l-.39.2c-1,.48-1.7,1.39-2.7,1.63Zm4.67,6.32c-.5,0-.84.95-.75,2.11s2.78,2.77,2.78,1.7S303.88,166.31,303.37,166.31Zm580.88-2.8c1.17,0,.15-.6-2.27-1.4l-2.14-.64c-.17-.05-.78.34-.78.52,0,.42.26,1.21.43,1.22,2.48,0,1.45.89.76,1.83-.17.22.22,1,.57,1.14l.38.15C881.81,166.09,883.07,163.48,884.25,163.51ZM521.14,301.63c1.92,0,2.28-.69.8-1.45s-6.05,3.28-4.18,3.08l0-.22c.11-1.29.82-1.59,2.22-1.49ZM460.24,86.71c-.14-.46-2.28-.69-4.75-.51l-2,.62c-.25.08-.44.94-.23,1.22a1.78,1.78,0,0,0,1.45.41l1-.5c1-.72,1.46,0,1.11,1.56l2.35-.11c1.84-.08.8-1.47,1-2.27Zm-126,184.52a2.35,2.35,0,0,0,2.81.49c1.06-.45,2.12-2.68,1.64-2.86l-.13.1c-1.82,1.33-3.28.94-4.65-.49l-.18-.19C332.85,268.18,333.74,270.5,334.22,271.23ZM879.06,132.29c.75.26,2.11-.39,3-1.44l1.36-.08c1.31-.09,1.92-.69,1.39-1.42l-.5-.68c-1.16-.45-2.46-.39-2.9.15v.49c0,.91-.2,1.43-1.52,1.48-.33,0-.69.88-.81,1.39Zm26.41-18.89c2.41-1.49,3.72-2.81,2.9-2.93l-.27.12c-2.46,1.08-3.06,4.07-6.49,4.21,0,0-.17.9.07,1.21,1.1,1.35,2.43-1.53,3.63.07a2.72,2.72,0,0,0,.76-.18ZM345.8,153.59c0,.72.9,1.06,2,.76s3.17-1.8,2.36-2.69S345.8,152.87,345.8,153.59Zm-13.23-2.44c.47-.8-.56-.82-2.28,0l-1.25.32-1.43.38a14,14,0,0,0-3,.54,5.43,5.43,0,0,0,2.13.8C327.89,153.4,332.1,152,332.57,151.15Zm571-26.78c0-.73-.85-1.34-1.89-1.37l-.76.06-.64,0c-1,.22-1.17,1.09-.48,1.93S903.52,125.1,903.52,124.37ZM433,118.11c1.34,0,1.45-.69.24-1.54s-5-.61-4.91-.1S431.68,118.11,433,118.11ZM977.47,90.75c-2.37.72-2.69,2.34-.72,3.6l.44-.21,1.31-.64c1.09-1.18,1.5-2.58.9-3.1l-.39.07Zm-121.13-42c.42.17,1.17-.37,1.66-1.18s1.34-2.76,1.15-3.11-1.35.15-2.42,1.4l-1.17.34-2.49.72C853.88,48.16,855.92,48.56,856.34,48.73ZM240.46,194.35c-.91-.64-1.79,0-1.94,1.5l1.07.61.5.28a6.22,6.22,0,0,0,3.24-1.62l.86-.81.17-.15C244,193.58,241.37,195,240.46,194.35ZM645.73,247.2c1.26-1.13.74-2.53-1.14-3.1l-.33,1.8-.36,2A2.66,2.66,0,1,1,645.73,247.2ZM899.28,117.46c-.45-.61-1.77-.68-2.93-.15l1.35,1.53c.75.86,1,1.42,2.3,1.32,1.45-.1,1.43.7,1.53,1.5l0,.1c.43.07.78-.41.78-1.08S899.73,118.08,899.28,117.46ZM433.06,93.92c.61.26,2.05-.26,3.2-1.17l1.29-.33c1.22-.31,1.68-.75,1.26-1.52-.18-.33-1.35-.55-2-.44a9,9,0,0,0-3.38,1.16c-.52.36-.38,1.4-.4,2.14Zm235,145c.45.12,2.32-.84,4.15-2.14l1.51-1.15c.16-.12-.19-1-.55-1.16a2,2,0,0,0-1.49.24,3.36,3.36,0,0,1-3.32,2.7c-.21,0-.56.85-.42,1.2Zm295.36-108.3c.58,1.91,2,2.91,3.27,2.21l.75-.64c.22-.19-.17-1.2-.23-1.2l-2.95.13c-.06-2.05-.58-3.2-1.16-2.55l.08.49ZM879.83,88.17c.72-.65.24-1.25-1.07-1.34s-3.37,1.39-2.94,1.84S879.11,88.83,879.83,88.17Zm41.54,57.29c-1.13.54-1,1.73.4,2.64l1.36.68.38.19a5.88,5.88,0,0,0,2.19-1.46C926.1,147,922.49,144.92,921.37,145.46Zm-34.75-42c-1.32,1.92-1.32,3,0,2.45l.77-.09,1.09-.14c1,.06,1.71-1,1.51-2.26l-.43-.93a2.65,2.65,0,0,0-1.82-.34ZM314.86,282c-.2-4.18-.3-4.25-4.32-4.11C309.37,280.82,312.52,280.65,314.86,282ZM695.32,234.2a2.67,2.67,0,0,0-2.38-.23c-.79.31.43,2.11,0,2.51s-.69,1,.26.39S695.85,234.63,695.32,234.2ZM662.1,242c.64,0,1-.26.72-.56s-.24-.88.36-.84,2.12-.19,2.12-.6a1.71,1.71,0,0,0-1.95-1.09c-1.08.2-3.57,1-3.57,1.5S661.46,242,662.1,242Zm18.49-1.23c0-.72-1.07-.63-2.37.19s-3.34,3.07-2.17,3.49,2.92-2,3.22-1.9S680.59,241.43,680.59,240.72ZM962.16,137.53c1-1.37,1.09-2.71.15-3s-4-.63-4.54-.18-1.67,2.17-.39,2.05l.45-.3c.82-.54,1.54-1,2.44-.24ZM445,88.42c0,.46,1.79.53,4,.14l1.25-1.14c.35-.33.41-1.39.13-1.55-.84-.46-1.73-.5-2,.7-.33,1.55-1.37,1.1-2.41.44l-.22-.14C445.3,86.8,445,88,445,88.42Zm455,59.29a2.31,2.31,0,0,0-2.33.72c-.27.56-.23,2.55,1.24,2S901,147.88,900,147.71Zm-9.16-21.22a1.34,1.34,0,0,0-.08,2c.61.58,2.2,1.29,2.41.51S891.47,125.94,890.82,126.49Zm-86.66,21.1c-.2.7.81,1.31,2.26,1.36l1.31.1c.62,0,4.06-1.57,4-2a1.71,1.71,0,0,0-.86-.9,9.73,9.73,0,0,0-2.32,1.18l-.76.55C806.86,147.77,804.36,146.89,804.16,147.59Zm-493.39-38.5c-1.43,1.12-1.3,2.65.28,3.4l1.12-.22,1.44-.3a1.86,1.86,0,0,0-.24-3.31l-1.16.19Z"/></g></g></g></g></svg>