<svg xmlns="http://www.w3.org/2000/svg" viewBox="0 0 178.87 35.7" width="145" height="29"><defs><style>.cls-1{isolation:isolate;}.cls-2{fill:#1c1c1c;}</style></defs><g id="レイヤー_2" data-name="レイヤー 2"><g id="レイヤー_1-2" data-name="レイヤー 1"><g class="cls-1"><path class="cls-2" d="M10,35.7a11,11,0,0,1-3.3-.44,8.76,8.76,0,0,1-2.48-1.17,8.1,8.1,0,0,1-1.78-1.66,10.5,10.5,0,0,1-1.19-1.9,12.19,12.19,0,0,1-.86-2.42A14.8,14.8,0,0,1,0,25.35L5,24.1a21.32,21.32,0,0,0,.28,2.49A8.65,8.65,0,0,0,6.08,29a5.37,5.37,0,0,0,1.51,1.85A3.84,3.84,0,0,0,10,31.6q3.75,0,3.75-3.75a6.55,6.55,0,0,0-.23-1.75,6.42,6.42,0,0,0-.71-1.56,8.14,8.14,0,0,0-1.17-1.46A20.77,20.77,0,0,0,10,21.6l-6.25-5a8.59,8.59,0,0,1-1.68-1.73,10.36,10.36,0,0,1-1.17-2,10.74,10.74,0,0,1-.7-2.19A11,11,0,0,1,0,8.44,9.22,9.22,0,0,1,.57,5.22,7.57,7.57,0,0,1,2.24,2.53,7.89,7.89,0,0,1,5,.68,9.9,9.9,0,0,1,8.77,0,12.4,12.4,0,0,1,12,.39a9.76,9.76,0,0,1,2.49,1,7.76,7.76,0,0,1,1.8,1.46,9.23,9.23,0,0,1,1.2,1.66,10.11,10.11,0,0,1,.85,2.16,14,14,0,0,1,.4,2.39l-5,1.25a14.74,14.74,0,0,0-.28-2,6.48,6.48,0,0,0-.78-2A4.76,4.76,0,0,0,11.2,4.72,4.38,4.38,0,0,0,8.77,4.1a4.43,4.43,0,0,0-1.71.3,3.14,3.14,0,0,0-1.16.83,3.58,3.58,0,0,0-.67,1.23A4.94,4.94,0,0,0,5,7.91a6.14,6.14,0,0,0,.61,2.61,6.5,6.5,0,0,0,1.89,2.33l6.25,5A14.52,14.52,0,0,1,15.89,20a13.85,13.85,0,0,1,1.57,2.39,12,12,0,0,1,1,2.57,10.73,10.73,0,0,1,.33,2.61,9.22,9.22,0,0,1-.53,3.1,7.24,7.24,0,0,1-1.61,2.6A7.76,7.76,0,0,1,13.91,35,10.22,10.22,0,0,1,10,35.7Z"/><path class="cls-2" d="M29.42,35.7a7.45,7.45,0,0,1-3.16-.6,6.06,6.06,0,0,1-2.12-1.61,7.17,7.17,0,0,1-1.28-2.34,15.54,15.54,0,0,1-.66-2.75A27.57,27.57,0,0,1,22,25.54c0-1,0-1.85,0-2.69s0-1.73,0-2.68a27.76,27.76,0,0,1,.24-2.87,15.75,15.75,0,0,1,.66-2.75,7.22,7.22,0,0,1,1.28-2.33,5.94,5.94,0,0,1,2.12-1.61A7.3,7.3,0,0,1,29.42,10a9,9,0,0,1,3.21.5,6.05,6.05,0,0,1,2.13,1.3A5.64,5.64,0,0,1,36,13.61a9.48,9.48,0,0,1,.65,2,11.25,11.25,0,0,1,.21,1.93c0,.61,0,1.13,0,1.54h-5c0-.21,0-.48,0-.82s0-.7-.07-1.08a8,8,0,0,0-.2-1.17A3.8,3.8,0,0,0,31.21,15a2.62,2.62,0,0,0-.71-.77,1.86,1.86,0,0,0-1.08-.3,1.67,1.67,0,0,0-1.44.69,4.76,4.76,0,0,0-.75,1.91A18.93,18.93,0,0,0,27,19.35c0,1.08,0,2.25,0,3.5s0,2.41,0,3.48a17.43,17.43,0,0,0,.27,2.77A4.48,4.48,0,0,0,28,30.94a1.7,1.7,0,0,0,1.44.66,2.16,2.16,0,0,0,1.45-.43A2.51,2.51,0,0,0,31.61,30a5.87,5.87,0,0,0,.27-1.6c0-.6,0-1.21,0-1.84h5c0,.42,0,.93,0,1.54a10.47,10.47,0,0,1-1,4,5.84,5.84,0,0,1-1.28,1.82,6.57,6.57,0,0,1-2.11,1.3A8.73,8.73,0,0,1,29.42,35.7Z"/><path class="cls-2" d="M40.24.35h5v12.7a16,16,0,0,1,2.25-1.76,9.61,9.61,0,0,1,1.76-.91,5.21,5.21,0,0,1,1.36-.33c.39,0,.74-.05,1-.05a3.16,3.16,0,0,1,1.48.34,3.57,3.57,0,0,1,1.13.91,4,4,0,0,1,.73,1.3A4.53,4.53,0,0,1,55.24,14V35.35h-5V16.6c0-.31,0-.62,0-.92a2.47,2.47,0,0,0-.18-.8,1.31,1.31,0,0,0-.51-.56,1.88,1.88,0,0,0-1-.22,3.69,3.69,0,0,0-1.77.44,9.15,9.15,0,0,0-1.51,1V35.35h-5Z"/><path class="cls-2" d="M59.05,19.1c0-.41,0-.93,0-1.54a12.62,12.62,0,0,1,.25-1.93,9.48,9.48,0,0,1,.65-2,5.8,5.8,0,0,1,1.28-1.81,6.1,6.1,0,0,1,2.12-1.3,10.27,10.27,0,0,1,6.33,0,6.19,6.19,0,0,1,2.12,1.3,5.77,5.77,0,0,1,1.27,1.81,10.13,10.13,0,0,1,.66,2A11.42,11.42,0,0,1,74,17.56c0,.61,0,1.13,0,1.54v7.5c0,.42,0,.93,0,1.54a11.18,11.18,0,0,1-.24,1.93,10.13,10.13,0,0,1-.66,2,5.81,5.81,0,0,1-1.27,1.82,6.51,6.51,0,0,1-2.12,1.3,10.47,10.47,0,0,1-6.33,0,6.41,6.41,0,0,1-2.12-1.3A5.84,5.84,0,0,1,60,32.09a9.48,9.48,0,0,1-.65-2,12.31,12.31,0,0,1-.25-1.93c0-.61,0-1.12,0-1.54Zm5,7.5c0,.63,0,1.24,0,1.84a6.28,6.28,0,0,0,.27,1.6,2.45,2.45,0,0,0,.75,1.13,2.64,2.64,0,0,0,2.89,0A2.43,2.43,0,0,0,68.74,30a5.51,5.51,0,0,0,.27-1.6c0-.6,0-1.21,0-1.84V19.1c0-.62,0-1.24,0-1.83a5.58,5.58,0,0,0-.27-1.61A2.54,2.54,0,0,0,68,14.53a2.64,2.64,0,0,0-2.89,0,2.56,2.56,0,0,0-.75,1.13,6.36,6.36,0,0,0-.27,1.61c0,.59,0,1.21,0,1.83Z"/><path class="cls-2" d="M77.43,19.1c0-.41,0-.93,0-1.54a11.42,11.42,0,0,1,.24-1.93,10.08,10.08,0,0,1,.65-2,5.8,5.8,0,0,1,1.28-1.81,6.19,6.19,0,0,1,2.12-1.3,10.27,10.27,0,0,1,6.33,0,6.1,6.1,0,0,1,2.12,1.3,5.8,5.8,0,0,1,1.28,1.81,9.48,9.48,0,0,1,.65,2,12.62,12.62,0,0,1,.25,1.93c0,.61,0,1.13,0,1.54v7.5c0,.42,0,.93,0,1.54a12.31,12.31,0,0,1-.25,1.93,9.48,9.48,0,0,1-.65,2,5.84,5.84,0,0,1-1.28,1.82,6.41,6.41,0,0,1-2.12,1.3,10.47,10.47,0,0,1-6.33,0,6.51,6.51,0,0,1-2.12-1.3,5.84,5.84,0,0,1-1.28-1.82,10.08,10.08,0,0,1-.65-2,11.18,11.18,0,0,1-.24-1.93c0-.61,0-1.12,0-1.54Zm5,7.5c0,.63,0,1.24,0,1.84a5.51,5.51,0,0,0,.27,1.6,2.43,2.43,0,0,0,.74,1.13,2.64,2.64,0,0,0,2.89,0A2.36,2.36,0,0,0,87.11,30a5.86,5.86,0,0,0,.28-1.6c0-.6,0-1.21,0-1.84V19.1c0-.62,0-1.24,0-1.83a5.93,5.93,0,0,0-.28-1.61,2.46,2.46,0,0,0-.74-1.13,2.64,2.64,0,0,0-2.89,0,2.54,2.54,0,0,0-.74,1.13,5.58,5.58,0,0,0-.27,1.61c0,.59,0,1.21,0,1.83Z"/><path class="cls-2" d="M101.3,35.35h-5V.35h5Z"/><path class="cls-2" d="M114,1.6h5v8.75h3.75V14.1H119V28.69a10.31,10.31,0,0,0,.06,1.16,2.75,2.75,0,0,0,.26.93,1.49,1.49,0,0,0,.63.61,2.51,2.51,0,0,0,1.12.21,6.29,6.29,0,0,0,.75-.06l.93-.13v4.06c-.7.09-1.27.15-1.72.18s-.89.05-1.36.05a7.46,7.46,0,0,1-2.45-.34,4.68,4.68,0,0,1-1.63-.93,3.82,3.82,0,0,1-.95-1.35,7.38,7.38,0,0,1-.47-1.64,11.66,11.66,0,0,1-.16-1.78c0-.61,0-1.19,0-1.75V14.1h-2.5V10.35H114Z"/><path class="cls-2" d="M125.92,1.6h5v5h-5Zm0,8.75h5v25h-5Z"/><path class="cls-2" d="M145.19,17.21c0-.47,0-.89,0-1.27a4.35,4.35,0,0,0-.14-1,1.31,1.31,0,0,0-.37-.63,1.05,1.05,0,0,0-.72-.23,3.86,3.86,0,0,0-1.13.16,6.95,6.95,0,0,0-1.9.9c-.27.18-.51.35-.72.52V35.35h-5v-25h5v2.83a13.34,13.34,0,0,1,1-1,8.89,8.89,0,0,1,1.38-1,8.15,8.15,0,0,1,1.74-.79,6.72,6.72,0,0,1,2.11-.31,7,7,0,0,1,1.34.12,2.5,2.5,0,0,1,1.09.48,3,3,0,0,1,.82,1,5.7,5.7,0,0,1,.52,1.7A9.33,9.33,0,0,1,152,11.4a7.06,7.06,0,0,1,1.74-1,6,6,0,0,1,1.5-.36c.46,0,.84-.06,1.16-.06a3.77,3.77,0,0,1,2.16.52A3,3,0,0,1,159.72,12a7.61,7.61,0,0,1,.41,2.27c0,.88.06,1.86.06,2.93V35.35h-5V17.11c0-.44,0-.85,0-1.21a4.15,4.15,0,0,0-.14-1,1.27,1.27,0,0,0-.37-.62,1.05,1.05,0,0,0-.72-.23,3.78,3.78,0,0,0-1.11.17,7,7,0,0,0-1,.41,5.64,5.64,0,0,0-.9.54l-.72.56V35.35h-5Z"/><path class="cls-2" d="M171.35,35.7a8.13,8.13,0,0,1-3.28-.61A5.29,5.29,0,0,1,165.74,33a12.28,12.28,0,0,1-1.41-4.12,38.33,38.33,0,0,1-.46-6.56,31.17,31.17,0,0,1,.46-5.89,10.77,10.77,0,0,1,1.41-3.77,5.22,5.22,0,0,1,2.34-2,9.29,9.29,0,0,1,6.57,0,5.17,5.17,0,0,1,2.34,2,10.58,10.58,0,0,1,1.41,3.77,31.07,31.07,0,0,1,.47,5.89v.58h-10V24.1q0,1.41,0,2.76a13,13,0,0,0,.28,2.4,4.1,4.1,0,0,0,.74,1.7,1.73,1.73,0,0,0,1.45.64,2.19,2.19,0,0,0,1.46-.43,2.36,2.36,0,0,0,.74-1.13,5.86,5.86,0,0,0,.28-1.6c0-.6,0-1.21,0-1.84h5c0,3.13-.63,5.42-1.88,6.9A7,7,0,0,1,171.35,35.7Zm0-21.6a1.75,1.75,0,0,0-1.45.63,3.78,3.78,0,0,0-.74,1.56,9.75,9.75,0,0,0-.28,2c0,.73,0,1.41,0,2h5c0-.62,0-1.3,0-2a9.14,9.14,0,0,0-.27-2,3.78,3.78,0,0,0-.74-1.56A1.77,1.77,0,0,0,171.37,14.1Z"/></g></g></g></svg>