<svg xmlns="http://www.w3.org/2000/svg" xmlns:xlink="http://www.w3.org/1999/xlink" viewBox="0 0 114.75 107.11"><defs><style>.cls-1{isolation:isolate;}.cls-2{fill:url(#新規グラデーションスウォッチ_5);}</style><linearGradient id="新規グラデーションスウォッチ_5" x1="30.68" y1="-438.08" x2="145.44" y2="-438.08" gradientTransform="translate(-30.68 491.63)" gradientUnits="userSpaceOnUse"><stop offset="0" stop-color="#c17bb1"/><stop offset="0.29" stop-color="#e95f91"/><stop offset="0.67" stop-color="#ff6161"/><stop offset="1" stop-color="#fccd19"/></linearGradient></defs><g id="レイヤー_2" data-name="レイヤー 2"><g id="レイヤー_1-2" data-name="レイヤー 1"><g class="cls-1"><path d="M26.25,107.11a28.49,28.49,0,0,1-9.79-1.73,22.28,22.28,0,0,1-8.4-5.48A26.94,26.94,0,0,1,2.2,90.26,40.6,40.6,0,0,1,0,76.05v-45A44.54,44.54,0,0,1,1.44,18.93a30.08,30.08,0,0,1,3.72-8.5,20.6,20.6,0,0,1,5.15-5.51,25.7,25.7,0,0,1,5.8-3.16A24.34,24.34,0,0,1,21.71.32,39.8,39.8,0,0,1,26.25,0a39.8,39.8,0,0,1,4.54.32,24.34,24.34,0,0,1,5.6,1.44,25.7,25.7,0,0,1,5.8,3.16,20.6,20.6,0,0,1,5.15,5.51,30.08,30.08,0,0,1,3.72,8.5A44.54,44.54,0,0,1,52.5,31.05v45a40.6,40.6,0,0,1-2.2,14.21,27.08,27.08,0,0,1-5.86,9.64,22.28,22.28,0,0,1-8.4,5.48A28.49,28.49,0,0,1,26.25,107.11Zm0-12.31a9.28,9.28,0,0,0,4.28-.93,9.53,9.53,0,0,0,3-2.46,13.62,13.62,0,0,0,2-3.52,24.33,24.33,0,0,0,1.2-4.07,35.27,35.27,0,0,0,.55-4.1c.1-1.35.15-2.57.15-3.67v-45q0-1.69-.09-3.75a29.52,29.52,0,0,0-.47-4.13,25.32,25.32,0,0,0-1.08-4,11.58,11.58,0,0,0-2-3.49,9.37,9.37,0,0,0-3.14-2.43,10.33,10.33,0,0,0-4.51-.91,10.33,10.33,0,0,0-4.51.91,9.37,9.37,0,0,0-3.14,2.43,11.58,11.58,0,0,0-2,3.49,25.32,25.32,0,0,0-1.08,4,29.52,29.52,0,0,0-.47,4.13Q15,29.36,15,31.05v45c0,1.1.05,2.32.15,3.67a33.24,33.24,0,0,0,.55,4.1,24.33,24.33,0,0,0,1.2,4.07,13.62,13.62,0,0,0,2,3.52,9.53,9.53,0,0,0,3,2.46A9.28,9.28,0,0,0,26.25,94.8Z"/><path d="M88.5,107.11a29.94,29.94,0,0,1-12-2.17,22.12,22.12,0,0,1-8.14-5.86,23.08,23.08,0,0,1-4.63-8.67A37.32,37.32,0,0,1,62.25,79.8V76.05h15A50,50,0,0,0,78,85.31a15.54,15.54,0,0,0,2.11,5.74A7.32,7.32,0,0,0,83.58,94a15.17,15.17,0,0,0,9.84,0,7.39,7.39,0,0,0,3.52-2.93,15.72,15.72,0,0,0,2.11-5.74,50.09,50.09,0,0,0,.7-9.26A35.54,35.54,0,0,0,99,68.38a16,16,0,0,0-2.52-5.92,11.63,11.63,0,0,0-4.63-3.81,16.58,16.58,0,0,0-7.09-1.35v-15a28,28,0,0,0,7.09-.76A9.85,9.85,0,0,0,96.47,39,10,10,0,0,0,99,34.39a28,28,0,0,0,.76-7.09,30.34,30.34,0,0,0-.7-7.09,11.78,11.78,0,0,0-2.11-4.62,7.71,7.71,0,0,0-3.52-2.52,14.36,14.36,0,0,0-4.92-.77,13.71,13.71,0,0,0-4.92.82,7.43,7.43,0,0,0-3.51,2.93A15.67,15.67,0,0,0,78,21.8a49.86,49.86,0,0,0-.71,9.25h-15V27.3a37.25,37.25,0,0,1,1.47-10.6A23.08,23.08,0,0,1,68.35,8a22.12,22.12,0,0,1,8.14-5.86A29.94,29.94,0,0,1,88.5,0a29.9,29.9,0,0,1,12,2.17A22.16,22.16,0,0,1,108.66,8a23.23,23.23,0,0,1,4.63,8.67,37.61,37.61,0,0,1,1.46,10.6,27.31,27.31,0,0,1-1.49,9.58,22.2,22.2,0,0,1-3.75,6.6,19.1,19.1,0,0,1-4.86,4.13,24.11,24.11,0,0,1-4.9,2.19,22.07,22.07,0,0,1,4.9,2.44,19,19,0,0,1,4.86,4.68,26.26,26.26,0,0,1,3.75,7.71,38.12,38.12,0,0,1,1.49,11.42,52.07,52.07,0,0,1-1.46,12.78,26.11,26.11,0,0,1-4.63,9.78,21,21,0,0,1-8.15,6.27A29.2,29.2,0,0,1,88.5,107.11Z"/></g><path class="cls-2" d="M26.25,107.11a28.49,28.49,0,0,1-9.79-1.73,22.28,22.28,0,0,1-8.4-5.48A26.94,26.94,0,0,1,2.2,90.26,40.6,40.6,0,0,1,0,76.05v-45A44.54,44.54,0,0,1,1.44,18.93a30.08,30.08,0,0,1,3.72-8.5,20.6,20.6,0,0,1,5.15-5.51,25.7,25.7,0,0,1,5.8-3.16A24.34,24.34,0,0,1,21.71.32,39.8,39.8,0,0,1,26.25,0a39.8,39.8,0,0,1,4.54.32,24.34,24.34,0,0,1,5.6,1.44,25.7,25.7,0,0,1,5.8,3.16,20.6,20.6,0,0,1,5.15,5.51,30.08,30.08,0,0,1,3.72,8.5A44.54,44.54,0,0,1,52.5,31.05v45a40.6,40.6,0,0,1-2.2,14.21,27.08,27.08,0,0,1-5.86,9.64,22.28,22.28,0,0,1-8.4,5.48A28.49,28.49,0,0,1,26.25,107.11Zm0-12.31a9.28,9.28,0,0,0,4.28-.93,9.53,9.53,0,0,0,3-2.46,13.62,13.62,0,0,0,2-3.52,24.33,24.33,0,0,0,1.2-4.07,35.27,35.27,0,0,0,.55-4.1c.1-1.35.15-2.57.15-3.67v-45q0-1.69-.09-3.75a29.52,29.52,0,0,0-.47-4.13,25.32,25.32,0,0,0-1.08-4,11.58,11.58,0,0,0-2-3.49,9.37,9.37,0,0,0-3.14-2.43,10.33,10.33,0,0,0-4.51-.91,10.33,10.33,0,0,0-4.51.91,9.37,9.37,0,0,0-3.14,2.43,11.58,11.58,0,0,0-2,3.49,25.32,25.32,0,0,0-1.08,4,29.52,29.52,0,0,0-.47,4.13Q15,29.36,15,31.05v45c0,1.1.05,2.32.15,3.67a33.24,33.24,0,0,0,.55,4.1,24.33,24.33,0,0,0,1.2,4.07,13.62,13.62,0,0,0,2,3.52,9.53,9.53,0,0,0,3,2.46A9.28,9.28,0,0,0,26.25,94.8Z"/><path class="cls-2" d="M88.5,107.11a29.94,29.94,0,0,1-12-2.17,22.12,22.12,0,0,1-8.14-5.86,23.08,23.08,0,0,1-4.63-8.67A37.32,37.32,0,0,1,62.25,79.8V76.05h15A50,50,0,0,0,78,85.31a15.54,15.54,0,0,0,2.11,5.74A7.32,7.32,0,0,0,83.58,94a15.17,15.17,0,0,0,9.84,0,7.39,7.39,0,0,0,3.52-2.93,15.72,15.72,0,0,0,2.11-5.74,50.09,50.09,0,0,0,.7-9.26A35.54,35.54,0,0,0,99,68.38a16,16,0,0,0-2.52-5.92,11.63,11.63,0,0,0-4.63-3.81,16.58,16.58,0,0,0-7.09-1.35v-15a28,28,0,0,0,7.09-.76A9.85,9.85,0,0,0,96.47,39,10,10,0,0,0,99,34.39a28,28,0,0,0,.76-7.09,30.34,30.34,0,0,0-.7-7.09,11.78,11.78,0,0,0-2.11-4.62,7.71,7.71,0,0,0-3.52-2.52,14.36,14.36,0,0,0-4.92-.77,13.71,13.71,0,0,0-4.92.82,7.43,7.43,0,0,0-3.51,2.93A15.67,15.67,0,0,0,78,21.8a49.86,49.86,0,0,0-.71,9.25h-15V27.3a37.25,37.25,0,0,1,1.47-10.6A23.08,23.08,0,0,1,68.35,8a22.12,22.12,0,0,1,8.14-5.86A29.94,29.94,0,0,1,88.5,0a29.9,29.9,0,0,1,12,2.17A22.16,22.16,0,0,1,108.66,8a23.23,23.23,0,0,1,4.63,8.67,37.61,37.61,0,0,1,1.46,10.6,27.31,27.31,0,0,1-1.49,9.58,22.2,22.2,0,0,1-3.75,6.6,19.1,19.1,0,0,1-4.86,4.13,24.11,24.11,0,0,1-4.9,2.19,22.07,22.07,0,0,1,4.9,2.44,19,19,0,0,1,4.86,4.68,26.26,26.26,0,0,1,3.75,7.71,38.12,38.12,0,0,1,1.49,11.42,52.07,52.07,0,0,1-1.46,12.78,26.11,26.11,0,0,1-4.63,9.78,21,21,0,0,1-8.15,6.27A29.2,29.2,0,0,1,88.5,107.11Z"/></g></g></svg>