<svg xmlns="http://www.w3.org/2000/svg" xmlns:xlink="http://www.w3.org/1999/xlink" viewBox="0 0 1162.71 297.62"><defs><style>.cls-1{isolation:isolate;}.cls-2{mix-blend-mode:multiply;opacity:0.2;}.cls-3{fill:url(#新規グラデーションスウォッチ_1);}.cls-4{fill:url(#新規グラデーションスウォッチ_1-2);}.cls-5{fill:url(#新規グラデーションスウォッチ_1-3);}.cls-6{fill:url(#新規グラデーションスウォッチ_1-4);}.cls-7{fill:url(#新規グラデーションスウォッチ_1-5);}.cls-8{fill:url(#新規グラデーションスウォッチ_1-6);}.cls-9{fill:url(#新規グラデーションスウォッチ_1-7);}.cls-10{fill:url(#新規グラデーションスウォッチ_1-8);}.cls-11{fill:url(#新規グラデーションスウォッチ_1-9);}.cls-12{fill:url(#新規グラデーションスウォッチ_1-10);}.cls-13{fill:url(#新規グラデーションスウォッチ_1-11);}.cls-14{fill:url(#新規グラデーションスウォッチ_1-12);}.cls-15{fill:url(#新規グラデーションスウォッチ_1-13);}.cls-16{fill:url(#新規グラデーションスウォッチ_1-14);}.cls-17{fill:url(#新規グラデーションスウォッチ_1-15);}.cls-18{fill:url(#新規グラデーションスウォッチ_1-16);}.cls-19{fill:url(#新規グラデーションスウォッチ_1-17);}.cls-20{fill:url(#新規グラデーションスウォッチ_1-18);}.cls-21{fill:url(#新規グラデーションスウォッチ_1-19);}</style><linearGradient id="新規グラデーションスウォッチ_1" y1="148.81" x2="883.27" y2="148.81" gradientUnits="userSpaceOnUse"><stop offset="0" stop-color="#fff"/><stop offset="0" stop-color="#f6a400"/><stop offset="1" stop-color="#c70000"/></linearGradient><linearGradient id="新規グラデーションスウォッチ_1-2" x1="546.2" y1="150.21" x2="1162.71" y2="150.21" xlink:href="#新規グラデーションスウォッチ_1"/><linearGradient id="新規グラデーションスウォッチ_1-3" x1="746.61" y1="131.55" x2="758.26" y2="131.55" xlink:href="#新規グラデーションスウォッチ_1"/><linearGradient id="新規グラデーションスウォッチ_1-4" x1="694.82" y1="159.5" x2="701.24" y2="159.5" xlink:href="#新規グラデーションスウォッチ_1"/><linearGradient id="新規グラデーションスウォッチ_1-5" x1="703.01" y1="155.42" x2="708.61" y2="155.42" xlink:href="#新規グラデーションスウォッチ_1"/><linearGradient id="新規グラデーションスウォッチ_1-6" x1="834.26" y1="85.57" x2="842.03" y2="85.57" xlink:href="#新規グラデーションスウォッチ_1"/><linearGradient id="新規グラデーションスウォッチ_1-7" x1="690.83" y1="151.33" x2="700.8" y2="151.33" xlink:href="#新規グラデーションスウォッチ_1"/><linearGradient id="新規グラデーションスウォッチ_1-8" x1="826.35" y1="91.96" x2="830.37" y2="91.96" xlink:href="#新規グラデーションスウォッチ_1"/><linearGradient id="新規グラデーションスウォッチ_1-9" x1="705.38" y1="143.29" x2="708.25" y2="143.29" xlink:href="#新規グラデーションスウォッチ_1"/><linearGradient id="新規グラデーションスウォッチ_1-10" x1="789.42" y1="101.01" x2="796.58" y2="101.01" xlink:href="#新規グラデーションスウォッチ_1"/><linearGradient id="新規グラデーションスウォッチ_1-11" x1="721.86" y1="144.08" x2="727.23" y2="144.08" xlink:href="#新規グラデーションスウォッチ_1"/><linearGradient id="新規グラデーションスウォッチ_1-12" x1="707.01" y1="149.72" x2="712.78" y2="149.72" xlink:href="#新規グラデーションスウォッチ_1"/><linearGradient id="新規グラデーションスウォッチ_1-13" x1="713.85" y1="150.35" x2="719.78" y2="150.35" xlink:href="#新規グラデーションスウォッチ_1"/><linearGradient id="新規グラデーションスウォッチ_1-14" x1="571.98" y1="265.07" x2="578.38" y2="265.07" xlink:href="#新規グラデーションスウォッチ_1"/><linearGradient id="新規グラデーションスウォッチ_1-15" x1="814.54" y1="100.08" x2="820.37" y2="100.08" xlink:href="#新規グラデーションスウォッチ_1"/><linearGradient id="新規グラデーションスウォッチ_1-16" x1="762.42" y1="123.38" x2="768.07" y2="123.38" xlink:href="#新規グラデーションスウォッチ_1"/><linearGradient id="新規グラデーションスウォッチ_1-17" x1="748.01" y1="122.02" x2="753.95" y2="122.02" xlink:href="#新規グラデーションスウォッチ_1"/><linearGradient id="新規グラデーションスウォッチ_1-18" x1="698.84" y1="144.51" x2="703.07" y2="144.51" xlink:href="#新規グラデーションスウォッチ_1"/><linearGradient id="新規グラデーションスウォッチ_1-19" x1="670.73" y1="181.27" x2="677.28" y2="181.27" xlink:href="#新規グラデーションスウォッチ_1"/></defs><g class="cls-1"><g id="レイヤー_2" data-name="レイヤー 2"><g id="レイヤー_1-2" data-name="レイヤー 1"><g class="cls-2"><path class="cls-3" d="M657.9,154.74c-.36,1.63-1.38,3-2.27,3l-.57.31a73.76,73.76,0,0,1-10.24,4.44l-1.17.44c-1.17.7-3.42,1.85-5,2.56s-5.48,2.39-6.92,3-4.61,2.86-5.36,3-3.57,2.17-6,3-8,4.43-8.71,4.42a8.68,8.68,0,0,0-3.26,1.73,21.86,21.86,0,0,1-3.65,2.25,49.1,49.1,0,0,0-4.62,2.22c-1.07.66-5.2,3.27-7,4.05s-7.39,3-8.23,3.78l-.54.17-2.13.67c-1.88,1.28-5.8,3.58-8.71,5.12l-2.63,1.46a24.9,24.9,0,0,1-3.79,1.91l-2.67.93c-2.64,1.77-5.35,3.06-6,2.87s-2.52,1.63-3.07,2.19a11.37,11.37,0,0,1-3.91,1.89,46.59,46.59,0,0,1-6.21,1l-.09,2.22c0,.48-1.95,1-3.09,1.28l-.33.07c-.73-.1-2.42.93-3.74,2.29s-7.62,3.53-8.85,4.23-3.67,3.37-3.86,3-.91-.62-1.32.24-3.35,1.66-3.31,2a.78.78,0,0,1-1.15.59l-.7-.19a1.09,1.09,0,0,0-.81.2c-.78.79-1.36,2.17-2.27,2.32l-1.4.24c-1.18.58-3.38,1.71-4.9,2.53s-8,4.42-10.86,6.38l-2.75,1.68a5.9,5.9,0,0,1-1.92.89,21.69,21.69,0,0,0-2.86.22c-.49.16-.45,1.14-.92,1.55l-.54.47a6.76,6.76,0,0,0-2.06,1.6l-.36,0-1.36.08a33.45,33.45,0,0,0-2.37,2.67c-.48.65-3.56-.15-4.56.2l-.12.48-.39,1.68a12.1,12.1,0,0,0-3.9,1.65,11.39,11.39,0,0,1-4,1.23L470,254.2l-.44,1.39a21.91,21.91,0,0,1-3.48,1.59c-.17,0-.92-.4-1.39-.63s-2.13,1.42-2.72,2a43.29,43.29,0,0,1-6.36,3.56l-1.7,1.3-1.74,1.32A25.88,25.88,0,0,0,446,267.9c-.93.82-4.77,1.55-5,1.89a46.85,46.85,0,0,1-6.7,4.34l-2.85.74c-.89.23-2.21.05-2.68.51l-1.43,1.4c-1.85,1.21-4.36,1.58-5.58.81l-.66,1.88-.28.82a25.64,25.64,0,0,1-3.36,1.61c-.65.22-4.37,1.28-6.78,2s-9.07,4.41-10.45,5.13l-1.37.4-5.38,1.53c-5.65,2.19-11.93,4.39-14,4.9s-7.44,2-7.67,1.79a5,5,0,0,0-2.07-.21c-.68.07-2.87-.06-3-.48s-1.28-1.71-2.25-1.31-3.31.69-3.22-.18-3.17.31-4.33-.14-4.49-1-4.83-.24l-.59.1-3.38.57c-3.8.17-7,.27-7.21.21a15,15,0,0,1-1.73-1.41c-.68-.62-5.23-.8-8-2.59l-.19-2.14a43.93,43.93,0,0,1,1.49-5l.32-.54a14.92,14.92,0,0,0,.9-2.74c.19-.9.16-3.75-.47-4.37s-3.14-.24-3.14-1.6-1.19-5.06-2.66-5.6-4-4.17-6-4.59l1.1-2.26.54-1.11c-.25-1.5-.91-4.34-1.46-6.3s-4.42-10-6.08-14l-1.81-3.6-.17-.34a14,14,0,0,0,1.08-3.86c.25-1.56-1.1-5.73-1.11-5.91a5.27,5.27,0,0,1,.68-1.52c.38-.66.55-2.9-.43-3.23s-3.39,2.7-5.1,3.64S299.59,232,295.87,234s-13.75,8.14-14.67,8.5-5.37,2.53-8.05,3.84-10.11,6-11.54,6.64-6.07,3.58-7.59,4.19-6.16,2.59-6.93,3-4.1,2.11-5.67,2.85-7.46,2.78-9.2,3.43-7.14,2.77-8.18,3.19-6.17-.94-6.58-1.09-1.59.35-1,.55,1.68,1.25.9,1.84l-.3.05-2.22.37c-2.5.24-4.84.39-5.2.34s-2.78-.68-4.56-1.18-6.71-2-6.49-3.88l-2.32-1.28-1.42-.79c-1.06-1.69-1.47-2.93-.93-2.75s2.37.32,2.43-.23-.22-2-.74-1.93l-.18.13-1.19.89a20.31,20.31,0,0,1-5.67-3.8l-1.26-1.69-.46-.62c.34-1.11,0-2.19-.66-2.41s.38-1.82.38-2a17.13,17.13,0,0,0-3.42-2.12l.26-1.93a2.77,2.77,0,0,0-1.44-2.92l-.88-.58c-1.16-1-1.09-2,.16-2.28a12.26,12.26,0,0,0,4.57-2.61,5.46,5.46,0,0,1,3.89-1.73l.7-.33c1.16-.55,2-1.59,3-2.3l.69-.47a50.19,50.19,0,0,1,5.79-1.27l.15-3.05,0-.62c0-.6.6-.79,1.36-.42a2.26,2.26,0,0,0,2.58-2.38l2.9,0c.49,0,1.12-.85,1.41-1.4l.14-.27c-.39-.48-.9-.75-1.12-.58s-1.32,0-1-1.5l.45-.9c.21-.43.65-.94,1.69-.36l.76.42a19.31,19.31,0,0,0,6-2.47l-.09-2.06v-.41a1.87,1.87,0,0,1,.77-1.33c.4-.28,1.7-.63,1.76,0l.25.61a1.53,1.53,0,0,0,1,.82c.42,0,1.2-.35,1.25-.62l.25-1.41a16.26,16.26,0,0,0,2.18-2.72v-1.72c1.55-.75,3.18-1.52,3.62-1.71a13.14,13.14,0,0,1,2.74-.47c.61,0,.39-1.33,0-1.55s-1.76-2-.72-2.73,5.05-.5,5.42-1.31,3.72-2.2,4.55-3l1-.55c1.2-.67,1.38-1.32.14-2.13a2.32,2.32,0,0,1,1-1.29l1.36-.45c1.75-.32,3.29-.15,3.42.39s1.08.69,1.8-.89l-1.47-1.52-.75-.77a14.74,14.74,0,0,0,5.75-1.69l.64-1.68.15-.39c-1.06-.74-1.48-1.59-.93-1.9s1.76-1.61.88-1.92l-.29.16-1.89,1a23.77,23.77,0,0,0-4.85,3.55c-.65.79-3.4,1.79-3.55,1.45s-1-1-1.53-.41-1.78,1.91-2,1.75-.14.46.67,1.7-4,2.22-3.84,1.75.6-2,.32-1.92-3.48,1.67-6.82,3.47-14.77,8.35-18.05,10.43l-3.19,1.64-2.85,1.47c-2.92,1.82-7.32,4.32-9.77,5.56l-1.8,1.74L190,218.84c-2.63,1.51-5.9,3.26-7.28,3.9s-5.74,3.44-7.48,4.2-8.81,5.1-12.49,7.2l-3.3,1.93-1.58.92a12.26,12.26,0,0,0-5.6,3.58l-1.23,0-3.76-.09a41.13,41.13,0,0,1-8.16,4.66c-1.88.67-7.17,4.31-8.82,4.66s-5.32,4.24-6.67,5.16-6.64,1.91-7.4,2.28l-.34.51-1.29,1.94c-2.5.92-5.85,2.12-7.45,2.67a80,80,0,0,0-7.42,4l-1.13.53c-.63.29-1.43.37-2,.71-1.84,1.09-3.43,2.82-5.46,3.25l-2,.44c-1.95.81-5.3,2.09-7.44,2.87s-8.59,0-9.07.37S70,275.6,69,275.2s-4.48-1.64-5.76-2.26-6.49,2.25-9.54,2.9l-3,.13-2.47.11a12.82,12.82,0,0,1-6.1-4.1l.31-1.1L43,269a38.16,38.16,0,0,0,1.16-5.62c.06-1-3.24-2.22-3.58-2.41s-1.85-.86-2.54-1.22S37,256.83,37,256s-.3-3.16-.68-3.36l-.13,0-1.2.24c-1.31.29-2.07-.16-1.7-1l-1.14-1-1.2-1c-.54-1.67-2.21-6-3.71-9.56l-1.56-3.2-.54-1.1a36.81,36.81,0,0,1-3.28-3.55,25.47,25.47,0,0,1-2.91-5.81l-.4-1.17c-.34-1-1.4-1.72-1.19-3.05l.15-.93c-.88-1.14-1.78-2.36-2-2.7l.1-.22.57-1.23a31.29,31.29,0,0,0,0-4c-.08-.79,1.39-4.45,2.21-7.24l2.43-1.91c.45-.35-.16-1.54.28-2l.68-.65c1.16-.42,1.95-.92,1.74-1.11s-.11-.74.66-.81,1.45-2.75,2-3.77,1.24-2.79.71-3.61l1.12-.58.67-.35a2.92,2.92,0,0,1,.91-1.49l.34-.21,1.23-.76c-.73-1-.23-2.14,1.12-2.56s2.6-3.85,3-4.83,3.28-2.63,4.25-3l-1.18-1c-.22-.19.11-1.22.24-1.22l2.58-.13A15.62,15.62,0,0,1,43.39,171c.9-1.18,2.67-4.74,3.14-4.57a4.59,4.59,0,0,0,3.29-1c.94-.88,3.28-3.73,2.73-4.05s-2.57-1.14-2.79-.83a1.34,1.34,0,0,1-2.08-.55l-.63-.25-.8-.32c-1.16.12-3,.37-4.12.56s-5-1.38-6.89-1.49-7.6,1.29-8.54,1.54-3.42-2.72-1.4-5.24L22.77,152l-.55-.61c.26-1.19,0-2.22-.63-2.28a9,9,0,0,1-2.23-.47,5.23,5.23,0,0,1-.25-1.68c0-.62.08-2.82.17-3.52s-2.14-2.25-2.12-3.2l-.54-.37c-.77-.53-2.1-.47-3.14-.78l-.85-.26c-1-.5-1.81-2.29-1.73-4S7.59,129.24,7.5,129l.13-.14,2.42-2.62a37.75,37.75,0,0,1-7.36-4.62L2.5,120l-.23-1.88c.1-2.18-.15-3.85-.56-3.7a1.22,1.22,0,0,1-1.43-1l.31-.14c1-.42,3.78-.36.14-1.13-.17,0-.41-.19-.43-.3-.41-2.8-.71-5.61,1.27-8.13C2,103.22,3,103,3.62,102.57s2-1.62,1.87-1.8c-1.71-2,1.29-.69,1.49-1.42a5.88,5.88,0,0,1,1.48-2.86,34.88,34.88,0,0,1,5-3.65l1.08-.69a51.9,51.9,0,0,1,4.66-5.7l3.58.51.31.05c.44-.46,1.29-1.4,1.89-2.09s2.85-1.79,3.18-2.54S31.89,81.65,33,81s2.8-2.73,3.93-1.78l1.16-1.48.07-.1c-.85-.68-.78-1.24.16-1.24s2.92-.71,2.7-1.57l.25-.46L42,73.1c1.55.08,2.89-.32,3-.9s1.73-1.86,2.82-2.41A53.62,53.62,0,0,1,54,68.14c1.24-.32,3.58-2.48,4.18-2.62s2.55-.34,2.53-1.21l.06-.6,0-.28c.22-.29,2.19-.65,4.36-.79V60.41a20.05,20.05,0,0,0,6.2-2.28l1.42-.76.87-.46a9.73,9.73,0,0,0,4-.94l1-.43c1.13-.51,2.32-.93,3.41-1.48s1.79-1.15,2.78-1.58a9,9,0,0,1,2.2-.34c2.2-.28,4.19-.66,5.14-2.69a5.49,5.49,0,0,1,2.49-2c.41-.21,1,1.28,2.11.19l.89-.88a4.54,4.54,0,0,1,4.29-.11l.88-1.28c.25-.36.55-.71.81-1.07l.19-.26a3.28,3.28,0,0,1,2.1-.61c1-.05,3.46-1.53,4.23-1.35s2.48-1.32,3.26-1.1l.74-.44c.28-.16.9-.07,1-.25L117.6,37c4.42-1.73,8.48-3.4,9-3.71s3.1-.89,4.55-1.4,4.75-2.73,5.38-2.39,2.86,1.06,3.94-.08l1.33-.45,1.3-.44c1.9.19,3.22,0,2.92-.45s0-1.81,1.61-1.83l.73-.48,1-.63c.65.4,2.53,0,4.18-.92l1.52-.79.47-.25c.84.14,1.22.55.85.92l-.25.38a1.29,1.29,0,0,0,.72.49l.53-.06c.52-.21,1.27-1.48,1.66-2.84l1.8-.53c3.1-.93,6.7-1,9.05-3.3.16-.15.77-.05,1.16,0l1.34.14a7.76,7.76,0,0,0,3.75-.31,38.27,38.27,0,0,1,4.91-1.7c1.5-.41,5.15-1.93,5.69-1.56s2.24,1.16,2.31.77,1.66-.87,3.1-.95a57.16,57.16,0,0,0,7.21-1.85c1.21-.36,4.27,1.32,4.64,1.27a24.67,24.67,0,0,1,5.15,2.56c2,1.26,10.73-.8,13.36-1.41l2.78.62,2.13.48c2.7-.54,5.47-1,6.18-1.13s3.21.76,3.91.44,2.61-.48,2.62.38,3.14-.19,3.65-.31l.31.14,2,.92c1.85,1.3,4.08,3,5,3.76s3.85,2,3.57,2.29-.12,1.85.81,3.09l.76,1.17,1.63,2.49c3,2,4.87,4.12,4.26,4.62s-1.59,2.35-.66,2.89l.92.23.23.05a2.21,2.21,0,0,1,3.11-.24l.8.81c.27.28.09.85.14,1.29.1.93-3.08-.45-1.52,1.34,1,1.17,0,1.61-.62,2.39l-.61.72a2.71,2.71,0,0,0,.75,3.14c.86.58,1.25,3.43,1.49,3.78s2.65,3.65,4.77,6.55l-.51,3.3c-.27,1.79-.12,3.48,2.09,4.64l.69.37c.39.84.95,2.1,1.25,2.8s3.66,1.66,4.83,2l.17.52c.54,1.6,1.35,1.64,2.8.8.17-.1.73.11,1,.28l.47.29c.59.52.7,1.11.23,1.3a2,2,0,0,0-.76,2.4l.3.61.33.7c.31.78.64,1.68.74,2s-1.12,3.14-2.43,6.12l-2.93,2.08-1.49,1a33.5,33.5,0,0,1-2,5c-.42.7-3.75,3.19-4.93,4.72l-1.47.4c-2.5.67.2,1.3-.31,1.76a23.59,23.59,0,0,1-2.11,1.72l-1.86,1.32a32.69,32.69,0,0,0-4.93,4.09c-.65.8-3.34,2.76-3.08,3.55s-3.64,2.09-5.07,3.11l-1.18,1-1.34,1.17c-2,1.62-2.79,2.82-1.68,2.66s5.77-2.28,9.33-3.87l3.53-.93,1.94-.52a15.65,15.65,0,0,1,0-3.25l.2-.06c.35-.11,1-.15,1.13,0l.39.49c.39.86,1.3.92,2,.12l.58-.64c.3-.33.67-1,.92-.93l2.92.32c1.47-1.78,3.16-3.91,3.76-4.72s5.07-1.28,6.7-2.22l1.9-.25a5.64,5.64,0,0,0,2.37-1.12l.14-.11c-.43-.66-.35-1.19.18-1.18a6.61,6.61,0,0,0,2.87-.66,24.9,24.9,0,0,0,2.41-3.26l1.84.4c.89.19,2.59-1.2,3.48-2.15l.77-.82a25.83,25.83,0,0,1,2.34-1.23c.25-.08,1.41-.15,2.34-.32a15.8,15.8,0,0,0,5-2.65l.69-1c.73-1.1,1.92,1.88,2.23-.21s1.57.12,2-.31l.9-.94c.68.59,1.37.4,1.52-.4l.44-.59.31-.4a33.34,33.34,0,0,1,3.94-.57c1.39-.12,4.78-2.59,5.68-3.55l1-.73.21-.16c.92.36,1.74.27,1.84-.2s.82-2.15,1.2-1.56a2.25,2.25,0,0,0,2.57.75c.81-.51,2.27-1.49,2.52-2.46l1.72.12,1.16.09a10.46,10.46,0,0,0,3.5-2.73l1.39-.37c.7-.18,1-.72,1.76,0l.28.27a6.14,6.14,0,0,0,3.21-1.69l1.69-.36L349.9,72a28.07,28.07,0,0,1,6.15-3.31A108.33,108.33,0,0,1,367,66.17l1.44-1.27L370,63.52c2.45-.44,4.8-.06,5.22.85A17.91,17.91,0,0,0,377,67.56a1,1,0,0,0,.31-1.09c-.14-.53-.71-2.55-.83-3.35l2.64-1.48c2.18-1.22,5.68-.53,6.76-3.14a1.64,1.64,0,0,1,1.15,0c1.94,1.4,1.67,2.36-.94,3.64l-.08,0a19,19,0,0,0,4.65-.35l1.15-.38a9.15,9.15,0,0,1,3.84-.51l2.05.24c.4-1.33,1-2,1.34-1.57s1.7,1.78,1.89,1.3a25.41,25.41,0,0,0,.43-4.68l3.49-2.6.59-.44c.6-.5,1.35-.17,1.68.75s3.18,2.59,4.8,1.77,6.89-1.49,6.89-2.11-.41-2.41-.9-1.58-3.3.67-3.53.24l.06-.41c.09-.64-.73-2.37,1.61-1l.38.22c1.9-1.28,3.64-1.63,3.86-.78l.05.56.07.63c0,.79.39,1.44.94,1.44A4,4,0,0,0,424,51.05c.37-1,2.24-3.93,3-3.18s3.47,2.08,4.48,1.23l1-.44,1.26-.57c1.53-.41,3.72-.88,4.87-1l1.12.22a5.34,5.34,0,0,0,4.25-.94c.48-.35.95-.71,1.42-1.07L448.78,43l.68-.22c.74-.26,3.09-.94,5.22-1.5s8.13-2,9.79-2.24a54,54,0,0,1,7.51-.21c.8.17,1,2.29-.34,2.77s-2.05,3.67-1.39,3.21a4.3,4.3,0,0,1,4.22.62l1.21.77,1.12.71a17.78,17.78,0,0,1,5.35,2.55l-2.22,1.26-.44.25c.21,1.73.81,2.58,1.34,1.9s1.89-1.65,1.68-.46-1.69,3.15-.59,3.3a30.3,30.3,0,0,0,5.85-.59c1.27-.25,2.16-3,2.71-2.6a3,3,0,0,0,3.19-.12,15.8,15.8,0,0,1,5.07-2.16c.81,0,2.38-1.58,3.28-1.36l.82.13.52.08c.6,0,.94-.32.75-.66s.85-1.2,2.25-1.88,5.93-2.41,6.74-2.76,1.47-2.51,1.63-2.68a1.62,1.62,0,0,1,1.59.08l.43.39.24.22c.19.36,1.23-.64,2.31-2.22l1.07-1.37a1.84,1.84,0,0,1,1.35-.59l2.22.29c1.54-1.18,3.48-2.64,4.3-3.25l1,0,1.41,0c1.27-.49,2.64-1.07,3.05-1.3s.52-1.7,1.5-2.35l1-.23a19.74,19.74,0,0,1,4-.28c.93,0-.74-2.61,1.76-1.15.19.11,1.39-.92,2.11-1.44A13.11,13.11,0,0,1,545.57,27c1.1-.54,2.31-.95,3.38-1.53l.95-.51a7.11,7.11,0,0,0,4-1.53l1-.8,1-.8a5,5,0,0,1,2.69-1.15c.65,0,1.68-.47,1.1-1.19l1.16-.77c1.34-.9,1.94-.08,3,.36l.49.21A36.05,36.05,0,0,0,568,16.74l1.49,1.2c.55.44,1.11-.15.4-1.43l-.29-.54a16.1,16.1,0,0,1,3.5-1.85l1.76-.22c.34,0,.41-1.54,2.05-1.62l.69,0c.78,0,3-.2,4.91-.45S587.3,7.24,588.71,7s6.3-1.28,7.73-2.11,3.46-1.77,3.85-1.45,1.89,1,2.24.53l-.1-.25-.2-.54a1.08,1.08,0,0,1,.5-1.66,20.94,20.94,0,0,1,5.13-.9L609.6.29l1-.17c1-.53,4.46.69,7.74,2.7l3,1.87.5.32a10.16,10.16,0,0,0,3,1.56c1.21.41,4.8-.57,6.7-1.2l1.82.79c2,.86,4,1.8,6.42,1.45.63-.08,5.89,2.79,6.71,3.18.62.3,1.65,0,2.34.25.84.31,1.46,1.23,2.28,1.33,2,.26,1.27,1.4,1.22,2.19l0,.52a8.49,8.49,0,0,0-1.67,2.54c-.33.84,2.84,3.5,2.29,3.83a3.49,3.49,0,0,0-1,3.32c.46,1.21,4,3.27,3.5,4s-1.34,2.94-1,3.24,1,1.34.83,1.83a11.71,11.71,0,0,1-.93,2.14c-.25.23-1.54.33-2,.92l.18.23.9,1.14c1.16,1.16,2.27,2,2.45,1.85s1.27-.45,1.22.16a8.31,8.31,0,0,1-.56,2.18,2.82,2.82,0,0,0,0,2c.31.84,1,4.65,1.47,6.57l1.34,1.62.73.88a3.77,3.77,0,0,0,2.43,4l1.44.62.33.14c1.25,1,1.77,2.19,1.16,2.53a2.8,2.8,0,0,0-.84,2.48c.09.92-2.09,4.47-2.72,6.37h-3.65a2,2,0,0,0,.73,3.12l1,.5c.48.24.46.17,1-1.1.22-.51.71-1.29,1.15-1.32,2.55-.19,4.16-3.6,7.35-1.43l5.5-3.08.23-.21a7.37,7.37,0,0,1,2.38-.79,14.26,14.26,0,0,0,4-2.09c.4-.4,4.22-.53,5.55-1.55l1.15-.88,5.07-1,.9,1.07c.92-.62,2.7-1.86,4-2.76s5.16-4.37,5.72-5.9l2.29,1.51c1.38.9,3.54-.49,4.89,1l.18.2a13,13,0,0,0,3.93-2.38l1.82-.61c5.41-1.79,6.4-2.48,8.86-1.4l2.22,1c2.53-.12,4.33-.67,4-1.22s.36-2.46,2-3.42a72.68,72.68,0,0,1,8.36-3.25l.67.42c.86.52,1.94.56,2-.64s1.35-1.25,2.06-1l2.93,1.15c3.11-.57,5.64-1.75,5.63-2.62s4.29-1.87,7-2.35l2-1a17.67,17.67,0,0,1,4.21-1.06l1.19-.22c1-.91,2.13-1.24,2.48-.74s1.67,1.72,2.09,1.56l.22-.17,1.14-.9a4.22,4.22,0,0,1,4.48-.55l.82-1.71c.11-.25,1.77-.1,2.68,0l.52.07a9.73,9.73,0,0,0,3-.87c1.13-.49,5.76-.38,8,0l1.61-1.64c.57-.59,1-.75,1.74-.11l.33.27a19.93,19.93,0,0,0,3.23-1c.88-.37,5.11-.49,6.79-1.1L810,30l1.91,1.5a23.24,23.24,0,0,1,5.08-2.9l1.38-.42c.2-.06.56.16.82.29,2.72,1.33,2.92,1.48,4,.5l1.4-1.23c1.36.61,3,1.28,3.62,1.48s2.1-1.58,2.59-2.17h.44c1.56,0,.83,1.13,1,1.82l.08.29c.13.24,2.21-.46,4.63-1.56l2.25-.93c2.53-1,1.56-.63,2.88,1.69l1.23,2.17c-1.52-.06-2,.53-1,1.31l.67-.11c1.13-.2,2.75-1.72,3-1.55,1.25.85,2.7,1.11,3.68.38,1.22-.89,1.48-.05,2.22.25l.29.11c.65-.41.48-1.12-.38-1.58l1.47-.35a2,2,0,0,1,1.48.9c.29.69.35,1.27,1.23.41l.19-.19c-.09-.67,1.65-.78,3.86-.23s6.14,4.24,5.47,4.67-1.39,2.31-.61,3.11,3.52,2.66,4.44,2.4,3.34-1.31,3.34-1.77,1.47-1.38,3.25-1.1l-1.91,2-1,1A35.29,35.29,0,0,0,876.56,43c.55.34-1.49,2.35-1.93,2s-1.62-1.12-1.72-1a7.67,7.67,0,0,0-.15,1.89c0,.86,4.11,2.09,5.76,2.93l-1.91,1.82-.48.45a14.14,14.14,0,0,0,3,3.39c.71.42,1.13,2.3,1.77,2.73s-1,2.29-1.31,2.67-.22,1.69.17,1.47l.32-.23.44-.33a1.47,1.47,0,0,1,2,.11c.49.59,1,2.55.31,3.33s-4.14,1.45-5.34,1.45-4.76.57-4.76,1.25-.55,2.44-1.23,2.23v-.06l.29-1.35c.15-1.56-.32-2.84-1-2.84a9.05,9.05,0,0,0-2.46.25c0,.13.41,1.13.69,1.85s-3.29,2.21-2.73,1.69l0-.29c.06-.87.36-2.27-.15-2.52-1.51-.75-1.43.58-2.05,1.29a10.45,10.45,0,0,1-3.64,2.07,4.63,4.63,0,0,1-2-.11l-.69-.1c-.7-.16-3,.5-5.16,1.47l-1.77,1c-.75.44-3,.85-1,2.28h0a13.92,13.92,0,0,1-3.72,1.38c-1.73.46-4.93,3.75-5.29,3.89a17.71,17.71,0,0,1-4.33-.67l-.73,1.71-.72,1.71c-1.53-.3-3-.18-3.2.26a8.9,8.9,0,0,1-1.73,2l-.29,0a7.28,7.28,0,0,0-7.8,3.13l-.89,1.44c-1.47.7-2.84,1-3,.62s-2.79-.71-5.29,0l-2.22.68-.42.13c-.32.4-1.37,1.7-2.33,2.87s-2,4.18-1.78,3.3-1-2.91-1.91-2.53-2.52,3.36-2.89,2.44l-.59-.27c-.94-.44-1.77-.17-1.93,1-.05.32-1.07.78-1.65.78l-3.6,0a39.8,39.8,0,0,1-8.71,5.91l-2.59.41c-.08,0-.19.79,0,.89,1.44.79.94,1.42-.13,2.1-.47.29-.79.84-1.29,1l-.61.17a1.28,1.28,0,0,1-1-1.66h.2l1.75,0c-.26-1-1-1.66-1.76-1.37a24.58,24.58,0,0,0-3.14,1.89c-.44.35-2.22-.38-2.66-.22s-3.91,2-6.8,3.65l-2.6,1.51-.86.5a3.79,3.79,0,0,0-2.45.09c-.39.27-.54,1,.52,1s4,.2,4.28.71.77,2.4.08,2.58l-.54.25-.5.22c-.52.38-1.12.4-1.32.06s-1.75-.38-2.86.92l-.82,1.19c-.2.3.17.86.29,1.29l.11.35c.14.37-.29.72-1,.76l-.38-.22a4.73,4.73,0,0,0-2.73-.72l-.38.07c-.45,0-1.54-.19-2.44-.35s-2.22-2.41-3.93-2.68l-1.26.39-2.55.8c-1.67,2.1-3.56,2.94-4.19,1.88h-.46a3.4,3.4,0,0,0-2.29,1.14l-.73,1a7.59,7.59,0,0,0-.4,3.51h1.39a3.19,3.19,0,0,1,.15,2.16c-.21.46-1.44,1.64-2,1.1s-1.53-2.41-2.13-3.17l-1.21,0H733a4.69,4.69,0,0,1-.24-1.23c0-.19-.64-.58-1.48-.47v.14l-.22,2.63c-2.68.18-4.44.95-3.9,1.7s3.67,1.17,3.88,1.9.17,3.06-.65,3.24-2.94-3.15-4.23-4.56l-2.38,2.06-.53.45c-1,.3-1.48.66-1,.8s.63,1-.51,1.56.29,3.5-.55,4.16l-.54-.11-1.19-.25c-1.51-.84-2.6-1.11-2.42-.59s.17,2-.41,2.08-2.37.94-1.83,1.55,1.06,2.53-.27,2.69l-.61-.36-.74-.43a11.61,11.61,0,0,0-.46-2.73,4.74,4.74,0,0,1,1.4-3.52c1.15-1,.45-4.39-.37-3.95s-2.67,2.18-2.45,3,.07,2.6-.74,2.25-5.29,2.4-6.27,2.17l-.84-.29-.82-.28a6.18,6.18,0,0,0-2.86.18c-.58.26-1,2.56-1.12,3.5h-.16c-2.51,0-1.66,1.62-2.09,2.67l-.23.57c-.89.55-1.76.65-1.93.21s-1.1-1.07-1.67-.47-2.66,2-3.5,1.93-.4,2-.14,2.17a5.08,5.08,0,0,1,.66,1.8c.13.59,2.86,1.38,3.49,1.71s1,2.06-.54,3.07L691,155.69l-.55-.67a16.5,16.5,0,0,0-2.65-.67c-.21,0-2,.41-3.49.83l.25,1.73.17,1.11a12.82,12.82,0,0,0-3.57-1.37L681,158a2.93,2.93,0,0,1-.75,1.59l-.09.11a2.5,2.5,0,0,1-1.59-1.36,6.27,6.27,0,0,1,1.18-2.92l.65-.56c.2-.16.9.07,1.1-.1.35-.29.72-.78.66-1.13s-.69-.71-1.12-.75l-1.11-.1c-1.46,0-2.42.58-2.15,1.21s-1.66,1.45-2.82,1.38l-1.06-.12s.05-.32,0-.46l-.83-1.86a14.79,14.79,0,0,0-4.93-.7l-.11.29a1.31,1.31,0,0,0,.49,1.23l2.64,2a14.6,14.6,0,0,0,2.5,3.88l.42,0a1.51,1.51,0,0,0,1-.86l.25-.6c.19-1.22,1.76.31,3.49,3.42l2.54,1.69c.84.56,1.76.56,2.11-.58l.11-.34a5.41,5.41,0,0,1,1.67-1c.58-.22,2.37-.16,2.61-.68a1.84,1.84,0,0,1,2.7-.14c1,1,2.87,3.42,2,3.31s-3.17,2-4.68,2.53l-1.15.8-.12.08a.79.79,0,0,1-.56-1.07c.21-.41.33-1.55-.25-1.55s-1.54,1.18-1.35,2.63l-.44,1.09-.43,1c.51.19.49.85,0,1.47a4.2,4.2,0,0,1-4.28.44l-1.05.1c-2.29.24-1.42-1.58-2.48-2-1.53-.63-1.58-.66-1-1.12,1.1-.85,1.76-2.17,4-1l.93.49c.7-1.63,0-3-1.64-3s-5.5,1.6-7,2.58l-.48,1.15-.4.94a22.35,22.35,0,0,0,2.06,3.33c.46.54-1.53,2.07-3.54,1.51l-1.84-.54-.06,0a18.45,18.45,0,0,1-.64-3.93l-.66.9c-1,1.42-.71,1.41.89,1.89.68.2,1.4,1,2.17.63l.45-.19a9.81,9.81,0,0,0-.47-3.32c-.34-1.06.08-3.68-.69-3.33l-.58.09-.87.14c-.25,1.81-.6,4.26-.79,5.45s0,3.16,1.51,3.68l1.13.46c1.5.63,1.43.82-.46,1.95l-.27.16c-.12.34-.35,1.08-.51,1.64s-1,1.61-1.56,1.56a6.94,6.94,0,0,0-3.64,1.54l-1.51-.09-1.16-.07a12.61,12.61,0,0,1-2.09,2.38,10.41,10.41,0,0,1-4.56,1.27c-.88-.08-2-1.82-1.53-2.06s1.47-1.51.64-1.93l-.59-.37c-.85-.55-1.35-1.21-.38-2l.77-.61a12.43,12.43,0,0,1,4,.22c1.08.28,3.21-2.72,3.49-3a30.54,30.54,0,0,1,3.77-1.59l-1.36-1.08a6.69,6.69,0,0,0-1.35-.85l-.46-.2c-.62-.11-.79-.49-.37-.83s1.56-1.7,1.13-1.89a3.41,3.41,0,0,0-2.76.7c-.69.74-2.25,4.88-3.29,5.07s-4.06.44-3.76,0a5.54,5.54,0,0,0,.62-2.63l-.36-.15a1.9,1.9,0,0,0-1.52.29l-.68,1a3.11,3.11,0,0,1-3.38,1.65l-1.19-.06c-.28,0-.82.87-.88,1.37l0,.43c.39.51,0,.84-.75.73l-.55-.31-.79-.46c-.74-.67-.92-1.42-.4-1.66a5.85,5.85,0,0,0,1.55-3l-.33-.88-.35-.92a5.36,5.36,0,0,0,.8-1.65,10,10,0,0,1,1.91-2c1-.94,5.85-3.58,7.35-4.51s5.59-3.29,5.85-3.09l0,.22-.21,1c-.3,1-.23,1.48.16,1.08a17.13,17.13,0,0,1,2.63-1.21,8.46,8.46,0,0,1,3.44-.2v-3.39a37.92,37.92,0,0,1,3-3.36c.34-.26.23-.62-.09-.52s-2,.15-2.91.25-2,2.4-2.82,2.77l-.2-.16Zm-7.39,16.19a17.15,17.15,0,0,1-3.55.38l-1-.06-1.63-.12c-.7,1-1.07,2.18-.81,2.58a2.09,2.09,0,0,0,2.51.33c.81-.65,2.25-5.25,2.52-4.08S651.05,170.75,650.51,170.93Zm-392,7.76c-4.87,2.63-4.88,3.34-.3,5.33C258.29,182.38,258.38,180.88,258.5,178.69Z"/><path class="cls-4" d="M579.8,264.32a10.41,10.41,0,0,1-2.94-1c-1-.49-4.32-1.66-5.24-1.49s-2.78,1.8-3.22,2-4.57,1.28-4.83,2.15l.83.12c.33.05.85-1,1.38-1.5l.68-.63c.84-.63,1-1.49.41-1.91s-3,1-3.49,1.3,1.12,1.6,1.68,2.27,1.07,1.76-1.55,1.43-7.19-4.17-7.41-4.52a3.78,3.78,0,0,0-2.59-.9l.59-1.14.63-1.2c.64-1.53.5-2.81-.31-2.84l-.73.06-2.12.18a68,68,0,0,1-3.83-8.74l-1.24-3.13-.21-.53c-.32-.35.19-1.19,1.13-1.89s3-2.8,2.57-3.19,1.73-1.65,2.63-2l.8-.36.13-.06c.07-.19.28-1,.48-1.84s2.52-3.3,3.12-4,1.85-3,1.63-3.34v-1.38c1.23,0,3.73-.21,5.55-.43l-.09-1.15,0-.58c-1.34-.71-1.89-1.5-1.22-1.75s2.7-.77,3-1,.28-1.26.89-1.62l.46.07.93.16c1.29.08,1.81-.59,1.16-1.5s-1.85-3.1-1.14-2.77,3.39.45,3.92-.43l.48-.81c.29-.5.43-1.21.92-1.45l.82-.4c1-.35,1.65-.9,1.49-1.22s-.09-1.49,1.07-.89,3,2.31,2,2.76l-.23.63-.19.52a35.21,35.21,0,0,0-3.77,3l.3,1.23c.09.39.43,1,.79,1l.43.09c.6-.27,2.27-.89,3.72-1.39l-.18-1.56-.27-2.24a24.09,24.09,0,0,1-4.11.49c-.27-.07,2.76.28,4.16.31s3,1.82,3.37,2a3.87,3.87,0,0,1,1,3.5l-2.58.09h-.15a4.67,4.67,0,0,1-1.51,2.65c-.71.53-4.19.89-5,.79s-2.72,1-2.8,1a2.32,2.32,0,0,1-.37-1,3.68,3.68,0,0,0-3.09-1.75l-.33.49c-.88,1.29.73,1.32,1.77,1.64l.3.1a1.64,1.64,0,0,1-1.3,1.56l-.58-.15-2.77-.75c-.6,1.61-.73,2.94-.28,3a13.21,13.21,0,0,0,2.38-.29c.48-.12,3.16-.59,4.89-.78l2.15,2.08c1.21,1.16,2.28,2.09,1.18,3.68l-.39.55c-.21.72.94.61,2.54-.22l.52-1.08c.3-.61-.66-1.62-1.06-2.45l-.4-.84c-.43-.91-.09-1.47.78-1.23s2.68,1.15,2.49,1.61-.05,1.35.61,1.17,1.4-1.93,1.65-3.31-.52-4.45.74-4.09,5.15,1.13,4.48.55-.48-2.23,1.18-3l.81-1.08.8-1.08c1.08-1,1-1.81-.27-1.81a35.2,35.2,0,0,1-6.26-.63c-1-.34-2.65-2.05-2.26-2.17a2,2,0,0,0,.6-2.3c-.43-1-3.56-2.25-2.94-2.5s2.39-.68,2.51-.32l.26.3c.28.33.72.77,1.1.78s1.18-.39,1.21-.65l.12-1.26a5.82,5.82,0,0,1,.41-2.85h.13c.15,0,.28.2.42.32s.38.34.41.32c.85-.48,1.71-1,2.53-1.48l1.23-.8a5.16,5.16,0,0,1-1.24-2.13l.16-.06c.34-.11.93-.2,1.11-.05a3.07,3.07,0,0,1,.72,1.15l.49,1.06a8.69,8.69,0,0,0,2.86-2.05c.65-.76,2-3.24,1.74-3.94l-.15-.7c0-.06,1.29-.5,1.46-.35l1.92,1.64c.64-1.39,1.38-3.11,1.64-3.82s1.75-2.49,2.75-2.29,3.75.22,3.86-.36.68-2,1-1.54,1.71,1.5,2.59,1.24l.3-.44,1.39-2c2.23.53,4.16,1.22,4.29,1.53a2.23,2.23,0,0,0,2.31.74,15.66,15.66,0,0,0,3.83-2.66l-.14-.09-.52-.34a2.86,2.86,0,0,0-2.08.19,2.21,2.21,0,0,1-2.83-.82l-1-.51-1-.5c-2.41.07-3.08-.07-1.48-.3s2.34-2.93,2.71-2.92,1.22.17,1.06.37a1,1,0,0,0,.44,1.24,19.66,19.66,0,0,1,3,2.23l.66-.89.29-.39a2.78,2.78,0,0,0-.23-1.58c-.21-.35.94-1.65,1.42-2s0-3,.59-3,2.63.35,2.33,1-.8,2.34-.54,2.4,1-.6,1.6-1.37,3.56-3.16,5-3.1l1.3.46c1,.36,1.69.73,2.44-.07a.8.8,0,0,0,0-.91l-.62-.47c-.76-.36-1.76-.8-2.24-1s-1-.83,0-1.32l.47-.63.2-.26c-.65-.73.1-1.39,1.67-1.45s4.94-2.5,6.64-1.7l-2,1.51a2.2,2.2,0,0,1-1.62.37l-.9-.5a7.52,7.52,0,0,0-2.7,2.72l1.71,1.34,2,1.62c-.29,1.6-2.7,1.95-5.34.78l-1.32,3.18c-.05.13-.74,0-1.1.12l-2.35.6c1.16,1.29,2.69,1.88,3.38,1.32s3.17-1.84,3.9-1.53,1.66,1.32.39,1.58-2.81,4.92-3.13,5.9l0,.89a2.22,2.22,0,0,0,1,1.65l.38.22a6,6,0,0,0,2.58-2.37l1.24-.54c.53-.24,1.32-.82,1.25-1.13l-.53-2.16c-.22-2.33-.14-4.27.18-4.31a2.52,2.52,0,0,1,1.72.68c.3.45,1.22,1.85,1.4,2.11a2.71,2.71,0,0,0,2.25.49l.25-.45.91-1.59c1-2.37,2.62-3.5,3.54-2.51s.65,4.06.14,4.08-4.26,2.91-3.23,3l.73-.09,1.14-.16c1.5-.32,2.39,0,2,.67s-1.78,2.45-1.88,2-1.3-.93-2.53-.63l-1,.44c-.15.06.26,1,.44,1.58l.18.52c.34.82-.25,1.29-1.31,1a6.68,6.68,0,0,0-4.1,1c-.59.55-3.4,2.1-4.8,2s-5.31.76-5.78.15-1.2-2.54-.31-2.63l.51-.15a5.5,5.5,0,0,0,1.8-.74l.15-.12a7.41,7.41,0,0,0-2.13-1.82c-.76-.43-2.39-1.78-2.19-2.24s.14-1.69-.84-1.14-2.17,3.68-1.75,4.81l.1,1,0,.48a2.47,2.47,0,0,1-1.16,1.53l-.15-.09-.55-.35a4.44,4.44,0,0,1-.9-1.73c-.06-.45-1-1.28-1.24-1.09s-1.09.85-1.4,1.06-3.53.83-3.72,1.27l.12.52.1.45c-.34.55-.8.89-1,.74a.94.94,0,0,0-1.29.84c0,1-1,3.31-2.12,3.45s-4.37-1.74-5.37-2.33l-1.07,1-.12.1a3.39,3.39,0,0,1-1.52-1.21c-.23-.42-1.23,1-.59,2.16l1.68.28c1.62.28,3.24.62,4.84,1l.24.06c0,.14-.31.66-.78,1.15a6.7,6.7,0,0,1-4,.94l-.69.35-.66.34a6.47,6.47,0,0,1-2.85,2.81l-1.47-.46-.25-.08c-.45,0-.78.5-.73,1.18s1.08,2.72,2.12,2.26,4.92-1.61,5.45-1.18,2.06,1.22,2.41.94,1.19-1.53.78-2-1.38-1.93-1.07-2.06a14.85,14.85,0,0,1,3.19-.15l1.27-.26,2.09-.43c-.79,3.58-1.53,7.79-1.66,9.36s1.62.29,2.56-.89,5.76-2.29,6.26-2.35l.07-.18c.17-.39.23-1.19.1-1.23a14.35,14.35,0,0,1-2.7-.45c-.8-.41-1.24-1.27-1.93-1.85-.09-.08-1.08.29-1.08.44l0,.92a7.87,7.87,0,0,0-2.54,1.68l.18.3c.38.62,1.46.92.2,1.75l-1.36.9c.24-1,.89-3.28,1.43-5a14.44,14.44,0,0,1,3.26-5.23l1.06-.64c.25-.15.86.1,1.13-.05.51-.28.83-.77,1.33-1.09l1.95-1.24c1.2-1.89,3-3.27,4-3.07a34.66,34.66,0,0,1,5.76,1.69l-1.74,1.14-.46.3a7,7,0,0,1,.52,2.26c-.1,0-1.52-.18-2.93-.46l.1,1.6c.08,1.25,1.38.81,2.21.82h1.74a58.34,58.34,0,0,0,5.23-4.09c.5-.54,2.41-.16,2,.55a33.27,33.27,0,0,0-1.59,6.05c0,.82.92.87,1.48.43s1-2.72.33-3.84l-.12,0-1.69.53c-1.65.79-3.66,1.77-4.47,2.18s-2.78,2.05-2.41,2.66,1.62,2.11,1.8,1.7.83-1.21,1.13-1,1.29.24,1.35-.26,3.6-4,4.9-4.21a18.77,18.77,0,0,0,5.92-3c.83-.86,4.39-1,4.46-1.31a5,5,0,0,1,1.8-2c.83-.44,2.62-2,2.11-2.42s-2.1-1.29-2.24-.83a13.51,13.51,0,0,1-1.22,1.89c-.33.55-.65,2.14-1.24,2.1a11.69,11.69,0,0,1-2.91-1.54c-.54-.37-1.61-1.87-1.17-2.55s3.15-.52,4.65-.43l.41-1.1c.38-1-.29-2.32,2-2.19l.54,0a5.12,5.12,0,0,1,2.34-.11c.67.15,2.44,1.29,1.83,2l-.48,0c-1.42.13-1.78.91-1.14,1.55a3.57,3.57,0,0,0,2.65.38l1.13-.31a20.18,20.18,0,0,0-.32-4.78l-.47-.41-.42-.37c-1.42-.41-1.39-.7.05-.66s3.93,2.82,5.12,3.36l.61.93a1.81,1.81,0,0,0,1.52.32,39.85,39.85,0,0,0,4.13-2.37c.2-.13.18-.65,0-.91s-.63-.57-.84-.52l-1.15.3c-1.62.53-2.62.43-2.23-.21s1.63-1.61,2.12-1.05,2.83-1.33,3.64-1.93a13.36,13.36,0,0,1,5.61-1.62l1.29.19.29,0a15.63,15.63,0,0,0,4-1.82l1.36-1.17.81-.69c-.3-1.45.16-2.78,1-3s4.18-.52,5.56-.79,2-3.19,1.59-3.57h0L690,175.89c-.8-1.49-1.53-2.3-1.64-1.82s-1.1,2.09-1.89,2.09-2.89.39-2.44.87-1.47,2.18-2.58,2.32l-.08.32c-.14.58.88,1.6.6,1.87-1.15,1.08-1.85-.13-2.76-.56l-.44-.2c-.7.09-.94-.21-.53-.68s1-1.71.6-2a4.74,4.74,0,0,1-.59-3.59l2,1.37a2.42,2.42,0,0,0,1.93-.22c.61-.5.8-1.34,1.36-1.9l.15-.14a1.39,1.39,0,0,0,1.85-.85l.32-.64,1.14-2.27c2.14,1.16,4.12,2.17,4.4,2.24s1.53-1.26,2-3.12l-1.92-1.4-.59-.42c-.16-.91.61-1.06,1.7-.33l1.11.48.36.16c.71,0,1.35.2,1.42.55a1.23,1.23,0,0,0,2,.08l.18-.69.59-2.15a6.35,6.35,0,0,1,3.23-1.7c.76,0,2.78-.55,2.78-1.22s.33-2.6,1.31-2.24,4.52.67,5.67-.11-.09-4.4.19-4.76.73-.63.56-.07,3.46-.39,4.56-1.21,5.17.66,6,.43l.11-.37.31-1a6.49,6.49,0,0,0,2.77-1.18c.58-.49,1.18-1.73.11-1.69s-2.85-.34-1.78-.58,2.58-2,3-1.37a6.33,6.33,0,0,0,3.34,1.62c.84,0,3-1,1.72-2.16s-1.89-6.17,0-8.27l1.79-1.87c.16-.17.75-.17,1.1-.1l.26.06a8.44,8.44,0,0,1,.67,2.88l-.14,1.2-.05.46c-.09.87-.72.61-1.4-.58l-.56-.06-.72-.08a6.85,6.85,0,0,0-1.75,1.57,1.89,1.89,0,0,0,.7,1.48c.51.35,1.94,2.43,3.31,3.25l1.36-1.44a7.47,7.47,0,0,1,1.89.77c.64.33,1.22,1.07,1.81,1l1.24,0c1.32-.3,2-.77,1.54-1a23,23,0,0,0-3.53-1.18c-.87-.22-3.26-1.32-2.86-1.83l.17-.58.18-.58c-.08-.75.3-1.16.83-.93a4.8,4.8,0,0,0,2.58-.06,14,14,0,0,0,2.43-1.19c.44-.43.59-2.13-.71-1.75a40.34,40.34,0,0,1-5.15,1.13v0a2.82,2.82,0,0,1,.27-1.29c.1-.17.68-.15,1-.23l2.47-.56a6.8,6.8,0,0,1-.48-3.5l.54.25,1,.48c.89-.28,1.66-.17,1.72.26a27.3,27.3,0,0,0,1.82,3.89c.74,1.35,2.7,5.73,3.23,6.56l.77.26a6.2,6.2,0,0,0,2.75-.24c.14,0,.28-.58.2-.85-.34-1.18-1.55-.6-2.41-.73l-.19,0c-.21,0-.41-1.07-.44-2.37s2.05-4.53,2.27-4.71a21.36,21.36,0,0,1,5.54-.75l1.23-2.17c.53-1,1.4-.8,2.31-.19l2.09,1.37c1.41-1.26,2-2.52,1.25-2.79s-2.92-.48-3.21.05-.86-1.32-.43-1.86l.51-.07,1.57-.21a6.92,6.92,0,0,1,2.78-1.43l.23.15,2,1.27a7,7,0,0,1,2.58-2.16c.57-.13,2.62-.41,3.38-1.38s3.36-3.08,2.93-3.74a24.17,24.17,0,0,1-1.54-3.3c-.14-.47,1.31-.5,1.21-.09l.2.16.72.56a3.77,3.77,0,0,1,1.67,2.06,8,8,0,0,0,.87,2.48c.24.21,1.6-.44,2.49-1.88s3.42-4.9,3.75-4.64,1,1.09.77,1.28-.46.88-.1,1.14l.27,0c.5-.07,1.34-.31,1.37-.53l.15-1.06c0-1.1-1.39-2.41-3-2.92s-4.33,3.87-4.43,4a1.4,1.4,0,0,1-1.62-.37c-.55-.66-2.93-1.38-2.91-1.83a8.76,8.76,0,0,0-.29-2.08c-.12-.25-.12-.9.27-.87s2.37,1.48,3.7,2.13l1.05-1.54,1.23-1.8c2.79-1,4.64-1.47,4.12-1s-1,2.06.24,2.08l.92,0,1.15-.07a4.24,4.24,0,0,0,1.71,1.6c.49.18,2.41,0,2.41-.93s.33-3.39.75-3.39,1.14.31,1,.68v.92a4.61,4.61,0,0,1-.87,2.65l1.07.41.71.27c1.13-.29,1.77-1.13,1.44-1.86l-.28-.67,0-.09a3.54,3.54,0,0,1,.57-.49l.13,0,1.2.25c1.31.29,2.41,0,2.45-.59l-.17-.52-.17-.54c-.08-.82.26-1.21.74-.87s2.38.92,2.84.32a5,5,0,0,0,.53-2.55c0-.66,2.4-1.29,3.82-1.37s2.69-3.45,3.15-3.79l.42,0a1.52,1.52,0,0,1,1,.83c.18.44-.13,1,.1,1.42a1.74,1.74,0,0,0,1.34.56l1.09-.45a18.63,18.63,0,0,1,2.77-1.36c.5-.14,1.6-.65,1.14-.83s-1.46-.84-1.26-1.08a15.33,15.33,0,0,1,3.51-1.32c1.48-.41,5.64-2.12,6.78-1.79l1,.07,2,.13a6.61,6.61,0,0,1,0-3.45c.29-.72,2.88.11,3.4-.24l.3-.4c.81-1.07,1.09-3,3.37-1a2.58,2.58,0,0,0,1.81-.45c.78-2,1.73-3.27,4.39-1.38l.23.16c.94-.47,3.45-2,5.59-3.36l1.95-1.25a8.55,8.55,0,0,0,1.45-1.43l0-.23a5,5,0,0,1,.84-1.77c.47-.72,3.16-1.17,2.92-.41v.61a2.3,2.3,0,0,0,.52,1.36.89.89,0,0,0,1.61-.27l.77-2.73a45.33,45.33,0,0,0,10.33-4.1l3.17-.13c.3,0,.62-.64.84-1l1.06-1.82c1.05,1,2.23,1.17,2.63.28s5.81-2.21,8.47-3.27l.94-1a18,18,0,0,1,1.8-1.8l.2-.16c.73.07,1.17.52,1,1a.92.92,0,0,0,1.35,1.1c1.17-.47,4.79-2.06,5.74-2.62s4.17-2.3,5.52-2.29,4.32-1.61,6.1-.24l-2.38,1.93-.07.06c.87.85,1.9.47,2.3-.86s2.07-4.31,2.92-3.92,2.37,1.92,2.46.58l2.31.49c.46.1,1.19-.43,1.7-.77.13-.08,0-.67-.25-.82-1-.71-1.75-.15-2.44.46l-.08.07c-.54.07-.69-.46-.35-1.18s1.47-2.29,1.84-2.05,1.63-.16,2.09-.87,4.1-1.8,4.87-3.2l2.27,0h.66c.85,1.36,1.81,2.32,2.15,2.12l0-.1c-1.14-2.36,1.95-3.18,2.65-4.86l0-.11c.2-.09,1.42-.48,2.72-.87l1.47.61c1.88.79,2.35-.62,3.21-1.69.61-.75,2.72.45,3.33-1.67.5-1.72,3.46-1.92,5.27-1.49,1.18.27,1.7.48,1.59,1.48l-.07.76c0,1.2.9,1.64,1.93,1l.13-.47.48-1.6c-1.23-1.37-.66-3.26,1.28-4.22l1.81-.9c.48-.24,1-.81,1.37-.75,5,.79,6.76-3.65,10.81-4.38l.28-.05c.2-1,.54-1.47.76-1s2.18,1.24,3.83.66,4.42-3.65,4.62-3.36l.14.27.14.28c.18.49.94.39,1.69-.22l.62-.5a10.47,10.47,0,0,1,1.72-1.32l.13-.07a.85.85,0,0,0,1.48-.37l.51-.3.41-.24a21,21,0,0,1,2.33.75c.44.2,3.09-1.16,4.79-2.17s6.46-3.05,7.9-3.66l1.26-.63c.49-.25,1.09-1,1.23-1l1.32.59a5,5,0,0,0,3.7-2l1.71.22a12.17,12.17,0,0,1,2.72.73l.42.21c.65,0,1.13-.2,1.07-.39s-.42-1.08-.64-1.57h1.73a5.16,5.16,0,0,0,2-.55c.82-.37,1.54-.87,2.33-1.28l.12-.07c.32.07.45.51.29,1s-.42,1.81-.19,1.95a1.23,1.23,0,0,0,1.36-.66l.4-.51,2.3-3c2.7.43,5.65.51,6.54.19l.49.29c.5.3.43,1.33.93,1.53l.78.31c1.19,0,2.16-.58,2.16-1.24s-.63-2.62-1.41-2.66-2.91-.49-2.8-.88l.2-.09.78-.38a6.06,6.06,0,0,1,3.3,0,16.62,16.62,0,0,0,4.48-.22l.39.09c2.1.45,2.88,1.45,2.3,2.94-.11.27-.75.45-.77.69l0,.54a1.33,1.33,0,0,0,1.67.77l.4-.37,1.56-1.49a24.2,24.2,0,0,1,4.51,1.4c.05.16,1.3-.06,2.62-1l1.23,0,1.79-.08c2,.48,3.82,1.49,4,2.26s2.85.88,3,1.19a10.92,10.92,0,0,1-.16,3.57l2.37-.16h0a13.14,13.14,0,0,1-1,4.55l1.32,1.74c.66.88,2.81,2.6.2,4-.1,0,.39.78.53,1.21s.26,1.1.39,1.65l.23,4.2.71,1.7a20.24,20.24,0,0,1,1.43,5.33c0,1,2.73,3.48,3,4s.25,2.25-.37,2.3l-.49.18a13.45,13.45,0,0,0-2.86,1.35c-.4.28,2.26,1.32-.42,1.61l-.8.08c-.78.75-1.77,1.67-2.21,2a9.57,9.57,0,0,0-1.84,2.49l-.35.11-1.3.39a6.26,6.26,0,0,0-4.31,2.3l-1.06.82-1.21.93c-1.62.77-4.08,2-5.47,2.68s-7.06,3.84-9.58,5.33L1035,82.38l-.16.09a7.78,7.78,0,0,1-2.66,0c-1.32-.11-4.18,2.79-5,3.36a50.22,50.22,0,0,1-6.54,3.44c-2,.76-6.56,4.07-7,4.24s-1.89.34-2.56.54a24.66,24.66,0,0,0-3.16,2.29c-.64.44-2.52.76-2.48,2.62l-2.88,0h-.68c-.74.22-1.24.19-1.12-.06s.16-1-.23-1.17a5.53,5.53,0,0,0-2.34.29c-.84.23-.54,3.59-1.9,5.76l-2.66.35-2.11.29a21.93,21.93,0,0,1-4.75,2.33,17.41,17.41,0,0,0-4.08,2.5l-1,.65-1.42.93c-1.63,1-3.34,1.75-3.8,1.63l-.42-.08-.54-.1a5.49,5.49,0,0,0-3,1.29c-1.05.8-4.19,3.81-5.43,4.38s-4.62,2-4.67,2.15.78.39,2,.27a34.4,34.4,0,0,0,6-1.34l.79-.4,3.4-1.71a14.49,14.49,0,0,0,3.19.66c.43,0,.71-1.1,1.29-1.43a6.91,6.91,0,0,1,3-1.11l2-.06c2-.61,3.79-2.2,3.88-3.54l1.61.72,2.75,1.21c.48-1.78,1.45-3.23,2.15-3.22s3.31-.1,4.16-.19v-.13l.19-2a50.88,50.88,0,0,0,5.08-.33c.82-.14,3.28-1.21,4.05-1.31s3.9-.14,5.06-.33,3.79-2.55,4.45-3.58l1.65,1,.08.06c1.07-1,2-1.58,2.15-1.31s1.19.38,2-.77l1-.53c.86-.45,2.26-.22,3.42-.26l1.65-.07a7.4,7.4,0,0,1,3.18-1.74l.51.1c.45.08.86.44,1.27.43,1.08,0,.95-2.43,3-1l.42.29c1.34-.54,3.45-1.5,4.68-2.13l1-.72c1.29-1,2.06,1.78,3.31.24l.8-1c1.18.29,3.62.94,5.42,1.44l.55-2,.06-.24c.42-.19,2-.67,3.47-1.07s5.64-1.1,5.87-.69,1.13,1.28,1.25.69,1.82-1.64,3.51-1.24h0l1.07-.34a11.68,11.68,0,0,1,2.42.59,9,9,0,0,0,2.11,1.09c1,.34,2.11,3.43,2.29,4s5,.62,6.79.74,7.56,1.26,9,2,3.91,5.19,4.58,6.26l-2.3.21c-.25,0-.67,1.08-.48,1.5l.28.6a16.56,16.56,0,0,1-1.41,1.56c-.45.43.93,1.45,1.42,2s-.43,2.61-1.21,3.56l2.24.5,1.74.4c-.57,1.37-1.38,3.33-1.81,4.35s-.36,4.7-1.88,5.9l3.52.09h.16a14.86,14.86,0,0,1,.39,2.7c.08,1.07.53,4.23.64,4.67l-.19.21-1.47,1.57c1.33,1.16,3.09,2.76,3.9,3.55s-3.73,4.32-5.5,5.14l-1.63.68c-1.89.79-3,3-4.13,4.75-.75,1.17.67,2.19,2,1.34,1.64-1,2.1,1.35,3.4.34,1.08-.84,1.8-2.08,3.81-1.92l1.26.1a11,11,0,0,1,4.63.06l.83-.19c.83-.19,1.33-1.23,2.17-1.56l.81-.32a14.72,14.72,0,0,1,4.24.9c1.23.48,4.91-.77,5.3-.72s2.61.79,4.22,1.24,6.65-.88,7.63-.37,4.29,1.74,4.81,1.37,2.09-.83,2.63-.41,1.86,1.58,1.76,1.68a35,35,0,0,1-4.87.08l-2.16.18-1.15.1c-1.12,1,0,2,2.4,2.21l1.9-.54c1.89-.54,3.19,1.93,5.1.18l.72-.65a26,26,0,0,1,3.6.9,11.86,11.86,0,0,1,1.35,1.24c.31.28,2.17-.1,2.91-.4a8.82,8.82,0,0,1,3.48-.36,2,2,0,0,1,.76,1.51,3.21,3.21,0,0,1-2.55.77c-1.12-.18-2.27,2.56-3.14,2.83s-1.47,2.52-1.09,2.65a1.68,1.68,0,0,1,.79,1.82c-.3.7,2.53,1.13,3.43,1.64l.93.14a4.71,4.71,0,0,0,1.26-.17l.73-.12a18.45,18.45,0,0,1,2.2-.23c.41,0,1.51.53,1.32,1.2s.06,2.52-.49,2.62a26,26,0,0,1-4.08-.28c-1.26-.16-1.24,2.62-.75,1.88s3.09.52,2.56,1.2-1.7,2.75-1.29,2.88a30.22,30.22,0,0,1,5,2.64l2.42.48.07,0a9.75,9.75,0,0,1-1.46,2.84c-.73,1,.51,4.12.14,4.35a1.29,1.29,0,0,0,.28,2l1,.37a2.34,2.34,0,0,0,1.56-.34,1.38,1.38,0,0,1,1.78.23l.2.25c.33.28-.71,1.08-2.32,1.79s-6.37-.86-6.69-.84a28.46,28.46,0,0,0-4.17,2.29c-1.76,1.09-8.39,2.49-8.72,2.51a17,17,0,0,0-3.44,1.78l-1.36.44-1.37.45-6.56.48-.64.76-1.58,1.88a14.07,14.07,0,0,0-5.48-.67c-1,.24-4.1.26-5,.38s-4.77,1-7.1,1.59-11.56,2.19-15.1,2.78-13.41,1.88-14,2.06l-.51.17-6,1.42-5-.12L1056,210.89c-1.46.48-8.31,1.52-12,2.26l-3.35.08-3.19.07c-3.17.87-5.88,1.69-6,1.83a7.88,7.88,0,0,1-2.16.6c-.86.15-4-.15-4.73.25s-6.13,1.09-10.23,1.55l-3.67.75c-1.22.25-3.38-.85-3.91-.4l-1.64,1.39c-1.26-.83-2.67-1.15-3.13-.71s-2.6-.08-3.42.33-4.1-1.36-5.81-1.59l-1.07-.61c-1.63-.94-3.24-.81-4.94-.9l-.33,0a26.25,26.25,0,0,0-3.56-1.68c-1.63-.66-7.79-2.65-9.91-3.3l-1.44-1.3-1.4-1.26a22.27,22.27,0,0,0,2-2.49,10.33,10.33,0,0,0-.92-2.53l.94-1.05.34-.38a9.48,9.48,0,0,0-1.12-2.84,12.1,12.1,0,0,1-.68-5c.21-.81-2.47-2-2.53-2.43s-.51-3.76-.87-6.53l-.64-2.46-.14-.51a12.47,12.47,0,0,0-4.59.25c-1,.33-5.14,1.85-6.88,2.57s-7.42,3.06-8.52,4.62l-2.88-.59-1.64-.33c-2.19,1-5.26,2.41-6.82,3.08s-6.87,2.19-8.18,2.85a71.89,71.89,0,0,1-8,2.73c-1.68.42-5.76,3.4-6.4,3.91s-2.72-.78-3-.8-2.29.41-4.39.8-7.12,4.7-9,5.53-7,1.92-6.87,2.68-2.9.36-3.44.5-1.63,1.3-2,1.21a28.79,28.79,0,0,0-5.33,1.34l-2,.77-1.17.45a6.46,6.46,0,0,1-3.29,1.11c-.68-.09-2.75,1.18-3.32,1.53a53.26,53.26,0,0,1-5.26,2.15l-1.59.33c-2.53.53-5.28.68-6.07,3.33l0,.06a32.75,32.75,0,0,0-4.77,0c-1.59.11-4,3.15-4.27,3.2s-1.73.31-2.57.42a49.45,49.45,0,0,0-6.85,2.74c-2.28,1.06-9.89,3.43-11.11,4s-5,2.35-5.58,2.82-3.77.78-4.52,1.26a22.69,22.69,0,0,1-4.58,1.79,27.36,27.36,0,0,0-4.43,1.43c-.69.35-5.75,2.33-9.68,3.66l-3.24,1.76-.6.32a29.27,29.27,0,0,1-4.44.32l-.27,1.7,0,.17a42.29,42.29,0,0,0-4.7,1.17c-1.77.54-7.15,2.91-9,3.31s-7.69,4-10.49,4.9l-2.37,1.29-3,1.64c-3.81,1.18-8.51,2.77-10.43,3.52s-7.48,3.29-8.37,3.67-5,1.75-7,2.33-7.9,3.48-9.32,3.77-6.48,2.18-8.93,2.7l-2,.83-.32.13a60.74,60.74,0,0,0-7.27,1.45L703,279.89a5.37,5.37,0,0,1-4.82.56c-1.83-.93-3.06-1.12-4.61.13l-.23.19c-.72-.2-3.5-1.22-6.19-2.28s-10.59-2.14-9.89-2.78l.13-.45.11-.38a1.94,1.94,0,0,0-1.93-.6l-.47.34-.34.25c-.21,1-.48.45-.61-1.17s1.18-5.36.14-5.63l-.32-.52a2.91,2.91,0,0,1,0-2.37l.63-1.79c-1.7-.41-2.76-.84-2.36-1s1.4-.68,1.29-1l-.21-.09c-1.62-.72-3.64-1.12-4.76-2.17-.74-.69-.25-2.3-.16-3.49,0-.41.84-.92.7-1.17l-.73-1.33a15.34,15.34,0,0,0-2.46-5.37l-1.17-1.18-.45-.46c-.79-.3-1-.89-.5-1.31s.52-3.12-.87-5.31l.2-2.44.1-1.3a30.14,30.14,0,0,0,3.85-4.95l-.34-.84a1.66,1.66,0,0,0-1.29-.63c-1.37.07-.63.5-.38,1.11.17.41-.81,1.63-1.15,1.6l-2.12-.21c-.19,1.26-.71,2-1.16,1.66a1.34,1.34,0,0,0-2,1c-.17,1.28-5.1,1.92-5.58,3.68l-2.06.56a15.36,15.36,0,0,0-7,3.78l-.92.9a24.13,24.13,0,0,0-5.25,1.82c-1.46.74-6.19,2-6.47,2.59l-.42.44-.85.9a4.86,4.86,0,0,1-3.9-.88c-.73-.74-3.38-2.36-3.42-2a4.87,4.87,0,0,0,.82,2l.29.54a2.23,2.23,0,0,1-.88.46c-.58-.36-1.15-1.11-1.41.12-.07.35.32,1.07.62,1.12l.94.15c1.08-.05,1,.08-.26.29s-3.3,2.28-3.59,2L619,253l-2.1-1c-.06,1.31-.14,2.52-.17,2.68s-.42.77-.72.83-3,.26-5.48.53l-1.65,1.57c-1.51,1.43-3.16,3.12-5.73,1a2.45,2.45,0,0,0-1.49.18,4.47,4.47,0,0,0,.26,1.64l.06.23c.32.42-.49.32-1.79-.22s-4.47.62-4,.79.24,1.51-1.43,2.6l-2.24-2.33a4.8,4.8,0,0,0-1.27-1l-.28-.14c-.71.06-1.32,1-1.36,2.18l-.21,1c-.06.29-.73.69-1.15.72l-1.1.07a9.55,9.55,0,0,0,.81-2.74l-.85-.64c-.22-.17-.68-.41-.8-.35l-.83.45c-.61.79-1,1.64-.94,1.89a4.34,4.34,0,0,1-.12,1.82c-.18.44-1.56.36-1.71.21A14.34,14.34,0,0,0,579.8,264.32ZM721.46,158.81a10.77,10.77,0,0,1,0-1.66,10.54,10.54,0,0,0,4.29.89l1.4-.75,1.43-.76c.81-1.76.21-2.52-1.34-1.67l-1.31.66-1.33.67c.32,1.57-.58,2.69-2,2.47l-1-.54-.86-.47c-.79-1.18-1.43-1.38-1.43-.43S721.52,159.9,721.46,158.81ZM565.15,259.68c.58.39,1.42,0,1.87-.79l.54-.59c.52-.59,3.42-.25,4,.36a7.18,7.18,0,0,0,1.5,1.41,2,2,0,0,0,1.53.15c.36-.2.68-1,.49-1.2-1.48-1.34-2.06-2.27.86-2.82l.75-.14a1.63,1.63,0,0,0-1.25-2.5c-1.3-.27-5-.16-4.93.91l-.2.87-.1.43a2.58,2.58,0,0,1-2.46-.24l.59-.77.21-.27c.34-.23.16-.64-.41-.9l-.49,0c-.43,0-2.77,5.32-2.58,5.79Zm30.19-48.85c-1.7.84-2.11,1.6-.91,1.69s3.16,2.74,3.6,3.34,2.76,1.07,2.82,1.19a1.31,1.31,0,0,1-.51,1,1.12,1.12,0,0,0-.33,1.25c.15.41,1.72.17,3-1.67l.54-1.53.82-2.33a21,21,0,0,0-6.9-2.21l-1.39-.46ZM945.51,54.19a6,6,0,0,0-2.13-.23,10.15,10.15,0,0,0-1.89,1.77c-.63.78,2.44,2.58,4.23,1.83l1.6-.74.65-.3C949,55.81,946.47,54.42,945.51,54.19Zm77.8-25.58a2,2,0,0,0,2.32.43,12.32,12.32,0,0,0,2.8-1.77c.06-.23-.16-.8-.62-.74l-.41,0-.67.05c-.73.05-1-.32-.58-.82l.12-.5.09-.39c-.26-.46-1.12-.51-1.93-.1S1022.86,28,1023.31,28.61ZM967.89,43.76a1.38,1.38,0,0,0-2.14.27c-.51.75-4.11,2.55-4.28,2.81a1.26,1.26,0,0,0,.61,1.52l.25-.14,1.13-.65a36.45,36.45,0,0,0,4-.64C968.23,46.73,968.56,44.38,967.89,43.76ZM871,87.23c.42.23.7-.74.62-2.17L874,86.64l1.41.91a6.64,6.64,0,0,0,1.49-2.43c.07-.49-.21-1.8-.72-1.82A9.27,9.27,0,0,0,872.33,85l-1.53.32c-.17,0-.21,1.07,0,1.56ZM756.29,141c.7,1.12,1.84,1.21,2.52.21a22.55,22.55,0,0,1,4-3.34c.44-.29-.86-1.4-2.08-1.76l-.41.32a15.44,15.44,0,0,0-3.65,3.95Zm-132.08,65.6c.83.47,1.47-.22,1.41-1.53s-1.91-3.11-2.44-3-1.79.76-1.13.94,1.55.7.94.87-.89,1.36-.29,2l.88.39ZM1002.45,30.31c-.31-.26-.86.19-1.21,1l-.6.51-.9.75a13.41,13.41,0,0,0-2.52,1.65,1.18,1.18,0,0,0,.7,1.46l.65,0,.67-.05a12.38,12.38,0,0,0,2.32-1.91C1002.15,33,1002.76,30.56,1002.45,30.31ZM895.27,75.8c.31.25.68-.28.83-1.18s4.24.17,5.66,0l1.32-.26h.08c-.08-.52-.87-1.2-1.75-1.51a10.09,10.09,0,0,0-4.54.48C896.1,73.72,895,75.55,895.27,75.8ZM561.1,233.88c-.39-2.31-1.29-3.26-2-2.12s-1,3.78,1,3.38l.74-.91ZM990.44,38.44c1.26,0,2.35-.52,2.43-1.15l.32-.29c.82-.74,1.71-1.51.29-2.21l-.4-.2a47.94,47.94,0,0,0-4.2,3.11l-1.9-.06h-.34C985.8,38.07,989.19,38.44,990.44,38.44Zm-160.06,65c-1.12,2.07-.51,3.19,1.36,2.48l.53-3c0-.13.33-.21.39-.35l.14-.33c.09-.37-.46-.7-1.24-.73l-.13.21ZM583,251.87c-.55.06-.41.51.3,1s3.14-.78,4-1.09l.85-.14a16.94,16.94,0,0,0,2.17-.37c.17-.05.25-.58.17-.85l-.06-.25a12.87,12.87,0,0,0-3-1C586.11,248.79,583.57,251.81,583,251.87Zm10.39-8.38c-.4,4.17-.4,4.17,5,6.29Z"/><path class="cls-5" d="M749.73,133.74c1.52,1.46,2.58,2.8,2.36,3a2.47,2.47,0,0,1-2.09-.23c-.71-.47-2.32-2.39-1.3-2.73l.49-.29c.39-.23.86-.65.85-1s-.53-.71-.93-.91-.87.09-1.15-.05c-.54-.27-1.43-.8-1.35-1l.61-1.85c.6,1.06,1.69,1.63,2.43,1.25s2.42-1.74,2.89-1.21a11.39,11.39,0,0,0,1.92,1.8,2.8,2.8,0,0,0,.14-1.88l-.24-.84c-.38-1.28-.18-1.41,2-1.3a7,7,0,0,0,.84-.18l.41,0c.46,0,.74.55.62,1.22l-.23,0c-2.16.34-2.76.91-1.06,2.42.68.61.58,1.33-.81,1.7-1,.27-1.75,1.41-2.75,1.57Z"/><path class="cls-6" d="M694.82,157.36a1.94,1.94,0,0,1,2.13-1.28c.89.18,3.36-.51,4.13.52s-1.63,3.83-1.06,4.36-1,2.3-2.35,2-3.3-3-2.61-3.22l.5-.09.84-.15c.69-.43.87-1.16.41-1.62l-.56-.15Z"/><path class="cls-7" d="M708.09,153.4c1,.48.51,2.4-1.09,4.27l-2.16-1.46L703,155C703.57,153,707.08,152.92,708.09,153.4Z"/><path class="cls-8" d="M835.73,86.92c-.36.48-1,.3-1.43-.39s2.71-1.82,3.5-2.15,3.59-1.06,4-.64.39,1.35-.76,1.26-1.84,2.5-2.1,2.53S836.1,86.44,835.73,86.92Z"/><path class="cls-9" d="M690.88,150.68c-.17-.93.07-1.39.53-1a5.25,5.25,0,0,0,3,.52,10.37,10.37,0,0,1,3.29.2c1,.17,3.35.75,3.07,1a7.17,7.17,0,0,1-2.36.62c-.74.09-1.26,1.52-2.06,1a32.57,32.57,0,0,0-4.08-1.49l-.81-.5Z"/><path class="cls-10" d="M829.91,91.36c-.63.57-.83,1.29-.45,1.6s.63,1.24-.31,1.37-2.7-2.07-2.8-3.43l1.46-.71L829,89.6C830.76,89.43,830.53,90.79,829.91,91.36Z"/><path class="cls-11" d="M707.31,145c-1.34.6-2.18.37-1.86-.5s1.28-3.26,2.11-3.26S708.65,144.41,707.31,145Z"/><path class="cls-12" d="M795.71,98.5c1.28,1.49,1.12,2.79-.36,2.9s-3.57,2.59-4.94,2l-1-.55c-.14-.08.38-1.31.53-1.3a4.76,4.76,0,0,0,4-1.36Z"/><path class="cls-13" d="M727.11,141.42a1,1,0,0,1-.16,1.16,3.67,3.67,0,0,0-.63,2c0,.68-.3,2.31-.65,2.13s-2.38-1.61-3.81-2.73l1-1.12c.78-.86,2.77-1,4.23-1.45Z"/><path class="cls-14" d="M712.62,148.77c.34.74.11,1.35-.52,1.35s-2.9.2-2.21.45,2,1.06,1,1.14-3.5-.42-3.86-1.28,2.76-2,2.8-2.5S712.27,148,712.62,148.77Z"/><path class="cls-15" d="M714.05,152.44c-.46-1.36-.11-2.23.79-1.92s2.3-1.93,2.72-2.14,1.49-.09,1.39.21.6,1.39.8,1.71-.7.93-2.78,0l-1.86,1.37Z"/><path class="cls-16" d="M576.7,264.19c1.35.25,2,1.09,1.5,1.87l-.44,0a4.81,4.81,0,0,1-2.64-.46L572.54,264c-.14,1.65-.4,2.44-.56,1.76S575.36,263.93,576.7,264.19Z"/><path class="cls-17" d="M816.09,100c-2.13-.78-2.06-.66.17.26l2.1-1.51.41-.29c1.89.84,2.14,2.33.56,3.3l-1.54-.84Z"/><path class="cls-18" d="M764.17,123.34a1.72,1.72,0,0,0,1.62-.62c.37-.48,2-1.61,2.28-.82l-.15.38c-.22.55-.94,1-1.1,1.54l-.25.84a2.82,2.82,0,0,1-3.14,0l-.7-.74-.2-.22C762,123.09,763.65,123.19,764.17,123.34Z"/><path class="cls-19" d="M751.79,120.31c1.68.4,2.58,1.36,2,2.12s-3.33-.52-3.73-.62l-.23,1.29a1.38,1.38,0,0,1-.81.67l-.82-.33C747.3,123,750.1,119.9,751.79,120.31Z"/><path class="cls-20" d="M701.6,143.32c-.17-1.14.37-1.65,1.19-1.13s-.29,2.92-1.58,4l-1.28.87a1.36,1.36,0,0,1-.91-.42c-.18-.24-.26-.75-.07-.9.71-.57,1.91-.92,2.25-1.59Z"/><path class="cls-21" d="M673.11,181.45c-.41,1-1,1.58-1.27,1.36l-.55-.64-.41-.48c-.26-.6-.17-.95.18-.77a5.3,5.3,0,0,0,2.49-.55c.62-.31,2.37-.92,2.42-.6s.84,1,1.21,1.38-.41,1.44-1.2,1.72l-1-.48Z"/></g></g></g></g></svg>