<?xml version="1.0" encoding="UTF-8" standalone="no"?>
<svg
   viewBox="0 0 120.87 35.35"
   width="204"
   height="36"
   version="1.1"
   id="svg31"
   sodipodi:docname="char_01_tit.svg"
   inkscape:version="1.1.1 (c3084ef, 2021-09-22)"
   xmlns:inkscape="http://www.inkscape.org/namespaces/inkscape"
   xmlns:sodipodi="http://sodipodi.sourceforge.net/DTD/sodipodi-0.dtd"
   xmlns="http://www.w3.org/2000/svg"
   xmlns:svg="http://www.w3.org/2000/svg">
  <sodipodi:namedview
     id="namedview33"
     pagecolor="#ffffff"
     bordercolor="#666666"
     borderopacity="1.0"
     inkscape:pageshadow="2"
     inkscape:pageopacity="0.0"
     inkscape:pagecheckerboard="0"
     showgrid="false"
     inkscape:zoom="6.2303922"
     inkscape:cx="71.263572"
     inkscape:cy="24.797797"
     inkscape:window-width="1440"
     inkscape:window-height="847"
     inkscape:window-x="1920"
     inkscape:window-y="134"
     inkscape:window-maximized="0"
     inkscape:current-layer="レイヤー_2" />
  <defs
     id="defs11">
    <style
       id="style9">.cls-1{isolation:isolate;}.cls-2{fill:#1c1c1c;}</style>
  </defs>
  <g
     id="レイヤー_2"
     data-name="レイヤー 2">
    <g
       id="レイヤー_1-2"
       data-name="レイヤー 1"
       transform="translate(-39.120174)">
      <g
         class="cls-1"
         id="g27">
        <path
           class="cls-2"
           d="M 17.5,0 V 4.45 H 11.25 V 35 h -5 V 4.45 H 0 V 0 Z"
           id="path13" />
        <path
           class="cls-2"
           d="M 24.79,35.35 A 8.05,8.05 0 0 1 21.52,34.74 5.23,5.23 0 0 1 19.19,32.6 11.85,11.85 0 0 1 17.78,28.48 38.25,38.25 0 0 1 17.31,21.91 31,31 0 0 1 17.78,16 a 10.39,10.39 0 0 1 1.41,-3.77 5.21,5.21 0 0 1 2.34,-2 8.5,8.5 0 0 1 3.28,-0.59 8.46,8.46 0 0 1 3.28,0.59 5.28,5.28 0 0 1 2.35,2 10.58,10.58 0 0 1 1.4,3.77 30.16,30.16 0 0 1 0.47,5.88 v 0.59 h -10 v 1.25 c 0,0.94 0,1.86 0,2.75 a 13,13 0 0 0 0.28,2.41 4.1,4.1 0 0 0 0.74,1.7 1.73,1.73 0 0 0 1.44,0.64 2.2,2.2 0 0 0 1.47,-0.43 2.49,2.49 0 0 0 0.76,-1.1 5.51,5.51 0 0 0 0.27,-1.6 c 0,-0.6 0,-1.21 0,-1.84 h 5 c 0,3.13 -0.62,5.42 -1.87,6.89 -1.25,1.47 -3.09,2.21 -5.61,2.21 z m 0,-21.6 a 1.75,1.75 0 0 0 -1.44,0.63 3.78,3.78 0 0 0 -0.74,1.56 9.75,9.75 0 0 0 -0.28,2 c 0,0.73 0,1.41 0,2 h 5 c 0,-0.62 0,-1.3 0,-2 a 9.15,9.15 0 0 0 -0.26,-2 3.91,3.91 0 0 0 -0.74,-1.56 1.78,1.78 0 0 0 -1.52,-0.63 z"
           id="path15" />
        <path
           class="cls-2"
           d="m 40.56,35.35 a 3.76,3.76 0 0 1 -1.84,-0.49 5.52,5.52 0 0 1 -1.6,-1.31 6.53,6.53 0 0 1 -1.12,-1.87 5.73,5.73 0 0 1 -0.43,-2.21 17.8,17.8 0 0 1 0.09,-1.83 6.35,6.35 0 0 1 0.45,-1.71 6.62,6.62 0 0 1 1,-1.63 8.85,8.85 0 0 1 1.77,-1.61 20.79,20.79 0 0 1 2.74,-1.69 42.38,42.38 0 0 1 3.94,-1.74 V 17.5 a 8.31,8.31 0 0 0 -0.22,-2.08 3,3 0 0 0 -0.57,-1.21 1.66,1.66 0 0 0 -0.8,-0.56 3.13,3.13 0 0 0 -0.91,-0.13 2.85,2.85 0 0 0 -0.92,0.14 1.7,1.7 0 0 0 -0.8,0.58 3.1,3.1 0 0 0 -0.57,1.21 8.11,8.11 0 0 0 -0.21,2.05 h -5 a 9.47,9.47 0 0 1 0.55,-3.23 7,7 0 0 1 1.52,-2.48 6.5,6.5 0 0 1 2.37,-1.58 8,8 0 0 1 3.08,-0.56 7.58,7.58 0 0 1 3.42,0.7 7,7 0 0 1 2.33,1.82 7.26,7.26 0 0 1 1.33,2.52 9.72,9.72 0 0 1 0.42,2.81 v 11.25 a 32.7,32.7 0 0 0 0.18,3.78 18.42,18.42 0 0 0 0.44,2.47 h -5 l -0.66,-3.75 c -0.32,0.63 -0.64,1.19 -1,1.7 a 6.06,6.06 0 0 1 -1.08,1.29 4.16,4.16 0 0 1 -3,1.11 z m 0,-7.21 a 4.73,4.73 0 0 0 0.21,1.54 2.34,2.34 0 0 0 0.57,0.94 1.81,1.81 0 0 0 0.8,0.49 3.16,3.16 0 0 0 0.92,0.14 1.64,1.64 0 0 0 0.73,-0.18 2.93,2.93 0 0 0 0.68,-0.44 4.17,4.17 0 0 0 0.6,-0.59 c 0.18,-0.22 0.34,-0.43 0.49,-0.63 V 22.5 c -0.85,0.56 -1.59,1.06 -2.21,1.5 a 10.81,10.81 0 0 0 -1.55,1.31 5,5 0 0 0 -0.93,1.32 3.52,3.52 0 0 0 -0.31,1.51 z"
           id="path17" />
        <path
           class="cls-2"
           d="M 61.55,35.35 A 7.45,7.45 0 0 1 58.39,34.75 6,6 0 0 1 56.27,33.13 7.12,7.12 0 0 1 55,30.8 15.54,15.54 0 0 1 54.34,28.05 27.57,27.57 0 0 1 54.1,25.19 c 0,-1 0,-1.86 0,-2.69 0,-0.83 0,-1.73 0,-2.69 A 27.57,27.57 0 0 1 54.33,17 15.54,15.54 0 0 1 55,14.2 a 7.12,7.12 0 0 1 1.28,-2.33 6,6 0 0 1 2.12,-1.62 7.45,7.45 0 0 1 3.16,-0.6 8.8,8.8 0 0 1 3.21,0.5 6.05,6.05 0 0 1 2.13,1.3 5.54,5.54 0 0 1 1.28,1.81 9.48,9.48 0 0 1 0.65,2 11.15,11.15 0 0 1 0.17,1.95 c 0,0.61 0,1.12 0,1.54 h -5 c 0,-0.21 0,-0.48 0,-0.82 a 10.46,10.46 0 0 0 0,-1.08 8.32,8.32 0 0 0 -0.2,-1.18 3.86,3.86 0 0 0 -0.43,-1.06 2.62,2.62 0 0 0 -0.71,-0.77 1.86,1.86 0 0 0 -1.08,-0.3 1.69,1.69 0 0 0 -1.44,0.69 4.76,4.76 0 0 0 -0.75,1.91 18.92,18.92 0 0 0 -0.3,2.86 c 0,1.09 0,2.26 0,3.51 0,1.25 0,2.41 0,3.48 a 17.55,17.55 0 0 0 0.27,2.77 4.54,4.54 0 0 0 0.75,1.84 1.71,1.71 0 0 0 1.44,0.66 2.16,2.16 0 0 0 1.45,-0.44 2.49,2.49 0 0 0 0.74,-1.13 5.51,5.51 0 0 0 0.27,-1.6 c 0,-0.6 0,-1.21 0,-1.84 h 5 c 0,0.42 0,0.93 0,1.54 a 10.36,10.36 0 0 1 -0.26,1.93 10.92,10.92 0 0 1 -0.68,2 5.88,5.88 0 0 1 -1.29,1.81 6.24,6.24 0 0 1 -2.11,1.3 8.47,8.47 0 0 1 -3.12,0.52 z"
           id="path19" />
        <path
           class="cls-2"
           d="m 72.37,0 h 5 V 12.7 A 15.81,15.81 0 0 1 79.62,10.94 9.35,9.35 0 0 1 81.39,10 5.06,5.06 0 0 1 82.74,9.67 c 0.39,0 0.74,0 1,0 a 3.13,3.13 0 0 1 1.48,0.34 3.61,3.61 0 0 1 1.14,0.91 4.22,4.22 0 0 1 0.72,1.3 4.48,4.48 0 0 1 0.25,1.49 V 35 h -5 V 16.25 c 0,-0.31 0,-0.62 0,-0.92 a 2.47,2.47 0 0 0 -0.18,-0.8 1.39,1.39 0 0 0 -0.51,-0.57 2,2 0 0 0 -1,-0.21 3.68,3.68 0 0 0 -1.76,0.44 9.17,9.17 0 0 0 -1.52,1 V 35 h -5 z"
           id="path21" />
        <path
           class="cls-2"
           d="M 98.53,35.35 A 8.05,8.05 0 0 1 95.26,34.74 5.23,5.23 0 0 1 92.93,32.6 11.85,11.85 0 0 1 91.52,28.48 38.25,38.25 0 0 1 91.05,21.91 31,31 0 0 1 91.52,16 a 10.39,10.39 0 0 1 1.41,-3.77 5.21,5.21 0 0 1 2.34,-2 9.41,9.41 0 0 1 6.56,0 5.28,5.28 0 0 1 2.35,2 10.58,10.58 0 0 1 1.4,3.77 31,31 0 0 1 0.47,5.88 v 0.59 h -10 v 1.25 c 0,0.94 0,1.86 0,2.75 a 14,14 0 0 0 0.27,2.41 4.24,4.24 0 0 0 0.75,1.7 1.71,1.71 0 0 0 1.44,0.64 2.2,2.2 0 0 0 1.47,-0.43 2.57,2.57 0 0 0 0.74,-1.13 6.28,6.28 0 0 0 0.27,-1.6 c 0,-0.6 0,-1.21 0,-1.84 h 5 c 0,3.13 -0.62,5.42 -1.87,6.89 a 7,7 0 0 1 -5.59,2.24 z m 0,-21.6 a 1.73,1.73 0 0 0 -1.44,0.63 3.92,3.92 0 0 0 -0.75,1.56 10.49,10.49 0 0 0 -0.27,2 c 0,0.73 0,1.41 0,2 h 5 c 0,-0.62 0,-1.3 0,-2 a 9.78,9.78 0 0 0 -0.26,-2 4,4 0 0 0 -0.74,-1.56 1.78,1.78 0 0 0 -1.52,-0.63 z"
           id="path23" />
        <path
           class="cls-2"
           d="m 114.62,10 v 3.34 h 0.28 a 8.43,8.43 0 0 1 0.9,-1.39 7.11,7.11 0 0 1 1.2,-1.17 6.23,6.23 0 0 1 1.44,-0.82 4.2,4.2 0 0 1 1.61,-0.31 h 0.24 l 0.56,0.06 v 5.52 a 7.48,7.48 0 0 0 -1.36,-0.4 8,8 0 0 0 -1.41,-0.14 3.89,3.89 0 0 0 -1.38,0.24 3.36,3.36 0 0 0 -1.1,0.69 3.17,3.17 0 0 0 -0.73,1.09 3.52,3.52 0 0 0 -0.27,1.39 V 35 h -5 V 10 Z"
           id="path25" />
      </g>
    </g>
  </g>
</svg>
