<svg xmlns="http://www.w3.org/2000/svg" xmlns:xlink="http://www.w3.org/1999/xlink" viewBox="0 0 118.85 107.11"><defs><style>.cls-1{isolation:isolate;}.cls-2{fill:url(#新規グラデーションスウォッチ_5);}</style><linearGradient id="新規グラデーションスウォッチ_5" x1="-371.38" y1="273.83" x2="-252.53" y2="273.83" gradientTransform="translate(371.38 -220.28)" gradientUnits="userSpaceOnUse"><stop offset="0" stop-color="#c17bb1"/><stop offset="0.29" stop-color="#e95f91"/><stop offset="0.67" stop-color="#ff6161"/><stop offset="1" stop-color="#fccd19"/></linearGradient></defs><g id="レイヤー_2" data-name="レイヤー 2"><g id="レイヤー_1-2" data-name="レイヤー 1"><g class="cls-1"><path d="M26.25,107.11a28.49,28.49,0,0,1-9.79-1.73,22.28,22.28,0,0,1-8.4-5.48A26.94,26.94,0,0,1,2.2,90.26,40.6,40.6,0,0,1,0,76.05v-45A44.54,44.54,0,0,1,1.44,18.93a30.08,30.08,0,0,1,3.72-8.5,20.75,20.75,0,0,1,5.15-5.51,26.1,26.1,0,0,1,5.8-3.16A24.34,24.34,0,0,1,21.71.32,39.8,39.8,0,0,1,26.25,0a39.8,39.8,0,0,1,4.54.32,24.34,24.34,0,0,1,5.6,1.44,26.1,26.1,0,0,1,5.8,3.16,20.75,20.75,0,0,1,5.15,5.51,30.08,30.08,0,0,1,3.72,8.5A44.54,44.54,0,0,1,52.5,31.05v45a40.6,40.6,0,0,1-2.2,14.21,27.08,27.08,0,0,1-5.86,9.64,22.28,22.28,0,0,1-8.4,5.48A28.49,28.49,0,0,1,26.25,107.11Zm0-12.31a9.28,9.28,0,0,0,4.28-.93,9.53,9.53,0,0,0,3-2.46,13.62,13.62,0,0,0,2-3.52,24.33,24.33,0,0,0,1.2-4.07,35.27,35.27,0,0,0,.55-4.1c.1-1.35.15-2.57.15-3.67v-45q0-1.69-.09-3.75a29.52,29.52,0,0,0-.47-4.13,25.32,25.32,0,0,0-1.08-4,11.58,11.58,0,0,0-2-3.49,9.37,9.37,0,0,0-3.14-2.43,10.33,10.33,0,0,0-4.51-.91,10.33,10.33,0,0,0-4.51.91,9.37,9.37,0,0,0-3.14,2.43,11.58,11.58,0,0,0-2,3.49,25.32,25.32,0,0,0-1.08,4,29.52,29.52,0,0,0-.47,4.13Q15,29.36,15,31.05v45c0,1.1.05,2.32.15,3.67a33.24,33.24,0,0,0,.55,4.1,24.33,24.33,0,0,0,1.2,4.07,13.62,13.62,0,0,0,2,3.52,9.53,9.53,0,0,0,3,2.46A9.28,9.28,0,0,0,26.25,94.8Z"/><path d="M92.25,79.1h-30V62.4L88.5,1h18.75V64.92h11.6V79.1h-11.6v27h-15Zm0-14.18V19.8l-15,45.12Z"/></g><path class="cls-2" d="M26.25,107.11a28.49,28.49,0,0,1-9.79-1.73,22.28,22.28,0,0,1-8.4-5.48A26.94,26.94,0,0,1,2.2,90.26,40.6,40.6,0,0,1,0,76.05v-45A44.54,44.54,0,0,1,1.44,18.93a30.08,30.08,0,0,1,3.72-8.5,20.75,20.75,0,0,1,5.15-5.51,26.1,26.1,0,0,1,5.8-3.16A24.34,24.34,0,0,1,21.71.32,39.8,39.8,0,0,1,26.25,0a39.8,39.8,0,0,1,4.54.32,24.34,24.34,0,0,1,5.6,1.44,26.1,26.1,0,0,1,5.8,3.16,20.75,20.75,0,0,1,5.15,5.51,30.08,30.08,0,0,1,3.72,8.5A44.54,44.54,0,0,1,52.5,31.05v45a40.6,40.6,0,0,1-2.2,14.21,27.08,27.08,0,0,1-5.86,9.64,22.28,22.28,0,0,1-8.4,5.48A28.49,28.49,0,0,1,26.25,107.11Zm0-12.31a9.28,9.28,0,0,0,4.28-.93,9.53,9.53,0,0,0,3-2.46,13.62,13.62,0,0,0,2-3.52,24.33,24.33,0,0,0,1.2-4.07,35.27,35.27,0,0,0,.55-4.1c.1-1.35.15-2.57.15-3.67v-45q0-1.69-.09-3.75a29.52,29.52,0,0,0-.47-4.13,25.32,25.32,0,0,0-1.08-4,11.58,11.58,0,0,0-2-3.49,9.37,9.37,0,0,0-3.14-2.43,10.33,10.33,0,0,0-4.51-.91,10.33,10.33,0,0,0-4.51.91,9.37,9.37,0,0,0-3.14,2.43,11.58,11.58,0,0,0-2,3.49,25.32,25.32,0,0,0-1.08,4,29.52,29.52,0,0,0-.47,4.13Q15,29.36,15,31.05v45c0,1.1.05,2.32.15,3.67a33.24,33.24,0,0,0,.55,4.1,24.33,24.33,0,0,0,1.2,4.07,13.62,13.62,0,0,0,2,3.52,9.53,9.53,0,0,0,3,2.46A9.28,9.28,0,0,0,26.25,94.8Z"/><path class="cls-2" d="M92.25,79.1h-30V62.4L88.5,1h18.75V64.92h11.6V79.1h-11.6v27h-15Zm0-14.18V19.8l-15,45.12Z"/></g></g></svg>