<svg xmlns="http://www.w3.org/2000/svg" viewBox="0 0 274.68 42.48" width="188" height="29"><defs><style>.cls-1{isolation:isolate;}.cls-2{fill:#1c1c1c;}</style></defs><g id="レイヤー_2" data-name="レイヤー 2"><g id="レイヤー_1-2" data-name="レイヤー 1"><g class="cls-1"><path class="cls-2" d="M0,35V0H7.5a18.68,18.68,0,0,1,4.73.51,6.71,6.71,0,0,1,3.08,1.68A6.71,6.71,0,0,1,17,5.27,18.68,18.68,0,0,1,17.5,10V23.75A21.08,21.08,0,0,1,17,28.67a8.55,8.55,0,0,1-1.68,3.52,7.17,7.17,0,0,1-3.09,2.11,14,14,0,0,1-4.76.7Zm7.5-3.75a6.78,6.78,0,0,0,2.89-.49,3,3,0,0,0,1.49-1.54,7.65,7.65,0,0,0,.54-2.72c.05-1.1.08-2.44.08-4V11.25c0-1.25,0-2.34-.08-3.28a6,6,0,0,0-.55-2.35,3.06,3.06,0,0,0-1.52-1.4A7.4,7.4,0,0,0,7.4,3.75H5v27.5Z"/><path class="cls-2" d="M21.36,1.25h5v5h-5Zm0,8.75h5V35h-5Z"/><path class="cls-2" d="M47.65,13.75a4.52,4.52,0,0,0-1.08.12,5,5,0,0,0-.88.3,3.4,3.4,0,0,0-.68.41,4.55,4.55,0,0,0-.49.42,14.42,14.42,0,0,1,.41,1.51,10.48,10.48,0,0,1,.22,2.24,13,13,0,0,1-.47,3.53,8.61,8.61,0,0,1-1.41,2.88,6.79,6.79,0,0,1-2.34,1.94,7.11,7.11,0,0,1-3.28.71h-.38l-.44,0-.42-.05-.35,0-.93-.16-.45.79a1.58,1.58,0,0,0-.24.81A1,1,0,0,0,35,30a5.15,5.15,0,0,0,1.49.46c.62.11,1.33.2,2.12.26s1.6.16,2.42.27a22.17,22.17,0,0,1,2.43.47,7.46,7.46,0,0,1,2.11.9,4.57,4.57,0,0,1,1.5,1.53,4.46,4.46,0,0,1,.57,2.36,5.54,5.54,0,0,1-.48,2.41,5.4,5.4,0,0,1-1.25,1.7,6.61,6.61,0,0,1-1.74,1.11,11.34,11.34,0,0,1-1.94.65,12.07,12.07,0,0,1-1.86.29c-.59.05-1.08.07-1.48.07l-1.7,0c-.68,0-1.39-.05-2.12-.13A21,21,0,0,1,32.87,42a9.11,9.11,0,0,1-2-.63,4.38,4.38,0,0,1-1.44-1,2.23,2.23,0,0,1-.54-1.52A6.5,6.5,0,0,1,29,37.68a7.59,7.59,0,0,1,.6-1.66,4.37,4.37,0,0,1,1.28-1.64,9.65,9.65,0,0,1,1.75-1.12,4.21,4.21,0,0,1-1.87-.95,1.76,1.76,0,0,1-.63-1.24,3.29,3.29,0,0,1,.27-1.2,9.77,9.77,0,0,1,.66-1.34c.26-.45.54-.88.82-1.28s.54-.74.75-1a9.7,9.7,0,0,1-1.92-3.54,13.71,13.71,0,0,1-.58-4,11.53,11.53,0,0,1,.64-4.06,8.27,8.27,0,0,1,1.7-2.83,6.61,6.61,0,0,1,2.4-1.66,7.19,7.19,0,0,1,2.76-.55,8.71,8.71,0,0,1,1.69.15,5.74,5.74,0,0,1,1.41.5,4.88,4.88,0,0,1,1.2.91A9.22,9.22,0,0,1,43,12.6a7.57,7.57,0,0,1,.65-1,5.88,5.88,0,0,1,1-1A5.14,5.14,0,0,1,46,9.93a4.62,4.62,0,0,1,1.68-.28ZM43.19,36.29c-.17-1-1.48-1.62-3.92-1.91l-4.12-.49a3.51,3.51,0,0,0-.62.61,7.82,7.82,0,0,0-.6.9,5.34,5.34,0,0,0-.44,1.07,4,4,0,0,0-.18,1.17.8.8,0,0,0,.44.72,3.41,3.41,0,0,0,1.43.31c.68,0,1.31.09,1.9.1l1.82,0h.76c.3,0,.61,0,.93-.07s.65-.1,1-.17a3.5,3.5,0,0,0,.86-.33A2,2,0,0,0,43,37.7a1.3,1.3,0,0,0,.23-.77A2.74,2.74,0,0,0,43.19,36.29ZM34.52,18.75a13.22,13.22,0,0,0,.14,1.88,5.8,5.8,0,0,0,.49,1.71,3.22,3.22,0,0,0,1,1.24,2.43,2.43,0,0,0,1.55.48,2.4,2.4,0,0,0,1.54-.48,3.34,3.34,0,0,0,1-1.24,6.11,6.11,0,0,0,.48-1.71,13.22,13.22,0,0,0,.14-1.88,14.26,14.26,0,0,0-.14-1.93A7.14,7.14,0,0,0,40.15,15a3.76,3.76,0,0,0-1-1.35,2.27,2.27,0,0,0-1.54-.53,2.29,2.29,0,0,0-1.55.53,3.62,3.62,0,0,0-1,1.35,6.75,6.75,0,0,0-.49,1.82A14.26,14.26,0,0,0,34.52,18.75Z"/><path class="cls-2" d="M50.23,1.25h5v5h-5Zm0,8.75h5V35h-5Z"/><path class="cls-2" d="M61,1.25h5V10h3.75v3.75H66V28.34a10.44,10.44,0,0,0,.06,1.16,2.75,2.75,0,0,0,.26.93,1.49,1.49,0,0,0,.63.61,2.51,2.51,0,0,0,1.12.21,6.45,6.45,0,0,0,.75-.06c.32,0,.63-.08.93-.14v4.07c-.7.09-1.28.15-1.72.18s-.9.05-1.36.05A7.56,7.56,0,0,1,64.2,35a4.72,4.72,0,0,1-1.62-.93,3.77,3.77,0,0,1-.95-1.36,6.75,6.75,0,0,1-.47-1.64A11.53,11.53,0,0,1,61,29.31c0-.61,0-1.19,0-1.75V13.75h-2.5V10H61Z"/><path class="cls-2" d="M77.54,35.35a3.75,3.75,0,0,1-1.83-.49,5.52,5.52,0,0,1-1.6-1.31A6.79,6.79,0,0,1,73,31.68a5.92,5.92,0,0,1-.43-2.21,17.72,17.72,0,0,1,.1-1.83,6.35,6.35,0,0,1,.45-1.71,6.62,6.62,0,0,1,1-1.63,8.85,8.85,0,0,1,1.77-1.61A20.79,20.79,0,0,1,78.61,21q1.64-.84,3.93-1.74V17.5a8.37,8.37,0,0,0-.21-2.08,3,3,0,0,0-.57-1.21,1.66,1.66,0,0,0-.8-.56,3.15,3.15,0,0,0-.92-.13,2.83,2.83,0,0,0-.91.14,1.7,1.7,0,0,0-.8.58,3.1,3.1,0,0,0-.57,1.21,8.05,8.05,0,0,0-.22,2.05h-5a9.72,9.72,0,0,1,.56-3.23,7,7,0,0,1,1.52-2.48A6.5,6.5,0,0,1,77,10.21,8,8,0,0,1,80,9.65a7.6,7.6,0,0,1,3.43.7,7,7,0,0,1,2.33,1.82,7.24,7.24,0,0,1,1.32,2.52,9.72,9.72,0,0,1,.42,2.81V28.75a32.4,32.4,0,0,0,.19,3.78A17,17,0,0,0,88.19,35h-5l-.67-3.75a18.78,18.78,0,0,1-1,1.7,6.36,6.36,0,0,1-1.08,1.29,4.16,4.16,0,0,1-3,1.11Zm0-7.21a4.7,4.7,0,0,0,.22,1.54,2.34,2.34,0,0,0,.57.94,1.81,1.81,0,0,0,.8.49,3.14,3.14,0,0,0,.91.14,1.65,1.65,0,0,0,.74-.18,2.93,2.93,0,0,0,.68-.44,4.17,4.17,0,0,0,.6-.59q.27-.33.48-.63V22.5c-.84.56-1.58,1.06-2.2,1.5a10.81,10.81,0,0,0-1.55,1.31,5,5,0,0,0-.93,1.32A3.52,3.52,0,0,0,77.54,28.14Z"/><path class="cls-2" d="M96.67,35h-5V0h5Z"/><path class="cls-2" d="M108.36,1.25h5v5h-5Zm0,8.75h5V35h-5Z"/><path class="cls-2" d="M122.63,35h-5V0h5Z"/><path class="cls-2" d="M131.83,35h-5V0h5Z"/><path class="cls-2" d="M151,35h-5V32.3a16.82,16.82,0,0,1-2.23,1.75A9.88,9.88,0,0,1,142,35a4.81,4.81,0,0,1-1.36.34c-.39,0-.73.05-1,.05a3.24,3.24,0,0,1-1.5-.34,3.78,3.78,0,0,1-1.88-2.19,4.56,4.56,0,0,1-.25-1.51V10h5V29.79a1.67,1.67,0,0,0,.49,1.28,1.7,1.7,0,0,0,1.22.47,2.53,2.53,0,0,0,.91-.16,4.48,4.48,0,0,0,.85-.42,6.34,6.34,0,0,0,.79-.57l.74-.6V10h5Z"/><path class="cls-2" d="M158.31,27.5a11.14,11.14,0,0,0,.56,1.26,6.72,6.72,0,0,0,.81,1.21,4.21,4.21,0,0,0,1.06.92,2.47,2.47,0,0,0,1.32.36,3.15,3.15,0,0,0,.92-.13,2,2,0,0,0,.8-.42,2,2,0,0,0,.57-.77,2.93,2.93,0,0,0,.21-1.18,4.49,4.49,0,0,0-.11-1,4.12,4.12,0,0,0-.31-.81,2.9,2.9,0,0,0-.41-.62,4.56,4.56,0,0,0-.42-.44l-5-3.75a12.67,12.67,0,0,1-1.95-1.63A7.8,7.8,0,0,1,155.22,19a4.91,4.91,0,0,1-.53-1.41,7.44,7.44,0,0,1-.13-1.3,7.26,7.26,0,0,1,.47-2.62,5.61,5.61,0,0,1,1.41-2.09,6.72,6.72,0,0,1,2.34-1.38,9.62,9.62,0,0,1,3.28-.51,6.76,6.76,0,0,1,5.37,2.3,8.32,8.32,0,0,1,1.39,2.15,12,12,0,0,1,.74,2.15l-3.75,1.25c-.14-.38-.32-.78-.53-1.22a6.53,6.53,0,0,0-.79-1.22,4.52,4.52,0,0,0-1.07-.94,2.5,2.5,0,0,0-1.36-.37,3.13,3.13,0,0,0-.91.13,2.09,2.09,0,0,0-.81.42,2,2,0,0,0-.56.77,2.76,2.76,0,0,0-.22,1.18,2,2,0,0,0,.42,1.27,5.09,5.09,0,0,0,.83.84l5,3.75a11.83,11.83,0,0,1,2.77,3,6.8,6.8,0,0,1,1,3.6,7,7,0,0,1-.47,2.62,5.7,5.7,0,0,1-1.4,2.09,6.71,6.71,0,0,1-2.35,1.38,9.58,9.58,0,0,1-3.28.51,7.1,7.1,0,0,1-3.81-1,6,6,0,0,1-1.31-1.06,8.94,8.94,0,0,1-1-1.22,10,10,0,0,1-1.41-3.3Z"/><path class="cls-2" d="M174.36,1.25h5V10h3.75v3.75h-3.75V28.34a10.44,10.44,0,0,0,.06,1.16,2.75,2.75,0,0,0,.26.93,1.49,1.49,0,0,0,.63.61,2.51,2.51,0,0,0,1.12.21,6.45,6.45,0,0,0,.75-.06c.32,0,.63-.08.93-.14v4.07c-.7.09-1.28.15-1.72.18s-.9.05-1.36.05a7.56,7.56,0,0,1-2.46-.34,4.72,4.72,0,0,1-1.62-.93,3.77,3.77,0,0,1-.95-1.36,6.75,6.75,0,0,1-.47-1.64,11.53,11.53,0,0,1-.16-1.77c0-.61,0-1.19,0-1.75V13.75h-2.5V10h2.5Z"/><path class="cls-2" d="M191.27,10v3.34h.27a8.5,8.5,0,0,1,.91-1.39,7,7,0,0,1,1.21-1.17,6.29,6.29,0,0,1,1.45-.82,4.2,4.2,0,0,1,1.61-.31l.23,0,.57.06v5.52a7.59,7.59,0,0,0-1.37-.4,7.81,7.81,0,0,0-1.4-.14,3.85,3.85,0,0,0-1.38.24,3.41,3.41,0,0,0-1.11.69,3.31,3.31,0,0,0-.73,1.09,3.7,3.7,0,0,0-.26,1.39V35h-5V10Z"/><path class="cls-2" d="M204.79,35.35a3.75,3.75,0,0,1-1.83-.49,5.52,5.52,0,0,1-1.6-1.31,6.79,6.79,0,0,1-1.14-1.87,5.92,5.92,0,0,1-.43-2.21,17.72,17.72,0,0,1,.1-1.83,6.35,6.35,0,0,1,.45-1.71,6.62,6.62,0,0,1,1-1.63,8.85,8.85,0,0,1,1.77-1.61A20.79,20.79,0,0,1,205.86,21q1.63-.84,3.93-1.74V17.5a8.37,8.37,0,0,0-.21-2.08,3,3,0,0,0-.57-1.21,1.66,1.66,0,0,0-.8-.56,3.15,3.15,0,0,0-.92-.13,2.83,2.83,0,0,0-.91.14,1.7,1.7,0,0,0-.8.58,3.1,3.1,0,0,0-.57,1.21,8.05,8.05,0,0,0-.22,2.05h-5a9.72,9.72,0,0,1,.56-3.23,7,7,0,0,1,1.52-2.48,6.5,6.5,0,0,1,2.35-1.58,8,8,0,0,1,3.07-.56,7.6,7.6,0,0,1,3.43.7,7,7,0,0,1,2.33,1.82,7.43,7.43,0,0,1,1.33,2.52,9.7,9.7,0,0,1,.41,2.81V28.75a32.4,32.4,0,0,0,.19,3.78,17,17,0,0,0,.46,2.47h-5l-.67-3.75a18.78,18.78,0,0,1-.95,1.7,6.36,6.36,0,0,1-1.08,1.29,4.16,4.16,0,0,1-3,1.11Zm0-7.21a4.7,4.7,0,0,0,.22,1.54,2.34,2.34,0,0,0,.57.94,1.81,1.81,0,0,0,.8.49,3.14,3.14,0,0,0,.91.14,1.65,1.65,0,0,0,.74-.18,2.93,2.93,0,0,0,.68-.44,4.17,4.17,0,0,0,.6-.59q.27-.33.48-.63V22.5c-.84.56-1.58,1.06-2.2,1.5A10.81,10.81,0,0,0,206,25.31a4.77,4.77,0,0,0-.93,1.32A3.52,3.52,0,0,0,204.79,28.14Z"/><path class="cls-2" d="M220.08,1.25h5V10h3.75v3.75h-3.75V28.34a10.44,10.44,0,0,0,.06,1.16,2.75,2.75,0,0,0,.26.93A1.49,1.49,0,0,0,226,31a2.51,2.51,0,0,0,1.12.21,6.45,6.45,0,0,0,.75-.06c.32,0,.63-.08.93-.14v4.07c-.7.09-1.28.15-1.72.18s-.9.05-1.37.05a7.54,7.54,0,0,1-2.45-.34,4.63,4.63,0,0,1-1.62-.93,3.92,3.92,0,0,1-1-1.36,7.22,7.22,0,0,1-.46-1.64,11.53,11.53,0,0,1-.16-1.77c0-.61,0-1.19,0-1.75V13.75h-2.5V10h2.5Z"/><path class="cls-2" d="M232,1.25h5v5h-5ZM232,10h5V35h-5Z"/><path class="cls-2" d="M240.85,18.75c0-.42,0-.93,0-1.54a12.46,12.46,0,0,1,.25-1.93,10.08,10.08,0,0,1,.65-2,5.69,5.69,0,0,1,1.28-1.81,6.19,6.19,0,0,1,2.12-1.3,10.27,10.27,0,0,1,6.33,0,6.1,6.1,0,0,1,2.12,1.3,5.69,5.69,0,0,1,1.28,1.81,9.48,9.48,0,0,1,.65,2,12.46,12.46,0,0,1,.25,1.93c0,.61,0,1.12,0,1.54v7.5c0,.42,0,.93,0,1.54a12.31,12.31,0,0,1-.25,1.93,9.48,9.48,0,0,1-.65,2,5.69,5.69,0,0,1-1.28,1.81,6.1,6.1,0,0,1-2.12,1.3,10.27,10.27,0,0,1-6.33,0,6.19,6.19,0,0,1-2.12-1.3,5.69,5.69,0,0,1-1.28-1.81,10.08,10.08,0,0,1-.65-2,12.31,12.31,0,0,1-.25-1.93c0-.61,0-1.12,0-1.54Zm5,7.5c0,.63,0,1.24,0,1.84a5.86,5.86,0,0,0,.28,1.6,2.41,2.41,0,0,0,.74,1.13,2.64,2.64,0,0,0,2.89,0,2.41,2.41,0,0,0,.74-1.13,5.86,5.86,0,0,0,.28-1.6c0-.6,0-1.21,0-1.84v-7.5c0-.63,0-1.24,0-1.84a5.93,5.93,0,0,0-.28-1.6,2.41,2.41,0,0,0-.74-1.13,2.64,2.64,0,0,0-2.89,0,2.41,2.41,0,0,0-.74,1.13,5.93,5.93,0,0,0-.28,1.6c0,.6,0,1.21,0,1.84Z"/><path class="cls-2" d="M259.68,10h5v2.7a15.79,15.79,0,0,1,2.24-1.76,10,10,0,0,1,1.77-.91,5.21,5.21,0,0,1,1.36-.33c.39,0,.73,0,1,0a3.2,3.2,0,0,1,1.49.34,3.57,3.57,0,0,1,1.13.91,4.22,4.22,0,0,1,.72,1.3,4.49,4.49,0,0,1,.26,1.49V35h-5V16.25c0-.31,0-.62,0-.92a2.06,2.06,0,0,0-.21-.8,1.37,1.37,0,0,0-.55-.57,2.32,2.32,0,0,0-1.09-.21,3.25,3.25,0,0,0-1.69.44,11.07,11.07,0,0,0-1.43,1V35h-5Z"/></g></g></g></svg>