<svg xmlns="http://www.w3.org/2000/svg" xmlns:xlink="http://www.w3.org/1999/xlink" viewBox="0 0 1031.3 266.44"><defs><style>.cls-1{opacity:0.2;}.cls-2{fill:url(#新規グラデーションスウォッチ_1);}</style><linearGradient id="新規グラデーションスウォッチ_1" y1="133.22" x2="1031.3" y2="133.22" gradientUnits="userSpaceOnUse"><stop offset="0" stop-color="#fff"/><stop offset="0" stop-color="#f6a400"/><stop offset="1" stop-color="#c70000"/></linearGradient></defs><g id="レイヤー_2" data-name="レイヤー 2"><g id="レイヤー_1-2" data-name="レイヤー 1"><g class="cls-1"><path class="cls-2" d="M1028.47,122c1.21-.05,2.48.41,2.8,1s-2.19.1-2.67-.1-2,1.55-2.65,2.25-4.73,2-6.24,2.37-.08,3.71-.5,4a8.61,8.61,0,0,1-2.42,1,6,6,0,0,1-2.39-1.4c-.62-.57-3.74.6-4.77,1.07s-5.19,1.77-6.6,2.17-3,3.88-2.86,4.69-2.37,2.18-2.25,3l.29.05c1.74.31,4.51-2.3,3.52-3.56l-.94-1.21a11,11,0,0,1,2.55-.46,8.54,8.54,0,0,0,3.23-.65,8.85,8.85,0,0,1,3.88-1.38v.09l0,2.31c1.78-.58,4-1.37,4.86-1.75a12.26,12.26,0,0,1,4.9-.15c.92.28,3.54,1,3.75,1s-.2.81-1.39,1.79l-.05.69c-.24,3.15-1.78-.21-2.42.41l-.52.5a2.51,2.51,0,0,1-2.43.54c-.61-.31-2.79-.78-2.23.31l.36.56.23.36a3.68,3.68,0,0,1,.93,1.55c.13.53,1,1.91-.39,1.59s-4.08,1-4.53.69-1.89-.86-2.2-.39-3.24,1.82-2.94,2.23-.22,2.39.12,2.56l.34.1.83.23a1.37,1.37,0,0,1,.94,2l-.68.28-1,.39a2.12,2.12,0,0,1-2.14-2.36l-1.28-1.13-.45-.39c.85-1.44,1.38-2.7,1.19-2.81a1.31,1.31,0,0,0-1.28.64,31.71,31.71,0,0,1-2.33,2.2c-.55.61-1.82,2.26-1.61,2.4s1.11.73,1.49,1-.38,1.75-.71,2.19.86,1.55.44,2.06a6.49,6.49,0,0,1-2.75,1.49,7.22,7.22,0,0,0-3.49,1.4c-.83.83-3.74,2.83-4.09,2.74s-.43-.95-.74-1.29-1.25-.94-2-.39-.23,2.82-1.5,3.33-5.81,2-7.22,2.36l-1.25-.07-.54,0c-.67-1-1.54-1.21-1.94-.53s-2.17,2-3.08,1.59l-.76.07-2.43.26c-2.15-.94-4.42-1.41-5-1s-2.82-1.3-3.8-1.67l-1-.21-.19,0c-.56.54-1.08.2-1.18-.76s-.62-3.86-.87-3.28-1.37,1.64-2,1.2l-.3-.44c-.14-.22.46-.81.31-1l-.79-.85a6.64,6.64,0,0,0-2.45-2.47l-.5-.42c-.35-.29-.33-.85-.61-1.23-1.71-2.3-2.13-5.09-4.6-7.17l-.84-.71c-.1-1.71.11-3.28.47-3.5s-.79-1.44-1.19-2.11-2.27-1.59-3.47-.46l-2.18-.06c-1.58-.05-2.48,1.73-3.78,2.61l-2,1.36c-2.47.35-4.61,1.6-4.74,2.76s-4.48,2.43-5.45,3.18-6.21,3.17-8.74,4.64l-2,1.69-1.95,1.67a113.89,113.89,0,0,0-10.1,5.75l-3,1.29-1.59.68c-2.22.82-4.46,2.08-5,2.81s-2.58,2.74-3.59,2.61l-1-.3-.26-.09a8.68,8.68,0,0,0-1.74,2.13,20.09,20.09,0,0,1-5.39,4.92l-1.68,1.46-1.83,1.61c-2.69.83-5,1.87-5.22,2.32l.11.51.06.29c-.56.39-2.9,1.79-5.21,3.11s-8.76,6-9.92,6.67l-1.16.45c-.91.35-1.17,2.43-2.94.83l0,0a10,10,0,0,0-1.93,1.93,16.73,16.73,0,0,1-3.74,2.89c-.42.1-3.53,1.63-6.36,2.93s-10.54,5.3-11.21,5.51-2.6-.56-2.81-.69-2.32-.72-4.48-1.41-9-.37-9.9-1l-.81-.65-1.9-1.55c-1.9-1.75-4.29-3.85-5.31-4.67s-1.13-4.36-1.44-4.89a31.55,31.55,0,0,0-3-3c-.82-.77-1.35-3.92-1.56-4.37s-3.89-.69-7.35,1.08l-.57,3.35-.08.43c-1.17.36-3.67,2.36-5.56,4.44l-2.16,1.44c-2.19,1.47-3.69,3.42-6.31,4.7-2.32,1.12-3.48,3.82-5.16,5.82-.11.13-.35.21-.4.35l-.68,1.56c-2,.41-3.76,1.36-4,2.1s-3.26,1.71-4,2.19-3.56,3-4.87,4.16-6.74,5.46-9,7.09A131.5,131.5,0,0,1,734,232.55a31.44,31.44,0,0,1-7.88,1.6c-1.18-.09-4.32-1.49-5.53-1.89a12.33,12.33,0,0,0-6.22.85l-1.48-1.1-.6-.45a10.26,10.26,0,0,1-3.78.36c-.61-.17-1.36-1.12-.33-1.12a1.9,1.9,0,0,0,1.26-3.2c-1.36-1.77-8-3-8-3.41s.1-2.18.24-3.16-3.16-4.32-4.42-6.08-3.58-8-4.21-9.07-3-3.95-3.49-3.25a14.18,14.18,0,0,1-4.19,3.08l-.75.78-1,1a15.63,15.63,0,0,1-4.34,4.9L678,213.77a25.13,25.13,0,0,0-3.72,4l-1.91,3c-3.33,2.38-6.23,4.48-6.45,4.68s-2.12,1.48-3.68,2.48-7.19,4.6-9.16,5.66-8.66,5-10.6,6.21-8.83-.72-9.65-1.07-4.19.31-5,0-3-.89-3.4-.38-2,1.51-2.73,1.09-3.59-3-4.18-4.65a45.41,45.41,0,0,0-4.28-7.41l-.16-.82L613,226c.63-1,.45-1.8-.39-1.8a11.89,11.89,0,0,1-3.06-.34,10.19,10.19,0,0,1-.12-3.4L608,219.29l-.51-.41c-.33-.6-1.44-3-2.46-5.37l-2-1.69c-.38-.33-.95-.75-.94-1.11l0-.8c.67-.75,1.73-1.81,2.35-2.36l-.14-.27-.61-1.08a1.69,1.69,0,0,1-2.31.31c-.78-.51-4.3-1.69-5.27-.89s.85,3.58.48,3.7-1.24.89-1.11,1.42a10.21,10.21,0,0,0,1.36,2.62h.39a2,2,0,0,0,1.19-.7c.21-.2.06-.74.27-.83a2.45,2.45,0,0,1,1.54-.25c.36.17.71.95.53,1.18l-.63.78c-.94.79-1.41,1.52-1,1.63s.55.67-.46,1-2,2.84-2.33,3l-.31,0a9.15,9.15,0,0,0-2.23-.42l-.42.08c-.29.7-.69,1.74-.88,2.33v1a6.37,6.37,0,0,1-1.93,1.68c-.79.46-4.49-.37-5.57-.05s-5-.9-6.35-.9-5.21-1-6.45-1.14a33.54,33.54,0,0,1-5.73-1.32c-.7-.36-3.27-.7-3.62-1.16l.13-.33c.46-1.2,1-.19,1.47,0a2.16,2.16,0,0,0,1.06.2l.33,0c.34-.22.45-.55.25-.74s-.52-.85-.13-1,1.52-.87,1-1.26a38.67,38.67,0,0,0-4.08-1.77c-1.3-.55-1.44-3.36-1.41-3.6s-.24-.93-.67-1a4.55,4.55,0,0,0-2,.65c-.45.3-1.45-.81-1.28-1.39l.17-.55c.07-.22.2-.61.12-.65-.31-.13-.84-.31-1-.2-.76.45-2.06,1-2,1.5l.14,1.87a20.46,20.46,0,0,0-3.45.74c-.2.14-.76.82-1.29,1.4a25,25,0,0,1-2.83,3.06,13.16,13.16,0,0,0-2.36,3c-.35.57-2.49,2.18-2.89,3.16s-3.8,2.95-4.33,3.36-.76,2.69-1.77,3.26-4.26,4.26-6.42,6.51l-1.91,2c-1.85,2-3.62,4.2-6.47,5.49l-.5.23a29.64,29.64,0,0,0-1.87,2.33,21.25,21.25,0,0,1-6.2,4.64l-2,.78-1,.4a7.1,7.1,0,0,1-2.55,2.44c-.69.27-2.74.88-3.76.37l-.72,1-.54.78c-.56,1-2,.87-3.17-.37s-7-.4-7.87-.58-3.14-1.11-4.59.05-7.12.23-7.54.5a21.59,21.59,0,0,1-2.17,1.57c-.53.22-3.14.31-4.44,1.3s-6,.63-5.68.22,0-1.59-.32-2.3a8.25,8.25,0,0,1,0-3.73,21.21,21.21,0,0,0,.7-3.53,27.85,27.85,0,0,0-.75-6.65l-3,.06-1.25,0c0,1-.07,2.08-.08,2.38a1.73,1.73,0,0,1-1.37,1.15l-.26-.24-1.08-1c-1-1.31-2-2.93-2.39-3.59s-1-2.6-.45-2.69a15.22,15.22,0,0,0,2.39-.56v-.13l0-1.59c0-1.75-.52-3.38-1.14-3.62a34.27,34.27,0,0,1-4.13-1.44,14.7,14.7,0,0,1-4.07-5.2l1-1.75.43-.79c-.2-1.41-.65-2.39-1-2.17s-1.05,0-.88-.88-2.78-1.75-2.84-2.23a11.91,11.91,0,0,1,.33-2.68,1,1,0,0,0-1.72-.78c-.86.74-3.14,3.4-4.18,3.95s-1.69,3.82-2.41,4.57-3.41,3.39-3.73,4.58l-.84.61-.9.66a17.07,17.07,0,0,0-1.89,2.76,22.56,22.56,0,0,1-3.76,3.85c-1.13.88-2.7,4.19-2.82,4.34a13.78,13.78,0,0,1-3.16,1c-1.45.33-1.47,3.73-1.54,3.82s-1.13,1.27-2.19,2.63-6.91,3.51-8.15,4.2-4.71,5-7.17,6.63L399.86,260l-1.22.89c-1.32-.31-2.56-.3-2.74,0s-3.1.67-5.13.45-7.91-1-8.56-1.06-.43,2.1-.23,2.66l-1.67-.11-.79-.05c-.89.33-2.39,1-3.34,1.42s-4.56,1.7-5.58,2.15-4.54-.85-5.56-.78-3.46-2.32-4.34-2.81.46-2.73,0-3-.57-2.4-.18-3.92l-.67-.78-1.05-1.25c-1.57.95-3,1.63-3.13,1.5a3.67,3.67,0,0,1,.92-2.43l-2.05-.35c-.86-.15-1.87.37-2.8.35h-.21a1.94,1.94,0,0,1,.41-1.9c.4-.26,1.87-1.15,2.34-1.44s1.37-1.62.65-2.12-2.07-2.25-2.85-2.81l-.91-.39-2.13-.9a43.32,43.32,0,0,1-5.48-7.85l-1.86-2-1.81-1.94c-.38-2.35-1.89-4.42-3.35-4.6l-.86-.47-1.62-.91c-1.34.72-3.65,1.81-5.14,2.43l-1.5-.11-.66-.05c-.63-.45-2.84-.7-4.91-.55l-1,.8-1.71,1.35a7.15,7.15,0,0,0-2.68-1.31c-.25.08-.77.47-.57.65s0,.74-1,.78-3.55,1.21-4.39.74-3.32,1.33-4.26,1.33-3.94-1-4.41-2.27l-.6-1.08-.46-.81a16,16,0,0,0-2.21-2,6.71,6.71,0,0,1-1.13-2.64c.07-.06,0-.29-.24-.37a20.38,20.38,0,0,1-2.89-1.6l.91-1.44.64-1a6.55,6.55,0,0,0-3.73-4.11c-1.77-.74-5.45-4.6-5.94-5.4s-2.06-3.27-2.37-3.7l-.32-.37-.53-.63c-.61-.65-1.88-2.06-2.81-3.13s-5.14-4.47-5.3-6.88l-2.31-2L271,190.88c-.58-2.44-2-3.76-3.2-2.93s-3.35,4.89-4.34,5.76-2,4.8-2.67,5.74-3.9,2.5-4.16,2.6l0,.06.19.78c.21.81-.65,2-1.89,2.54l-.85.75-.7.61a14.81,14.81,0,0,0-.61,2.3c0,.26-.27.95-.59.93a3.84,3.84,0,0,0-2.16,1.1l-.62.68c-.95,1.07,1.1,2.75-1.38,3.64-1.07.39-1.61,1.78-2.35,2.73-.2.25-.15.68-.39.82l-1.2.68a10.51,10.51,0,0,1-2.16,3.08c-.67.56-3.26,3-4.62,4l-.88,1.28c-.83,1.21-3.39,2-3.48,3.11-.18,2.31-3.63,1.32-4.07,3.46l-.29,1.46c-2.09,1.49-4.16,2.49-4.61,2.23a22.15,22.15,0,0,0-3.67-1.48c-1.17-.3-3.12,2.45-3.19,2.68s-.6.79-.87.09l-.2-.38-.14-.27c-.35-.39-1.32-.33-2.15.13l-.74.42-.43.25a4,4,0,0,1-2.61-.11c-1-.32-3.75,2.15-5.07,2.79s-5.69,2.36-6.55,3.12-5.37.79-6.32.78-3.62.58-4,.35l0-.26,0-.2c.49-.3-1-.93-3.37-1.4l-2-.62a5.26,5.26,0,0,1-2-1.58l-.81-.84c.7-.69.83-1.48.28-1.76s-1.87-2.56-3.41-4l.26-1.92a8.68,8.68,0,0,0-2-.45l-2.49-.29a9.78,9.78,0,0,0-1-3.93c-.41-.55-.87-2.3.15-2.11l.76.07a1.74,1.74,0,0,0,1.11-.15c.18-.17,0-.86-.06-.86-2.49-.14-4.13-1.38-5.72-2.76l-1.49-1.29c-1.61-1.27-2.85-2.7-2.75-3.16s.09-1.54-.22-1.44a1.16,1.16,0,0,1-1.26-1c0-.78-1.7-2.74-1.4-3.35l-.29-.57-.35-.69c-.53-.68-1.25-1.22-1.62-1.2a1.79,1.79,0,0,1-1.52-1.31l-1.37-.07c-.84,0-1.7-.91-2.46-.83-1,.1-2.52.59-2.82,1.22l-1.26,2.68c-3.1,1.44-6,2.07-6.38,1.4s-1.95-2.39-2-1.57-1.62,2.93-3.28,3a50,50,0,0,0-6.76.63,4.82,4.82,0,0,0-1.94,2.85c-.16,1.27-5.14,1-6.15,1.57s-4.59,3.19-6,4.26l-1.66-1.61-.13-.13a25.71,25.71,0,0,1-4.85-.13l-1.46-1.26c-1.4-1.21-2.49-2.27-2.29-4.1l.1-1a4.86,4.86,0,0,0-2.81-2.29c-.94-.15-1.25-2.12-1.86-2a25.17,25.17,0,0,1-3.53.45c-.75,0-.69-1.11-.43-1.44s-1.34-1-1.66-1.25l.06-.23.64-2.94c-1.79-.95-2.34-1.53-1.22-1.28s3.17.54,3.07-1.53l-2.79-.18-.59,0c-.66,0-1.44,0-1.74,0s-1.69-.37-1-.59,2-1.61.75-2.34-5.33-.33-5.63-.63l-.16-.34-.44-1a9.65,9.65,0,0,1-.56-3.4c.09-.78-3.18-2-5-2.22l-1.71.1-.24,0a12.44,12.44,0,0,0-.67,2.23c0,.16-.46.51-.91.69s-1.42,1-1.2,1.3-.87,1.38-1.74,1.75l-.48.51-.84.92c-.74,1.06-1.9,1.7-2.57,1.43s-3.76.74-5.35.87l-1.46-.22-1.46-.23a8,8,0,0,0-4.78.62l-.06.63-.16,2a27.79,27.79,0,0,0-5.15,2.11c-1,.61-3.9,2.79-4.54,3.24s-3.12-.1-4-.54S42,206.6,42,205s-1.32-6.18-3-6.94l-1.32,0-1.25,0c-1.74,1.06-3.08,1-3,0a15.79,15.79,0,0,0-.22-4.14c-.21-.22-1-.56-1.31-.27s-1.52,1.19-1.84,1A29.68,29.68,0,0,1,28,192.47c-.79-.84-4.94-2-5.79-3s-1.86-4.86-2.13-5.53-2.87.06-3.69-.45l-.39-.61c-.58-.91-.76-2-1.26-2.94a2.34,2.34,0,0,0-1.26-1.14l-1.77-.43a35.8,35.8,0,0,1-5.15-1.19v-.3l0-1a1.47,1.47,0,0,0-1.14-2c-.94-.11-1.88-2.73-2.61-3.55l-.88-.62a3.91,3.91,0,0,1-1.35-1.93l-.36-1.18c.66-2.45,1.3-4.58,1.42-4.74l0,0L0,160.27a14.44,14.44,0,0,0,1.57-4.65c0-.87.72-4.29,1.1-6.09L3,147.87l.11-.57c1.16-.54,1.79-1.07,1.4-1.19S4,145.38,5,145s-.77-2.47-.6-2.59,1-.42,1.47-.63-.4-2.09-1.05-2.83,3.64-2.92,5.41-4.51l-2.09-2c-.16-.14-.24-.52-.12-.65l1.37-1.48c1.54-1.6,3.19-3.36,3.66-3.92s1.5-2.18,1.3-2.37,1.18-.41,3.4-.21L15,121.54c-.13-.11.85-.92.9-1.42l.13-1.59c.66-1.63,1.57-3.65,2-4.51s2.13-3.67,2.65-4.64,2-4,2.35-4.46,2.4,0,2.65-1.48,2.64-4.86,2.07-6l.14-.06,1.3-.6a5,5,0,0,1,2.5-2.36c.8-.2,2-2.51,3.31-3.07V89.82c0-1.23,1-2.53,1.89-3.64l.36-.45a22.47,22.47,0,0,1,2.92-.08c.5,0,0-1.16-.51-1.46s1.47-1.51,1.82-2.38l.55-.64c.55-.65,1.68-1,2.22-1.61l.2-.23c-.69-.81.39-2,2.39-2.75l1-1.55.8-1.18c.87-1.29,2.43-3.6,3.45-5.14l1.43-.86,1.33-.8a12.21,12.21,0,0,0,2.24-3.74c.23-.89,3.15-2.76,3.58-3.64s3.21-2.16,2.93-2.91l.3-.29c.57-.51,1.67-.62,2.34-1.1l.88-.61A40.81,40.81,0,0,0,71.38,53L71.31,53l-2-1.66a23.42,23.42,0,0,1,4.77-1.92c.91-.17,3.07,1.21,3.62,1.3s2.54.33,3.22.41a25.41,25.41,0,0,1,4.26,2.1c.72.41,4.33-1.14,5.27-1.79a37.58,37.58,0,0,1,5.67-2.75c1.12-.35,4.72-1.68,5.66-1.92l.8.64a1.64,1.64,0,0,0,1-.35l-.18-2.42c1.63.78,4.07,1.8,5.42,2.28s6.1,2.52,7.63,3.34,4.5,4.94,5.31,5.62l.83.57.26.19a13.49,13.49,0,0,1,3.08,2.32v.85l0,2.2c1.87.26,3.44.8,3.48,1.19s-.61.85-1.11.91-1.87.8-.91,1.43,3.42,3,3.3,3.88l.27.9a5.07,5.07,0,0,0,1.57,2.33l.74.62c1.14.43,1.55,1.08.91,1.44s2.09,1.64,2.85,2.3l.41.75c.17.31-.65.93-.55,1.33l.13.55c.56.53,1.56,1.39,2.24,1.92l.34-.11c1.38-.45,0-.79-.17-1.23l-.15-.4c.08-.46.82-1,1.64-1.3s2.42-2.53,2.91-2.93,2.39-2.06,3.1-2.64,1.37-4,2.2-4,3.31-.4,3-.88a1.32,1.32,0,0,1,1.37-1.72c1.29,0,.59-2.93,1.28-3.1s3.56-3.33,6.46-5.35l1.53-2.55c.8-1.34,2-.84,2.92-.76,2.39.22,2.38.33,1.91-1.47l-.32-1.24a17,17,0,0,1,3,.25c.41.12,1.6-.58,1.83-.77a11.17,11.17,0,0,1,2.45-1.12c.89-.25,4.42.75,5.73,1.16l1.15.46c.5.2.82.68,1.27,1L185.65,55a44.79,44.79,0,0,0,5.92-3.22,12.77,12.77,0,0,1,5.82-1.84c1.8.13,7-2.34,8.39-2.87s6.33,1.87,8,2.3l1.6.34,1.77.37c2,.41,3.41,3,3.21,5.66l2.34,1.84c1,.77.14,1.32-.34,2l-.18.26a4.14,4.14,0,0,0,3.18.93l0-.29c.11-1.12,1.23-1.59,1.81-1l.74.69a5.51,5.51,0,0,1-.32,3.21c-.37.52-2.3,1.69-1.17,1.69a23.2,23.2,0,0,1,3.57.21c0,.12-.21.53-.6.67s-1.21.92-.52,1.29,1.86,1.86,1.27,2.63l.1.07,2,1.29a51,51,0,0,0,3.46,5.56c.81,1,3.6,4.1,3.74,3.38s.91-2.39,1.48-2.45,2.47-.54,1.88-.75a1.73,1.73,0,0,1-.26-2.82c1.26-1,5.68-3.49,6.06-4l1.06-.27.68-.17a4.23,4.23,0,0,1,.55-2.36,2.41,2.41,0,0,1,1.45.06c.31.15.71-.8.25-2.41l2.95.08c.21,0,.63-1.3.68-2l.05-.7c.57-.79,3.93-3.3,7.46-5.57L266,53.85l.46-.58a6.85,6.85,0,0,0,2.61-1.6c.45-.53,2-1.81,2.24-1.67a1.61,1.61,0,0,0,1.57-.31l-.1-.09c-1.35-1.31-.41-1.63,1-2.24l1.81-.78c1.76-1.21,4.47-3,6-3.91l1.93,1.16.43.26a11.35,11.35,0,0,0,2.9-1.79c.46-.49,3.19-1.16,5.17-.51s7.45,2.6,8.46,2.68l1.1-.25c2.38-.55,3.62-2.44,6.42-2.68l2.46-.2a18.67,18.67,0,0,1,5.61,1.32c.62.43,3.25-.28,4,.17s3.21-.52,3.58-.22a32.1,32.1,0,0,1,3.4,3.52c1.08,1.4,3.75,5.91,3.77,6.81s.52,3.28.83,3.14,1.55.54,1.57,2,4.14,4.28,4.23,5.63l0,1.23c0,.33-.3.67-.31,1v.67a5.33,5.33,0,0,0,1.51,2.67l.7.27,2.54,1a46.83,46.83,0,0,0,1.66,5.77c.47,1.16,2.07,3.93,2.42,3.46a8.22,8.22,0,0,1,2.59-1.51l-.68-.75-.33-.38a5.46,5.46,0,0,1,2.21-2.6c1.12-.78,3.27-4.33,3.77-5.18s4-3.31,5.4-4.56l.26-1.62c0-.29.2-.75.42-.8l1.76-.4a7.38,7.38,0,0,1,1.3-3.28,17.51,17.51,0,0,0,1.9-2.93c.19-.5,2-1.72,3.24-2.6s3.64-4.3,3.92-4.57a8.34,8.34,0,0,1,3.21-.93c1.14-.07.36-2.49,1.22-2.68s1.08-2.95,1.44-3.93,3.91-2.27,4.36-2.52a4.15,4.15,0,0,0,1.06-2.15c.16-.71,2.94-1.91,3.84-2.2s1.95-3,3.31-3.77,5.69-3,6.63-3.31,2.5-.7,3.2-1,4.29.32,5.17,1.14,5.34,1.92,6.05,2.09,3.91-.92,5.23-1.38,4.92.41,4.44,1.09l0,.63v.23c.91.31,3.46-.45,5.66-1.69l2,.45c3.22.72,7,1.28,8.18,4.61l.19.55a19.09,19.09,0,0,1,.38,3.43l1.47.92a10.6,10.6,0,0,1,2.14,1.5c.2.21-.08,1-.42,1.21l-.51.25a1.44,1.44,0,0,0-1.25,1.61l1.56.42,1,.27c.46,1.81,1.21,4.24,1.66,5.42a37.59,37.59,0,0,0,3,6c.77.94,2.93,3.31,2.49,3.44s-.24.48,1.24.55l-.91,1.3c-1.17,1.68.94,1.67,1.5,2.39l.61.78a8,8,0,0,0,1.53,2.29,4.1,4.1,0,0,0,2.57.06,26.77,26.77,0,0,0,3.36-3.06c1.13-1.13,4.46-4.66,4.73-5.45l.41-.65.43-.67a18,18,0,0,1,2.93-2,24.74,24.74,0,0,0,4.37-3.26c.56-.71,3.21-2.76,4.39-2.81l1.14.1c1.9.17,3.67-.13,4.5-1.55l.84-1.45a13.07,13.07,0,0,1,3.61-1.46c.39,0,1.39-.26,1.38-.76s2.32-2.13,5.05-3.61l2.25-1.65c.75-.55,2.34-.43,2.56-1.76a11.46,11.46,0,0,1,1.94.11l.78.12c1.26.31,2,.28,1.61-.06s-.19-.88.89-.74,2.33-2.32,3.14-2.43,3-.81,3.1-1.3,2.73-2.74,3.31-3.5,3.42.48,3.82.36V28l.11-2.3c1.71.67,4,1.67,5,2.22l1-1c.11-.11.78,0,.78,0l0,2a8,8,0,0,1,5.21,1.32l1.84.28,1.68.25c1.81,1.4,4.23,1.76,5.37.8s5.86-.49,6.19-.66l0-.22L543,30c.71,0,1.6.08,2,.12a44.06,44.06,0,0,0,4.6-.8l3.11.09,1.08,0a5.88,5.88,0,0,1,3.29,0c.61.31,2.16-.7,2.55-.47l.1.27.87,2.52c2.84.32,6.17.7,7.39.86l1,.33,1.6.51a2.63,2.63,0,0,0,.18,3.41l.61,1.11.74,1.32,2.69,4.08a18,18,0,0,0,3,3.08c.43.2,1.56,1.12,1,1.42s-1.86,1.47-1,1.6,2.27,1.07,1.13,1.78l-.19.68c-.2.71.79,1.6.76,2.39l0,.87a22.37,22.37,0,0,0,.45,3l-.21.79-.24.91c.56,1.23,1.75,1.85,2.64,1.38s3.17-1.48,3.32-2.15,2.39-1.8,3.24-2.09,2.57-2.53,3.58-2.53,4.09-.39,3.85-.87-.45-2.39.21-2.93,4-2.61,5.5-3.5l1.33.07c2.08.09,3.09-1,4.57-1.63l1.43-.61c1.83-.31,3.23-.75,3.11-1s.24-1,1.09-1.26,2.33-2.14,2.86-2l.55.09.5.09c.6-.1.84-.48.52-.85v-.35l0-.54c.19-.6,1.5-1.65,2.92-2.33l1.19-.51A9.78,9.78,0,0,0,625.26,34l1.1-1.2c.83.63,3.33.67,5.56.09l.63-1.07.89-1.53a29.39,29.39,0,0,1,4.23-3c.94-.48,2.84-2.34,3.13-2.24s1.2.12,1.36-.18.91-1.62,1.34-2.25,3.82-2.7,5.43-4.16l2.7-.15,1.5-.09c-.17-1.78.17-3,.77-2.73a3.15,3.15,0,0,0,2.3-.16c.29-.28-.18-1.43-.21-1.61A8.87,8.87,0,0,1,657.88,11c1.09-1.15,6.92-1.55,8-2.31l-.39-1.34L665.39,7c0-.38.54-.65,1.21-.61l.34.27c.34.28.17,1,.51,1.24l.32.25c.68,0,1.15-.28,1-.66V7.19l0-1.3a27.78,27.78,0,0,0,3.31-.74.44.44,0,0,0,0-.79c-.43-.21,2.12-1.15,3.47-1.33s4.9-2.2,6-2.07l1.06.18.56.09c.5-1,1.25-1.48,1.66-1.1a9.77,9.77,0,0,0,3.69,1.32l.11,1.49,0,.55c2,.45,4.66,1.06,5.8,1.34s3.87,1.66,5.28,1l1.35-.47L702.33,5c1.36-.31,3.15-.66,4-.77s3.55,0,4.6.91l1.53-1.31.53-.45a9.33,9.33,0,0,0,3.41-.21c.59-.25,2.21.17,2.13,1.15s.2,1.92.6,2.07l.32,0,1.4-.23a3.89,3.89,0,0,1,4,1.63l2-.37.16,0a25.8,25.8,0,0,0,1.6,2.31c.54.69,1.75,1.74,1,1.59s.93,3.83,2.31,6l1.48,1.87,2.41,3c-2.44,1.6-3.82,3.56-3.08,4.36s2.79,3.16,3,3.39a37.76,37.76,0,0,1,1,4.24c.41,1.89,2.08,7,1.9,7.34s.72,1.2,1.63,1.4l.2.39.33.65a31.76,31.76,0,0,1-.93,3.49c-.36,1.06,2.21,4.09,2.84,5a48,48,0,0,1,2.23,5.49c.47,1.13,4.82.56,5,.66l.13.11.84.68c.7.57.69,1.91,0,3s-1.92,5.35-2.26,7.11l-1.07,1L746,71.77a5.57,5.57,0,0,1-.28,4.35l-.4,1.14-.12.35a2,2,0,0,0,2,.62l.42-.36.62-.53c.48-.73,2.92-2,5.41-2.94l1.2-2.1L756,70.39c2.41-1.33,5.11-2.84,6-3.38s4.49-1.59,5.56-1,3.85,2.35,3.65,2.53a3.4,3.4,0,0,1-2,.08c-.73-.17-.73,1,.06.66l1.23,1.09,1.74,1.55A88.76,88.76,0,0,1,780,67.42l1.51.82,1.56.84a12.41,12.41,0,0,1,4.75.71c1,.46,1.27,4.26,1,5.33S792,77.8,792.21,78a15.82,15.82,0,0,1,1.36,3.45l1,1.38.56.77c-2,1.81-2.32,3.35-.79,3.42s2.52,3.19,3.16,3.75,1.47,3.59,1.93,5,4.07,4.31,4.6,4.62,2.52,3.93,3.26,4.3l.23-.15a6.26,6.26,0,0,0,1.72-1.8l.52-.78a4.33,4.33,0,0,1,1.9-2c.6-.21,2.3-1.16,2.39-1.72s1.9-1.25,2.65-1.27,2.94-1,3-2.11l.66-.53.65-.52c1.22,0,2.16-.25,2.06-.56s.54-1.36,1.55-1.75,2.68-2.12,3.17-2.11a17.17,17.17,0,0,0,3-1c1.05-.35,2.75-2.25,3.24-1.75S835.59,85,836,84.46l.94.6a5.68,5.68,0,0,0,1.91-1.3l.57-.57a4.45,4.45,0,0,1,3.05-1.49c1.22-.1,5.09-3.54,6.95-4.85l1.83-1.09.73-.43a32.29,32.29,0,0,1,3.22-.81c.85-.16,2.42-2,2.77-2.37a3.27,3.27,0,0,1,2.29-.57c.49.22,3-.58,5-1.51l1.42-1.17c1.61-1.34,3.32-1.69,5.55-2,3.06-.46,4.79-.13,5.76,2.29.42,1.07,1.23.92,2.21.41l.58-.29a7,7,0,0,1,2.75.24c.76.24,3.22-.41,4.29,0l1.39-.54c1.51-.58,2.22,1,3.25,1.6s1.33,1.46.2,2.37l-.14.11a3.36,3.36,0,0,0,2.87.94c1.11-.14.32,2.75,1.35,3.61l.07.87.2,2.32c1.9,1.82,2.94,3.37,2.31,3.45s-1.3,1.86-.08,3.8l1.35,1.53.32.37c1.59-.17,2.85.35,2.81,1.16s.28,3.69,1.6,4.91,4.4,5.8,3.65,7.24-4.77,5.58-5,6.89l1.48.76.31.16c1-.4,1.74,0,1.74.81s.73,2.7,1.62,2.08.91-2.66,1.24-3.27,1.06-2.89,2.08-3.63,4.24-2.14,4.43-1.81,1.61.48,2.53-.72l.72-1,.35-.51c.28-.62.75-1,1.06-.94a2,2,0,0,0,1.75-1.21l.19,0,3.23.35a40.43,40.43,0,0,1,6.88-2.73c.9-.13,2.7-1.38,3.78-2.1s4-1.7,3.31-.92-1.78,3.27-1.26,3.66,2.57,1.25,3.36,1,0-2.61,1.7-3.15,5.68-2.92,4.16-2.67-5.35.44-5.4-.11,1.07-.86,2.56.29l.92-2.42.16-.41a1.69,1.69,0,0,1,2.07.74l.6.48.47.36a2,2,0,0,1,2.18,1.06l1-.41c1.07-.46.72-1.26-.06-2l-.36-.3c-.17-.51,1.87-1.09,4.52-1.28s10.54,2.3,12.49,1.88,7.72.7,8.25,1.61l1.74-.75a.9.9,0,0,1,1,1.44l-2,2a11.94,11.94,0,0,1,5.94,2.89l1,1.38.52.72c.23,1.16.09,2-.32,1.88A19.87,19.87,0,0,0,983,103l-.66.08c-.11,0-.29.76-.16.83a8.67,8.67,0,0,0,1.84.71l.36.1c.48,0,.47.39,0,.91s1.94,2.58,3.18,3.16,2.62,3.58,2.9,3.61.7.48,0,.86-2.14,2-.92,2.31,3.93,1.53,3.69,2.15-1.87,2-3,1.4-4.81,1.21-5.62,1.57l0,.3c.09,1.72-.89,2.56-2.86,3l-.35.07a1.26,1.26,0,0,0,1.07,1.56l.65-.09c.9-.13,1.75-.51,2.64-.59a1.38,1.38,0,0,1,1.07.75l.05.35a7.43,7.43,0,0,1-3.06,1.17,13.4,13.4,0,0,1-5.45-1.25l-.24,0a4.67,4.67,0,0,0-1.84.57c-.13.07.18.93.54,1.17.55.36,1.42.39,2,.74l.6.39c.56.72,2.09.82,3.39.22s6.08-.71,7.17-1.11,5.31-1.61,6.77-2.17l.25.24,1.12,1.06a17.17,17.17,0,0,1,3.47.23,5,5,0,0,1,1.64,1.09c.18.35.77-1.07,0-2.29l-1.63-.48-.28-.09c-.06-.64.28-1.15.75-1.13l.4.09.35.07c.35.17.8-.4,1-1.26s4.61-.69,6.14-1l1.35-.46a1.16,1.16,0,0,0,.47-1.2c-.11-.29-.83-.5-1.32-.58-.28,0-.61.34-1,.41l-.38.07c-.46-.05-.65-.64-.42-1.32h0c1.55.26,4-1.43,4.54,1.36l.05.28c1.88-.28,2.94-.65,2.33-.84s-2-1.2-1.08-1.59,3.24-.72,3.24,0,.38,2.49.84,2.28,1.67.48,1.91,1.88l-1.67.9a7.61,7.61,0,0,0-2.06,1.7,1.08,1.08,0,0,0,0,1.24,2,2,0,0,0,1.52.3c.69-.16,1.23-.72,1.91-.88,1.07-.24,2.29-.14,3.31-.47,2.19-.69,0-1.66.12-2.5l0-.28C1023.85,122.28,1027.25,122.06,1028.47,122Zm-104.13-17c-1.18-.19-2.32,0-2.53.34a12,12,0,0,1-1.36,1.68c-.25.21-3.92.63-4.5.87l-.06.3c-.07.35.38,1.11.61,1.11l2.2,0c-.87.81-1.47,1.69-1.34,1.95a1.5,1.5,0,0,0,1.63.4l.36-.41c.81-.91,1.55-2.76,2.21-2.73l3.49.17a33.33,33.33,0,0,0,3.86-4.23l-.09-.27-.08-.21C928.41,103.86,925.52,105.24,924.34,105.05Zm-335.7,98.08c-.8-.32-2.39,1.33-3.53,3.66l-3.35-.07a2.12,2.12,0,0,0-1.35.75l-.4.47c-.26.63-.13,1.25.27,1.36a5.49,5.49,0,0,0,2.37-.5c.62-.3,3.14-1.67,4.3-2.34S589.44,203.46,588.64,203.13ZM975.81,93.74c-1.75.92-2.57,2.18-1.84,2.8a16.52,16.52,0,0,0,3.85,2.27l.31-.2.34-.23a5.8,5.8,0,0,0-.93-2.58l-.62-.73ZM574.66,207.44c-.51.41-.43,1.24.17,1.85s2.46,1.38,3,.62S575.17,207,574.66,207.44Zm362.42-107.1a1.91,1.91,0,0,0-.78-1.58l-.27.09-1.31.44a8.5,8.5,0,0,0-2.75,1.78c-.16.34-.08,1.27.49,1.27a5.85,5.85,0,0,0,3.28-1.56l1.15-.38Z"/></g></g></g></svg>