<svg xmlns="http://www.w3.org/2000/svg" xmlns:xlink="http://www.w3.org/1999/xlink" viewBox="0 0 1198.09 306.68"><defs><style>.cls-1{isolation:isolate;}.cls-2{mix-blend-mode:multiply;opacity:0.2;}.cls-3{fill:url(#新規グラデーションスウォッチ_1);}.cls-4{fill:url(#新規グラデーションスウォッチ_1-2);}.cls-5{fill:url(#新規グラデーションスウォッチ_1-3);}.cls-6{fill:url(#新規グラデーションスウォッチ_1-4);}.cls-7{fill:url(#新規グラデーションスウォッチ_1-5);}.cls-8{fill:url(#新規グラデーションスウォッチ_1-6);}.cls-9{fill:url(#新規グラデーションスウォッチ_1-7);}.cls-10{fill:url(#新規グラデーションスウォッチ_1-8);}.cls-11{fill:url(#新規グラデーションスウォッチ_1-9);}.cls-12{fill:url(#新規グラデーションスウォッチ_1-10);}.cls-13{fill:url(#新規グラデーションスウォッチ_1-11);}.cls-14{fill:url(#新規グラデーションスウォッチ_1-12);}.cls-15{fill:url(#新規グラデーションスウォッチ_1-13);}.cls-16{fill:url(#新規グラデーションスウォッチ_1-14);}.cls-17{fill:url(#新規グラデーションスウォッチ_1-15);}.cls-18{fill:url(#新規グラデーションスウォッチ_1-16);}.cls-19{fill:url(#新規グラデーションスウォッチ_1-17);}.cls-20{fill:url(#新規グラデーションスウォッチ_1-18);}.cls-21{fill:url(#新規グラデーションスウォッチ_1-19);}</style><linearGradient id="新規グラデーションスウォッチ_1" y1="153.34" x2="910.15" y2="153.34" gradientUnits="userSpaceOnUse"><stop offset="0" stop-color="#fff"/><stop offset="0" stop-color="#f6a400"/><stop offset="1" stop-color="#c70000"/></linearGradient><linearGradient id="新規グラデーションスウォッチ_1-2" x1="562.82" y1="154.79" x2="1198.09" y2="154.79" xlink:href="#新規グラデーションスウォッチ_1"/><linearGradient id="新規グラデーションスウォッチ_1-3" x1="769.33" y1="135.55" x2="781.34" y2="135.55" xlink:href="#新規グラデーションスウォッチ_1"/><linearGradient id="新規グラデーションスウォッチ_1-4" x1="715.96" y1="164.36" x2="722.58" y2="164.36" xlink:href="#新規グラデーションスウォッチ_1"/><linearGradient id="新規グラデーションスウォッチ_1-5" x1="724.4" y1="160.15" x2="730.18" y2="160.15" xlink:href="#新規グラデーションスウォッチ_1"/><linearGradient id="新規グラデーションスウォッチ_1-6" x1="859.65" y1="88.17" x2="867.65" y2="88.17" xlink:href="#新規グラデーションスウォッチ_1"/><linearGradient id="新規グラデーションスウォッチ_1-7" x1="711.85" y1="155.94" x2="722.13" y2="155.94" xlink:href="#新規グラデーションスウォッチ_1"/><linearGradient id="新規グラデーションスウォッチ_1-8" x1="851.5" y1="94.76" x2="855.64" y2="94.76" xlink:href="#新規グラデーションスウォッチ_1"/><linearGradient id="新規グラデーションスウォッチ_1-9" x1="726.85" y1="147.65" x2="729.8" y2="147.65" xlink:href="#新規グラデーションスウォッチ_1"/><linearGradient id="新規グラデーションスウォッチ_1-10" x1="813.44" y1="104.09" x2="820.82" y2="104.09" xlink:href="#新規グラデーションスウォッチ_1"/><linearGradient id="新規グラデーションスウォッチ_1-11" x1="743.83" y1="148.46" x2="749.36" y2="148.46" xlink:href="#新規グラデーションスウォッチ_1"/><linearGradient id="新規グラデーションスウォッチ_1-12" x1="728.53" y1="154.28" x2="734.47" y2="154.28" xlink:href="#新規グラデーションスウォッチ_1"/><linearGradient id="新規グラデーションスウォッチ_1-13" x1="735.57" y1="154.93" x2="741.69" y2="154.93" xlink:href="#新規グラデーションスウォッチ_1"/><linearGradient id="新規グラデーションスウォッチ_1-14" x1="589.38" y1="273.14" x2="595.98" y2="273.14" xlink:href="#新規グラデーションスウォッチ_1"/><linearGradient id="新規グラデーションスウォッチ_1-15" x1="839.33" y1="103.13" x2="845.34" y2="103.13" xlink:href="#新規グラデーションスウォッチ_1"/><linearGradient id="新規グラデーションスウォッチ_1-16" x1="785.62" y1="127.13" x2="791.44" y2="127.13" xlink:href="#新規グラデーションスウォッチ_1"/><linearGradient id="新規グラデーションスウォッチ_1-17" x1="770.78" y1="125.73" x2="776.9" y2="125.73" xlink:href="#新規グラデーションスウォッチ_1"/><linearGradient id="新規グラデーションスウォッチ_1-18" x1="720.11" y1="148.91" x2="724.47" y2="148.91" xlink:href="#新規グラデーションスウォッチ_1"/><linearGradient id="新規グラデーションスウォッチ_1-19" x1="691.14" y1="186.79" x2="697.89" y2="186.79" xlink:href="#新規グラデーションスウォッチ_1"/></defs><g class="cls-1"><g id="レイヤー_2" data-name="レイヤー 2"><g id="レイヤー_1-2" data-name="レイヤー 1"><g class="cls-2"><path class="cls-3" d="M677.92,159.45c-.37,1.68-1.42,3.08-2.34,3.11l-.58.32a75.47,75.47,0,0,1-10.56,4.58l-1.21.45c-1.2.72-3.52,1.91-5.16,2.64s-5.64,2.46-7.12,3-4.76,2.95-5.52,3.1-3.68,2.24-6.16,3.06-8.26,4.56-9,4.55a9.1,9.1,0,0,0-3.37,1.78,22.75,22.75,0,0,1-3.75,2.33,47.13,47.13,0,0,0-4.76,2.28c-1.11.68-5.36,3.37-7.2,4.17s-7.61,3.1-8.48,3.9l-.56.18-2.19.68c-1.94,1.32-6,3.7-9,5.28l-2.71,1.5a24.16,24.16,0,0,1-3.9,2l-2.75,1c-2.72,1.82-5.51,3.16-6.2,3s-2.59,1.68-3.15,2.26a12,12,0,0,1-4,1.95,50.13,50.13,0,0,1-6.4,1l-.09,2.28c0,.49-2,1.07-3.18,1.32l-.34.07c-.75-.1-2.49,1-3.86,2.36s-7.85,3.64-9.11,4.36-3.79,3.47-4,3-.94-.64-1.36.25-3.46,1.71-3.41,2a.8.8,0,0,1-1.19.6l-.72-.19a1.17,1.17,0,0,0-.84.2c-.8.82-1.39,2.24-2.33,2.4l-1.44.25c-1.22.59-3.49,1.76-5.06,2.6s-8.23,4.55-11.18,6.58l-2.83,1.73a6.36,6.36,0,0,1-2,.91,23.08,23.08,0,0,0-3,.23c-.5.17-.46,1.18-.95,1.6l-.55.49a6.75,6.75,0,0,0-2.12,1.64l-.37,0-1.4.08a33.25,33.25,0,0,0-2.44,2.75c-.5.67-3.68-.15-4.71.21l-.12.5-.4,1.73a12.23,12.23,0,0,0-4,1.7c-.45.47-2.83,1.09-4.12,1.26l-.46,1.44-.45,1.43A20.71,20.71,0,0,1,480.3,265a15.29,15.29,0,0,1-1.43-.64c-.48-.24-2.2,1.46-2.8,2.07a43.88,43.88,0,0,1-6.55,3.66l-1.75,1.34L466,272.8a26.93,26.93,0,0,0-6.42,3.25c-1,.85-4.91,1.6-5.12,2a50.5,50.5,0,0,1-6.9,4.47l-2.94.76c-.92.23-2.28.05-2.76.52l-1.47,1.44c-1.91,1.25-4.5,1.63-5.76.84l-.67,1.94-.29.84a27.2,27.2,0,0,1-3.47,1.66c-.67.23-4.5,1.32-7,2s-9.35,4.54-10.77,5.29l-1.41.4-5.55,1.58c-5.82,2.26-12.28,4.53-14.38,5.05s-7.67,2-7.9,1.85a5.1,5.1,0,0,0-2.13-.22c-.71.07-3-.06-3.07-.49s-1.33-1.76-2.33-1.35-3.4.71-3.32-.19-3.26.32-4.45-.14-4.63-1-5-.25l-.61.1-3.48.59c-3.92.18-7.26.27-7.43.21a14.38,14.38,0,0,1-1.79-1.45c-.69-.63-5.38-.82-8.28-2.67l-.2-2.2a46.64,46.64,0,0,1,1.54-5.14l.33-.56a14.59,14.59,0,0,0,.92-2.82c.2-.93.18-3.87-.47-4.5s-3.24-.26-3.24-1.65-1.23-5.21-2.74-5.77-4.15-4.3-6.16-4.73l1.14-2.33L333,270c-.26-1.55-.94-4.46-1.51-6.49s-4.55-10.29-6.27-14.47l-1.86-3.7-.18-.35a14.79,14.79,0,0,0,1.12-4c.26-1.61-1.13-5.91-1.15-6.1a5.49,5.49,0,0,1,.71-1.56c.39-.67.56-3-.45-3.33s-3.49,2.78-5.26,3.75-9.44,5.32-13.26,7.39-14.18,8.39-15.12,8.76-5.54,2.61-8.29,4-10.42,6.16-11.9,6.84-6.25,3.69-7.82,4.31-6.35,2.67-7.15,3.1-4.21,2.18-5.83,2.93-7.69,2.86-9.48,3.53-7.36,2.87-8.43,3.3-6.36-1-6.78-1.12-1.64.35-1,.56,1.73,1.29.93,1.9l-.31.05-2.29.38c-2.57.24-5,.4-5.36.35s-2.86-.7-4.7-1.21-6.92-2-6.69-4l-2.39-1.32-1.46-.81c-1.09-1.74-1.52-3-1-2.83s2.45.33,2.5-.24-.22-2-.75-2l-.19.14-1.23.91a20.89,20.89,0,0,1-5.84-3.92L193,263l-.48-.64c.35-1.15.05-2.26-.67-2.48s.39-1.88.38-2.06a17,17,0,0,0-3.52-2.2l.27-2a2.85,2.85,0,0,0-1.48-3l-.91-.59c-1.2-1-1.12-2.1.17-2.35a12.93,12.93,0,0,0,4.71-2.69c.51-.71,2.65-2,4-1.78l.73-.35c1.19-.56,2-1.63,3.1-2.37L200,240a49.56,49.56,0,0,1,6-1.31l.16-3.15,0-.63c0-.62.62-.82,1.4-.43s2.92-.73,2.66-2.45h3c.5,0,1.16-.87,1.45-1.44l.15-.27c-.41-.5-.93-.78-1.16-.61s-1.36,0-1-1.54l.45-.93c.22-.44.68-1,1.75-.37l.78.44a20,20,0,0,0,6.16-2.55l-.09-2.12v-.42a1.94,1.94,0,0,1,.79-1.38c.42-.28,1.76-.65,1.82,0l.26.64a1.55,1.55,0,0,0,1.07.84c.42,0,1.24-.36,1.28-.64l.26-1.46a16.35,16.35,0,0,0,2.24-2.8v-1.77c1.6-.77,3.28-1.56,3.73-1.76a13.25,13.25,0,0,1,2.82-.49c.63,0,.4-1.37,0-1.59s-1.82-2.09-.75-2.82,5.21-.51,5.58-1.34,3.84-2.27,4.69-3.09l1-.56c1.23-.7,1.43-1.37.14-2.2a2.43,2.43,0,0,1,1-1.33l1.4-.46c1.8-.34,3.39-.16,3.53.4s1.1.71,1.84-.92L253,197.93l-.77-.8a15.15,15.15,0,0,0,5.93-1.74l.66-1.73.15-.41c-1.1-.75-1.53-1.63-1-1.95s1.81-1.66.91-2l-.31.17-1.94,1a24.34,24.34,0,0,0-5,3.67c-.68.81-3.51,1.84-3.66,1.49s-1.09-1-1.58-.42-1.84,2-2.07,1.8-.14.47.68,1.75-4.15,2.29-3.95,1.81.62-2,.33-2-3.59,1.71-7,3.58-15.21,8.6-18.6,10.74l-3.28,1.69-2.94,1.51c-3,1.88-7.54,4.46-10.07,5.73l-1.85,1.79-1.88,1.81c-2.7,1.55-6.08,3.36-7.5,4s-5.92,3.54-7.7,4.32-9.09,5.26-12.88,7.43l-3.4,2-1.62,1a12.59,12.59,0,0,0-5.78,3.68l-1.26,0-3.87-.09a43.26,43.26,0,0,1-8.41,4.8c-1.94.69-7.39,4.44-9.09,4.8s-5.49,4.37-6.88,5.32-6.84,2-7.62,2.34l-.35.53-1.34,2c-2.57.95-6,2.18-7.67,2.75a86,86,0,0,0-7.64,4.14l-1.17.55c-.65.3-1.47.38-2.07.73-1.89,1.13-3.54,2.91-5.63,3.36l-2.1.45c-2,.83-5.46,2.15-7.67,2.95s-8.85,0-9.34.39-2.69,1.11-3.65.69-4.61-1.69-5.93-2.32-6.69,2.32-9.83,3l-3.06.14-2.56.12a13.21,13.21,0,0,1-6.27-4.23l.31-1.13.55-2a39.74,39.74,0,0,0,1.19-5.78c.07-1-3.33-2.29-3.68-2.49s-1.91-.88-2.62-1.25-1.15-3-1.14-3.88-.3-3.26-.69-3.47l-.14,0-1.24.25c-1.35.29-2.13-.17-1.75-1l-1.17-1-1.23-1c-.57-1.72-2.29-6.15-3.83-9.85l-1.61-3.29-.55-1.14a37.94,37.94,0,0,1-3.39-3.65,27.29,27.29,0,0,1-3-6l-.4-1.21c-.35-1-1.45-1.77-1.23-3.14l.15-1c-.9-1.18-1.83-2.43-2.06-2.78l.11-.23.58-1.26a33.34,33.34,0,0,0,0-4.17c-.08-.81,1.43-4.58,2.28-7.45l2.5-2c.46-.36-.16-1.59.29-2l.7-.67c1.2-.44,2-.95,1.8-1.15s-.12-.76.68-.83,1.49-2.84,2-3.89,1.29-2.87.73-3.72l1.16-.59.69-.36a3,3,0,0,1,.94-1.54l.35-.22,1.27-.78c-.76-1-.24-2.2,1.15-2.64s2.68-4,3.1-5,3.37-2.71,4.38-3l-1.23-1c-.23-.19.12-1.25.25-1.26l2.66-.12a16,16,0,0,1,2.36-5.41c.93-1.21,2.75-4.88,3.24-4.7a4.73,4.73,0,0,0,3.38-1.06c1-.9,3.38-3.84,2.82-4.17s-2.65-1.18-2.87-.86a1.39,1.39,0,0,1-2.15-.56l-.64-.26-.83-.33c-1.2.13-3.11.39-4.24.57s-5.16-1.42-7.1-1.53-7.84,1.33-8.81,1.59-3.52-2.8-1.44-5.4l-2.61-2.89-.57-.63c.27-1.23,0-2.29-.64-2.35a9,9,0,0,1-2.3-.49,5.74,5.74,0,0,1-.26-1.73c0-.64.08-2.91.17-3.62s-2.2-2.32-2.18-3.3l-.56-.39c-.79-.54-2.16-.48-3.23-.8L13,143c-1.06-.52-1.86-2.36-1.77-4.1s-3.42-5.74-3.52-6l.14-.14,2.49-2.69a39.9,39.9,0,0,1-7.58-4.77l-.19-1.6-.24-2c.1-2.24-.16-4-.57-3.81a1.26,1.26,0,0,1-1.48-1l.32-.14c1-.43,3.9-.37.14-1.17-.18,0-.42-.19-.44-.31-.42-2.88-.73-5.78,1.31-8.37.43-.55,1.48-.74,2.11-1.22s2.09-1.67,1.93-1.86c-1.76-2.1,1.33-.7,1.53-1.46a6.19,6.19,0,0,1,1.52-3,38,38,0,0,1,5.14-3.76L15,95a53.46,53.46,0,0,1,4.81-5.88l3.69.53.31,0c.45-.47,1.33-1.43,1.95-2.15s2.93-1.84,3.28-2.61,3.87-.76,5-1.41,2.89-2.82,4.06-1.84l1.19-1.52.08-.1c-.88-.71-.81-1.28.15-1.28s3-.73,2.78-1.62l.26-.48.72-1.32c1.59.09,3-.33,3.06-.92s1.78-1.92,2.9-2.49a57.46,57.46,0,0,1,6.48-1.7c1.28-.33,3.7-2.55,4.31-2.69s2.63-.35,2.6-1.26l.07-.61,0-.29c.23-.3,2.26-.67,4.5-.82V62.25a20.76,20.76,0,0,0,6.39-2.35L75,59.12l.9-.48a10,10,0,0,0,4.09-1l1-.44c1.17-.52,2.39-1,3.52-1.52s1.84-1.19,2.86-1.63a9,9,0,0,1,2.27-.35C91.94,53.44,94,53.05,95,51a5.7,5.7,0,0,1,2.58-2.08c.42-.21,1,1.32,2.16.2l.92-.9a4.66,4.66,0,0,1,4.42-.12l.91-1.32c.26-.37.57-.73.83-1.1l.2-.27a3.43,3.43,0,0,1,2.17-.63c1-.05,3.56-1.58,4.35-1.39s2.56-1.36,3.36-1.14l.77-.44c.29-.17.92-.07,1.06-.26l2.48-3.36c4.55-1.78,8.73-3.5,9.3-3.83s3.19-.91,4.68-1.44,4.9-2.82,5.54-2.46,3,1.1,4.07-.08l1.36-.46,1.34-.46c2,.2,3.32,0,3-.46s.05-1.87,1.66-1.89l.76-.49,1-.66c.67.42,2.61,0,4.31-.94l1.56-.82.48-.25c.87.14,1.26.56.88.94l-.26.39a1.28,1.28,0,0,0,.74.51l.55-.06c.54-.21,1.31-1.53,1.71-2.92l1.85-.56c3.2-.95,6.91-1,9.33-3.39.17-.16.8-.06,1.2,0l1.38.14a7.94,7.94,0,0,0,3.86-.32,39,39,0,0,1,5.06-1.75c1.54-.43,5.31-2,5.87-1.61s2.3,1.2,2.37.79,1.72-.89,3.2-1a57.91,57.91,0,0,0,7.42-1.9c1.26-.37,4.4,1.36,4.79,1.31a24.89,24.89,0,0,1,5.3,2.64c2.1,1.29,11.07-.83,13.78-1.45l2.86.64,2.19.48c2.78-.55,5.64-1.07,6.36-1.16s3.32.78,4,.46,2.68-.5,2.69.38,3.25-.18,3.77-.31l.32.15,2,.94c1.91,1.33,4.21,3.08,5.1,3.88s4,2.08,3.68,2.35-.12,1.91.83,3.19l.79,1.21,1.68,2.55c3,2.11,5,4.26,4.38,4.77s-1.63,2.42-.68,3l1,.23.24.06a2.26,2.26,0,0,1,3.2-.25l.83.84c.28.28.09.87.14,1.32.1,1-3.17-.46-1.57,1.38,1.05,1.21,0,1.67-.63,2.46l-.63.75a2.78,2.78,0,0,0,.77,3.23c.89.6,1.29,3.54,1.53,3.9s2.74,3.76,4.92,6.75l-.52,3.4c-.28,1.84-.12,3.58,2.15,4.78l.72.38c.39.87,1,2.17,1.28,2.88s3.77,1.72,5,2.06l.18.54c.56,1.64,1.4,1.68,2.89.81.17-.1.75.12,1,.3l.48.3c.61.53.72,1.14.24,1.34a2.06,2.06,0,0,0-.78,2.47l.3.63.35.71c.31.81.65,1.73.76,2.06s-1.15,3.23-2.51,6.31l-3,2.13-1.53,1.09A34.84,34.84,0,0,1,284,96.21c-.44.72-3.86,3.29-5.08,4.87l-1.52.41c-2.58.69.21,1.34-.32,1.82a26.85,26.85,0,0,1-2.17,1.76L273,106.43a33.82,33.82,0,0,0-5.08,4.22c-.67.83-3.44,2.84-3.17,3.65s-3.75,2.16-5.22,3.21l-1.23,1.07-1.37,1.21c-2.1,1.67-2.88,2.9-1.73,2.74s5.95-2.35,9.61-4l3.64-1,2-.53a17.43,17.43,0,0,1,0-3.35l.21-.07c.36-.1,1-.14,1.16,0l.41.51c.4.89,1.34.94,2.09.12l.6-.65c.31-.34.69-1,.94-1l3,.34c1.51-1.84,3.25-4,3.87-4.87s5.22-1.32,6.9-2.28l2-.27a5.67,5.67,0,0,0,2.44-1.15l.15-.1c-.45-.69-.36-1.24.18-1.22a6.85,6.85,0,0,0,3-.69,25.59,25.59,0,0,0,2.48-3.35l1.9.4c.92.2,2.67-1.23,3.59-2.2l.79-.85a23,23,0,0,1,2.41-1.27c.26-.08,1.45-.16,2.41-.33A16.49,16.49,0,0,0,316,92.08l.71-1.08c.75-1.14,2,1.94,2.29-.22s1.62.12,2-.32l.92-1c.71.6,1.42.41,1.58-.42l.45-.6.32-.42a35,35,0,0,1,4.06-.58c1.43-.13,4.92-2.67,5.85-3.66l1-.76.21-.16c.95.37,1.8.28,1.9-.21s.85-2.21,1.24-1.61a2.31,2.31,0,0,0,2.64.78c.84-.52,2.35-1.54,2.6-2.54l1.77.13,1.2.09a10.67,10.67,0,0,0,3.61-2.82l1.43-.38c.72-.18,1.06-.74,1.81,0l.3.28a6.34,6.34,0,0,0,3.3-1.74l1.74-.37,1.58-.33a28.91,28.91,0,0,1,6.34-3.41,114.34,114.34,0,0,1,11.26-2.57l1.48-1.31,1.6-1.42c2.53-.45,4.95-.06,5.37.88a19.21,19.21,0,0,0,1.84,3.29,1.07,1.07,0,0,0,.32-1.13c-.14-.54-.73-2.62-.85-3.45l2.72-1.53c2.24-1.25,5.85-.54,7-3.23a1.73,1.73,0,0,1,1.18,0c2,1.44,1.73,2.43-1,3.75l-.09,0a20,20,0,0,0,4.8-.36l1.18-.39a9.58,9.58,0,0,1,4-.53l2.11.25c.42-1.36,1-2.09,1.38-1.61s1.75,1.83,2,1.33a25.52,25.52,0,0,0,.45-4.82l3.59-2.68.61-.45c.61-.52,1.39-.17,1.73.77s3.28,2.67,4.95,1.82,7.1-1.53,7.1-2.17-.42-2.48-.94-1.63-3.4.69-3.62.25l0-.43c.09-.65-.75-2.43,1.66-1l.39.23c2-1.31,3.75-1.67,4-.8l.05.58.07.64c0,.82.41,1.49,1,1.49a4.1,4.1,0,0,0,2.79-1.93c.39-1.06,2.31-4,3.05-3.27s3.57,2.14,4.61,1.26l1-.45,1.29-.59c1.58-.42,3.84-.9,5-1.07l1.16.23a5.54,5.54,0,0,0,4.38-1c.5-.36,1-.74,1.46-1.1l3.56-2.3.7-.23c.76-.27,3.18-1,5.38-1.55s8.37-2.09,10.08-2.3a55.82,55.82,0,0,1,7.74-.21c.83.17,1,2.36-.34,2.85s-2.12,3.78-1.44,3.31a4.45,4.45,0,0,1,4.35.63l1.25.8,1.15.73A18.43,18.43,0,0,1,496.83,51l-2.29,1.3-.46.25c.22,1.78.84,2.66,1.39,2s1.94-1.7,1.73-.47-1.74,3.24-.62,3.39a30.74,30.74,0,0,0,6-.6c1.31-.25,2.22-3.14,2.79-2.68A3.09,3.09,0,0,0,508.7,54a16.09,16.09,0,0,1,5.22-2.23c.84,0,2.45-1.63,3.37-1.41l.86.14.53.08c.62,0,1-.33.77-.68s.88-1.23,2.32-1.93,6.11-2.49,7-2.85,1.51-2.58,1.68-2.76a1.71,1.71,0,0,1,1.64.08l.44.41.24.22c.2.37,1.27-.66,2.39-2.29l1.09-1.41a1.88,1.88,0,0,1,1.39-.6l2.3.29c1.59-1.22,3.58-2.72,4.43-3.34l1.06,0,1.45,0c1.31-.51,2.72-1.11,3.14-1.34s.54-1.75,1.55-2.42l1.05-.24a20.2,20.2,0,0,1,4.14-.29c1,0-.76-2.68,1.81-1.19.2.12,1.44-1,2.18-1.47a10.37,10.37,0,0,1,1.48-1.08c1.13-.57,2.37-1,3.48-1.58l1-.53a7.32,7.32,0,0,0,4.1-1.58l1-.82,1-.82a5.11,5.11,0,0,1,2.78-1.2c.66,0,1.73-.47,1.13-1.21l1.2-.8c1.38-.92,2-.08,3,.37l.5.22a35.7,35.7,0,0,0,3.9-2.6l1.54,1.24c.57.45,1.14-.16.42-1.48l-.3-.55a16.51,16.51,0,0,1,3.61-1.91l1.8-.22c.36,0,.43-1.6,2.11-1.68l.72,0c.8,0,3.08-.2,5.06-.46s4.9-4.7,6.35-5,6.5-1.32,8-2.17,3.57-1.82,4-1.5,2,1,2.31.55l-.1-.26-.21-.55a1.11,1.11,0,0,1,.52-1.71,20.65,20.65,0,0,1,5.28-.93L628.15.3l1.08-.17c1-.55,4.59.7,8,2.78l3.09,1.93.52.32a10.62,10.62,0,0,0,3.13,1.61c1.25.42,4.94-.59,6.9-1.23l1.88.8c2.08.9,4.09,1.86,6.61,1.51.66-.1,6.07,2.87,6.91,3.27.65.3,1.71,0,2.42.25.87.32,1.5,1.27,2.35,1.38,2,.26,1.3,1.44,1.26,2.25l0,.54a8.7,8.7,0,0,0-1.72,2.62c-.34.86,2.93,3.6,2.37,3.94a3.59,3.59,0,0,0-1,3.42c.47,1.25,4.08,3.37,3.61,4.14s-1.38,3-1,3.33,1,1.39.85,1.89a11.15,11.15,0,0,1-.95,2.2c-.27.24-1.59.35-2.08,1l.19.23.93,1.18c1.2,1.19,2.33,2,2.53,1.91s1.3-.47,1.25.16a8.56,8.56,0,0,1-.58,2.25,2.85,2.85,0,0,0,0,2c.32.86,1,4.8,1.5,6.77l1.38,1.67.76.91a3.88,3.88,0,0,0,2.5,4.15l1.49.64.34.15c1.28,1.08,1.82,2.25,1.19,2.61a2.86,2.86,0,0,0-.87,2.54c.1,1-2.15,4.61-2.79,6.57h-3.76a2,2,0,0,0,.75,3.2l1.06.52c.5.25.48.18,1.06-1.13.23-.52.73-1.33,1.19-1.36,2.62-.2,4.28-3.71,7.57-1.48l5.67-3.17.23-.21a7.21,7.21,0,0,1,2.45-.82,14.7,14.7,0,0,0,4.13-2.15c.42-.42,4.36-.55,5.72-1.6l1.19-.91,5.22-1,.93,1.11c1-.64,2.79-1.92,4.07-2.85s5.32-4.5,5.9-6.08l2.36,1.55c1.42.94,3.65-.5,5,1l.19.21a13.53,13.53,0,0,0,4-2.45l1.87-.62c5.58-1.85,6.6-2.57,9.13-1.45l2.29,1c2.61-.12,4.47-.69,4.14-1.25s.37-2.54,2.06-3.53A73.73,73.73,0,0,1,765.22,45l.7.43c.87.54,2,.58,2.08-.66s1.4-1.29,2.12-1l3,1.18c3.2-.59,5.81-1.8,5.8-2.7s4.42-1.93,7.18-2.42l2.1-1a18.15,18.15,0,0,1,4.34-1.08l1.22-.23c1.05-.94,2.2-1.28,2.56-.76s1.72,1.77,2.16,1.61l.22-.18,1.18-.93a4.32,4.32,0,0,1,4.61-.56l.84-1.76c.12-.26,1.83-.11,2.77,0l.54.07a9.56,9.56,0,0,0,3.12-.89c1.17-.51,6-.4,8.26,0l1.65-1.69c.59-.61,1-.77,1.81-.11l.34.27a19.16,19.16,0,0,0,3.32-1c.91-.38,5.26-.5,7-1.13l.45.36,2,1.54a23.48,23.48,0,0,1,5.24-3l1.41-.42c.21-.06.58.16.85.29,2.8,1.37,3,1.53,4.15.52l1.45-1.27c1.4.63,3.07,1.32,3.72,1.52s2.17-1.62,2.67-2.23h.46c1.6,0,.86,1.17,1.05,1.87l.08.3c.14.26,2.28-.47,4.77-1.61l2.32-.95c2.6-1.07,1.61-.65,3,1.74L869,31.43c-1.56-.07-2,.54-1,1.35l.69-.12c1.17-.2,2.84-1.77,3.1-1.59,1.29.87,2.78,1.14,3.79.39,1.26-.92,1.52-.05,2.29.25l.3.12c.67-.42.49-1.16-.4-1.62l1.52-.37a2.06,2.06,0,0,1,1.53.93c.3.71.36,1.31,1.26.42l.2-.19c-.09-.7,1.7-.81,4-.24s6.32,4.37,5.63,4.81-1.43,2.38-.63,3.2,3.63,2.75,4.58,2.48,3.44-1.35,3.44-1.82,1.51-1.43,3.35-1.14l-2,2-1,1a35.52,35.52,0,0,0,3.56,3c.57.35-1.54,2.42-2,2s-1.67-1.15-1.77-1a7.54,7.54,0,0,0-.16,1.95c0,.89,4.24,2.15,5.94,3l-2,1.87-.49.47a13.92,13.92,0,0,0,3.14,3.48c.73.44,1.16,2.37,1.82,2.83s-1,2.35-1.35,2.74-.22,1.74.18,1.52l.32-.24.46-.34a1.49,1.49,0,0,1,2.1.12c.51.6,1.06,2.62.32,3.42s-4.27,1.5-5.5,1.5-4.9.58-4.9,1.28-.58,2.52-1.28,2.3l0-.06.29-1.38c.15-1.61-.32-2.93-1-2.93a9.66,9.66,0,0,0-2.54.25c0,.14.42,1.17.71,1.91s-3.39,2.28-2.82,1.74l0-.3c.06-.9.37-2.34-.15-2.6-1.56-.77-1.48.61-2.12,1.34a10.89,10.89,0,0,1-3.75,2.13,4.66,4.66,0,0,1-2.07-.12l-.7-.1c-.72-.17-3.11.51-5.32,1.51l-1.82,1.07c-.77.45-3.14.88-1,2.35h0A14.45,14.45,0,0,1,872,77.51c-1.79.47-5.08,3.87-5.46,4a18.65,18.65,0,0,1-4.46-.69l-.75,1.76-.75,1.76c-1.57-.3-3.05-.18-3.29.27a9,9,0,0,1-1.79,2.07l-.29-.06a7.53,7.53,0,0,0-8,3.24l-.92,1.48c-1.51.72-2.92,1-3.14.63s-2.87-.73-5.45,0l-2.28.71-.44.14-2.4,3c-1,1.22-2,4.31-1.84,3.4s-1-3-2-2.61-2.6,3.46-3,2.51l-.6-.28c-1-.44-1.82-.17-2,1,0,.33-1.1.8-1.7.8l-3.71,0a40.6,40.6,0,0,1-9,6.09l-2.66.42c-.09,0-.2.82,0,.92,1.48.82,1,1.47-.14,2.16-.48.31-.81.87-1.33,1l-.62.18a1.32,1.32,0,0,1-1.08-1.71h.2l1.8,0c-.26-1.07-1.08-1.71-1.81-1.41a22.62,22.62,0,0,0-3.23,2c-.46.35-2.3-.39-2.74-.23s-4,2.09-7,3.76l-2.67,1.56-.89.51a4,4,0,0,0-2.52.09c-.41.29-.56,1,.53,1.06s4.1.21,4.41.73.8,2.47.09,2.67l-.56.25-.51.23c-.55.39-1.16.42-1.37.06s-1.8-.39-2.94,1l-.85,1.23c-.21.3.17.88.3,1.33l.11.35c.14.39-.29.74-1,.79l-.39-.23a4.86,4.86,0,0,0-2.81-.74l-.39.07c-.46,0-1.59-.19-2.52-.36s-2.28-2.48-4-2.76l-1.29.4-2.63.83c-1.72,2.16-3.67,3-4.32,1.93h-.47a3.51,3.51,0,0,0-2.36,1.17l-.75,1a7.68,7.68,0,0,0-.42,3.61h.21l1.23,0a3.39,3.39,0,0,1,.15,2.23c-.21.48-1.49,1.69-2.06,1.13s-1.58-2.48-2.2-3.27l-1.24,0-.62,0a4.57,4.57,0,0,1-.25-1.26c0-.19-.66-.6-1.52-.49l0,.15-.22,2.7c-2.77.19-4.58,1-4,1.76s3.78,1.2,4,2,.17,3.15-.67,3.33-3-3.24-4.36-4.69l-2.45,2.12-.55.47c-1,.31-1.52.68-1.06.82s.65,1-.52,1.6.29,3.61-.57,4.29l-.56-.11-1.23-.26c-1.55-.87-2.68-1.14-2.49-.61s.18,2.05-.43,2.14-2.43,1-1.87,1.6,1.09,2.61-.29,2.77l-.63-.37-.76-.44a11.62,11.62,0,0,0-.47-2.81,4.92,4.92,0,0,1,1.44-3.63c1.18-1.09.47-4.52-.37-4.06s-2.76,2.24-2.54,3.05.08,2.69-.75,2.32-5.46,2.47-6.46,2.24l-.87-.3-.84-.29a6.44,6.44,0,0,0-3,.19c-.6.27-1,2.63-1.15,3.6h-.17c-2.58,0-1.71,1.67-2.14,2.75l-.24.59c-.92.56-1.81.66-2,.22s-1.14-1.11-1.73-.49-2.74,2.07-3.6,2-.41,2-.14,2.24a4.86,4.86,0,0,1,.67,1.85c.14.61,3,1.43,3.6,1.76s1,2.12-.56,3.16l-1.59-2-.56-.69a18.65,18.65,0,0,0-2.73-.7c-.22,0-2.06.43-3.6.86l.26,1.78.16,1.15a13,13,0,0,0-3.67-1.42l-.12,1.41a3.05,3.05,0,0,1-.78,1.64l-.09.11a2.49,2.49,0,0,1-1.63-1.4,6.36,6.36,0,0,1,1.21-3l.67-.57c.2-.17.92.06,1.13-.11s.75-.8.68-1.16-.71-.73-1.15-.77l-1.15-.11c-1.5,0-2.49.6-2.21,1.24s-1.71,1.5-2.9,1.43l-1.1-.12s.05-.33,0-.48l-.85-1.91a15.45,15.45,0,0,0-5.09-.73l-.11.3a1.37,1.37,0,0,0,.5,1.27l2.73,2a14.87,14.87,0,0,0,2.57,4l.44,0a1.59,1.59,0,0,0,1-.89l.26-.62c.2-1.26,1.82.33,3.6,3.53l2.61,1.73c.87.58,1.82.59,2.18-.59l.11-.36a5.86,5.86,0,0,1,1.73-1c.59-.23,2.44-.17,2.68-.7a1.89,1.89,0,0,1,2.78-.14c1,1,3,3.52,2,3.4s-3.27,2.11-4.83,2.62l-1.18.82-.13.08a.81.81,0,0,1-.57-1.11c.22-.42.33-1.59-.26-1.59s-1.59,1.22-1.39,2.71l-.46,1.12-.43,1.08c.52.19.5.86-.06,1.5a4.31,4.31,0,0,1-4.41.46l-1.08.11c-2.36.24-1.47-1.63-2.55-2.08-1.58-.65-1.64-.68-1-1.15,1.13-.87,1.81-2.24,4.16-1l1,.5c.73-1.68,0-3.08-1.69-3.12s-5.66,1.64-7.23,2.65l-.5,1.19-.4,1a23.83,23.83,0,0,0,2.11,3.44c.48.55-1.57,2.12-3.64,1.55l-1.9-.55-.06,0a18.88,18.88,0,0,1-.66-4.06l-.68.93c-1.06,1.46-.73,1.46.92,1.95.69.21,1.44,1,2.24.65l.46-.2a9.87,9.87,0,0,0-.49-3.41c-.35-1.1.09-3.8-.71-3.44l-.59.1-.9.14c-.26,1.86-.62,4.39-.81,5.62s0,3.25,1.55,3.78l1.16.48c1.55.65,1.47.84-.47,2l-.28.17c-.12.36-.36,1.12-.53,1.7s-1,1.65-1.6,1.61a7,7,0,0,0-3.75,1.58l-1.56-.09-1.19-.08a12.75,12.75,0,0,1-2.16,2.46,10.73,10.73,0,0,1-4.69,1.31c-.91-.09-2-1.88-1.58-2.13s1.51-1.55.65-2l-.6-.39c-.88-.56-1.39-1.25-.39-2l.8-.64a12.88,12.88,0,0,1,4.17.23c1.1.29,3.3-2.8,3.59-3.08a32.49,32.49,0,0,1,3.88-1.64l-1.4-1.12a6.79,6.79,0,0,0-1.39-.87l-.47-.2c-.64-.12-.81-.51-.38-.86s1.61-1.76,1.16-1.94a3.49,3.49,0,0,0-2.85.72c-.71.76-2.31,5-3.38,5.22s-4.19.45-3.87,0a5.9,5.9,0,0,0,.63-2.71l-.37-.16a2,2,0,0,0-1.56.3l-.71,1.08a3.19,3.19,0,0,1-3.48,1.69l-1.23-.06c-.28,0-.84.9-.9,1.41l-.05.45c.4.53.05.86-.78.75l-.56-.32-.82-.47c-.75-.7-.94-1.47-.41-1.71s1.4-2,1.6-3.11l-.34-.91-.36-.95a5.75,5.75,0,0,0,.83-1.7,10,10,0,0,1,2-2.1c1.05-1,6-3.68,7.57-4.65s5.77-3.38,6-3.18l0,.23-.22,1c-.31,1-.23,1.52.17,1.1a17.15,17.15,0,0,1,2.71-1.24,8.55,8.55,0,0,1,3.54-.21v-3.5a38.83,38.83,0,0,1,3.06-3.45c.35-.27.24-.64-.09-.54s-2.07.16-3,.25-2,2.48-2.91,2.86l-.2-.17Zm-7.61,16.69a18.11,18.11,0,0,1-3.66.39l-1-.07-1.68-.12c-.73,1-1.1,2.24-.83,2.66a2.15,2.15,0,0,0,2.58.34c.84-.68,2.32-5.41,2.6-4.21S670.87,176,670.31,176.14Zm-403.94,8c-5,2.71-5,3.44-.31,5.49C266.15,187.93,266.24,186.39,266.37,184.13Z"/><path class="cls-4" d="M597.45,272.37a10.73,10.73,0,0,1-3-1c-1-.51-4.46-1.72-5.4-1.55s-2.87,1.86-3.32,2-4.71,1.32-5,2.21l.85.13c.34.05.88-1.05,1.42-1.55l.7-.65c.86-.65,1-1.53.42-2s-3.09,1.05-3.6,1.35,1.16,1.64,1.73,2.34,1.11,1.81-1.59,1.46-7.41-4.29-7.64-4.65a3.79,3.79,0,0,0-2.67-.93l.62-1.17.64-1.24c.67-1.58.52-2.89-.32-2.92l-.75.06-2.18.18a69.18,69.18,0,0,1-4-9l-1.27-3.22-.22-.55c-.33-.35.19-1.23,1.16-1.94s3.13-2.89,2.65-3.3,1.78-1.69,2.71-2.06l.82-.38.14-.06c.07-.19.29-1,.49-1.89s2.6-3.4,3.21-4.14,1.91-3.07,1.69-3.45v-1.41c1.27,0,3.85-.22,5.72-.45l-.09-1.18,0-.6c-1.38-.73-2-1.55-1.26-1.8s2.79-.8,3.12-1,.29-1.3.93-1.68l.47.08,1,.16c1.33.08,1.87-.61,1.2-1.54s-1.91-3.2-1.18-2.86,3.5.46,4-.44l.5-.84c.3-.51.44-1.24.94-1.49L592,219c1-.36,1.69-.93,1.52-1.26s-.08-1.53,1.12-.92,3.08,2.38,2,2.85l-.23.64-.2.55a35.52,35.52,0,0,0-3.89,3.11l.31,1.27c.09.39.45,1,.81,1.05l.45.09c.62-.27,2.34-.91,3.83-1.43l-.19-1.6-.27-2.31a26.56,26.56,0,0,1-4.23.51c-.28-.08,2.84.28,4.28.32s3.05,1.87,3.47,2a4,4,0,0,1,1,3.6l-2.65.1H599a4.72,4.72,0,0,1-1.56,2.73c-.73.55-4.31.92-5.2.81s-2.8,1.08-2.88,1a2.44,2.44,0,0,1-.39-1,3.79,3.79,0,0,0-3.18-1.81l-.34.51c-.91,1.33.75,1.36,1.82,1.69l.31.1a1.68,1.68,0,0,1-1.34,1.61l-.59-.16-2.86-.76c-.62,1.65-.75,3-.29,3.05a14.27,14.27,0,0,0,2.46-.31c.49-.13,3.25-.61,5-.8l2.22,2.14c1.24,1.2,2.35,2.16,1.21,3.79l-.4.58c-.21.73,1,.62,2.62-.24l.54-1.11c.31-.63-.69-1.67-1.1-2.53l-.41-.85c-.44-.95-.09-1.52.8-1.28s2.77,1.19,2.58,1.67-.06,1.38.62,1.2,1.44-2,1.71-3.41-.55-4.59.75-4.22,5.31,1.17,4.62.57-.5-2.3,1.22-3.13l.83-1.12.83-1.11c1.1-1,1-1.87-.28-1.87a36.45,36.45,0,0,1-6.46-.64c-1-.35-2.73-2.12-2.33-2.24a2,2,0,0,0,.63-2.37c-.45-1.07-3.67-2.31-3-2.58s2.46-.69,2.58-.33l.27.32c.29.33.74.79,1.14.8s1.21-.4,1.24-.67l.13-1.3a6,6,0,0,1,.42-2.94H603c.15,0,.29.21.43.33a3.59,3.59,0,0,0,.42.34c.88-.5,1.77-1,2.61-1.54l1.28-.81a5.4,5.4,0,0,1-1.29-2.2l.17-.06c.35-.12,1-.21,1.14-.05a3,3,0,0,1,.74,1.18l.51,1.1a9.25,9.25,0,0,0,3-2.12c.67-.78,2.09-3.34,1.79-4.06l-.16-.72c0-.06,1.34-.51,1.51-.36l2,1.69c.66-1.44,1.42-3.21,1.68-3.94s1.81-2.56,2.84-2.36,3.86.23,4-.37.7-2.07,1-1.59,1.77,1.55,2.67,1.28l.31-.45,1.44-2.07c2.29.55,4.28,1.26,4.42,1.57a2.3,2.3,0,0,0,2.38.77,16.2,16.2,0,0,0,3.94-2.75l-.14-.09-.54-.35a3,3,0,0,0-2.14.2,2.29,2.29,0,0,1-2.92-.84l-1-.53-1-.52c-2.48.07-3.17-.07-1.52-.3s2.41-3,2.79-3,1.26.19,1.1.38a1,1,0,0,0,.44,1.28,20.27,20.27,0,0,1,3.12,2.3l.68-.92.3-.4a2.92,2.92,0,0,0-.24-1.62c-.22-.37,1-1.7,1.46-2.1s0-3.08.61-3.13,2.71.36,2.4,1.06-.82,2.41-.55,2.47,1-.62,1.64-1.41,3.67-3.25,5.13-3.19l1.33.48c1,.37,1.75.75,2.52-.07a.84.84,0,0,0,0-.95l-.64-.48c-.78-.38-1.82-.82-2.3-1s-1-.85,0-1.36l.49-.65.2-.27c-.67-.75.11-1.42,1.72-1.49s5.09-2.57,6.84-1.75l-2.06,1.56a2.3,2.3,0,0,1-1.66.38l-.94-.52a7.86,7.86,0,0,0-2.77,2.8l1.75,1.38,2.12,1.67c-.3,1.65-2.78,2-5.5.81L651,187.34c-.05.12-.76,0-1.12.12l-2.43.62c1.2,1.32,2.77,1.93,3.49,1.35s3.26-1.89,4-1.58,1.72,1.37.41,1.64-2.9,5.07-3.23,6.08v.92a2.29,2.29,0,0,0,1.07,1.69l.39.23a6.13,6.13,0,0,0,2.66-2.45l1.28-.55c.55-.24,1.36-.84,1.28-1.16l-.54-2.22c-.23-2.41-.15-4.41.19-4.45a2.59,2.59,0,0,1,1.77.7l1.44,2.17A2.79,2.79,0,0,0,664,191l.26-.46.93-1.65c1.06-2.44,2.7-3.6,3.65-2.58s.67,4.19.15,4.21-4.39,3-3.33,3l.75-.1,1.17-.16c1.55-.33,2.47,0,2,.69s-1.84,2.52-1.94,2.11-1.35-1-2.61-.66l-1,.45c-.16.07.26,1.07.45,1.63l.19.54c.35.84-.26,1.32-1.35,1.06a6.94,6.94,0,0,0-4.23,1c-.61.57-3.5,2.17-4.95,2s-5.46.78-6,.16-1.24-2.62-.32-2.72l.53-.15a5.51,5.51,0,0,0,1.85-.77l.15-.11a7.6,7.6,0,0,0-2.19-1.89c-.78-.43-2.46-1.83-2.25-2.3s.14-1.74-.87-1.17-2.23,3.79-1.81,5l.11,1.06,0,.49a2.52,2.52,0,0,1-1.19,1.57l-.15-.09-.57-.36a4.5,4.5,0,0,1-.93-1.78c-.07-.46-1-1.32-1.28-1.12s-1.13.87-1.44,1.09-3.64.86-3.83,1.31l.12.53.1.46c-.35.58-.82.92-1,.76a1,1,0,0,0-1.32.87c0,1-1,3.41-2.2,3.56s-4.49-1.8-5.53-2.4l-1.1,1-.12.11a3.49,3.49,0,0,1-1.57-1.25c-.23-.43-1.27,1-.6,2.23l1.72.29c1.68.29,3.34.64,5,1l.24,0c0,.15-.31.69-.79,1.19a6.9,6.9,0,0,1-4.09,1l-.71.37-.68.34a6.61,6.61,0,0,1-2.94,2.9l-1.51-.47-.26-.09c-.46,0-.8.52-.75,1.22s1.11,2.8,2.19,2.33,5.07-1.66,5.61-1.22,2.12,1.25,2.49,1,1.22-1.58.8-2.05-1.42-2-1.11-2.12a14.48,14.48,0,0,1,3.29-.15l1.31-.27,2.16-.45c-.81,3.69-1.58,8-1.71,9.65s1.66.3,2.63-.92,5.94-2.36,6.46-2.43l.07-.17c.17-.41.23-1.24.1-1.27-.91-.23-2-.09-2.78-.47s-1.28-1.31-2-1.91c-.09-.08-1.12.3-1.11.46l0,1a8.17,8.17,0,0,0-2.62,1.72l.19.31c.39.64,1.51.95.21,1.81l-1.4.93c.25-1.08.91-3.39,1.48-5.14a15,15,0,0,1,3.35-5.39l1.09-.65c.26-.16.89.1,1.16-.05.53-.3.87-.8,1.38-1.13l2-1.27c1.23-1.95,3.07-3.38,4.08-3.18a37.86,37.86,0,0,1,5.93,1.75l-1.79,1.18-.47.3a7.93,7.93,0,0,1,.54,2.33,30.57,30.57,0,0,1-3-.47l.1,1.65c.09,1.28,1.43.84,2.29.84h1.79a62.45,62.45,0,0,0,5.39-4.21c.51-.56,2.48-.17,2.11.56a34.54,34.54,0,0,0-1.64,6.24c0,.84.94.9,1.53.44s1-2.8.34-3.95l-.12,0-1.75.55c-1.7.82-3.77,1.83-4.6,2.25s-2.87,2.11-2.49,2.74,1.67,2.18,1.86,1.75.85-1.24,1.16-1.07,1.33.25,1.39-.27,3.71-4.14,5-4.34A19.07,19.07,0,0,0,665,208c.86-.88,4.52-1,4.6-1.34a5,5,0,0,1,1.85-2c.85-.46,2.7-2.07,2.18-2.5s-2.17-1.33-2.31-.85a14.63,14.63,0,0,1-1.26,1.94c-.34.56-.67,2.21-1.27,2.17a12.07,12.07,0,0,1-3-1.59c-.56-.38-1.67-1.93-1.21-2.63s3.24-.54,4.79-.44l.43-1.13c.38-1-.3-2.4,2-2.26l.56,0a5.29,5.29,0,0,1,2.41-.12c.69.16,2.52,1.33,1.89,2.08l-.5.05c-1.46.13-1.83.93-1.17,1.59a3.62,3.62,0,0,0,2.73.39l1.16-.31a20.08,20.08,0,0,0-.33-4.92l-.48-.43-.44-.38c-1.46-.42-1.43-.73.06-.68s4,2.9,5.27,3.46l.63,1a1.91,1.91,0,0,0,1.56.33,42.52,42.52,0,0,0,4.27-2.44c.2-.13.17-.67,0-.94s-.65-.59-.86-.53l-1.19.3c-1.66.55-2.7.45-2.3-.22s1.69-1.65,2.19-1.07,2.92-1.38,3.75-2a13.5,13.5,0,0,1,5.78-1.67l1.33.19.3,0a16,16,0,0,0,4.1-1.87L704,188l.84-.72c-.31-1.49.16-2.87,1-3.06s4.31-.53,5.73-.82,2.07-3.28,1.63-3.67h0L711,181.24c-.82-1.53-1.58-2.37-1.69-1.87s-1.14,2.15-1.95,2.15-3,.4-2.51.9-1.51,2.25-2.66,2.38l-.08.33c-.15.6.91,1.66.62,1.93-1.19,1.12-1.92-.13-2.85-.57l-.45-.21c-.72.09-1-.22-.55-.7s1-1.76.61-2.11a4.91,4.91,0,0,1-.59-3.7l2,1.41a2.46,2.46,0,0,0,2-.22c.63-.52.82-1.38,1.41-2l.14-.15a1.42,1.42,0,0,0,1.91-.88l.33-.66,1.17-2.33c2.21,1.2,4.25,2.23,4.54,2.3s1.58-1.3,2.08-3.21l-2-1.44-.6-.44c-.17-.94.62-1.09,1.75-.34l1.14.5.37.17c.73-.06,1.39.2,1.46.56a1.27,1.27,0,0,0,2.09.08l.2-.71.6-2.21a6.5,6.5,0,0,1,3.33-1.75c.79,0,2.86-.57,2.86-1.26s.35-2.68,1.36-2.31,4.65.69,5.84-.11-.1-4.53.19-4.91.75-.65.58-.07,3.56-.4,4.7-1.25,5.32.69,6.15.45l.12-.38.32-1a6.86,6.86,0,0,0,2.86-1.22c.59-.5,1.21-1.78.11-1.74s-2.94-.35-1.83-.6,2.66-2,3.1-1.41a6.52,6.52,0,0,0,3.44,1.67c.86,0,3-1,1.77-2.23s-1.95-6.35,0-8.51l1.84-1.93c.17-.18.78-.18,1.13-.11l.28.06a8.56,8.56,0,0,1,.69,3l-.14,1.24-.06.47c-.09.89-.74.63-1.44-.59l-.58-.07-.74-.08a6.88,6.88,0,0,0-1.8,1.62,2,2,0,0,0,.72,1.52c.53.36,2,2.51,3.41,3.35l1.4-1.49a7.64,7.64,0,0,1,1.94.8c.66.34,1.27,1.1,1.87,1.08l1.29,0c1.35-.31,2.06-.8,1.58-1.09a24.1,24.1,0,0,0-3.64-1.22c-.9-.22-3.36-1.35-2.95-1.88l.18-.6.18-.6c-.08-.77.31-1.2.86-1a4.76,4.76,0,0,0,2.65-.06,14.14,14.14,0,0,0,2.51-1.22c.45-.45.61-2.2-.73-1.81a40.69,40.69,0,0,1-5.31,1.17v0a2.94,2.94,0,0,1,.28-1.34c.1-.17.7-.15,1.07-.23l2.55-.58a7.14,7.14,0,0,1-.5-3.61l.56.27,1,.49c.91-.29,1.71-.18,1.77.26a27.3,27.3,0,0,0,1.88,4c.76,1.39,2.78,5.9,3.33,6.76l.79.27a6.57,6.57,0,0,0,2.83-.25c.15,0,.29-.61.21-.89-.35-1.21-1.6-.61-2.48-.75l-.2,0c-.22,0-.42-1.1-.45-2.44s2.11-4.67,2.33-4.85a22.39,22.39,0,0,1,5.72-.77l1.26-2.24c.55-1,1.45-.82,2.39-.2l2.14,1.42c1.46-1.3,2-2.6,1.3-2.88s-3-.5-3.32.05-.88-1.35-.44-1.91l.53-.07,1.62-.22a7,7,0,0,1,2.87-1.47l.23.15,2.06,1.31a7.28,7.28,0,0,1,2.66-2.23c.59-.13,2.7-.42,3.48-1.42s3.47-3.18,3-3.85a25.22,25.22,0,0,1-1.59-3.41c-.14-.48,1.35-.51,1.25-.08l.21.15.74.59a3.87,3.87,0,0,1,1.72,2.12,8.14,8.14,0,0,0,.9,2.55c.24.22,1.64-.45,2.56-1.94s3.53-5,3.86-4.77,1,1.12.8,1.31-.48.91-.11,1.18l.29,0c.51-.06,1.37-.31,1.41-.54l.15-1.09c0-1.13-1.43-2.48-3.08-3s-4.47,4-4.57,4.13a1.42,1.42,0,0,1-1.66-.38c-.57-.67-3-1.42-3-1.89a9.35,9.35,0,0,0-.3-2.14c-.12-.26-.13-.92.28-.89s2.44,1.53,3.8,2.19l1.09-1.58,1.26-1.86c2.88-1.07,4.79-1.51,4.25-1s-1.08,2.12.25,2.15l.95-.06,1.18-.07a4.49,4.49,0,0,0,1.76,1.65c.51.19,2.49,0,2.49-1s.34-3.5.77-3.5,1.18.32,1,.71v.94a4.77,4.77,0,0,1-.89,2.73l1.1.43.73.28c1.16-.3,1.83-1.17,1.48-1.92l-.28-.69,0-.09a4.43,4.43,0,0,1,.59-.51l.13,0,1.24.25c1.35.3,2.49,0,2.52-.6l-.16-.54-.18-.56c-.08-.84.26-1.25.76-.89s2.46,1,2.92.32a5,5,0,0,0,.55-2.62c0-.68,2.47-1.34,3.93-1.42s2.78-3.55,3.26-3.9l.43,0a1.56,1.56,0,0,1,1,.86c.18.45-.14,1.06.1,1.46a1.76,1.76,0,0,0,1.38.57l1.12-.46a19.17,19.17,0,0,1,2.86-1.4c.51-.15,1.65-.67,1.18-.85s-1.51-.87-1.31-1.12a15.69,15.69,0,0,1,3.62-1.35c1.52-.43,5.82-2.19,7-1.86l1,.08,2.09.13a6.89,6.89,0,0,1,0-3.55c.3-.75,3,.11,3.5-.25l.31-.42c.83-1.1,1.13-3.13,3.48-1.05A2.61,2.61,0,0,0,866.1,98c.81-2.1,1.78-3.37,4.52-1.42l.24.17c1-.49,3.56-2,5.76-3.46l2-1.29a8.66,8.66,0,0,0,1.49-1.48v-.23a5,5,0,0,1,.86-1.82c.49-.75,3.25-1.21,3-.43v.63a2.3,2.3,0,0,0,.53,1.4.92.92,0,0,0,1.66-.27L887,87a46.68,46.68,0,0,0,10.64-4.23l3.27-.13c.31,0,.63-.66.86-1l1.09-1.88c1.08,1.08,2.31,1.21,2.72.29s6-2.27,8.72-3.37l1-1a18,18,0,0,1,1.85-1.86l.2-.16c.75.08,1.2.54,1,1a1,1,0,0,0,1.38,1.13c1.21-.48,4.94-2.13,5.92-2.71s4.3-2.36,5.69-2.36,4.45-1.65,6.28-.24l-2.45,2-.07.06c.89.88,2,.48,2.36-.88s2.14-4.45,3-4,2.44,2,2.54.6l2.38.51c.48.1,1.23-.44,1.76-.79.12-.09,0-.69-.27-.85-1.05-.73-1.8-.15-2.51.48l-.09.07c-.54.07-.71-.48-.36-1.22s1.52-2.36,1.9-2.11,1.69-.17,2.16-.9,4.22-1.86,5-3.3l2.34,0,.67,0c.88,1.41,1.87,2.39,2.22,2.18l-.05-.09c-1.18-2.44,2-3.28,2.73-5l0-.12c.21-.09,1.47-.49,2.81-.9l1.51.64c1.94.81,2.42-.64,3.31-1.75.62-.77,2.8.46,3.43-1.71.51-1.78,3.56-2,5.43-1.55,1.21.29,1.75.5,1.64,1.53L979,54c0,1.24.93,1.69,2,1l.14-.48.5-1.65c-1.28-1.41-.69-3.36,1.31-4.34l1.86-.93c.5-.25,1-.84,1.42-.77,5.14.81,7-3.77,11.13-4.52l.29-.05c.21-1,.56-1.52.78-1s2.25,1.28,4,.68,4.56-3.77,4.76-3.47l.14.28.15.29c.18.5,1,.4,1.74-.23l.64-.51a10.62,10.62,0,0,1,1.78-1.36l.13-.07a.88.88,0,0,0,1.53-.38l.52-.31.43-.25a19.44,19.44,0,0,1,2.39.77c.46.2,3.19-1.19,4.94-2.23s6.66-3.15,8.14-3.78l1.29-.65c.51-.25,1.13-1.05,1.28-1l1.35.61a5.15,5.15,0,0,0,3.82-2l1.76.22a12.41,12.41,0,0,1,2.81.75l.43.22c.66,0,1.16-.21,1.1-.41s-.43-1.11-.66-1.61h1.78a5.43,5.43,0,0,0,2.08-.57c.85-.38,1.59-.89,2.4-1.32l.13-.07c.33.07.47.53.29,1s-.42,1.87-.19,2a1.27,1.27,0,0,0,1.4-.68l.41-.52,2.37-3.07c2.79.44,5.82.53,6.74.2l.5.3c.52.31.45,1.37,1,1.57l.81.33c1.23,0,2.23-.6,2.23-1.28s-.65-2.7-1.45-2.75-3-.5-2.89-.9l.2-.09.81-.39a6.32,6.32,0,0,1,3.4,0c1,.31,4.13-.13,4.62-.22l.39.09c2.17.46,3,1.49,2.38,3-.11.28-.78.46-.8.71l-.05.56a1.36,1.36,0,0,0,1.72.79l.41-.38,1.62-1.54a25.34,25.34,0,0,1,4.64,1.45c.06.16,1.34-.07,2.69-1l1.27-.06,1.85-.07c2.07.49,3.93,1.53,4.14,2.32s2.93.9,3.07,1.22a11.1,11.1,0,0,1-.17,3.68l2.45-.16h0a13.35,13.35,0,0,1-1,4.69l1.36,1.8c.68.9,2.9,2.67.21,4.12-.11.06.41.81.55,1.25s.27,1.13.39,1.7l.25,4.33.73,1.75A21,21,0,0,1,1099,56c0,1.09,2.81,3.59,3.07,4.16s.25,2.32-.39,2.37l-.49.19a13.11,13.11,0,0,0-3,1.38c-.42.29,2.33,1.36-.43,1.66l-.83.09c-.8.76-1.83,1.71-2.28,2.1a9.9,9.9,0,0,0-1.9,2.58l-.35.1-1.35.41a6.46,6.46,0,0,0-4.44,2.36l-1.09.85-1.25,1c-1.66.8-4.2,2-5.64,2.76s-7.27,4-9.86,5.5l-2.35,1.41-.16.09a8.36,8.36,0,0,1-2.75,0c-1.36-.11-4.3,2.87-5.14,3.46a49.6,49.6,0,0,1-6.74,3.54c-2,.79-6.76,4.2-7.17,4.37s-2,.36-2.64.57a24.38,24.38,0,0,0-3.25,2.35c-.67.45-2.6.78-2.56,2.71l-3,0h-.71c-.76.23-1.28.2-1.15-.06s.16-1.06-.24-1.2a5.86,5.86,0,0,0-2.41.29c-.87.25-.56,3.71-2,5.94l-2.74.37-2.18.29a22.32,22.32,0,0,1-4.89,2.4,18,18,0,0,0-4.2,2.58l-1,.66-1.47,1c-1.68,1-3.43,1.81-3.91,1.69l-.44-.09-.55-.1a5.63,5.63,0,0,0-3.07,1.33c-1.08.82-4.32,3.93-5.6,4.51s-4.75,2.1-4.81,2.22.81.4,2.07.28a35.44,35.44,0,0,0,6.15-1.39l.81-.41,3.5-1.76a14.94,14.94,0,0,0,3.29.68c.44,0,.74-1.13,1.33-1.47a7.11,7.11,0,0,1,3.06-1.15l2.06-.06c2.11-.63,3.91-2.27,4-3.64l1.66.74,2.83,1.24c.49-1.83,1.49-3.32,2.22-3.31s3.4-.11,4.28-.2v-.14l.2-2.07a52.36,52.36,0,0,0,5.23-.35c.85-.14,3.39-1.24,4.18-1.34s4-.15,5.21-.35,3.91-2.63,4.59-3.68l1.69,1,.09.06c1.1-1,2.1-1.62,2.21-1.35s1.23.39,2-.8l1.06-.55c.89-.45,2.32-.22,3.52-.26l1.7-.07a7.45,7.45,0,0,1,3.27-1.79l.54.1c.45.08.87.45,1.3.44,1.11,0,1-2.51,3.12-1l.43.3c1.39-.56,3.56-1.54,4.83-2.2l1-.74c1.34-1,2.13,1.84,3.42.25l.82-1c1.22.3,3.73,1,5.58,1.47l.57-2.1.07-.26c.43-.19,2-.68,3.57-1.09s5.81-1.14,6-.72,1.16,1.32,1.29.71,1.87-1.68,3.62-1.28h0l1.1-.35a11.72,11.72,0,0,1,2.49.62A9.48,9.48,0,0,0,1106,96c1,.35,2.16,3.53,2.36,4.16s5.17.64,7,.76,7.79,1.3,9.28,2.06,4,5.35,4.73,6.46l-2.37.21c-.26,0-.69,1.11-.5,1.54l.28.63a17.17,17.17,0,0,1-1.44,1.6c-.47.44,1,1.49,1.46,2s-.45,2.69-1.25,3.67l2.32.52,1.79.4-1.87,4.49c-.44,1-.38,4.84-1.94,6.08l3.63.09h.16a15.31,15.31,0,0,1,.41,2.79c.08,1.1.54,4.36.66,4.81l-.2.21-1.52,1.62c1.37,1.2,3.18,2.84,4,3.66s-3.84,4.45-5.67,5.29l-1.67.71c-2,.81-3.1,3.1-4.26,4.89-.77,1.2.69,2.25,2.09,1.38,1.69-1.06,2.17,1.39,3.51.35,1.11-.87,1.85-2.14,3.92-2l1.3.11a11.34,11.34,0,0,1,4.77.06l.85-.2c.86-.2,1.37-1.26,2.24-1.61l.83-.33a15.43,15.43,0,0,1,4.38.93c1.26.49,5-.8,5.46-.74s2.69.81,4.34,1.27,6.86-.9,7.86-.37,4.43,1.79,5,1.41,2.15-.86,2.72-.42,1.91,1.63,1.8,1.73a37,37,0,0,1-5,.08l-2.23.19-1.19.1c-1.14,1,0,2,2.49,2.27l2-.55c1.94-.56,3.29,2,5.26.19l.73-.68a27.34,27.34,0,0,1,3.72.93,11.7,11.7,0,0,1,1.38,1.28c.33.28,2.25-.1,3-.41a9,9,0,0,1,3.59-.37,2,2,0,0,1,.78,1.55,3.28,3.28,0,0,1-2.63.79c-1.14-.18-2.33,2.64-3.23,2.92s-1.51,2.6-1.13,2.73a1.75,1.75,0,0,1,.83,1.88c-.32.71,2.6,1.16,3.52,1.69l1,.14a4.58,4.58,0,0,0,1.3-.18l.76-.12a19.79,19.79,0,0,1,2.27-.24c.42,0,1.55.55,1.35,1.24s.07,2.6-.5,2.71a28.08,28.08,0,0,1-4.21-.3c-1.29-.17-1.27,2.7-.77,1.94s3.18.54,2.64,1.24-1.76,2.83-1.33,3a30.2,30.2,0,0,1,5.1,2.71l2.5.5.07,0a9.75,9.75,0,0,1-1.51,2.92c-.75,1.06.52,4.25.15,4.49a1.32,1.32,0,0,0,.28,2.08l1.06.38A2.36,2.36,0,0,0,1196,193a1.42,1.42,0,0,1,1.84.24l.2.25c.34.29-.73,1.12-2.38,1.85s-6.57-.89-6.9-.86a28.88,28.88,0,0,0-4.3,2.36c-1.82,1.12-8.64,2.56-9,2.58a17.35,17.35,0,0,0-3.55,1.84l-1.4.45-1.41.46-6.77.5-.65.78-1.63,1.94a14.64,14.64,0,0,0-5.64-.7c-1,.25-4.23.28-5.13.4s-4.92,1.05-7.33,1.63-11.91,2.26-15.55,2.87-13.82,1.94-14.4,2.12l-.52.18-6.21,1.47-5.16-.13-12,4c-1.5.5-8.56,1.57-12.34,2.32l-3.45.09-3.28.08a59.05,59.05,0,0,0-6.21,1.88,8.68,8.68,0,0,1-2.24.62c-.88.15-4.09-.16-4.86.25s-6.32,1.12-10.55,1.6l-3.78.77c-1.26.26-3.48-.87-4-.41l-1.69,1.44c-1.3-.86-2.75-1.19-3.22-.74s-2.68-.08-3.53.34-4.23-1.4-6-1.64l-1.1-.63c-1.68-1-3.34-.83-5.09-.93h-.34a25.61,25.61,0,0,0-3.67-1.73c-1.68-.68-8-2.74-10.21-3.41l-1.49-1.33-1.44-1.3a20.72,20.72,0,0,0,2.11-2.57,10.26,10.26,0,0,0-.94-2.61l1-1.08.36-.39A9.94,9.94,0,0,0,1001,205a12.27,12.27,0,0,1-.69-5.15c.21-.84-2.56-2.1-2.61-2.51s-.53-3.87-.9-6.73l-.66-2.53-.14-.53a12.83,12.83,0,0,0-4.74.26c-1.05.34-5.29,1.91-7.09,2.64s-7.64,3.15-8.78,4.76l-3-.6-1.68-.35c-2.26,1.06-5.42,2.49-7,3.18s-7.08,2.26-8.43,2.94a72.78,72.78,0,0,1-8.27,2.81c-1.73.44-5.94,3.51-6.59,4s-2.81-.8-3.1-.82-2.36.42-4.52.82-7.34,4.84-9.23,5.7-7.18,2-7.07,2.75-3,.38-3.55.53-1.68,1.33-2,1.24a30.46,30.46,0,0,0-5.49,1.39l-2,.78-1.21.47a6.78,6.78,0,0,1-3.38,1.15c-.71-.1-2.84,1.21-3.43,1.57a52.38,52.38,0,0,1-5.41,2.21l-1.64.35c-2.61.54-5.45.69-6.26,3.43l0,.06a34.53,34.53,0,0,0-4.91,0c-1.64.12-4.11,3.25-4.4,3.31s-1.79.31-2.65.42a54.16,54.16,0,0,0-7.07,2.83c-2.34,1.09-10.18,3.53-11.44,4.13a62.1,62.1,0,0,0-5.75,2.9c-.58.49-3.88.81-4.65,1.3a23,23,0,0,1-4.73,1.84,29.71,29.71,0,0,0-4.56,1.47c-.71.36-5.93,2.41-10,3.78l-3.34,1.81-.62.33a28.23,28.23,0,0,1-4.58.33l-.28,1.76,0,.17a42.26,42.26,0,0,0-4.84,1.21c-1.82.55-7.37,3-9.27,3.41s-7.93,4.1-10.81,5.05l-2.44,1.32-3.12,1.7c-3.94,1.21-8.77,2.84-10.75,3.62s-7.71,3.39-8.63,3.78-5.14,1.8-7.2,2.41-8.14,3.58-9.61,3.87-6.68,2.25-9.2,2.79l-2.1.86-.33.13a60.26,60.26,0,0,0-7.49,1.5l-2.81,1.55c-1.74,1-3.63,1.25-5,.57-1.89-1-3.15-1.14-4.75.14l-.24.19c-.74-.2-3.61-1.25-6.37-2.34s-10.92-2.21-10.2-2.87l.13-.47.12-.38a2,2,0,0,0-2-.62l-.48.35-.35.25c-.22,1-.5.47-.63-1.2s1.22-5.52.14-5.8l-.33-.54a3,3,0,0,1,0-2.44l.65-1.85c-1.75-.41-2.85-.86-2.43-1s1.44-.71,1.33-1l-.22-.1c-1.66-.74-3.75-1.15-4.9-2.23-.76-.72-.26-2.37-.17-3.6,0-.42.87-1,.73-1.2l-.76-1.37a15.56,15.56,0,0,0-2.54-5.53l-1.2-1.23-.46-.46c-.82-.31-1-.92-.52-1.36s.53-3.22-.89-5.47l.2-2.51.1-1.34a31.67,31.67,0,0,0,4-5.1L687,237a1.72,1.72,0,0,0-1.33-.64c-1.41.07-.65.51-.39,1.14.17.42-.84,1.68-1.18,1.64l-2.19-.22c-.2,1.3-.73,2.08-1.2,1.72a1.38,1.38,0,0,0-2.06,1c-.17,1.31-5.25,2-5.75,3.79l-2.12.57a15.86,15.86,0,0,0-7.21,3.91l-.94.92a24.59,24.59,0,0,0-5.42,1.87c-1.51.76-6.38,2.09-6.67,2.67l-.43.46-.87.93a5.08,5.08,0,0,1-4-.91c-.74-.76-3.48-2.43-3.52-2.07a5.3,5.3,0,0,0,.85,2.1l.3.55c0,.05-.81.54-.91.47-.59-.37-1.19-1.13-1.45.13-.08.36.33,1.11.64,1.16l1,.15c1.12,0,1,.08-.26.3s-3.41,2.35-3.71,2.11l-.32-.16-2.17-1c-.06,1.35-.14,2.59-.18,2.76s-.43.79-.73.85-3.14.27-5.65.55l-1.7,1.62c-1.56,1.47-3.26,3.21-5.91,1a2.58,2.58,0,0,0-1.53.19,4.73,4.73,0,0,0,.26,1.69l.07.24c.33.44-.5.33-1.84-.23s-4.61.65-4.15.82.24,1.55-1.48,2.67l-2.31-2.39a5,5,0,0,0-1.31-1l-.29-.14c-.73.06-1.36,1.07-1.4,2.24l-.21,1.07c-.06.3-.76.71-1.19.74l-1.14.07a9.3,9.3,0,0,0,.84-2.82l-.87-.66c-.23-.18-.71-.43-.83-.36l-.85.46c-.64.82-1.08,1.69-1,1.95a4.47,4.47,0,0,1-.13,1.88c-.18.45-1.6.37-1.75.21A15.19,15.19,0,0,0,597.45,272.37Zm146-108.73a9.56,9.56,0,0,1,0-1.7,10.9,10.9,0,0,0,4.42.91l1.44-.77,1.47-.78c.84-1.82.22-2.6-1.37-1.73l-1.36.68-1.37.69c.33,1.63-.6,2.77-2.06,2.55l-1-.55-.88-.49c-.82-1.22-1.48-1.42-1.48-.45S743.47,164.77,743.42,163.64ZM582.35,267.58c.59.4,1.46,0,1.93-.81l.55-.61c.54-.61,3.53-.26,4.1.37a6.9,6.9,0,0,0,1.54,1.46,2.11,2.11,0,0,0,1.58.15c.37-.21.7-1.06.5-1.24-1.52-1.38-2.13-2.33.89-2.9l.77-.15a1.69,1.69,0,0,0-1.29-2.58c-1.34-.27-5.16-.16-5.08.94l-.21.9-.1.45a2.71,2.71,0,0,1-2.54-.25l.62-.8.21-.27c.35-.25.16-.66-.42-.93l-.51,0c-.44,0-2.85,5.48-2.65,6Zm31.11-50.34c-1.75.87-2.17,1.65-.94,1.75s3.25,2.82,3.71,3.44,2.84,1.11,2.9,1.22a1.29,1.29,0,0,1-.52,1,1.14,1.14,0,0,0-.34,1.28c.16.43,1.77.18,3.15-1.72l.55-1.58.84-2.39a21.63,21.63,0,0,0-7.1-2.28l-1.44-.47ZM974.28,55.84a6.2,6.2,0,0,0-2.19-.24,10.69,10.69,0,0,0-2,1.82c-.65.81,2.52,2.66,4.37,1.89l1.64-.76.67-.31C977.9,57.51,975.27,56.08,974.28,55.84Zm80.17-26.36a2.06,2.06,0,0,0,2.39.44,12.69,12.69,0,0,0,2.89-1.82c.07-.23-.17-.82-.64-.77l-.42,0-.69.05c-.76,0-1-.33-.6-.85l.12-.51.09-.4c-.26-.47-1.15-.52-2-.11S1054,28.85,1054.45,29.48Zm-57.1,15.61a1.42,1.42,0,0,0-2.21.28c-.52.78-4.23,2.63-4.41,2.89a1.33,1.33,0,0,0,.63,1.58l.25-.15,1.17-.67a37.84,37.84,0,0,0,4.11-.66C997.7,48.16,998,45.73,997.35,45.09Zm-99.88,44.8c.44.23.73-.77.64-2.24l2.53,1.63,1.45.93a6.87,6.87,0,0,0,1.54-2.5c.07-.5-.22-1.85-.74-1.87a9.5,9.5,0,0,0-4,1.69l-1.58.34c-.18,0-.21,1.1,0,1.6ZM779.31,145.33c.72,1.15,1.89,1.24,2.59.21A23,23,0,0,1,786,142.1c.45-.3-.89-1.44-2.15-1.82l-.42.34a15.69,15.69,0,0,0-3.77,4.06ZM643.2,212.92c.86.48,1.52-.23,1.46-1.58s-2-3.21-2.51-3.06-1.85.79-1.17,1,1.6.72,1,.89-.92,1.41-.3,2.09l.91.4ZM1033,31.23c-.32-.26-.88.2-1.25,1l-.62.51-.93.78a14.11,14.11,0,0,0-2.59,1.7,1.22,1.22,0,0,0,.72,1.51l.67,0,.69-.05a12.44,12.44,0,0,0,2.39-2C1032.65,34,1033.28,31.49,1033,31.23ZM922.52,78.11c.32.26.7-.29.86-1.22s4.36.18,5.82,0l1.36-.26.08,0c-.08-.53-.89-1.23-1.8-1.55a10.38,10.38,0,0,0-4.67.49C923.37,76,922.21,77.85,922.52,78.11ZM578.17,241c-.4-2.38-1.32-3.36-2-2.19s-1,3.9,1,3.49l.77-.94ZM1020.58,39.61c1.3,0,2.42-.53,2.51-1.18l.33-.3c.84-.76,1.75-1.56.29-2.28l-.41-.21a47.06,47.06,0,0,0-4.32,3.21l-2-.07h-.35C1015.8,39.23,1019.29,39.61,1020.58,39.61Zm-164.93,67c-1.15,2.13-.52,3.28,1.4,2.55l.55-3c0-.13.34-.21.4-.35l.14-.34c.1-.39-.47-.73-1.27-.76l-.14.22ZM600.76,259.54c-.56.06-.42.52.32,1s3.23-.8,4.15-1.12l.87-.14a18,18,0,0,0,2.24-.38c.18-.05.25-.6.18-.88l-.07-.26a13.59,13.59,0,0,0-3.11-1.07C603.94,256.36,601.33,259.48,600.76,259.54Zm10.71-8.64c-.41,4.3-.41,4.3,5.18,6.48Z"/><path class="cls-5" d="M772.54,137.81c1.57,1.51,2.67,2.89,2.44,3.07a2.57,2.57,0,0,1-2.15-.23c-.74-.5-2.4-2.47-1.34-2.81l.5-.31c.4-.24.89-.67.88-1s-.55-.73-1-.93-.89.09-1.18-.06c-.55-.28-1.47-.82-1.39-1.07l.63-1.91c.62,1.1,1.74,1.68,2.5,1.29s2.5-1.79,3-1.24a11.94,11.94,0,0,0,2,1.85,3,3,0,0,0,.15-1.94l-.26-.87c-.38-1.31-.18-1.45,2.06-1.34a5.38,5.38,0,0,0,.87-.18l.42,0c.48,0,.77.57.65,1.26l-.24,0c-2.23.35-2.84.94-1.1,2.5.71.62.61,1.36-.83,1.75-1,.27-1.8,1.45-2.83,1.61Z"/><path class="cls-6" d="M716,162.15a2,2,0,0,1,2.2-1.32c.91.18,3.46-.53,4.26.54s-1.69,3.94-1.1,4.49-1,2.37-2.42,2.06-3.4-3.08-2.69-3.32l.52-.09.86-.16c.71-.44.91-1.19.43-1.66l-.58-.16Z"/><path class="cls-7" d="M729.63,158.07c1,.49.54,2.47-1.11,4.4l-2.23-1.5-1.89-1.28C725,157.7,728.6,157.57,729.63,158.07Z"/><path class="cls-8" d="M861.17,89.56c-.38.5-1,.32-1.48-.39s2.79-1.88,3.61-2.22,3.69-1.1,4.11-.66.4,1.38-.79,1.3-1.89,2.57-2.16,2.6S861.55,89.07,861.17,89.56Z"/><path class="cls-9" d="M711.9,155.27c-.17-1,.08-1.44.55-1.05a5.49,5.49,0,0,0,3.1.53,10.7,10.7,0,0,1,3.39.2c1,.18,3.46.78,3.17,1.05a7.38,7.38,0,0,1-2.43.63c-.77.1-1.3,1.57-2.13,1.05a33.94,33.94,0,0,0-4.2-1.53l-.84-.51Z"/><path class="cls-10" d="M855.16,94.14c-.65.59-.85,1.33-.45,1.65s.64,1.28-.32,1.42-2.79-2.14-2.89-3.55l1.5-.73,1.23-.6C856,92.15,855.81,93.55,855.16,94.14Z"/><path class="cls-11" d="M728.83,149.42c-1.38.61-2.24.37-1.91-.53s1.32-3.35,2.17-3.35S730.22,148.81,728.83,149.42Z"/><path class="cls-12" d="M819.92,101.5c1.33,1.53,1.16,2.88-.36,3s-3.68,2.66-5.09,2.11l-1-.57c-.15-.08.39-1.35.54-1.34a4.87,4.87,0,0,0,4.17-1.4Z"/><path class="cls-13" d="M749.23,145.72a1,1,0,0,1-.16,1.2,3.68,3.68,0,0,0-.64,2.08c0,.69-.32,2.37-.67,2.19s-2.46-1.66-3.93-2.82l1-1.15c.8-.89,2.85-1.05,4.36-1.49Z"/><path class="cls-14" d="M734.3,153.3c.36.76.12,1.38-.53,1.38s-3,.21-2.28.47,2,1.09,1,1.18-3.6-.44-4-1.33,2.84-2,2.88-2.57S734,152.54,734.3,153.3Z"/><path class="cls-15" d="M735.78,157.08c-.48-1.41-.11-2.3.82-2s2.37-2,2.8-2.21,1.54-.09,1.43.22.62,1.44.83,1.77-.72,1-2.87,0l-1.91,1.4Z"/><path class="cls-16" d="M594.25,272.23c1.39.26,2.09,1.13,1.55,1.93l-.45,0a4.89,4.89,0,0,1-2.72-.48L590,272.06c-.15,1.7-.42,2.51-.58,1.8S592.87,272,594.25,272.23Z"/><path class="cls-17" d="M840.93,103c-2.2-.8-2.12-.68.17.28l2.17-1.56.41-.3c2,.86,2.22,2.39.59,3.4l-1.6-.87Z"/><path class="cls-18" d="M787.42,127.09a1.74,1.74,0,0,0,1.67-.64c.39-.49,2.06-1.66,2.35-.84l-.15.39c-.22.57-1,1-1.13,1.59l-.26.86a2.89,2.89,0,0,1-3.24,0l-.71-.76-.22-.23C785.17,126.83,786.89,126.94,787.42,127.09Z"/><path class="cls-19" d="M774.67,124c1.73.42,2.65,1.4,2,2.19s-3.43-.54-3.85-.64l-.23,1.33c0,.27-.71.73-.83.68l-.85-.34C770,126.7,772.93,123.55,774.67,124Z"/><path class="cls-20" d="M723,147.69c-.17-1.18.38-1.71,1.23-1.18s-.3,3-1.63,4.09l-1.32.89c-.11.08-.77-.2-.94-.42s-.26-.78-.07-.93c.74-.59,2-1,2.32-1.64Z"/><path class="cls-21" d="M693.59,187c-.41,1-1,1.63-1.3,1.41l-.57-.66-.43-.5c-.26-.62-.17-1,.19-.79a5.45,5.45,0,0,0,2.57-.58c.64-.31,2.44-.94,2.49-.61s.87,1.08,1.25,1.42-.42,1.49-1.24,1.77l-1-.49Z"/></g></g></g></g></svg>