<?xml version="1.0" encoding="utf-8"?>
<!-- Generator: Adobe Illustrator 28.2.0, SVG Export Plug-In . SVG Version: 6.00 Build 0)  -->
<svg version="1.1" xmlns="http://www.w3.org/2000/svg" xmlns:xlink="http://www.w3.org/1999/xlink" x="0px" y="0px"
	 viewBox="0 0 40 40" style="enable-background:new 0 0 40 40;" xml:space="preserve">
<style type="text/css">
	.st0{fill:url(#SVGID_1_);stroke:#FF6161;stroke-linecap:round;stroke-linejoin:round;stroke-miterlimit:10;}
	.st1{fill:#FFFFFF;}
</style>
<g id="レイヤー_1">
</g>
<g id="レイヤー_2">
	<linearGradient id="SVGID_1_" gradientUnits="userSpaceOnUse" x1="2.492" y1="20" x2="37.508" y2="20">
		<stop  offset="0" style="stop-color:#C17BB1"/>
		<stop  offset="0.5279" style="stop-color:#E95F91"/>
		<stop  offset="1" style="stop-color:#FF6161"/>
	</linearGradient>
	<path class="st0" d="M34.6,29.3l2.9,8.6c0,0-6.3-2.1-8.9-3c-2.5,1.4-5.5,2.3-8.6,2.3c-9.7,0-17.5-7.8-17.5-17.5
		C2.5,10,10.3,2.1,20,2.1c9.7,0,17.5,7.8,17.5,17.5C37.5,23.2,36.4,26.5,34.6,29.3z"/>
	<g>
		<path class="st1" d="M15.1,14.1l-2.2-2.3c0.8-1.1,1.8-1.9,3.2-2.6c1.4-0.6,2.9-1,4.5-1l0,3.1c-1,0-2,0.3-3,0.8
			S15.7,13.2,15.1,14.1z M20,31.8c-0.7,0-1.2-0.2-1.7-0.7c-0.5-0.5-0.7-1-0.7-1.7c0-0.7,0.2-1.2,0.7-1.7c0.5-0.5,1-0.7,1.7-0.7
			c0.7,0,1.2,0.2,1.7,0.7s0.7,1,0.7,1.7c0,0.7-0.2,1.2-0.7,1.7C21.2,31.5,20.7,31.8,20,31.8z M18.4,24.1v-1.5c0-1.1,0.2-2,0.7-2.8
			c0.4-0.8,1.1-1.5,2-2.1c0.9-0.5,1.5-1.1,2-1.8c0.4-0.6,0.7-1.3,0.7-2.1c0-0.8-0.3-1.4-0.8-1.9s-1.3-0.7-2.3-0.7l0-3.1
			c2.1,0,3.7,0.5,4.9,1.4c1.2,1,1.7,2.3,1.7,4c0,1.2-0.3,2.3-0.9,3.3c-0.6,1-1.5,1.8-2.7,2.6C22.9,20,22.4,20.5,22,21
			c-0.3,0.5-0.5,1.1-0.5,1.7v1.3H18.4z"/>
	</g>
</g>
</svg>
