<svg xmlns="http://www.w3.org/2000/svg" viewBox="0 0 270.09 33.63" width="300" height="37"><defs><style>.cls-1{fill:#fff;}.cls-2{fill:none;stroke:#fff;stroke-miterlimit:10;stroke-width:0.69px;}</style></defs><g id="レイヤー_2" data-name="レイヤー 2"><g id="レイヤー_1-2" data-name="レイヤー 1"><path class="cls-1" d="M25.37,1.38a1.37,1.37,0,0,1,1.38,1.37V30.88a1.38,1.38,0,0,1-1.38,1.38H2.75a1.37,1.37,0,0,1-1.37-1.38V2.75A1.37,1.37,0,0,1,2.75,1.38H25.37m0-1.38H2.75A2.76,2.76,0,0,0,0,2.75V30.88a2.75,2.75,0,0,0,2.75,2.75H25.37a2.75,2.75,0,0,0,2.75-2.75V2.75A2.75,2.75,0,0,0,25.37,0Z"/><path class="cls-1" d="M22.48,4.72a.82.82,0,0,1,.81.8V28.11a.82.82,0,0,1-.81.81H5.64a.82.82,0,0,1-.81-.81V5.52a.82.82,0,0,1,.81-.8H22.48m0-1.38H5.64A2.19,2.19,0,0,0,3.46,5.52V28.11a2.19,2.19,0,0,0,2.18,2.18H22.48a2.19,2.19,0,0,0,2.18-2.18V5.52a2.19,2.19,0,0,0-2.18-2.18Z"/><polygon class="cls-1" points="35.86 9.13 18.05 22.1 14.05 22.73 15.88 19.13 33.7 6.16 35.86 9.13"/><path class="cls-2" d="M11.15,7.38C8.7,10,6,15.58,8.1,16.4c1.68.65,4.82-3.27,6.47-2.87,3.52.87-4.41,6.36-2.62,8.73.61.81,1.7.47,3-.05"/><path class="cls-1" d="M42.68,9a1.27,1.27,0,0,0-1.28,1.27v9.36a1.28,1.28,0,0,0,2.55,0V10.31A1.27,1.27,0,0,0,42.68,9Z"/><path class="cls-1" d="M42.68,5.64a1.19,1.19,0,0,0-.9.37,1.28,1.28,0,0,0,.9,2.18,1.26,1.26,0,0,0,.9-.37,1.29,1.29,0,0,0,0-1.81A1.22,1.22,0,0,0,42.68,5.64Z"/><path class="cls-1" d="M50,9a1.27,1.27,0,0,0-1.28,1.27v9.36a1.28,1.28,0,0,0,2.55,0V10.31A1.27,1.27,0,0,0,50,9Z"/><path class="cls-1" d="M50,5.64a1.23,1.23,0,0,0-.91.37,1.28,1.28,0,0,0,1.81,1.81,1.29,1.29,0,0,0,0-1.81A1.22,1.22,0,0,0,50,5.64Z"/><path class="cls-1" d="M85.25,13.6c-1.88-.47-2.73-.71-2.73-1.38s.57-.63,1.22-.63h3.44a1.28,1.28,0,1,0,0-2.55H83.35C81.09,9,80,10.18,80,12.52a3.28,3.28,0,0,0,.79,2.2c.53.61,2,1.21,4.47,1.83.73.18,1.09.5,1.09,1s-.62.83-1.74.87H81.22A1.27,1.27,0,0,0,80,19.67h0a1.27,1.27,0,0,0,1.27,1.27h3.41a4.74,4.74,0,0,0,3.23-1A3.62,3.62,0,0,0,89,17.1a2.91,2.91,0,0,0-.82-2.22A6.58,6.58,0,0,0,85.25,13.6Z"/><path class="cls-1" d="M88.54,10.31A1.29,1.29,0,1,1,87.25,9,1.29,1.29,0,0,1,88.54,10.31Z"/><path class="cls-1" d="M146.06,8.88a1.3,1.3,0,0,0-1.3,1.29v9.49a1.3,1.3,0,1,0,2.59,0V10.17A1.29,1.29,0,0,0,146.06,8.88Z"/><path class="cls-1" d="M146.06,5.43a1.22,1.22,0,0,0-.92.38,1.24,1.24,0,0,0-.38.91,1.3,1.3,0,0,0,1.3,1.3,1.24,1.24,0,0,0,.91-.38,1.26,1.26,0,0,0,.38-.92,1.24,1.24,0,0,0-.38-.91A1.2,1.2,0,0,0,146.06,5.43Z"/><path class="cls-1" d="M127.32,9.28a1.19,1.19,0,0,0-.3.66,6,6,0,0,0-9.49,5,6,6,0,1,0,12.07,0v-5a1,1,0,0,0-.27-.64A1.62,1.62,0,0,0,127.32,9.28Zm-1.48,8.24a3.46,3.46,0,0,1-4.87-.33,3.31,3.31,0,0,1-.85-2,3.45,3.45,0,0,1,6-2.51,3.33,3.33,0,0,1,.85,2A3.39,3.39,0,0,1,125.84,17.52Z"/><path class="cls-1" d="M129.62,10.07a1.31,1.31,0,1,1-1.31-1.31A1.31,1.31,0,0,1,129.62,10.07Z"/><path class="cls-1" d="M124.88,14.88a1.31,1.31,0,1,1-1.31-1.31A1.31,1.31,0,0,1,124.88,14.88Z"/><path class="cls-1" d="M96.33,11.59h2a1.35,1.35,0,0,0,1.36-1.35A1.23,1.23,0,0,0,98.45,9H96.33a.11.11,0,0,1-.1-.11V3.37A1.41,1.41,0,0,0,94.82,2a1.18,1.18,0,0,0-1.18,1.18V15.05a6.08,6.08,0,0,0,4.53,5.86,1.22,1.22,0,0,0,1.51-1.18,1.42,1.42,0,0,0-1-1.37,3.35,3.35,0,0,1-1.34-.79,3.61,3.61,0,0,1-1.1-2.65V11.7A.11.11,0,0,1,96.33,11.59Z"/><path class="cls-1" d="M98.47,18.37a1.28,1.28,0,0,0-.92.38,1.23,1.23,0,0,0-.37.91,1.25,1.25,0,0,0,.37.92,1.28,1.28,0,0,0,.92.38,1.3,1.3,0,0,0,1.3-1.3,1.24,1.24,0,0,0-.38-.91A1.26,1.26,0,0,0,98.47,18.37Z"/><path class="cls-1" d="M136.69,11.59h2A1.35,1.35,0,0,0,140,10.24,1.23,1.23,0,0,0,138.81,9h-2.12a.1.1,0,0,1-.1-.11V3.37A1.41,1.41,0,0,0,135.18,2,1.18,1.18,0,0,0,134,3.14V15.05a5.84,5.84,0,0,0,1.76,4.27,6,6,0,0,0,2.76,1.59A1.22,1.22,0,0,0,140,19.73a1.42,1.42,0,0,0-1-1.37,3.32,3.32,0,0,1-1.35-.79,3.64,3.64,0,0,1-1.09-2.65V11.7A.1.1,0,0,1,136.69,11.59Z"/><path class="cls-1" d="M138.83,18.37a1.26,1.26,0,0,0-.92.38,1.24,1.24,0,0,0-.38.91,1.3,1.3,0,0,0,1.3,1.3,1.24,1.24,0,0,0,.91-.38,1.22,1.22,0,0,0,.38-.92,1.2,1.2,0,0,0-.38-.91A1.24,1.24,0,0,0,138.83,18.37Z"/><path class="cls-1" d="M114.77,10.66h0a6,6,0,0,0-10.31,4.27v4.79A1.25,1.25,0,0,0,105.69,21h0A1.34,1.34,0,0,0,107,19.62V14.94a3.43,3.43,0,0,1,.9-2.34,3.38,3.38,0,0,1,2.93-1.12,3.33,3.33,0,0,1,2.06,1h0a1.42,1.42,0,0,0,1.93.09A1.27,1.27,0,0,0,114.77,10.66Z"/><path class="cls-1" d="M114,10.4a1.28,1.28,0,0,0-1.29,1.3,1.29,1.29,0,1,0,2.58,0,1.25,1.25,0,0,0-.37-.92A1.28,1.28,0,0,0,114,10.4Z"/><rect class="cls-1" x="267.49" y="1.84" width="2.59" height="19.12" rx="1.29"/><path class="cls-1" d="M270.09,3.12a1.31,1.31,0,1,1-1.3-1.31A1.31,1.31,0,0,1,270.09,3.12Z"/><rect class="cls-1" x="56.49" y="1.84" width="2.59" height="19.12" rx="1.29"/><path class="cls-1" d="M59.1,3.12a1.31,1.31,0,1,1-1.31-1.31A1.31,1.31,0,0,1,59.1,3.12Z"/><path class="cls-1" d="M227.84,8.88a5.76,5.76,0,0,0-3.45,1.06V3.13a1.3,1.3,0,0,0-2.59,0V19.66a1.3,1.3,0,1,0,2.59,0V15a3.5,3.5,0,0,1,.91-2.41,3.45,3.45,0,0,1,5.07,0,3.51,3.51,0,0,1,.92,2.41v4.67a1.3,1.3,0,1,0,2.59,0V14.92a6,6,0,0,0-6-6Z"/><path class="cls-1" d="M224.4,3.12a1.31,1.31,0,1,1-1.31-1.31A1.31,1.31,0,0,1,224.4,3.12Z"/><path class="cls-1" d="M217.55,17.19a1.27,1.27,0,0,0-1.77.15l0,0a3.45,3.45,0,0,1-5.89-2.44,3.45,3.45,0,0,1,3.45-3.45,3.3,3.3,0,0,1,2.44,1h0a1.33,1.33,0,0,0,1.86,0c.91-.83,0-1.85,0-1.85h0a6,6,0,0,0-10.32,4.27,6,6,0,0,0,10.32,4.27h0S218.62,18,217.55,17.19Z"/><path class="cls-1" d="M218.11,11.65a1.31,1.31,0,1,1-1.31-1.3A1.31,1.31,0,0,1,218.11,11.65Z"/><path class="cls-1" d="M200.42,13.5c-1.91-.47-2.77-.71-2.77-1.39s.57-.64,1.24-.64h3.49a1.3,1.3,0,0,0,0-2.59h-3.89q-3.45,0-3.45,3.53a3.26,3.26,0,0,0,.81,2.23q.79.93,4.53,1.86c.74.18,1.11.51,1.11,1s-.64.84-1.77.89h-3.39a1.28,1.28,0,0,0-1.29,1.3h0A1.29,1.29,0,0,0,196.33,21h3.46a4.77,4.77,0,0,0,3.27-1,3.64,3.64,0,0,0,1.12-2.91,2.91,2.91,0,0,0-.83-2.25A6.75,6.75,0,0,0,200.42,13.5Z"/><path class="cls-1" d="M203.75,10.17a1.31,1.31,0,1,1-1.3-1.3A1.31,1.31,0,0,1,203.75,10.17Z"/><path class="cls-1" d="M258.1,8.88a6,6,0,0,0-6,6,5.81,5.81,0,0,0,1.77,4.27,6,6,0,0,0,8.54,0,5.81,5.81,0,0,0,1.77-4.27,6,6,0,0,0-6-6Zm2.44,8.48a3.45,3.45,0,0,1-5.89-2.44,3.34,3.34,0,0,1,1-2.44,3.45,3.45,0,0,1,4.88,0,3.45,3.45,0,0,1,0,4.88Z"/><circle class="cls-1" cx="258.09" cy="14.88" r="1.31"/><path class="cls-1" d="M243.15,8.88a6,6,0,0,0-6,6,6,6,0,1,0,12.07,0,6,6,0,0,0-6-6Zm2.44,8.48a3.45,3.45,0,0,1-5.89-2.44,3.45,3.45,0,0,1,3.45-3.45,3.47,3.47,0,0,1,3.46,3.45A3.32,3.32,0,0,1,245.59,17.36Z"/><circle class="cls-1" cx="243.15" cy="14.88" r="1.31"/><path class="cls-1" d="M158.19,8.88a6,6,0,0,0-6,6,6,6,0,0,0,12.08,0,6,6,0,0,0-6-6Zm2.44,8.48a3.45,3.45,0,0,1-4.88,0,3.45,3.45,0,0,1,0-4.88,3.45,3.45,0,0,1,4.88,0,3.45,3.45,0,0,1,0,4.88Z"/><circle class="cls-1" cx="158.18" cy="14.88" r="1.31"/><path class="cls-1" d="M174.1,8.83a6,6,0,0,0-6,6V19.6a1.25,1.25,0,0,0,1.25,1.25h0a1.33,1.33,0,0,0,1.33-1.33V14.84a3.34,3.34,0,0,1,1.21-2.62,3.28,3.28,0,0,1,1.9-.8,3.39,3.39,0,0,1,3,1.31,3.31,3.31,0,0,1,.71,2.1v4.55A1.47,1.47,0,0,0,179,20.85a1.11,1.11,0,0,0,1.11-1.11v-4.9a6,6,0,0,0-6-6Z"/><path class="cls-1" d="M169.37,18.32a1.26,1.26,0,1,0,.91.37A1.25,1.25,0,0,0,169.37,18.32Z"/><path class="cls-1" d="M74.81,8.93h-.07a1.34,1.34,0,0,0-1.33,1.33v4.6a3.55,3.55,0,0,1-1,2.53,3.24,3.24,0,0,1-2,1A3.54,3.54,0,0,1,67.21,17a3.27,3.27,0,0,1-.67-2V10.19a1.26,1.26,0,0,0-1.26-1.26A1.32,1.32,0,0,0,64,10.25V15a6,6,0,0,0,12,0V10.12A1.18,1.18,0,0,0,74.81,8.93Z"/><path class="cls-1" d="M76,10.16a1.3,1.3,0,1,1-1.3-1.3A1.3,1.3,0,0,1,76,10.16Z"/><path class="cls-1" d="M109.05,31.79c0,.29-.08.62-.67.62-.42,0-.68-.16-.68-.62V28.61a10,10,0,0,1-2.62.91.66.66,0,0,1-.62-.72c0-.38.23-.46.47-.54a13.55,13.55,0,0,0,3-1.2,10.28,10.28,0,0,0,2.24-1.61.59.59,0,0,1,.41-.18.76.76,0,0,1,.73.71.62.62,0,0,1-.28.5,12.61,12.61,0,0,1-2,1.42Z"/><path class="cls-1" d="M113.14,28.77a.59.59,0,1,1,0-1.18h5.27c.38,0,.79.12.79.73a4.24,4.24,0,0,1-2,3.25,7,7,0,0,1-2.78.79.62.62,0,0,1-.52-.21.78.78,0,0,1-.15-.45c0-.46.35-.52.58-.55,1.14-.16,2.51-.35,3.21-1.57a2,2,0,0,0,.27-.67c0-.11-.05-.14-.2-.14Zm5.06-3.14a.6.6,0,1,1,0,1.19h-4.45a.6.6,0,0,1,0-1.19Z"/><path class="cls-1" d="M121.39,26.83a.61.61,0,1,1,0-1.21h3.86c.35,0,.94,0,.94.74A6.45,6.45,0,0,1,125,29.11a18.86,18.86,0,0,1,1.91,1.56c.35.31.49.47.49.75a.75.75,0,0,1-.74.72c-.3,0-.44-.17-.66-.41A19.1,19.1,0,0,0,124.21,30a7,7,0,0,1-3.09,2.19.68.68,0,0,1-.61-.7c0-.3.12-.36.64-.65a7.4,7.4,0,0,0,3.5-3.92c0-.11-.12-.11-.19-.11Z"/><path class="cls-1" d="M131.59,31.75c0,.23,0,.66-.68.66s-.68-.41-.68-.66V25.93c0-.23,0-.66.67-.66s.69.4.69.66v1.3a19.35,19.35,0,0,1,3,1.23c.51.26.67.41.67.73a.75.75,0,0,1-.67.78,1.25,1.25,0,0,1-.64-.24,12.77,12.77,0,0,0-2.38-1.16Z"/><path class="cls-1" d="M137.1,26c0-.29.09-.64.67-.64s.67.2.67.64v4.62c0,.1,0,.22.18.22a4,4,0,0,0,2.28-1A5.29,5.29,0,0,0,142,28.11a.49.49,0,0,1,.48-.34c.27,0,.76.2.76.61a4.91,4.91,0,0,1-2,2.77,7.05,7.05,0,0,1-3.28,1.1c-.72,0-.93-.31-.93-.8Z"/><path class="cls-1" d="M145,29.5a.6.6,0,0,1-.7-.65c0-.63.42-.66.7-.66h5.67a.6.6,0,0,1,.7.65c0,.64-.44.66-.7.66Z"/><path class="cls-1" d="M154.05,29.09c-.19-.09-1.05-.4-1.22-.47a.53.53,0,0,1-.39-.49c0-.17.09-.66.57-.66a5,5,0,0,1,1.23.36c1,.39,1.16.51,1.16.86s-.19.7-.58.7C154.69,29.39,154.65,29.36,154.05,29.09Zm5.17-1.77a6.69,6.69,0,0,1-1.82,3.2,6.77,6.77,0,0,1-3.89,1.7.65.65,0,0,1-.63-.71c0-.49.43-.57.6-.61a4.85,4.85,0,0,0,3.77-2.19,9.07,9.07,0,0,0,.72-1.53c.15-.37.32-.41.56-.41S159.22,26.87,159.22,27.32ZM154.75,27c-.22-.09-.4-.17-.92-.36s-.69-.24-.69-.62c0-.18.09-.66.55-.66a7.43,7.43,0,0,1,1.59.51c.57.24.81.35.81.73a.65.65,0,0,1-.58.68C155.38,27.31,155.35,27.3,154.75,27Z"/><path class="cls-1" d="M161.76,30a.55.55,0,1,1,0-1.1H165v-.69a.2.2,0,0,0-.21-.22h-3.1a.56.56,0,1,1,0-1.12h3.54c.82,0,1,.47,1,1v3.32c0,.81-.46,1-1,1h-3.6a.57.57,0,1,1,0-1.13h3.16a.19.19,0,0,0,.21-.22V30Z"/><path class="cls-1" d="M169,25.64a3.86,3.86,0,0,1,1,.43c1.42.74,1.54.94,1.54,1.24s-.28.74-.66.74c-.15,0-.27,0-.61-.27s-1.14-.7-1.45-.87-.48-.24-.48-.58a.75.75,0,0,1,.49-.67ZM175.15,27a6.76,6.76,0,0,1-1.52,3,6,6,0,0,1-3,1.84,7.43,7.43,0,0,1-1.37.27.67.67,0,0,1-.65-.74c0-.48.29-.58.71-.63a4.92,4.92,0,0,0,4.55-3.68c.17-.51.23-.67.59-.67a.86.86,0,0,1,.21,0C174.86,26.51,175.15,26.64,175.15,27Z"/><path class="cls-1" d="M177.07,26.83a.61.61,0,1,1,0-1.21h3.86c.34,0,.94,0,.94.74a6.45,6.45,0,0,1-1.24,2.75,18.86,18.86,0,0,1,1.91,1.56c.35.31.48.47.48.75a.74.74,0,0,1-.74.72c-.29,0-.43-.17-.65-.41A19,19,0,0,0,179.88,30a6.9,6.9,0,0,1-3.08,2.19.68.68,0,0,1-.61-.7c0-.3.12-.36.64-.65a7.4,7.4,0,0,0,3.5-3.92c0-.11-.12-.11-.19-.11Z"/><path class="cls-1" d="M189.85,26.33c.82,0,.84.52.84.76A5.85,5.85,0,0,1,188.6,31a7.08,7.08,0,0,1-3.28,1.33.62.62,0,0,1-.62-.67c0-.42.18-.46.78-.61a4.5,4.5,0,0,0,3.39-2.36,4,4,0,0,0,.38-1.09c0-.13-.07-.13-.25-.13h-2.2c-.28.36-1.29,1.57-1.88,1.57a.68.68,0,0,1-.64-.65c0-.24,0-.28.55-.67a5.7,5.7,0,0,0,1.51-1.84c.23-.46.33-.64.72-.64s.69.15.69.49a1.09,1.09,0,0,1-.19.56Z"/><path class="cls-1" d="M192.69,29.5a.6.6,0,0,1-.7-.65c0-.63.42-.66.7-.66h5.68a.6.6,0,0,1,.7.65c0,.64-.45.66-.7.66Z"/><path class="cls-1" d="M202.21,27.79c0,1.71-.08,2.87-.91,3.94-.42.53-.61.53-.74.53a.75.75,0,0,1-.75-.69.7.7,0,0,1,.24-.49c.76-.87.88-1.25.88-3.35V26.06c0-.28.09-.58.63-.58s.65.16.65.58Zm.85-1.82c0-.31.12-.58.63-.58s.64.15.64.58v4.5c0,.1,0,.19.09.19.31,0,1.09-.63,1.46-1.76.12-.4.2-.62.58-.62.14,0,.7.07.7.57a4.14,4.14,0,0,1-.66,1.67,3.76,3.76,0,0,1-2.69,1.68.67.67,0,0,1-.75-.76Z"/><path class="cls-1" d="M113.62,28.12a.76.76,0,1,1-.76-.76A.76.76,0,0,1,113.62,28.12Z"/><path class="cls-1" d="M143.42,28.38a.76.76,0,1,1-.76-.76A.76.76,0,0,1,143.42,28.38Z"/><path class="cls-1" d="M156.34,26.68a.76.76,0,1,1-.76-.76A.76.76,0,0,1,156.34,26.68Z"/><path class="cls-1" d="M175.2,27a.76.76,0,1,1-.76-.76A.76.76,0,0,1,175.2,27Z"/><path class="cls-1" d="M186.05,31.87a.76.76,0,1,1-.76-.76A.76.76,0,0,1,186.05,31.87Z"/><path class="cls-1" d="M207.32,28.84a.76.76,0,1,1-.76-.76A.77.77,0,0,1,207.32,28.84Z"/><path class="cls-1" d="M126.36,26.17a.76.76,0,1,1-.76-.76A.76.76,0,0,1,126.36,26.17Z"/><path class="cls-1" d="M105.56,28.88a.76.76,0,1,1-.76-.76A.76.76,0,0,1,105.56,28.88Z"/><path class="cls-1" d="M118.94,26.17a.76.76,0,1,1-.76-.76A.76.76,0,0,1,118.94,26.17Z"/><path class="cls-1" d="M135.31,29.29a.76.76,0,1,1-.76-.76A.76.76,0,0,1,135.31,29.29Z"/><path class="cls-1" d="M151.52,28.84a.76.76,0,1,1-.76-.76A.76.76,0,0,1,151.52,28.84Z"/><path class="cls-1" d="M166.25,29.43a.76.76,0,1,1-.76-.76A.76.76,0,0,1,166.25,29.43Z"/><path class="cls-1" d="M182,26.25a.76.76,0,1,1-.76-.76A.76.76,0,0,1,182,26.25Z"/><path class="cls-1" d="M199.28,28.84a.76.76,0,1,1-.76-.76A.76.76,0,0,1,199.28,28.84Z"/></g></g></svg>