<svg xmlns="http://www.w3.org/2000/svg" viewBox="0 0 271.8 37.05"><defs><style>.cls-1{fill:#009fe8;}.cls-2{fill:#fff000;}.cls-3{fill:none;stroke:#000;stroke-miterlimit:10;stroke-width:0.69px;}.cls-4{fill:#040000;}</style></defs><g id="レイヤー_2" data-name="レイヤー 2"><g id="レイヤー_1-2" data-name="レイヤー 1"><rect class="cls-1" x="8.56" y="6.79" width="23.26" height="26.03"/><rect class="cls-2" x="4.07" y="3.12" width="19.17" height="23.42"/><path d="M27.08,3.08a1.38,1.38,0,0,1,1.38,1.38V32.59A1.38,1.38,0,0,1,27.08,34H4.46a1.38,1.38,0,0,1-1.38-1.38V4.46A1.38,1.38,0,0,1,4.46,3.08H27.08m0-1.37H4.46A2.75,2.75,0,0,0,1.71,4.46V32.59a2.75,2.75,0,0,0,2.75,2.75H27.08a2.76,2.76,0,0,0,2.75-2.75V4.46a2.76,2.76,0,0,0-2.75-2.75Z"/><path d="M24.19,6.42a.82.82,0,0,1,.81.81V29.82a.82.82,0,0,1-.81.81H7.35a.82.82,0,0,1-.81-.81V7.23a.82.82,0,0,1,.81-.81H24.19m0-1.37H7.35A2.19,2.19,0,0,0,5.17,7.23V29.82A2.19,2.19,0,0,0,7.35,32H24.19a2.19,2.19,0,0,0,2.18-2.18V7.23a2.19,2.19,0,0,0-2.18-2.18Z"/><path class="cls-2" d="M0,34.52a1.71,1.71,0,1,1,1.71,1.71A1.7,1.7,0,0,1,0,34.52Z"/><path class="cls-2" d="M27.7,1.71a1.71,1.71,0,1,1,1.71,1.7A1.71,1.71,0,0,1,27.7,1.71Z"/><path class="cls-1" d="M0,2.25A1.71,1.71,0,1,1,1.71,4,1.7,1.7,0,0,1,0,2.25Z"/><path class="cls-1" d="M26.67,35.34a1.71,1.71,0,1,1,1.7,1.71A1.71,1.71,0,0,1,26.67,35.34Z"/><polygon points="37.57 10.84 19.75 23.8 15.76 24.43 17.59 20.83 35.41 7.87 37.57 10.84"/><path class="cls-3" d="M12.86,9.09c-2.45,2.66-5.21,8.19-3,9,1.68.65,4.81-3.27,6.46-2.87,3.53.87-4.4,6.36-2.61,8.73.61.8,1.69.47,3-.06"/><path class="cls-4" d="M44.39,10.75A1.27,1.27,0,0,0,43.11,12v9.36a1.28,1.28,0,0,0,2.55,0V12A1.27,1.27,0,0,0,44.39,10.75Z"/><path class="cls-1" d="M44.39,7.34a1.24,1.24,0,0,0-.91.38,1.28,1.28,0,0,0,0,1.8,1.27,1.27,0,0,0,1.81,0,1.28,1.28,0,0,0,0-1.8A1.23,1.23,0,0,0,44.39,7.34Z"/><path class="cls-4" d="M51.7,10.75A1.27,1.27,0,0,0,50.42,12v9.36a1.28,1.28,0,0,0,2.55,0V12A1.27,1.27,0,0,0,51.7,10.75Z"/><path class="cls-1" d="M51.7,7.34a1.24,1.24,0,0,0-.91.38,1.28,1.28,0,0,0,0,1.8,1.27,1.27,0,0,0,1.81,0,1.28,1.28,0,0,0,0-1.8A1.23,1.23,0,0,0,51.7,7.34Z"/><path class="cls-4" d="M87,15.3c-1.89-.47-2.73-.7-2.73-1.37s.56-.63,1.22-.63h3.44a1.28,1.28,0,0,0,0-2.55H85.06q-3.41,0-3.4,3.48a3.23,3.23,0,0,0,.79,2.2q.8.9,4.47,1.82c.73.19,1.09.51,1.09,1s-.62.84-1.74.88H82.93a1.28,1.28,0,0,0-1.28,1.28h0a1.29,1.29,0,0,0,1.28,1.27h3.41a4.76,4.76,0,0,0,3.23-1,3.64,3.64,0,0,0,1.1-2.87,2.91,2.91,0,0,0-.82-2.22A6.74,6.74,0,0,0,87,15.3Z"/><path class="cls-1" d="M90.24,12A1.29,1.29,0,1,1,89,10.73,1.28,1.28,0,0,1,90.24,12Z"/><path class="cls-4" d="M147.76,10.59a1.29,1.29,0,0,0-1.29,1.29v9.49a1.3,1.3,0,1,0,2.59,0V11.88A1.3,1.3,0,0,0,147.76,10.59Z"/><path class="cls-1" d="M147.76,7.14a1.28,1.28,0,0,0-1.29,1.29,1.28,1.28,0,0,0,1.29,1.29,1.28,1.28,0,0,0,1.3-1.29,1.28,1.28,0,0,0-.38-.92A1.25,1.25,0,0,0,147.76,7.14Z"/><path class="cls-4" d="M129,11a1.18,1.18,0,0,0-.31.66,5.76,5.76,0,0,0-3.45-1.06,6,6,0,0,0-6,6,6,6,0,1,0,12.08,0v-5A1,1,0,0,0,131,11,1.61,1.61,0,0,0,129,11Zm-1.48,8.23a3.45,3.45,0,0,1-5.72-2.37A3.38,3.38,0,0,1,123,14a3.31,3.31,0,0,1,2-.85,3.45,3.45,0,0,1,2.51,6Z"/><path class="cls-2" d="M131.33,11.78A1.31,1.31,0,1,1,130,10.47,1.31,1.31,0,0,1,131.33,11.78Z"/><path class="cls-2" d="M126.59,16.59a1.31,1.31,0,1,1-1.31-1.31A1.31,1.31,0,0,1,126.59,16.59Z"/><path class="cls-4" d="M98,13.3h2a1.36,1.36,0,0,0,1.36-1.36,1.24,1.24,0,0,0-1.23-1.23H98a.09.09,0,0,1-.1-.1V5.08a1.41,1.41,0,0,0-1.41-1.41,1.18,1.18,0,0,0-1.18,1.18v11.9A5.85,5.85,0,0,0,97.11,21a6,6,0,0,0,2.76,1.59,1.23,1.23,0,0,0,1.52-1.19,1.43,1.43,0,0,0-1-1.37A3.3,3.3,0,0,1,99,19.28a3.64,3.64,0,0,1-1.09-2.65V13.41A.1.1,0,0,1,98,13.3Z"/><path class="cls-2" d="M100.18,20.08a1.25,1.25,0,0,0-.92.37,1.28,1.28,0,0,0-.38.92,1.3,1.3,0,0,0,1.3,1.3,1.28,1.28,0,0,0,.92-.38,1.25,1.25,0,0,0,.37-.92,1.26,1.26,0,0,0-1.29-1.29Z"/><path class="cls-4" d="M138.4,13.3h2a1.35,1.35,0,0,0,1.35-1.36,1.24,1.24,0,0,0-1.23-1.23H138.4a.1.1,0,0,1-.11-.1V5.08a1.41,1.41,0,0,0-1.41-1.41,1.18,1.18,0,0,0-1.18,1.18v11.9a6.08,6.08,0,0,0,4.53,5.87,1.22,1.22,0,0,0,1.51-1.19,1.42,1.42,0,0,0-1-1.37,3.3,3.3,0,0,1-1.35-.78,3.65,3.65,0,0,1-1.1-2.65V13.41A.11.11,0,0,1,138.4,13.3Z"/><path class="cls-2" d="M140.54,20.08a1.25,1.25,0,0,0-.92.37,1.28,1.28,0,0,0-.38.92,1.3,1.3,0,1,0,2.59,0,1.28,1.28,0,0,0-.38-.92A1.25,1.25,0,0,0,140.54,20.08Z"/><path class="cls-4" d="M116.48,12.37l0,0a6,6,0,0,0-10.31,4.28v4.79a1.25,1.25,0,0,0,1.25,1.25h0a1.34,1.34,0,0,0,1.34-1.35V16.65a3.49,3.49,0,0,1,.89-2.35,3.42,3.42,0,0,1,2.93-1.11,3.36,3.36,0,0,1,2.07,1h0a1.43,1.43,0,0,0,1.93.09A1.27,1.27,0,0,0,116.48,12.37Z"/><path class="cls-1" d="M115.73,12.11a1.3,1.3,0,0,0-1.3,1.3,1.24,1.24,0,0,0,.38.91,1.26,1.26,0,0,0,.92.38,1.24,1.24,0,0,0,.91-.38,1.2,1.2,0,0,0,.38-.91,1.22,1.22,0,0,0-.38-.92A1.24,1.24,0,0,0,115.73,12.11Z"/><rect class="cls-4" x="269.2" y="3.54" width="2.59" height="19.12" rx="1.29"/><path class="cls-2" d="M271.8,4.83a1.31,1.31,0,1,1-1.3-1.31A1.3,1.3,0,0,1,271.8,4.83Z"/><rect class="cls-4" x="58.2" y="3.54" width="2.59" height="19.12" rx="1.29"/><path class="cls-2" d="M60.8,4.83a1.31,1.31,0,0,1-2.61,0,1.31,1.31,0,1,1,2.61,0Z"/><path class="cls-4" d="M229.54,10.59a5.8,5.8,0,0,0-3.45,1.06V4.84a1.29,1.29,0,1,0-2.58,0V21.37a1.29,1.29,0,1,0,2.58,0V16.7a3.53,3.53,0,0,1,.92-2.42,3.47,3.47,0,0,1,5.07,0A3.53,3.53,0,0,1,233,16.7v4.67a1.29,1.29,0,1,0,2.58,0V16.63a6,6,0,0,0-6-6Z"/><path class="cls-2" d="M226.11,4.83a1.31,1.31,0,1,1-1.31-1.31A1.31,1.31,0,0,1,226.11,4.83Z"/><path class="cls-4" d="M219.26,18.9a1.28,1.28,0,0,0-1.78.15v0a3.45,3.45,0,0,1-5.89-2.44,3.45,3.45,0,0,1,5.89-2.44h0a1.33,1.33,0,0,0,1.86,0c.92-.83,0-1.85,0-1.85l0,0A6,6,0,0,0,209,16.63,6,6,0,0,0,219.3,20.9h0S220.32,19.68,219.26,18.9Z"/><path class="cls-1" d="M219.81,13.36a1.31,1.31,0,1,1-1.3-1.3A1.31,1.31,0,0,1,219.81,13.36Z"/><path class="cls-4" d="M202.13,15.21c-1.91-.48-2.77-.71-2.77-1.4s.57-.63,1.23-.63h3.49a1.3,1.3,0,1,0,0-2.59H200.2q-3.45,0-3.45,3.53a3.32,3.32,0,0,0,.8,2.23c.54.62,2,1.23,4.54,1.85.74.19,1.1.52,1.1,1s-.63.84-1.76.89H198a1.3,1.3,0,0,0-1.3,1.3h0a1.31,1.31,0,0,0,1.3,1.29h3.46a4.79,4.79,0,0,0,3.27-1,3.64,3.64,0,0,0,1.12-2.91,3,3,0,0,0-.83-2.25A6.75,6.75,0,0,0,202.13,15.21Z"/><path class="cls-2" d="M205.46,11.88a1.31,1.31,0,1,1-1.31-1.31A1.31,1.31,0,0,1,205.46,11.88Z"/><path class="cls-4" d="M259.81,10.59a6,6,0,0,0-6,6,6,6,0,0,0,12.08,0,6,6,0,0,0-6-6Zm2.44,8.48a3.45,3.45,0,0,1-4.88,0,3.45,3.45,0,0,1,0-4.88,3.45,3.45,0,0,1,4.88,0,3.45,3.45,0,0,1,0,4.88Z"/><circle class="cls-1" cx="259.8" cy="16.59" r="1.31"/><path class="cls-4" d="M244.86,10.59a6,6,0,0,0-6,6,6,6,0,1,0,12.08,0,6,6,0,0,0-6-6Zm2.44,8.48a3.45,3.45,0,0,1-5.89-2.44,3.45,3.45,0,0,1,5.89-2.44,3.45,3.45,0,0,1,0,4.88Z"/><circle class="cls-1" cx="244.86" cy="16.59" r="1.31"/><path class="cls-4" d="M159.89,10.59a6,6,0,0,0-6,6,6,6,0,1,0,12.08,0,6,6,0,0,0-6-6Zm2.44,8.48a3.45,3.45,0,0,1-5.89-2.44,3.45,3.45,0,0,1,3.45-3.45,3.45,3.45,0,0,1,3.45,3.45A3.31,3.31,0,0,1,162.33,19.07Z"/><circle class="cls-1" cx="159.89" cy="16.59" r="1.31"/><path d="M175.8,10.53a6,6,0,0,0-6,6v4.76A1.25,1.25,0,0,0,171,22.56h0a1.34,1.34,0,0,0,1.33-1.33V16.55a3.33,3.33,0,0,1,1.21-2.62,3.29,3.29,0,0,1,1.9-.81,3.41,3.41,0,0,1,3,1.32,3.31,3.31,0,0,1,.72,2.09v4.56a1.47,1.47,0,0,0,1.47,1.47,1.11,1.11,0,0,0,1.11-1.11v-4.9a6,6,0,0,0-6-6Z"/><path class="cls-1" d="M171.07,20a1.28,1.28,0,0,0-1.29,1.28,1.26,1.26,0,0,0,.38.92,1.29,1.29,0,1,0,.91-2.2Z"/><path d="M76.51,10.64h-.06A1.32,1.32,0,0,0,75.12,12v4.6a3.52,3.52,0,0,1-1,2.53,3.29,3.29,0,0,1-2,1,3.53,3.53,0,0,1-3.16-1.37,3.28,3.28,0,0,1-.67-2.05V11.9A1.25,1.25,0,0,0,67,10.64,1.32,1.32,0,0,0,65.67,12v4.69a6,6,0,1,0,12,0V11.82A1.18,1.18,0,0,0,76.51,10.64Z"/><path class="cls-1" d="M77.74,11.87a1.3,1.3,0,1,1-1.3-1.31A1.31,1.31,0,0,1,77.74,11.87Z"/><path d="M110.76,33.49c0,.3-.09.62-.67.62s-.68-.16-.68-.61V30.32a10,10,0,0,1-2.63.91c-.5,0-.62-.49-.62-.73s.24-.46.48-.53a14,14,0,0,0,3-1.2,10.05,10.05,0,0,0,2.24-1.61.66.66,0,0,1,.42-.19.76.76,0,0,1,.73.71.62.62,0,0,1-.28.51,13.34,13.34,0,0,1-2,1.42Z"/><path d="M114.85,30.47a.59.59,0,1,1,0-1.17h5.26c.38,0,.8.12.8.73a4.27,4.27,0,0,1-2,3.25,7.08,7.08,0,0,1-2.79.79.62.62,0,0,1-.51-.21.8.8,0,0,1-.15-.45c0-.46.35-.52.58-.55,1.14-.16,2.51-.35,3.21-1.57a2,2,0,0,0,.27-.67c0-.12,0-.15-.21-.15Zm5.06-3.13a.6.6,0,0,1,0,1.19h-4.46a.52.52,0,0,1-.58-.59c0-.59.43-.6.58-.6Z"/><path d="M123.1,28.54a.56.56,0,0,1-.63-.6.56.56,0,0,1,.63-.62H127c.34,0,.94,0,.94.74a6.35,6.35,0,0,1-1.24,2.75,22.05,22.05,0,0,1,1.91,1.56c.35.32.48.48.48.76a.75.75,0,0,1-.74.72c-.29,0-.43-.17-.65-.41a19,19,0,0,0-1.75-1.71,6.9,6.9,0,0,1-3.08,2.19.69.69,0,0,1-.61-.7c0-.3.11-.36.64-.65a7.46,7.46,0,0,0,3.5-3.93c0-.1-.12-.1-.19-.1Z"/><path d="M133.29,33.45c0,.23,0,.66-.67.66s-.68-.4-.68-.66V27.63c0-.22,0-.66.67-.66s.68.41.68.66v1.31a21.07,21.07,0,0,1,3,1.22c.51.27.66.42.66.73a.75.75,0,0,1-.66.79,1.19,1.19,0,0,1-.64-.25,13.88,13.88,0,0,0-2.39-1.16Z"/><path d="M138.81,27.72c0-.28.09-.63.67-.63s.66.19.66.63v4.63c0,.1,0,.22.19.22a4,4,0,0,0,2.28-1,5.29,5.29,0,0,0,1.13-1.72c.12-.25.25-.34.47-.34s.77.2.77.6a4.88,4.88,0,0,1-2,2.78A7,7,0,0,1,139.74,34c-.72,0-.93-.31-.93-.79Z"/><path d="M146.67,31.21a.6.6,0,0,1-.7-.65c0-.63.43-.67.7-.67h5.68a.6.6,0,0,1,.7.65c0,.65-.45.67-.7.67Z"/><path d="M155.76,30.8c-.19-.09-1-.4-1.22-.47a.53.53,0,0,1-.39-.49c0-.17.09-.66.57-.66a5.51,5.51,0,0,1,1.23.35c1,.39,1.16.52,1.16.87a.65.65,0,0,1-.58.69C156.39,31.09,156.35,31.07,155.76,30.8ZM160.93,29a6.29,6.29,0,0,1-5.71,4.9.65.65,0,0,1-.63-.71.61.61,0,0,1,.6-.61A4.87,4.87,0,0,0,159,30.42a8.91,8.91,0,0,0,.73-1.53c.15-.37.31-.41.56-.41S160.93,28.58,160.93,29Zm-4.47-.29a8.39,8.39,0,0,0-.93-.36c-.4-.14-.69-.24-.69-.62,0-.18.1-.66.56-.66a7.43,7.43,0,0,1,1.59.51c.57.24.81.35.81.72a.66.66,0,0,1-.59.69C157.08,29,157.05,29,156.46,28.74Z"/><path d="M163.46,31.71a.5.5,0,0,1-.55-.55.5.5,0,0,1,.55-.55h3.25v-.69a.2.2,0,0,0-.22-.23h-3.1a.5.5,0,0,1-.56-.54.51.51,0,0,1,.56-.57h3.55c.82,0,.95.47.95,1v3.33c0,.81-.46,1-.95,1h-3.6a.57.57,0,1,1,0-1.14h3.15a.19.19,0,0,0,.22-.21v-.75Z"/><path d="M170.7,27.35a3.49,3.49,0,0,1,1,.43c1.42.74,1.53.94,1.53,1.24s-.27.74-.66.74c-.15,0-.26,0-.6-.27-.49-.34-1.15-.7-1.46-.87s-.47-.25-.47-.58a.76.76,0,0,1,.48-.67Zm6.16,1.37a6.76,6.76,0,0,1-1.52,3,6,6,0,0,1-3.05,1.84,7.22,7.22,0,0,1-1.36.26.67.67,0,0,1-.65-.74c0-.47.29-.57.71-.62a5,5,0,0,0,4.55-3.68c.17-.51.23-.67.59-.67a1,1,0,0,1,.21,0C176.57,28.22,176.86,28.35,176.86,28.72Z"/><path d="M178.78,28.54a.56.56,0,0,1-.63-.6.56.56,0,0,1,.63-.62h3.86c.34,0,.94,0,.94.74a6.35,6.35,0,0,1-1.24,2.75,23.68,23.68,0,0,1,1.91,1.56c.35.32.48.48.48.76a.75.75,0,0,1-.74.72c-.29,0-.44-.17-.65-.41a19,19,0,0,0-1.75-1.71,6.9,6.9,0,0,1-3.08,2.19.7.7,0,0,1-.62-.7c0-.3.12-.36.65-.65a7.46,7.46,0,0,0,3.5-3.93c0-.1-.12-.1-.19-.1Z"/><path d="M191.56,28c.82,0,.84.52.84.76a5.85,5.85,0,0,1-2.09,3.95A7,7,0,0,1,187,34.07a.61.61,0,0,1-.62-.66c0-.43.18-.46.78-.61a4.54,4.54,0,0,0,3.39-2.36,4.41,4.41,0,0,0,.38-1.1c0-.12-.07-.12-.25-.12h-2.2c-.28.36-1.29,1.56-1.88,1.56a.66.66,0,0,1-.64-.64c0-.25,0-.28.55-.67a5.9,5.9,0,0,0,1.5-1.84c.24-.46.34-.65.73-.65s.69.15.69.5a1.27,1.27,0,0,1-.19.56Z"/><path d="M194.4,31.21a.6.6,0,0,1-.7-.65c0-.63.42-.67.7-.67h5.68a.59.59,0,0,1,.69.65c0,.65-.44.67-.69.67Z"/><path d="M203.92,29.49c0,1.72-.08,2.87-.92,3.95-.41.52-.6.52-.73.52a.74.74,0,0,1-.75-.68.67.67,0,0,1,.24-.49c.75-.87.88-1.25.88-3.35V27.77c0-.28.09-.58.63-.58s.65.16.65.58Zm.85-1.82c0-.31.12-.57.63-.57s.64.15.64.57v4.5c0,.11,0,.19.09.19.31,0,1.09-.62,1.45-1.75.13-.4.21-.62.58-.62.15,0,.71.07.71.56a4.07,4.07,0,0,1-.67,1.68,3.74,3.74,0,0,1-2.68,1.68.67.67,0,0,1-.75-.77Z"/><path class="cls-1" d="M115.32,29.83a.76.76,0,1,1-.76-.76A.76.76,0,0,1,115.32,29.83Z"/><path class="cls-1" d="M145.12,30.09a.76.76,0,1,1-.76-.76A.76.76,0,0,1,145.12,30.09Z"/><path class="cls-1" d="M158.05,28.39a.76.76,0,1,1-.76-.76A.76.76,0,0,1,158.05,28.39Z"/><path class="cls-1" d="M176.9,28.72a.76.76,0,1,1-.75-.76A.76.76,0,0,1,176.9,28.72Z"/><path class="cls-1" d="M187.76,33.57a.76.76,0,1,1-.76-.76A.76.76,0,0,1,187.76,33.57Z"/><path class="cls-1" d="M209,30.55a.76.76,0,1,1-.76-.76A.76.76,0,0,1,209,30.55Z"/><path class="cls-1" d="M128.07,27.87a.76.76,0,1,1-.76-.76A.76.76,0,0,1,128.07,27.87Z"/><path class="cls-2" d="M107.27,30.59a.76.76,0,1,1-.76-.76A.76.76,0,0,1,107.27,30.59Z"/><path class="cls-2" d="M120.65,27.87a.76.76,0,1,1-.76-.76A.76.76,0,0,1,120.65,27.87Z"/><path class="cls-2" d="M137,31a.76.76,0,1,1-.76-.76A.76.76,0,0,1,137,31Z"/><path class="cls-2" d="M153.23,30.55a.76.76,0,1,1-.76-.76A.76.76,0,0,1,153.23,30.55Z"/><path class="cls-2" d="M168,31.14a.76.76,0,1,1-.76-.76A.76.76,0,0,1,168,31.14Z"/><path class="cls-2" d="M183.67,28a.76.76,0,1,1-.76-.76A.76.76,0,0,1,183.67,28Z"/><path class="cls-2" d="M201,30.55a.76.76,0,1,1-.76-.76A.76.76,0,0,1,201,30.55Z"/></g></g></svg>