<?xml version="1.0" encoding="UTF-8"?><svg id="a" xmlns="http://www.w3.org/2000/svg" xmlns:xlink="http://www.w3.org/1999/xlink" viewBox="0 0 804.21 359.95"><defs><style>.c{fill:url(#b);}.d{fill:#fff;}.e{isolation:isolate;}</style><linearGradient id="b" x1="93.26" y1="150.73" x2="711.82" y2="150.73" gradientTransform="matrix(1, 0, 0, 1, 0, 0)" gradientUnits="userSpaceOnUse"><stop offset="0" stop-color="#fccd19"/><stop offset=".58" stop-color="#ff6161"/><stop offset="1" stop-color="#e95f91"/></linearGradient></defs><rect class="d" x="372.45" y="-28.11" width="59.31" height="565.84" transform="translate(147.3 656.91) rotate(-90)"/><g class="e"><path d="M151.85,244.91c.42,0,1.05-.03,1.71-.12-.03-.18-.06-.36-.06-.57,0-1.98,1.62-3.6,3.6-3.6s3.57,1.62,3.57,3.6-1.62,3.57-3.57,3.57c-.12,0-.27,0-.39-.03l-.24,.9c-.69,2.94-1.98,7.59-4.5,10.92-2.7,3.6-6.69,6.57-12.06,8.28l-3.27-3.57c5.97-1.41,9.33-3.99,11.76-7.05,1.98-2.49,3.12-5.88,3.54-8.46h-13.98c-1.38,0-2.79,.06-3.57,.12v-4.23c.87,.12,2.58,.24,3.57,.24h13.89Zm6.96-.69c0-.96-.78-1.74-1.71-1.74s-1.74,.78-1.74,1.74,.78,1.71,1.74,1.71,1.71-.78,1.71-1.71Z"/><path d="M188.66,262.55c0,1.17,.06,4.05,.06,4.17h-4.14l.03-1.65h-14.46l.03,1.65h-4.14c.03-.15,.09-2.76,.09-4.2v-14.67c0-.84,0-2.07-.06-2.91,1.23,.03,2.37,.06,3.18,.06h16.5c.75,0,1.89,0,2.97-.06-.06,.9-.06,2.01-.06,2.91v14.7Zm-18.51-13.74v12.45h14.49v-12.45h-14.49Z"/><path d="M206.88,242.6c-.18,.78-.39,1.71-.54,2.46-.15,.9-.39,1.98-.6,3.06,.99-.06,1.89-.12,2.49-.12,3.15,0,5.37,1.41,5.37,5.67,0,3.51-.42,8.25-1.68,10.83-.99,2.07-2.64,2.73-4.89,2.73-1.14,0-2.55-.18-3.54-.42l-.66-3.93c1.14,.33,2.85,.63,3.63,.63,.99,0,1.77-.3,2.22-1.29,.84-1.65,1.23-5.19,1.23-8.13,0-2.37-1.02-2.7-2.91-2.7-.48,0-1.2,.06-2.04,.12-1.14,4.5-3.3,11.49-6.03,15.87l-3.9-1.56c2.91-3.9,4.92-9.84,6-13.89-1.05,.12-1.98,.24-2.55,.33-.84,.09-2.37,.3-3.3,.45l-.33-4.02c1.08,.09,2.07,.03,3.15,0,.93-.03,2.34-.12,3.84-.24,.42-2.28,.66-4.44,.63-6.3l4.41,.45Zm10.26,2.79c1.8,2.55,4.29,8.22,5.19,11.04l-3.75,1.77c-.78-3.3-2.91-8.67-5.04-11.31l3.6-1.5Z"/><path d="M232.38,255.05c2.7-1.95,5.64-2.82,8.73-2.82,5.22,0,8.25,3.21,8.25,6.81,0,5.43-4.29,9.6-16.65,8.52l-1.14-3.9c8.91,1.26,13.62-.93,13.62-4.71,0-1.92-1.83-3.33-4.44-3.33-3.36,0-6.33,1.23-8.19,3.48-.54,.66-.87,1.14-1.11,1.74l-3.45-.87c.57-2.91,1.29-8.7,1.47-12.39l4.02,.54c-.39,1.65-.9,5.22-1.11,6.93Zm.93-12.9c2.82,.87,9.27,2.01,11.88,2.31l-.9,3.66c-3-.39-9.63-1.77-11.94-2.37l.96-3.6Z"/><path d="M282.05,260.99h-11.55v3.99c0,1.86-.39,2.79-1.86,3.3-1.41,.51-3.27,.57-5.82,.57-.24-1.02-.93-2.52-1.47-3.48,1.92,.09,4.14,.09,4.74,.06,.63,0,.78-.12,.78-.54v-3.9h-11.52v-3.3h11.52v-1.95h1.71c.78-.48,1.59-1.05,2.31-1.65h-10.17v-3.09h13.47l.78-.18,2.25,1.74c-1.68,1.83-4.02,3.72-6.45,5.13h11.28v3.3Zm-22.95-8.16h-3.36v-7.29h4.08c-.54-.99-1.35-2.16-2.07-3.09l3.03-1.35c1.05,1.17,2.25,2.76,2.73,3.93l-1.08,.51h4.71c-.42-1.17-1.17-2.61-1.89-3.75l3.15-1.14c.96,1.29,1.95,3.12,2.34,4.32l-1.44,.57h4.53c.99-1.41,2.01-3.15,2.58-4.56l3.87,1.17c-.81,1.17-1.68,2.34-2.52,3.39h3.99v7.29h-3.51v-4.14h-19.14v4.14Z"/><path d="M300.72,245.03c-1.47,2.13-3.72,6.27-5.19,8.88,1.11-.63,2.25-.9,3.39-.9,2.22,0,3.57,1.44,3.69,3.9,.06,1.32-.03,3.72,.15,4.95,.09,1.17,.9,1.62,1.89,1.62,2.55,0,4.17-3.33,5.01-7.02l3.21,2.61c-1.53,5.13-4.29,8.49-8.88,8.49-3.24,0-4.8-1.98-4.92-4.14-.12-1.59-.09-4.02-.18-5.22-.09-1.05-.66-1.65-1.74-1.65-2.04,0-3.69,2.04-4.74,4.47-.81,1.74-1.8,5.04-2.25,6.6l-4.2-1.41c2.19-5.94,8.46-18.42,10.02-21.24,.39-.81,.93-1.77,1.47-3.03l4.23,1.71c-.3,.36-.63,.9-.96,1.38Z"/><path d="M316.45,245.54c2.49-.21,7.41-.66,12.84-1.14,3.06-.24,6.3-.42,8.4-.51l.03,3.84c-1.59,0-4.14,.03-5.73,.39-3.6,.96-6.27,4.8-6.27,8.31,0,4.89,4.56,6.66,9.6,6.9l-1.38,4.11c-6.24-.39-12.12-3.75-12.12-10.2,0-4.29,2.37-7.65,4.38-9.15-2.58,.27-8.82,.93-12.27,1.68l-.39-4.08c1.2-.03,2.34-.09,2.91-.15Zm19.5,9.15l-2.28,1.02c-.75-1.65-1.38-2.82-2.34-4.17l2.22-.93c.72,1.08,1.83,2.88,2.4,4.08Zm3.48-1.47l-2.25,1.08c-.81-1.62-1.5-2.73-2.46-4.05l2.19-1.02c.75,1.05,1.89,2.82,2.52,3.99Z"/><path d="M355.19,247.01c-.33,5.46-1.14,9.81-2.52,13.26,1.32,1.08,2.49,2.16,3.24,3.12l-2.13,2.88c-.63-.84-1.59-1.83-2.67-2.85-1.44,2.31-3.24,4.11-5.46,5.49-.48-.9-1.41-2.16-2.13-2.82,2.01-1.05,3.63-2.73,4.89-4.92-.54-.45-1.08-.84-1.62-1.23l-.24,.93-2.91-1.53c.66-2.46,1.41-5.82,2.13-9.3h-2.34v-3.27h2.97c.39-2.07,.75-4.11,1.02-5.94l3.36,.3c-.3,1.77-.66,3.69-1.05,5.64h2.7l.6-.09,2.16,.33Zm-6.15,3.03c-.45,2.25-.96,4.5-1.44,6.57,.72,.48,1.47,.96,2.22,1.5,.87-2.31,1.44-5.01,1.8-8.07h-2.58Zm22.23,6h-6.6v8.79c0,1.8-.33,2.76-1.5,3.3-1.2,.57-2.82,.69-5.01,.66-.18-.99-.78-2.52-1.29-3.51,1.53,.06,3.12,.09,3.6,.06,.51,0,.66-.12,.66-.54v-8.76h-6.33v-3.36h6.33v-3.48h1.11c.99-1.02,2.04-2.34,2.88-3.6h-9.33v-3.3h11.73l.72-.21,2.34,1.77c-1.59,2.34-3.81,5.13-5.91,7.11v1.71h6.6v3.36Z"/><path d="M398.69,252.53c-1.23,.45-2.85,.84-4.59,1.2,.75,1.59,1.59,3.33,2.46,4.95l-1.77,2.25c-1.65-.3-4.5-.75-6.48-.99l.33-2.85c1.17,.15,2.34,.24,3.15,.33l-1.35-3.09c-3.72,.42-8.55,.51-13.05,.18l-.15-3.42c4.44,.42,8.49,.42,11.85,.06l-.51-1.17-.72-1.68c-2.91,.24-6.63,.24-10.23-.12l-.18-3.39c3.39,.36,6.36,.48,9,.33v-.03c-.54-1.08-.93-1.74-1.44-2.55l4.23-.81c.21,.9,.54,1.92,.93,2.97,2.01-.33,3.93-.78,5.7-1.38l.63,3.33c-1.53,.45-3.15,.87-5.1,1.2l.57,1.29,.69,1.5c2.28-.45,3.99-.96,5.31-1.47l.72,3.36Zm-16.65,5.58c-.39,.9-.72,2.16-.72,2.88,0,1.86,1.32,3.12,5.19,3.12,2.82,0,5.76-.24,7.86-.66l-.12,3.81c-1.65,.27-4.68,.57-7.65,.57-5.55,0-8.97-1.89-8.97-6,0-1.35,.39-2.94,.72-4.05l3.69,.33Z"/><path d="M416.73,261.89c.06-.87,.09-2.25,.12-3.54-2.19,1.2-3.39,2.37-3.39,3.84,0,1.65,1.41,2.1,4.32,2.1,2.52,0,5.82-.33,8.43-.87l-.12,3.87c-1.98,.24-5.61,.48-8.4,.48-4.65,0-8.16-1.11-8.16-4.95s3.6-6.18,6.99-7.92c-.48-.75-1.26-1.02-2.07-1.02-1.68,0-3.51,.96-4.65,2.04-.9,.9-1.74,1.98-2.76,3.27l-3.18-2.37c3.12-2.88,5.22-5.52,6.54-8.16h-.36c-1.2,0-3.39-.06-5.01-.21v-3.48c1.5,.24,3.72,.33,5.22,.33h1.44c.36-1.35,.57-2.55,.6-3.39l3.9,.33c-.15,.72-.36,1.74-.72,2.94,2.79-.15,5.79-.39,8.4-.87l-.03,3.48c-2.85,.42-6.51,.66-9.69,.78-.48,1.05-1.08,2.13-1.71,3,.78-.39,2.37-.6,3.36-.6,1.8,0,3.3,.78,3.96,2.31,1.53-.72,2.79-1.23,4.02-1.77,1.14-.51,2.19-1.02,3.27-1.53l1.5,3.45c-.96,.24-2.52,.84-3.54,1.26-1.32,.51-3,1.17-4.83,2.01,.03,1.65,.09,3.84,.12,5.19h-3.57Z"/><path d="M443.45,248.72c-.72,1.26-1.62,2.52-2.61,3.78v16.29h-3.45v-12.45c-.9,.9-1.8,1.74-2.7,2.43-.27-.78-1.17-2.82-1.71-3.69,2.67-1.86,5.61-4.77,7.35-7.71l3.12,1.35Zm-.51-6.51c-1.98,2.76-5.04,5.7-7.86,7.53-.36-.81-1.23-2.28-1.77-3.03,2.34-1.44,4.98-3.87,6.24-5.88l3.39,1.38Zm18.24,18.81h-4.11v4.26c0,1.65-.3,2.49-1.47,3-1.11,.51-2.61,.51-4.65,.51-.15-.96-.66-2.28-1.11-3.18,1.26,.06,2.67,.06,3.06,.06,.42-.03,.54-.15,.54-.48v-4.17h-6.3c1.2,1.14,2.67,2.7,3.42,3.75l-2.67,1.89c-.66-1.14-2.19-2.91-3.45-4.17l2.22-1.47h-4.2v-3.03h10.98v-1.71h-10.26v-2.91h17.37v2.91h-3.48v1.71h4.08l.03,3.03Zm-1.62-8.97h-14.85v-10.38h14.85v10.38Zm-3.6-7.89h-7.8v1.5h7.8v-1.5Zm0,3.84h-7.8v1.56h7.8v-1.56Z"/><path d="M464.31,266.33c1.86-1.17,3.24-3.09,3.93-5.07l3,1.05c-.81,2.28-2.04,4.5-4.14,5.91l-2.79-1.89Zm27.12-16.38h-25.95v-2.76h6.42c-.18-.63-.48-1.38-.75-2.01l.15-.03h-4.35v-2.76h9.66v-1.59h3.54v1.59h9.69v2.76h-4.23l.45,.09c-.45,.78-.9,1.41-1.26,1.95h6.63v2.76Zm-10.2,15.69c1.11,0,1.29-.33,1.44-2.46,.69,.48,2.1,.96,3.03,1.14-.39,3.33-1.35,4.17-4.14,4.17h-4.83c-3.78,0-4.71-.87-4.71-3.72v-3.15h3.24l-.36-.15,1.23-1.2h-7.5v-9.09h19.89v9.09h-9.75c1.2,.57,2.37,1.26,3.12,1.83l-2.16,2.22c-.9-.81-2.64-1.86-4.23-2.58v3c0,.81,.24,.9,1.59,.9h4.14Zm-9.21-10.98h12.96v-1.29h-12.96v1.29Zm0,3.42h12.96v-1.35h-12.96v1.35Zm2.7-12.93c.3,.69,.57,1.44,.72,1.95l-.39,.09h6.66l-.42-.09c.27-.57,.63-1.32,.87-1.95h-7.44Zm12.87,15.75c1.83,1.53,3.99,3.72,4.89,5.43l-2.94,1.71c-.84-1.59-2.88-3.96-4.71-5.61l2.76-1.53Z"/><path d="M503.04,243.32c-.24,.6-.6,2.1-.72,2.64-.42,1.98-1.44,7.92-1.44,10.89,0,.57,.03,1.29,.12,1.92,.42-1.05,.9-2.04,1.32-3l1.86,1.44c-.84,2.49-1.83,5.7-2.13,7.29-.09,.42-.18,1.08-.18,1.38,.03,.33,.03,.81,.06,1.23l-3.42,.24c-.6-2.07-1.17-5.7-1.17-9.72,0-4.47,.9-9.48,1.23-11.76,.12-.84,.3-1.98,.3-2.91l4.17,.36Zm6.96,14.67c-.24,.96-.36,1.68-.36,2.49,0,1.32,1.14,2.1,4.14,2.1,2.67,0,4.86-.24,7.44-.78l.09,4.02c-1.92,.36-4.32,.6-7.68,.6-5.13,0-7.56-1.86-7.56-4.89,0-1.23,.21-2.49,.51-3.87l3.42,.33Zm10.38-12.72v3.84c-3.66,.33-9.03,.33-12.75,0l-.03-3.84c3.66,.51,9.57,.39,12.78,0Z"/><path d="M533.76,242.51c-.21,1.26-.36,2.76-.39,3.96-.15,3.18-.36,9.84-.36,13.53,0,3,1.8,3.96,4.08,3.96,4.92,0,8.04-2.82,10.17-6.06l2.7,3.33c-1.92,2.82-6.12,6.78-12.9,6.78-4.86,0-8.01-2.13-8.01-7.2,0-3.99,.3-11.79,.3-14.34,0-1.41-.12-2.85-.39-4.02l4.8,.06Z"/><path d="M576.66,266.35c-1.68-1.68-3.93-3.45-6.57-4.65,.03,.39,.03,.72,.03,1.02,0,2.61-1.35,5.13-6.33,5.13-4.23,0-7.71-1.38-7.71-5.43,0-3.09,2.64-5.55,8.1-5.55,.6,0,1.2,.03,1.77,.09-.09-2.31-.21-4.86-.21-6.42,0-1.8-.03-3.57-.06-4.83-.03-1.47-.12-2.73-.3-3.48h4.47c-.12,.87-.21,2.31-.27,3.48v2.16c2.34-.06,5.82-.18,8.28-.45l.15,3.54c-2.49,.24-6.03,.36-8.43,.42,.06,1.8,.18,4.14,.33,6.33,3.78,1.14,6.99,3.18,9.03,5.1l-2.28,3.54Zm-10.59-5.94c-.78-.12-1.62-.21-2.46-.21-2.31,0-3.69,.78-3.69,2.04,0,1.47,1.5,2.01,3.57,2.01,1.92,0,2.61-.87,2.61-2.82,0-.27,0-.63-.03-1.02Z"/><path d="M597.47,252.8c-3.27,0-6.21,.99-7.74,1.44-.87,.27-2.01,.72-2.88,1.02l-1.11-4.23c.99-.09,2.28-.3,3.24-.51,2.19-.48,5.52-1.35,8.97-1.35,4.71,0,8.01,2.67,8.01,7.32,0,6.36-5.88,10.32-14.13,11.46l-2.16-3.72c7.38-.84,12.09-3.24,12.09-7.89,0-1.95-1.5-3.57-4.29-3.54Zm6-9.39l-.6,3.66c-3.48-.24-9.93-.81-13.35-1.41l.6-3.6c3.45,.75,10.2,1.35,13.35,1.35Z"/><path d="M638.47,254.12v1.38h-25.56v-1.38h25.56Z"/><path d="M651.91,263.62c0,2.67-2.16,4.86-4.86,4.86s-4.83-2.19-4.83-4.86,2.19-4.86,4.83-4.86,4.86,2.19,4.86,4.86Zm-2.16,0c0-1.5-1.2-2.7-2.7-2.7s-2.67,1.2-2.67,2.7,1.23,2.67,2.67,2.67,2.7-1.17,2.7-2.67Z"/></g><rect class="d" x="334.99" y="-212.41" width="134.22" height="710.02" transform="translate(259.5 544.7) rotate(-90)"/><g><g><path d="M93.26,103.69h16c5.39,0,9.81,.48,13.27,1.45,3.46,.97,6.18,2.48,8.17,4.55,1.99,2.07,3.38,4.72,4.15,7.95,.78,3.24,1.16,7.13,1.16,11.67v25.93c0,2.93-.1,5.64-.31,8.13-.21,2.49-.63,4.75-1.27,6.79-.64,2.04-1.56,3.84-2.75,5.41-1.19,1.57-2.76,2.89-4.72,3.96-1.96,1.07-4.37,1.88-7.21,2.44-2.84,.56-6.23,.83-10.15,.83h-16.35V103.69Zm16.35,67.9c1.9,0,3.52-.04,4.83-.13s2.4-.37,3.23-.86,1.44-1.23,1.8-2.24c.37-1.01,.55-2.45,.55-4.33v-42.58c0-1.29-.18-2.36-.55-3.21-.37-.85-.96-1.52-1.78-2-.82-.48-1.87-.82-3.14-1.01-1.27-.19-2.83-.29-4.68-.29h-.62v56.65h.35Z"/><path d="M142.32,106.28h14.81v13.84h-14.81v-13.84Zm0,18.85h14.81v57.66h-14.81v-57.66Z"/><path d="M203.99,124.13l-1.23,10.59c-2.9,0-5,.64-6.28,1.93,1.23,2.2,1.85,5.52,1.85,9.98,0,2.61-.39,5.08-1.16,7.43-.78,2.34-1.89,4.42-3.34,6.24-1.45,1.82-3.31,3.25-5.58,4.31-2.27,1.05-4.78,1.58-7.54,1.58-1.2,0-2.78-.22-4.75-.66l-.22,.48c-.18,.35-.35,.73-.53,1.12s-.26,.65-.26,.77c0,.67,.57,1.19,1.71,1.56,1.14,.37,2.89,.73,5.23,1.08,.23,.03,.62,.09,1.14,.18,2.11,.29,3.56,.51,4.35,.66,.79,.15,2.18,.44,4.15,.88s3.42,.92,4.33,1.43c.91,.51,1.97,1.18,3.19,2,1.22,.82,2.08,1.81,2.59,2.97,.51,1.16,.77,2.47,.77,3.93,0,2.43-.36,4.56-1.08,6.39-.72,1.83-1.67,3.3-2.86,4.39s-2.66,1.98-4.42,2.66c-1.76,.67-3.54,1.14-5.36,1.38-1.82,.25-3.84,.37-6.06,.37-14.09,0-21.14-3.44-21.14-10.33,0-2.02,.56-4.04,1.67-6.04,1.11-2.01,2.56-3.65,4.35-4.94-1.2-.62-2.36-1.34-3.47-2.18-1.11-.83-1.67-1.63-1.67-2.4,0-1.67,1.95-4.98,5.84-9.93-2.99-5.45-4.48-10.93-4.48-16.44,0-2.81,.33-5.46,.99-7.93,.66-2.48,1.66-4.74,3.01-6.79,1.35-2.05,3.17-3.68,5.47-4.88,2.3-1.2,4.96-1.8,7.98-1.8,4.51,0,7.91,1.22,10.2,3.65,2.14-2.43,5.73-3.65,10.77-3.65h1.85Zm-28.78,55.2c-1.32,2.08-1.98,3.91-1.98,5.49,0,1.73,3.25,2.59,9.76,2.59h.26c3.34,.03,5.01-.97,5.01-2.99,0-.7-.19-1.34-.57-1.91-.38-.57-.94-1.03-1.69-1.38s-1.49-.64-2.22-.88c-.73-.23-1.63-.41-2.68-.53-1.05-.12-1.9-.2-2.53-.26-.63-.06-1.4-.1-2.31-.13h-1.05Zm5.62-24.3c2.4,0,3.6-3.4,3.6-10.2s-1.13-10.46-3.38-10.46c-.56,0-1.05,.15-1.47,.44-.42,.29-.76,.74-1.01,1.34-.25,.6-.45,1.22-.62,1.85-.16,.63-.28,1.42-.35,2.37-.07,.95-.12,1.77-.13,2.46-.02,.69-.02,1.55-.02,2.57,0,6.42,1.13,9.62,3.38,9.62Z"/><path d="M207.39,106.28h14.81v13.84h-14.81v-13.84Zm0,18.85h14.81v57.66h-14.81v-57.66Z"/><path d="M230.88,135.02h-4.22v-9.89h4.22v-18.54h14.81v18.54h7.12v9.89h-7.12v31.64c0,1.58,.29,2.76,.88,3.54,.59,.78,1.63,1.16,3.12,1.16,1.7,0,3.13-.09,4.31-.26l-.88,11.47c-1.93,.59-4.76,.88-8.48,.88-1.73,0-3.29-.21-4.68-.62-1.39-.41-2.56-.96-3.52-1.65-.95-.69-1.77-1.56-2.46-2.61-.69-1.05-1.23-2.13-1.63-3.23s-.7-2.38-.92-3.85c-.22-1.46-.37-2.83-.44-4.09-.07-1.26-.11-2.7-.11-4.31v-28.08Z"/><path d="M281.03,176.86c-.85,2.67-2.24,4.53-4.17,5.6s-4.34,1.6-7.21,1.6c-2.11,0-3.96-.41-5.54-1.23s-2.82-1.93-3.71-3.32c-.89-1.39-1.55-2.89-1.98-4.48-.42-1.6-.64-3.27-.64-5.03,0-1.99,.2-3.84,.62-5.54,.41-1.7,.93-3.2,1.56-4.5,.63-1.3,1.51-2.56,2.64-3.76,1.13-1.2,2.23-2.22,3.3-3.05,1.07-.83,2.44-1.7,4.11-2.59,1.67-.89,3.16-1.64,4.48-2.24,1.32-.6,2.97-1.31,4.97-2.13v-4.83c0-2.02-.25-3.53-.75-4.53-.5-1-1.35-1.49-2.55-1.49-.82,0-1.49,.17-2,.51-.51,.34-.87,.84-1.08,1.52-.21,.67-.34,1.28-.4,1.82-.06,.54-.09,1.27-.09,2.18v3.25h-14.37c0-6.59,1.65-11.65,4.97-15.18,3.31-3.53,8.11-5.3,14.41-5.3,4.39,0,8.25,1.6,11.56,4.79,3.31,3.19,4.97,6.99,4.97,11.38v27.25c0,4.72,.63,9.8,1.89,15.25h-13.54l-1.45-5.93Zm-1.58-21.14c-4.83,3.9-7.25,8.2-7.25,12.92,0,1.17,.23,2.18,.68,3.01,.45,.83,1.22,1.25,2.31,1.25,.62,0,1.22-.2,1.82-.59,.6-.4,1.03-.74,1.3-1.03,.26-.29,.66-.78,1.19-1.45l-.04-14.11Z"/><path d="M301.06,103.69h14.81v79.1h-14.81V103.69Z"/><path d="M336.53,106.28h14.81v13.84h-14.81v-13.84Zm0,18.85h14.81v57.66h-14.81v-57.66Z"/><path d="M357.9,103.69h14.81v79.1h-14.81V103.69Z"/><path d="M379.28,103.69h14.81v79.1h-14.81V103.69Z"/><path d="M400.43,125.14h14.81v42.93c0,3.22,.67,4.83,2.02,4.83s2.86-1.08,4.61-3.25v-44.52h14.81v57.66h-14.81v-4.97c-1.49,1.82-3.24,3.31-5.23,4.48-1.99,1.17-4.01,1.76-6.06,1.76-3.02,0-5.46-1.28-7.34-3.85-1.88-2.56-2.81-5.41-2.81-8.55v-46.54Z"/><path d="M453.48,164.91l.7,2.07c.23,.67,.52,1.38,.86,2.11,.34,.73,.74,1.41,1.21,2.02,.47,.62,1,1.12,1.58,1.52,.59,.4,1.26,.59,2.02,.59,1.85,0,2.77-1.08,2.77-3.25,0-1.14-.3-2.24-.9-3.3s-1.35-2.07-2.24-3.03-1.85-1.88-2.88-2.75c-1.03-.86-1.95-1.66-2.77-2.4l-2.42-2.07c-1.58-1.35-3-2.68-4.24-4s-2.3-2.66-3.16-4.02-1.52-2.77-1.98-4.22-.68-2.98-.68-4.59c0-2.55,.52-4.78,1.56-6.7,1.04-1.92,2.42-3.53,4.13-4.83,1.71-1.3,3.69-2.28,5.93-2.92,2.24-.64,4.55-.97,6.92-.97,2.23,0,4.28,.45,6.17,1.36,1.89,.91,3.59,2.11,5.1,3.6s2.81,3.21,3.89,5.14c1.08,1.93,1.92,3.91,2.5,5.93l-10.63,3.65-.88-2.15c-.76-1.85-1.68-3.37-2.75-4.57-1.07-1.2-2.35-1.87-3.84-2.02-1.03,0-1.82,.37-2.4,1.1-.57,.73-.86,1.57-.86,2.5,0,1.32,.71,2.76,2.13,4.33,1.42,1.57,3.38,3.41,5.87,5.52l2.72,2.42c1.38,1.23,2.69,2.51,3.93,3.85,1.25,1.33,2.34,2.72,3.3,4.17s1.71,2.93,2.26,4.44c.56,1.51,.83,3.05,.83,4.64,0,2.29-.44,4.41-1.32,6.37-.88,1.96-2.08,3.65-3.6,5.08-1.52,1.42-3.3,2.53-5.34,3.34s-4.2,1.21-6.48,1.21-4.32-.37-6.28-1.1c-1.96-.73-3.74-1.76-5.32-3.1-1.58-1.33-2.95-2.92-4.11-4.77s-2.04-3.9-2.66-6.15l11.34-4.04Z"/><path d="M483.8,135.02h-4.22v-9.89h4.22v-18.54h14.81v18.54h7.12v9.89h-7.12v31.64c0,1.58,.29,2.76,.88,3.54,.59,.78,1.63,1.16,3.12,1.16,1.7,0,3.13-.09,4.31-.26l-.88,11.47c-1.93,.59-4.76,.88-8.48,.88-1.73,0-3.29-.21-4.68-.62-1.39-.41-2.56-.96-3.52-1.65-.95-.69-1.77-1.56-2.46-2.61-.69-1.05-1.23-2.13-1.63-3.23s-.7-2.38-.92-3.85c-.22-1.46-.37-2.83-.44-4.09-.07-1.26-.11-2.7-.11-4.31v-28.08Z"/><path d="M511.44,125.14h14.72v4.97c2.26-3.66,4.89-5.49,7.91-5.49,.85,0,2.18,.15,4,.44l-.88,12.48c-2.7-.29-4.32-.44-4.88-.44-2.02,0-3.55,.62-4.59,1.87-1.04,1.25-1.56,3.03-1.56,5.34v38.5h-14.72v-57.66Z"/><path d="M563.95,176.86c-.85,2.67-2.24,4.53-4.17,5.6s-4.34,1.6-7.21,1.6c-2.11,0-3.96-.41-5.54-1.23s-2.82-1.93-3.71-3.32c-.89-1.39-1.55-2.89-1.98-4.48-.42-1.6-.64-3.27-.64-5.03,0-1.99,.2-3.84,.62-5.54,.41-1.7,.93-3.2,1.56-4.5,.63-1.3,1.51-2.56,2.64-3.76,1.13-1.2,2.23-2.22,3.3-3.05s2.44-1.7,4.11-2.59c1.67-.89,3.16-1.64,4.48-2.24,1.32-.6,2.97-1.31,4.97-2.13v-4.83c0-2.02-.25-3.53-.75-4.53-.5-1-1.35-1.49-2.55-1.49-.82,0-1.49,.17-2,.51-.51,.34-.87,.84-1.08,1.52-.21,.67-.34,1.28-.4,1.82-.06,.54-.09,1.27-.09,2.18v3.25h-14.37c0-6.59,1.65-11.65,4.97-15.18,3.31-3.53,8.11-5.3,14.41-5.3,4.39,0,8.25,1.6,11.56,4.79,3.31,3.19,4.97,6.99,4.97,11.38v27.25c0,4.72,.63,9.8,1.89,15.25h-13.54l-1.45-5.93Zm-1.58-21.14c-4.83,3.9-7.25,8.2-7.25,12.92,0,1.17,.23,2.18,.68,3.01s1.22,1.25,2.31,1.25c.62,0,1.22-.2,1.82-.59s1.03-.74,1.3-1.03c.26-.29,.66-.78,1.19-1.45l-.04-14.11Z"/><path d="M585.31,135.02h-4.22v-9.89h4.22v-18.54h14.81v18.54h7.12v9.89h-7.12v31.64c0,1.58,.29,2.76,.88,3.54,.59,.78,1.63,1.16,3.12,1.16,1.7,0,3.13-.09,4.31-.26l-.88,11.47c-1.93,.59-4.76,.88-8.48,.88-1.73,0-3.29-.21-4.68-.62s-2.56-.96-3.52-1.65c-.95-.69-1.77-1.56-2.46-2.61s-1.23-2.13-1.63-3.23-.7-2.38-.92-3.85c-.22-1.46-.37-2.83-.44-4.09-.07-1.26-.11-2.7-.11-4.31v-28.08Z"/><path d="M612.98,106.28h14.81v13.84h-14.81v-13.84Zm0,18.85h14.81v57.66h-14.81v-57.66Z"/><path d="M633.81,143.5c0-3.05,.35-5.76,1.05-8.15,.7-2.39,1.79-4.41,3.25-6.06,1.46-1.65,3.32-2.92,5.56-3.8s4.9-1.32,7.98-1.32,5.74,.43,8,1.3c2.26,.86,4.13,2.12,5.62,3.78,1.49,1.66,2.61,3.68,3.34,6.06,.73,2.39,1.1,5.12,1.1,8.2v24.39c0,2.4-.48,4.59-1.45,6.57s-2.27,3.68-3.91,5.1c-1.64,1.42-3.55,2.53-5.73,3.32-2.18,.79-4.5,1.19-6.97,1.19-2.31,0-4.55-.37-6.7-1.1s-4.05-1.79-5.69-3.19c-1.64-1.39-2.96-3.09-3.96-5.1-1-2.01-1.49-4.27-1.49-6.79v-24.39Zm21.23-3.82c0-2.9-1.13-4.35-3.38-4.35-2.02,0-3.03,1.45-3.03,4.35v28.39c0,.53,.02,1.08,.07,1.65s.16,1.09,.35,1.56c.19,.47,.49,.86,.9,1.16s.98,.46,1.71,.46c2.26,0,3.38-1.61,3.38-4.83v-28.39Z"/><path d="M675.61,125.14h14.81v4.35c1.41-1.61,3.1-2.9,5.08-3.87s4.04-1.45,6.17-1.45c1.61,0,3.05,.38,4.31,1.14,1.26,.76,2.32,1.74,3.19,2.92,.86,1.19,1.52,2.52,1.98,4,.45,1.48,.68,2.92,.68,4.33v46.23h-14.81v-43.64c0-2.55-.82-3.82-2.46-3.82-.35,0-.72,.09-1.12,.26s-.74,.4-1.03,.66l-.92,.88c-.18,.18-.31,.32-.4,.42-.09,.1-.31,.36-.66,.77v44.47h-14.81v-57.66Z"/></g><g><path class="c" d="M93.26,103.69h16c5.39,0,9.81,.48,13.27,1.45,3.46,.97,6.18,2.48,8.17,4.55,1.99,2.07,3.38,4.72,4.15,7.95,.78,3.24,1.16,7.13,1.16,11.67v25.93c0,2.93-.1,5.64-.31,8.13-.21,2.49-.63,4.75-1.27,6.79-.64,2.04-1.56,3.84-2.75,5.41-1.19,1.57-2.76,2.89-4.72,3.96-1.96,1.07-4.37,1.88-7.21,2.44-2.84,.56-6.23,.83-10.15,.83h-16.35V103.69Zm16.35,67.9c1.9,0,3.52-.04,4.83-.13s2.4-.37,3.23-.86,1.44-1.23,1.8-2.24c.37-1.01,.55-2.45,.55-4.33v-42.58c0-1.29-.18-2.36-.55-3.21-.37-.85-.96-1.52-1.78-2-.82-.48-1.87-.82-3.14-1.01-1.27-.19-2.83-.29-4.68-.29h-.62v56.65h.35Z"/><path class="c" d="M142.32,106.28h14.81v13.84h-14.81v-13.84Zm0,18.85h14.81v57.66h-14.81v-57.66Z"/><path class="c" d="M203.99,124.13l-1.23,10.59c-2.9,0-5,.64-6.28,1.93,1.23,2.2,1.85,5.52,1.85,9.98,0,2.61-.39,5.08-1.16,7.43-.78,2.34-1.89,4.42-3.34,6.24-1.45,1.82-3.31,3.25-5.58,4.31-2.27,1.05-4.78,1.58-7.54,1.58-1.2,0-2.78-.22-4.75-.66l-.22,.48c-.18,.35-.35,.73-.53,1.12s-.26,.65-.26,.77c0,.67,.57,1.19,1.71,1.56,1.14,.37,2.89,.73,5.23,1.08,.23,.03,.62,.09,1.14,.18,2.11,.29,3.56,.51,4.35,.66,.79,.15,2.18,.44,4.15,.88s3.42,.92,4.33,1.43c.91,.51,1.97,1.18,3.19,2,1.22,.82,2.08,1.81,2.59,2.97,.51,1.16,.77,2.47,.77,3.93,0,2.43-.36,4.56-1.08,6.39-.72,1.83-1.67,3.3-2.86,4.39s-2.66,1.98-4.42,2.66c-1.76,.67-3.54,1.14-5.36,1.38-1.82,.25-3.84,.37-6.06,.37-14.09,0-21.14-3.44-21.14-10.33,0-2.02,.56-4.04,1.67-6.04,1.11-2.01,2.56-3.65,4.35-4.94-1.2-.62-2.36-1.34-3.47-2.18-1.11-.83-1.67-1.63-1.67-2.4,0-1.67,1.95-4.98,5.84-9.93-2.99-5.45-4.48-10.93-4.48-16.44,0-2.81,.33-5.46,.99-7.93,.66-2.48,1.66-4.74,3.01-6.79,1.35-2.05,3.17-3.68,5.47-4.88,2.3-1.2,4.96-1.8,7.98-1.8,4.51,0,7.91,1.22,10.2,3.65,2.14-2.43,5.73-3.65,10.77-3.65h1.85Zm-28.78,55.2c-1.32,2.08-1.98,3.91-1.98,5.49,0,1.73,3.25,2.59,9.76,2.59h.26c3.34,.03,5.01-.97,5.01-2.99,0-.7-.19-1.34-.57-1.91-.38-.57-.94-1.03-1.69-1.38s-1.49-.64-2.22-.88c-.73-.23-1.63-.41-2.68-.53-1.05-.12-1.9-.2-2.53-.26-.63-.06-1.4-.1-2.31-.13h-1.05Zm5.62-24.3c2.4,0,3.6-3.4,3.6-10.2s-1.13-10.46-3.38-10.46c-.56,0-1.05,.15-1.47,.44-.42,.29-.76,.74-1.01,1.34-.25,.6-.45,1.22-.62,1.85-.16,.63-.28,1.42-.35,2.37-.07,.95-.12,1.77-.13,2.46-.02,.69-.02,1.55-.02,2.57,0,6.42,1.13,9.62,3.38,9.62Z"/><path class="c" d="M207.39,106.28h14.81v13.84h-14.81v-13.84Zm0,18.85h14.81v57.66h-14.81v-57.66Z"/><path class="c" d="M230.88,135.02h-4.22v-9.89h4.22v-18.54h14.81v18.54h7.12v9.89h-7.12v31.64c0,1.58,.29,2.76,.88,3.54,.59,.78,1.63,1.16,3.12,1.16,1.7,0,3.13-.09,4.31-.26l-.88,11.47c-1.93,.59-4.76,.88-8.48,.88-1.73,0-3.29-.21-4.68-.62-1.39-.41-2.56-.96-3.52-1.65-.95-.69-1.77-1.56-2.46-2.61-.69-1.05-1.23-2.13-1.63-3.23s-.7-2.38-.92-3.85c-.22-1.46-.37-2.83-.44-4.09-.07-1.26-.11-2.7-.11-4.31v-28.08Z"/><path class="c" d="M281.03,176.86c-.85,2.67-2.24,4.53-4.17,5.6s-4.34,1.6-7.21,1.6c-2.11,0-3.96-.41-5.54-1.23s-2.82-1.93-3.71-3.32c-.89-1.39-1.55-2.89-1.98-4.48-.42-1.6-.64-3.27-.64-5.03,0-1.99,.2-3.84,.62-5.54,.41-1.7,.93-3.2,1.56-4.5,.63-1.3,1.51-2.56,2.64-3.76,1.13-1.2,2.23-2.22,3.3-3.05,1.07-.83,2.44-1.7,4.11-2.59,1.67-.89,3.16-1.64,4.48-2.24,1.32-.6,2.97-1.31,4.97-2.13v-4.83c0-2.02-.25-3.53-.75-4.53-.5-1-1.35-1.49-2.55-1.49-.82,0-1.49,.17-2,.51-.51,.34-.87,.84-1.08,1.52-.21,.67-.34,1.28-.4,1.82-.06,.54-.09,1.27-.09,2.18v3.25h-14.37c0-6.59,1.65-11.65,4.97-15.18,3.31-3.53,8.11-5.3,14.41-5.3,4.39,0,8.25,1.6,11.56,4.79,3.31,3.19,4.97,6.99,4.97,11.38v27.25c0,4.72,.63,9.8,1.89,15.25h-13.54l-1.45-5.93Zm-1.58-21.14c-4.83,3.9-7.25,8.2-7.25,12.92,0,1.17,.23,2.18,.68,3.01,.45,.83,1.22,1.25,2.31,1.25,.62,0,1.22-.2,1.82-.59,.6-.4,1.03-.74,1.3-1.03,.26-.29,.66-.78,1.19-1.45l-.04-14.11Z"/><path class="c" d="M301.06,103.69h14.81v79.1h-14.81V103.69Z"/><path class="c" d="M336.53,106.28h14.81v13.84h-14.81v-13.84Zm0,18.85h14.81v57.66h-14.81v-57.66Z"/><path class="c" d="M357.9,103.69h14.81v79.1h-14.81V103.69Z"/><path class="c" d="M379.28,103.69h14.81v79.1h-14.81V103.69Z"/><path class="c" d="M400.43,125.14h14.81v42.93c0,3.22,.67,4.83,2.02,4.83s2.86-1.08,4.61-3.25v-44.52h14.81v57.66h-14.81v-4.97c-1.49,1.82-3.24,3.31-5.23,4.48-1.99,1.17-4.01,1.76-6.06,1.76-3.02,0-5.46-1.28-7.34-3.85-1.88-2.56-2.81-5.41-2.81-8.55v-46.54Z"/><path class="c" d="M453.48,164.91l.7,2.07c.23,.67,.52,1.38,.86,2.11,.34,.73,.74,1.41,1.21,2.02,.47,.62,1,1.12,1.58,1.52,.59,.4,1.26,.59,2.02,.59,1.85,0,2.77-1.08,2.77-3.25,0-1.14-.3-2.24-.9-3.3s-1.35-2.07-2.24-3.03-1.85-1.88-2.88-2.75c-1.03-.86-1.95-1.66-2.77-2.4l-2.42-2.07c-1.58-1.35-3-2.68-4.24-4s-2.3-2.66-3.16-4.02-1.52-2.77-1.98-4.22-.68-2.98-.68-4.59c0-2.55,.52-4.78,1.56-6.7,1.04-1.92,2.42-3.53,4.13-4.83,1.71-1.3,3.69-2.28,5.93-2.92,2.24-.64,4.55-.97,6.92-.97,2.23,0,4.28,.45,6.17,1.36,1.89,.91,3.59,2.11,5.1,3.6s2.81,3.21,3.89,5.14c1.08,1.93,1.92,3.91,2.5,5.93l-10.63,3.65-.88-2.15c-.76-1.85-1.68-3.37-2.75-4.57-1.07-1.2-2.35-1.87-3.84-2.02-1.03,0-1.82,.37-2.4,1.1-.57,.73-.86,1.57-.86,2.5,0,1.32,.71,2.76,2.13,4.33,1.42,1.57,3.38,3.41,5.87,5.52l2.72,2.42c1.38,1.23,2.69,2.51,3.93,3.85,1.25,1.33,2.34,2.72,3.3,4.17s1.71,2.93,2.26,4.44c.56,1.51,.83,3.05,.83,4.64,0,2.29-.44,4.41-1.32,6.37-.88,1.96-2.08,3.65-3.6,5.08-1.52,1.42-3.3,2.53-5.34,3.34s-4.2,1.21-6.48,1.21-4.32-.37-6.28-1.1c-1.96-.73-3.74-1.76-5.32-3.1-1.58-1.33-2.95-2.92-4.11-4.77s-2.04-3.9-2.66-6.15l11.34-4.04Z"/><path class="c" d="M483.8,135.02h-4.22v-9.89h4.22v-18.54h14.81v18.54h7.12v9.89h-7.12v31.64c0,1.58,.29,2.76,.88,3.54,.59,.78,1.63,1.16,3.12,1.16,1.7,0,3.13-.09,4.31-.26l-.88,11.47c-1.93,.59-4.76,.88-8.48,.88-1.73,0-3.29-.21-4.68-.62-1.39-.41-2.56-.96-3.52-1.65-.95-.69-1.77-1.56-2.46-2.61-.69-1.05-1.23-2.13-1.63-3.23s-.7-2.38-.92-3.85c-.22-1.46-.37-2.83-.44-4.09-.07-1.26-.11-2.7-.11-4.31v-28.08Z"/><path class="c" d="M511.44,125.14h14.72v4.97c2.26-3.66,4.89-5.49,7.91-5.49,.85,0,2.18,.15,4,.44l-.88,12.48c-2.7-.29-4.32-.44-4.88-.44-2.02,0-3.55,.62-4.59,1.87-1.04,1.25-1.56,3.03-1.56,5.34v38.5h-14.72v-57.66Z"/><path class="c" d="M563.95,176.86c-.85,2.67-2.24,4.53-4.17,5.6s-4.34,1.6-7.21,1.6c-2.11,0-3.96-.41-5.54-1.23s-2.82-1.93-3.71-3.32c-.89-1.39-1.55-2.89-1.98-4.48-.42-1.6-.64-3.27-.64-5.03,0-1.99,.2-3.84,.62-5.54,.41-1.7,.93-3.2,1.56-4.5,.63-1.3,1.51-2.56,2.64-3.76,1.13-1.2,2.23-2.22,3.3-3.05s2.44-1.7,4.11-2.59c1.67-.89,3.16-1.64,4.48-2.24,1.32-.6,2.97-1.31,4.97-2.13v-4.83c0-2.02-.25-3.53-.75-4.53-.5-1-1.35-1.49-2.55-1.49-.82,0-1.49,.17-2,.51-.51,.34-.87,.84-1.08,1.52-.21,.67-.34,1.28-.4,1.82-.06,.54-.09,1.27-.09,2.18v3.25h-14.37c0-6.59,1.65-11.65,4.97-15.18,3.31-3.53,8.11-5.3,14.41-5.3,4.39,0,8.25,1.6,11.56,4.79,3.31,3.19,4.97,6.99,4.97,11.38v27.25c0,4.72,.63,9.8,1.89,15.25h-13.54l-1.45-5.93Zm-1.58-21.14c-4.83,3.9-7.25,8.2-7.25,12.92,0,1.17,.23,2.18,.68,3.01s1.22,1.25,2.31,1.25c.62,0,1.22-.2,1.82-.59s1.03-.74,1.3-1.03c.26-.29,.66-.78,1.19-1.45l-.04-14.11Z"/><path class="c" d="M585.31,135.02h-4.22v-9.89h4.22v-18.54h14.81v18.54h7.12v9.89h-7.12v31.64c0,1.58,.29,2.76,.88,3.54,.59,.78,1.63,1.16,3.12,1.16,1.7,0,3.13-.09,4.31-.26l-.88,11.47c-1.93,.59-4.76,.88-8.48,.88-1.73,0-3.29-.21-4.68-.62s-2.56-.96-3.52-1.65c-.95-.69-1.77-1.56-2.46-2.61s-1.23-2.13-1.63-3.23-.7-2.38-.92-3.85c-.22-1.46-.37-2.83-.44-4.09-.07-1.26-.11-2.7-.11-4.31v-28.08Z"/><path class="c" d="M612.98,106.28h14.81v13.84h-14.81v-13.84Zm0,18.85h14.81v57.66h-14.81v-57.66Z"/><path class="c" d="M633.81,143.5c0-3.05,.35-5.76,1.05-8.15,.7-2.39,1.79-4.41,3.25-6.06,1.46-1.65,3.32-2.92,5.56-3.8s4.9-1.32,7.98-1.32,5.74,.43,8,1.3c2.26,.86,4.13,2.12,5.62,3.78,1.49,1.66,2.61,3.68,3.34,6.06,.73,2.39,1.1,5.12,1.1,8.2v24.39c0,2.4-.48,4.59-1.45,6.57s-2.27,3.68-3.91,5.1c-1.64,1.42-3.55,2.53-5.73,3.32-2.18,.79-4.5,1.19-6.97,1.19-2.31,0-4.55-.37-6.7-1.1s-4.05-1.79-5.69-3.19c-1.64-1.39-2.96-3.09-3.96-5.1-1-2.01-1.49-4.27-1.49-6.79v-24.39Zm21.23-3.82c0-2.9-1.13-4.35-3.38-4.35-2.02,0-3.03,1.45-3.03,4.35v28.39c0,.53,.02,1.08,.07,1.65s.16,1.09,.35,1.56c.19,.47,.49,.86,.9,1.16s.98,.46,1.71,.46c2.26,0,3.38-1.61,3.38-4.83v-28.39Z"/><path class="c" d="M675.61,125.14h14.81v4.35c1.41-1.61,3.1-2.9,5.08-3.87s4.04-1.45,6.17-1.45c1.61,0,3.05,.38,4.31,1.14,1.26,.76,2.32,1.74,3.19,2.92,.86,1.19,1.52,2.52,1.98,4,.45,1.48,.68,2.92,.68,4.33v46.23h-14.81v-43.64c0-2.55-.82-3.82-2.46-3.82-.35,0-.72,.09-1.12,.26s-.74,.4-1.03,.66l-.92,.88c-.18,.18-.31,.32-.4,.42-.09,.1-.31,.36-.66,.77v44.47h-14.81v-57.66Z"/></g></g></svg>