<?xml version="1.0" encoding="UTF-8"?><svg id="a" xmlns="http://www.w3.org/2000/svg" xmlns:xlink="http://www.w3.org/1999/xlink" viewBox="0 0 710.02 188.97"><defs><style>.c{fill:url(#b);}.d{fill:#fff;}.e{isolation:isolate;}</style><linearGradient id="b" x1="80.48" y1="58.81" x2="630.32" y2="58.81" gradientTransform="matrix(1, 0, 0, 1, 0, 0)" gradientUnits="userSpaceOnUse"><stop offset="0" stop-color="#fccd19"/><stop offset=".58" stop-color="#ff6161"/><stop offset="1" stop-color="#e95f91"/></linearGradient></defs><rect class="d" x="325.35" y="-123.6" width="59.31" height="565.84" transform="translate(195.69 514.32) rotate(-90)"/><g class="e"><path d="M104.75,149.42c.42,0,1.05-.03,1.71-.12-.03-.18-.06-.36-.06-.57,0-1.98,1.62-3.6,3.6-3.6s3.57,1.62,3.57,3.6-1.62,3.57-3.57,3.57c-.12,0-.27,0-.39-.03l-.24,.9c-.69,2.94-1.98,7.59-4.5,10.92-2.7,3.6-6.69,6.57-12.06,8.28l-3.27-3.57c5.97-1.41,9.33-3.99,11.76-7.05,1.98-2.49,3.12-5.88,3.54-8.46h-13.98c-1.38,0-2.79,.06-3.57,.12v-4.23c.87,.12,2.58,.24,3.57,.24h13.89Zm6.96-.69c0-.96-.78-1.74-1.71-1.74s-1.74,.78-1.74,1.74,.78,1.71,1.74,1.71,1.71-.78,1.71-1.71Z"/><path d="M141.56,167.06c0,1.17,.06,4.05,.06,4.17h-4.14l.03-1.65h-14.46l.03,1.65h-4.14c.03-.15,.09-2.76,.09-4.2v-14.67c0-.84,0-2.07-.06-2.91,1.23,.03,2.37,.06,3.18,.06h16.5c.75,0,1.89,0,2.97-.06-.06,.9-.06,2.01-.06,2.91v14.7Zm-18.51-13.74v12.45h14.49v-12.45h-14.49Z"/><path d="M159.78,147.11c-.18,.78-.39,1.71-.54,2.46-.15,.9-.39,1.98-.6,3.06,.99-.06,1.89-.12,2.49-.12,3.15,0,5.37,1.41,5.37,5.67,0,3.51-.42,8.25-1.68,10.83-.99,2.07-2.64,2.73-4.89,2.73-1.14,0-2.55-.18-3.54-.42l-.66-3.93c1.14,.33,2.85,.63,3.63,.63,.99,0,1.77-.3,2.22-1.29,.84-1.65,1.23-5.19,1.23-8.13,0-2.37-1.02-2.7-2.91-2.7-.48,0-1.2,.06-2.04,.12-1.14,4.5-3.3,11.49-6.03,15.87l-3.9-1.56c2.91-3.9,4.92-9.84,6-13.89-1.05,.12-1.98,.24-2.55,.33-.84,.09-2.37,.3-3.3,.45l-.33-4.02c1.08,.09,2.07,.03,3.15,0,.93-.03,2.34-.12,3.84-.24,.42-2.28,.66-4.44,.63-6.3l4.41,.45Zm10.26,2.79c1.8,2.55,4.29,8.22,5.19,11.04l-3.75,1.77c-.78-3.3-2.91-8.67-5.04-11.31l3.6-1.5Z"/><path d="M185.29,159.56c2.7-1.95,5.64-2.82,8.73-2.82,5.22,0,8.25,3.21,8.25,6.81,0,5.43-4.29,9.6-16.65,8.52l-1.14-3.9c8.91,1.26,13.62-.93,13.62-4.71,0-1.92-1.83-3.33-4.44-3.33-3.36,0-6.33,1.23-8.19,3.48-.54,.66-.87,1.14-1.11,1.74l-3.45-.87c.57-2.91,1.29-8.7,1.47-12.39l4.02,.54c-.39,1.65-.9,5.22-1.11,6.93Zm.93-12.9c2.82,.87,9.27,2.01,11.88,2.31l-.9,3.66c-3-.39-9.63-1.77-11.94-2.37l.96-3.6Z"/><path d="M234.95,165.5h-11.55v3.99c0,1.86-.39,2.79-1.86,3.3-1.41,.51-3.27,.57-5.82,.57-.24-1.02-.93-2.52-1.47-3.48,1.92,.09,4.14,.09,4.74,.06,.63,0,.78-.12,.78-.54v-3.9h-11.52v-3.3h11.52v-1.95h1.71c.78-.48,1.59-1.05,2.31-1.65h-10.17v-3.09h13.47l.78-.18,2.25,1.74c-1.68,1.83-4.02,3.72-6.45,5.13h11.28v3.3Zm-22.95-8.16h-3.36v-7.29h4.08c-.54-.99-1.35-2.16-2.07-3.09l3.03-1.35c1.05,1.17,2.25,2.76,2.73,3.93l-1.08,.51h4.71c-.42-1.17-1.17-2.61-1.89-3.75l3.15-1.14c.96,1.29,1.95,3.12,2.34,4.32l-1.44,.57h4.53c.99-1.41,2.01-3.15,2.58-4.56l3.87,1.17c-.81,1.17-1.68,2.34-2.52,3.39h3.99v7.29h-3.51v-4.14h-19.14v4.14Z"/><path d="M253.63,149.54c-1.47,2.13-3.72,6.27-5.19,8.88,1.11-.63,2.25-.9,3.39-.9,2.22,0,3.57,1.44,3.69,3.9,.06,1.32-.03,3.72,.15,4.95,.09,1.17,.9,1.62,1.89,1.62,2.55,0,4.17-3.33,5.01-7.02l3.21,2.61c-1.53,5.13-4.29,8.49-8.88,8.49-3.24,0-4.8-1.98-4.92-4.14-.12-1.59-.09-4.02-.18-5.22-.09-1.05-.66-1.65-1.74-1.65-2.04,0-3.69,2.04-4.74,4.47-.81,1.74-1.8,5.04-2.25,6.6l-4.2-1.41c2.19-5.94,8.46-18.42,10.02-21.24,.39-.81,.93-1.77,1.47-3.03l4.23,1.71c-.3,.36-.63,.9-.96,1.38Z"/><path d="M269.36,150.05c2.49-.21,7.41-.66,12.84-1.14,3.06-.24,6.3-.42,8.4-.51l.03,3.84c-1.59,0-4.14,.03-5.73,.39-3.6,.96-6.27,4.8-6.27,8.31,0,4.89,4.56,6.66,9.6,6.9l-1.38,4.11c-6.24-.39-12.12-3.75-12.12-10.2,0-4.29,2.37-7.65,4.38-9.15-2.58,.27-8.82,.93-12.27,1.68l-.39-4.08c1.2-.03,2.34-.09,2.91-.15Zm19.5,9.15l-2.28,1.02c-.75-1.65-1.38-2.82-2.34-4.17l2.22-.93c.72,1.08,1.83,2.88,2.4,4.08Zm3.48-1.47l-2.25,1.08c-.81-1.62-1.5-2.73-2.46-4.05l2.19-1.02c.75,1.05,1.89,2.82,2.52,3.99Z"/><path d="M308.1,151.52c-.33,5.46-1.14,9.81-2.52,13.26,1.32,1.08,2.49,2.16,3.24,3.12l-2.13,2.88c-.63-.84-1.59-1.83-2.67-2.85-1.44,2.31-3.24,4.11-5.46,5.49-.48-.9-1.41-2.16-2.13-2.82,2.01-1.05,3.63-2.73,4.89-4.92-.54-.45-1.08-.84-1.62-1.23l-.24,.93-2.91-1.53c.66-2.46,1.41-5.82,2.13-9.3h-2.34v-3.27h2.97c.39-2.07,.75-4.11,1.02-5.94l3.36,.3c-.3,1.77-.66,3.69-1.05,5.64h2.7l.6-.09,2.16,.33Zm-6.15,3.03c-.45,2.25-.96,4.5-1.44,6.57,.72,.48,1.47,.96,2.22,1.5,.87-2.31,1.44-5.01,1.8-8.07h-2.58Zm22.23,6h-6.6v8.79c0,1.8-.33,2.76-1.5,3.3-1.2,.57-2.82,.69-5.01,.66-.18-.99-.78-2.52-1.29-3.51,1.53,.06,3.12,.09,3.6,.06,.51,0,.66-.12,.66-.54v-8.76h-6.33v-3.36h6.33v-3.48h1.11c.99-1.02,2.04-2.34,2.88-3.6h-9.33v-3.3h11.73l.72-.21,2.34,1.77c-1.59,2.34-3.81,5.13-5.91,7.11v1.71h6.6v3.36Z"/><path d="M351.59,157.04c-1.23,.45-2.85,.84-4.59,1.2,.75,1.59,1.59,3.33,2.46,4.95l-1.77,2.25c-1.65-.3-4.5-.75-6.48-.99l.33-2.85c1.17,.15,2.34,.24,3.15,.33l-1.35-3.09c-3.72,.42-8.55,.51-13.05,.18l-.15-3.42c4.44,.42,8.49,.42,11.85,.06l-.51-1.17-.72-1.68c-2.91,.24-6.63,.24-10.23-.12l-.18-3.39c3.39,.36,6.36,.48,9,.33v-.03c-.54-1.08-.93-1.74-1.44-2.55l4.23-.81c.21,.9,.54,1.92,.93,2.97,2.01-.33,3.93-.78,5.7-1.38l.63,3.33c-1.53,.45-3.15,.87-5.1,1.2l.57,1.29,.69,1.5c2.28-.45,3.99-.96,5.31-1.47l.72,3.36Zm-16.65,5.58c-.39,.9-.72,2.16-.72,2.88,0,1.86,1.32,3.12,5.19,3.12,2.82,0,5.76-.24,7.86-.66l-.12,3.81c-1.65,.27-4.68,.57-7.65,.57-5.55,0-8.97-1.89-8.97-6,0-1.35,.39-2.94,.72-4.05l3.69,.33Z"/><path d="M369.64,166.4c.06-.87,.09-2.25,.12-3.54-2.19,1.2-3.39,2.37-3.39,3.84,0,1.65,1.41,2.1,4.32,2.1,2.52,0,5.82-.33,8.43-.87l-.12,3.87c-1.98,.24-5.61,.48-8.4,.48-4.65,0-8.16-1.11-8.16-4.95s3.6-6.18,6.99-7.92c-.48-.75-1.26-1.02-2.07-1.02-1.68,0-3.51,.96-4.65,2.04-.9,.9-1.74,1.98-2.76,3.27l-3.18-2.37c3.12-2.88,5.22-5.52,6.54-8.16h-.36c-1.2,0-3.39-.06-5.01-.21v-3.48c1.5,.24,3.72,.33,5.22,.33h1.44c.36-1.35,.57-2.55,.6-3.39l3.9,.33c-.15,.72-.36,1.74-.72,2.94,2.79-.15,5.79-.39,8.4-.87l-.03,3.48c-2.85,.42-6.51,.66-9.69,.78-.48,1.05-1.08,2.13-1.71,3,.78-.39,2.37-.6,3.36-.6,1.8,0,3.3,.78,3.96,2.31,1.53-.72,2.79-1.23,4.02-1.77,1.14-.51,2.19-1.02,3.27-1.53l1.5,3.45c-.96,.24-2.52,.84-3.54,1.26-1.32,.51-3,1.17-4.83,2.01,.03,1.65,.09,3.84,.12,5.19h-3.57Z"/><path d="M396.36,153.23c-.72,1.26-1.62,2.52-2.61,3.78v16.29h-3.45v-12.45c-.9,.9-1.8,1.74-2.7,2.43-.27-.78-1.17-2.82-1.71-3.69,2.67-1.86,5.61-4.77,7.35-7.71l3.12,1.35Zm-.51-6.51c-1.98,2.76-5.04,5.7-7.86,7.53-.36-.81-1.23-2.28-1.77-3.03,2.34-1.44,4.98-3.87,6.24-5.88l3.39,1.38Zm18.24,18.81h-4.11v4.26c0,1.65-.3,2.49-1.47,3-1.11,.51-2.61,.51-4.65,.51-.15-.96-.66-2.28-1.11-3.18,1.26,.06,2.67,.06,3.06,.06,.42-.03,.54-.15,.54-.48v-4.17h-6.3c1.2,1.14,2.67,2.7,3.42,3.75l-2.67,1.89c-.66-1.14-2.19-2.91-3.45-4.17l2.22-1.47h-4.2v-3.03h10.98v-1.71h-10.26v-2.91h17.37v2.91h-3.48v1.71h4.08l.03,3.03Zm-1.62-8.97h-14.85v-10.38h14.85v10.38Zm-3.6-7.89h-7.8v1.5h7.8v-1.5Zm0,3.84h-7.8v1.56h7.8v-1.56Z"/><path d="M417.22,170.84c1.86-1.17,3.24-3.09,3.93-5.07l3,1.05c-.81,2.28-2.04,4.5-4.14,5.91l-2.79-1.89Zm27.12-16.38h-25.95v-2.76h6.42c-.18-.63-.48-1.38-.75-2.01l.15-.03h-4.35v-2.76h9.66v-1.59h3.54v1.59h9.69v2.76h-4.23l.45,.09c-.45,.78-.9,1.41-1.26,1.95h6.63v2.76Zm-10.2,15.69c1.11,0,1.29-.33,1.44-2.46,.69,.48,2.1,.96,3.03,1.14-.39,3.33-1.35,4.17-4.14,4.17h-4.83c-3.78,0-4.71-.87-4.71-3.72v-3.15h3.24l-.36-.15,1.23-1.2h-7.5v-9.09h19.89v9.09h-9.75c1.2,.57,2.37,1.26,3.12,1.83l-2.16,2.22c-.9-.81-2.64-1.86-4.23-2.58v3c0,.81,.24,.9,1.59,.9h4.14Zm-9.21-10.98h12.96v-1.29h-12.96v1.29Zm0,3.42h12.96v-1.35h-12.96v1.35Zm2.7-12.93c.3,.69,.57,1.44,.72,1.95l-.39,.09h6.66l-.42-.09c.27-.57,.63-1.32,.87-1.95h-7.44Zm12.87,15.75c1.83,1.53,3.99,3.72,4.89,5.43l-2.94,1.71c-.84-1.59-2.88-3.96-4.71-5.61l2.76-1.53Z"/><path d="M455.94,147.83c-.24,.6-.6,2.1-.72,2.64-.42,1.98-1.44,7.92-1.44,10.89,0,.57,.03,1.29,.12,1.92,.42-1.05,.9-2.04,1.32-3l1.86,1.44c-.84,2.49-1.83,5.7-2.13,7.29-.09,.42-.18,1.08-.18,1.38,.03,.33,.03,.81,.06,1.23l-3.42,.24c-.6-2.07-1.17-5.7-1.17-9.72,0-4.47,.9-9.48,1.23-11.76,.12-.84,.3-1.98,.3-2.91l4.17,.36Zm6.96,14.67c-.24,.96-.36,1.68-.36,2.49,0,1.32,1.14,2.1,4.14,2.1,2.67,0,4.86-.24,7.44-.78l.09,4.02c-1.92,.36-4.32,.6-7.68,.6-5.13,0-7.56-1.86-7.56-4.89,0-1.23,.21-2.49,.51-3.87l3.42,.33Zm10.38-12.72v3.84c-3.66,.33-9.03,.33-12.75,0l-.03-3.84c3.66,.51,9.57,.39,12.78,0Z"/><path d="M486.66,147.02c-.21,1.26-.36,2.76-.39,3.96-.15,3.18-.36,9.84-.36,13.53,0,3,1.8,3.96,4.08,3.96,4.92,0,8.04-2.82,10.17-6.06l2.7,3.33c-1.92,2.82-6.12,6.78-12.9,6.78-4.86,0-8.01-2.13-8.01-7.2,0-3.99,.3-11.79,.3-14.34,0-1.41-.12-2.85-.39-4.02l4.8,.06Z"/><path d="M529.57,170.87c-1.68-1.68-3.93-3.45-6.57-4.65,.03,.39,.03,.72,.03,1.02,0,2.61-1.35,5.13-6.33,5.13-4.23,0-7.71-1.38-7.71-5.43,0-3.09,2.64-5.55,8.1-5.55,.6,0,1.2,.03,1.77,.09-.09-2.31-.21-4.86-.21-6.42,0-1.8-.03-3.57-.06-4.83-.03-1.47-.12-2.73-.3-3.48h4.47c-.12,.87-.21,2.31-.27,3.48v2.16c2.34-.06,5.82-.18,8.28-.45l.15,3.54c-2.49,.24-6.03,.36-8.43,.42,.06,1.8,.18,4.14,.33,6.33,3.78,1.14,6.99,3.18,9.03,5.1l-2.28,3.54Zm-10.59-5.94c-.78-.12-1.62-.21-2.46-.21-2.31,0-3.69,.78-3.69,2.04,0,1.47,1.5,2.01,3.57,2.01,1.92,0,2.61-.87,2.61-2.82,0-.27,0-.63-.03-1.02Z"/><path d="M550.38,157.31c-3.27,0-6.21,.99-7.74,1.44-.87,.27-2.01,.72-2.88,1.02l-1.11-4.23c.99-.09,2.28-.3,3.24-.51,2.19-.48,5.52-1.35,8.97-1.35,4.71,0,8.01,2.67,8.01,7.32,0,6.36-5.88,10.32-14.13,11.46l-2.16-3.72c7.38-.84,12.09-3.24,12.09-7.89,0-1.95-1.5-3.57-4.29-3.54Zm6-9.39l-.6,3.66c-3.48-.24-9.93-.81-13.35-1.41l.6-3.6c3.45,.75,10.2,1.35,13.35,1.35Z"/><path d="M591.37,158.63v1.38h-25.56v-1.38h25.56Z"/><path d="M604.81,168.14c0,2.67-2.16,4.86-4.86,4.86s-4.83-2.19-4.83-4.86,2.19-4.86,4.83-4.86,4.86,2.19,4.86,4.86Zm-2.16,0c0-1.5-1.2-2.7-2.7-2.7s-2.67,1.2-2.67,2.7,1.23,2.67,2.67,2.67,2.7-1.17,2.7-2.67Z"/></g><rect class="d" x="297.9" y="-297.9" width="114.22" height="710.02" transform="translate(297.9 412.12) rotate(-90)"/><g><g><path d="M80.48,16.99h14.22c4.79,0,8.72,.43,11.8,1.29,3.07,.86,5.49,2.21,7.27,4.04,1.77,1.84,3,4.19,3.69,7.07,.69,2.88,1.04,6.33,1.04,10.37v23.05c0,2.6-.09,5.01-.27,7.23-.18,2.21-.56,4.23-1.13,6.04-.57,1.81-1.39,3.41-2.44,4.8-1.05,1.39-2.46,2.57-4.2,3.52-1.75,.95-3.88,1.67-6.41,2.17-2.53,.5-5.53,.74-9.02,.74h-14.53V16.99Zm14.53,60.35c1.69,0,3.12-.04,4.3-.12s2.13-.33,2.87-.76,1.28-1.09,1.6-1.99c.33-.9,.49-2.18,.49-3.85V32.77c0-1.15-.16-2.1-.49-2.85-.33-.75-.85-1.35-1.58-1.78-.73-.43-1.66-.73-2.79-.9-1.13-.17-2.52-.25-4.16-.25h-.55v50.35h.31Z"/><path d="M124.09,19.29h13.16v12.3h-13.16v-12.3Zm0,16.76h13.16v51.25h-13.16V36.05Z"/><path d="M178.91,35.15l-1.09,9.41c-2.58,0-4.44,.57-5.59,1.72,1.09,1.95,1.64,4.91,1.64,8.87,0,2.32-.35,4.52-1.04,6.6-.69,2.08-1.68,3.93-2.97,5.55-1.29,1.62-2.94,2.89-4.96,3.83-2.02,.94-4.25,1.41-6.7,1.41-1.07,0-2.47-.2-4.22-.59l-.2,.43c-.16,.31-.31,.64-.47,1s-.23,.58-.23,.68c0,.6,.51,1.06,1.52,1.39,1.02,.33,2.56,.64,4.65,.96,.21,.03,.55,.08,1.02,.16,1.88,.26,3.16,.46,3.87,.59,.7,.13,1.93,.39,3.69,.78s3.04,.81,3.85,1.27c.81,.46,1.75,1.05,2.83,1.78,1.08,.73,1.85,1.61,2.3,2.64,.46,1.03,.68,2.19,.68,3.5,0,2.16-.32,4.06-.96,5.68-.64,1.63-1.48,2.93-2.54,3.91s-2.36,1.76-3.93,2.36c-1.56,.6-3.15,1.01-4.77,1.23-1.62,.22-3.41,.33-5.39,.33-12.53,0-18.79-3.06-18.79-9.18,0-1.8,.49-3.59,1.48-5.37,.99-1.78,2.28-3.25,3.87-4.39-1.07-.55-2.1-1.19-3.09-1.93-.99-.74-1.48-1.45-1.48-2.13,0-1.48,1.73-4.43,5.2-8.83-2.66-4.84-3.98-9.71-3.98-14.61,0-2.5,.29-4.85,.88-7.05,.59-2.2,1.48-4.21,2.68-6.04,1.2-1.82,2.82-3.27,4.86-4.34,2.04-1.07,4.41-1.6,7.09-1.6,4.01,0,7.03,1.08,9.06,3.24,1.9-2.16,5.09-3.24,9.57-3.24h1.64Zm-25.59,49.06c-1.17,1.85-1.76,3.48-1.76,4.88,0,1.54,2.89,2.3,8.67,2.3h.23c2.97,.03,4.45-.86,4.45-2.66,0-.62-.17-1.19-.51-1.7-.34-.51-.84-.92-1.5-1.23s-1.32-.57-1.97-.78c-.65-.21-1.45-.36-2.38-.47-.94-.1-1.69-.18-2.25-.23-.56-.05-1.24-.09-2.05-.12h-.94Zm5-21.6c2.13,0,3.2-3.02,3.2-9.06s-1-9.3-3.01-9.3c-.5,0-.93,.13-1.31,.39-.38,.26-.68,.66-.9,1.19-.22,.53-.4,1.08-.55,1.64-.14,.56-.25,1.26-.31,2.11-.07,.85-.1,1.58-.12,2.19-.01,.61-.02,1.37-.02,2.29,0,5.7,1,8.55,3.01,8.55Z"/><path d="M181.93,19.29h13.16v12.3h-13.16v-12.3Zm0,16.76h13.16v51.25h-13.16V36.05Z"/><path d="M202.81,44.84h-3.75v-8.79h3.75V19.57h13.16v16.48h6.33v8.79h-6.33v28.12c0,1.41,.26,2.46,.78,3.14,.52,.69,1.45,1.04,2.77,1.04,1.51,0,2.79-.08,3.83-.23l-.78,10.2c-1.72,.52-4.23,.78-7.54,.78-1.54,0-2.92-.18-4.16-.55-1.24-.36-2.28-.85-3.12-1.46-.85-.61-1.58-1.39-2.19-2.32-.61-.94-1.09-1.89-1.45-2.87s-.62-2.12-.82-3.42c-.2-1.3-.33-2.51-.39-3.63-.07-1.12-.1-2.4-.1-3.83v-24.96Z"/><path d="M247.39,82.03c-.76,2.37-1.99,4.03-3.71,4.98s-3.85,1.43-6.41,1.43c-1.88,0-3.52-.37-4.92-1.09s-2.51-1.71-3.3-2.95c-.79-1.24-1.38-2.56-1.76-3.98-.38-1.42-.57-2.91-.57-4.47,0-1.77,.18-3.41,.55-4.92,.36-1.51,.83-2.84,1.39-4,.56-1.16,1.34-2.27,2.34-3.34,1-1.07,1.98-1.97,2.93-2.71,.95-.74,2.17-1.51,3.65-2.3,1.48-.79,2.81-1.46,3.98-1.99,1.17-.53,2.64-1.17,4.41-1.89v-4.3c0-1.8-.22-3.14-.66-4.02-.44-.88-1.2-1.33-2.27-1.33-.73,0-1.32,.15-1.78,.45-.46,.3-.78,.75-.96,1.35-.18,.6-.3,1.14-.35,1.62-.05,.48-.08,1.13-.08,1.93v2.89h-12.77c0-5.86,1.47-10.36,4.41-13.5,2.94-3.14,7.21-4.71,12.81-4.71,3.91,0,7.33,1.42,10.27,4.26,2.94,2.84,4.41,6.21,4.41,10.12v24.22c0,4.19,.56,8.71,1.68,13.55h-12.03l-1.29-5.27Zm-1.41-18.79c-4.3,3.46-6.45,7.29-6.45,11.48,0,1.04,.2,1.93,.61,2.68,.4,.74,1.09,1.11,2.05,1.11,.55,0,1.09-.18,1.62-.53,.53-.35,.92-.66,1.15-.92,.23-.26,.59-.69,1.05-1.29l-.04-12.54Z"/><path d="M265.19,16.99h13.16V87.3h-13.16V16.99Z"/><path d="M296.72,19.29h13.16v12.3h-13.16v-12.3Zm0,16.76h13.16v51.25h-13.16V36.05Z"/><path d="M315.72,16.99h13.16V87.3h-13.16V16.99Z"/><path d="M334.72,16.99h13.16V87.3h-13.16V16.99Z"/><path d="M353.52,36.05h13.16v38.16c0,2.87,.6,4.3,1.8,4.3s2.54-.96,4.1-2.89V36.05h13.16v51.25h-13.16v-4.41c-1.33,1.62-2.88,2.94-4.65,3.98s-3.57,1.56-5.39,1.56c-2.68,0-4.86-1.14-6.52-3.42-1.67-2.28-2.5-4.81-2.5-7.6V36.05Z"/><path d="M400.68,71.4l.62,1.84c.21,.6,.46,1.22,.76,1.88,.3,.65,.66,1.25,1.07,1.8,.42,.55,.88,1,1.41,1.35,.52,.35,1.12,.53,1.8,.53,1.64,0,2.46-.96,2.46-2.89,0-1.02-.27-1.99-.8-2.93-.54-.94-1.2-1.84-1.99-2.7-.79-.86-1.65-1.67-2.56-2.44-.91-.77-1.73-1.48-2.46-2.13l-2.15-1.84c-1.41-1.2-2.66-2.38-3.77-3.55-1.11-1.17-2.04-2.36-2.81-3.57-.77-1.21-1.36-2.46-1.76-3.75-.4-1.29-.61-2.65-.61-4.08,0-2.27,.46-4.25,1.39-5.96,.92-1.71,2.15-3.14,3.67-4.3,1.52-1.16,3.28-2.02,5.27-2.6,1.99-.57,4.04-.86,6.15-.86,1.98,0,3.81,.4,5.49,1.21,1.68,.81,3.19,1.88,4.53,3.2,1.34,1.33,2.49,2.85,3.46,4.57,.96,1.72,1.71,3.48,2.23,5.27l-9.45,3.24-.78-1.91c-.68-1.64-1.49-2.99-2.44-4.06-.95-1.07-2.09-1.67-3.42-1.8-.91,0-1.62,.33-2.13,.98-.51,.65-.76,1.39-.76,2.23,0,1.17,.63,2.46,1.89,3.85,1.26,1.39,3,3.03,5.21,4.9l2.42,2.15c1.22,1.09,2.39,2.23,3.5,3.42,1.11,1.19,2.08,2.42,2.93,3.71,.85,1.29,1.52,2.6,2.01,3.95,.49,1.34,.74,2.71,.74,4.12,0,2.03-.39,3.92-1.17,5.66-.78,1.75-1.85,3.25-3.2,4.51-1.36,1.26-2.94,2.25-4.75,2.97-1.81,.72-3.73,1.07-5.76,1.07s-3.84-.33-5.59-.98c-1.75-.65-3.32-1.57-4.73-2.75-1.41-1.18-2.62-2.6-3.65-4.24-1.03-1.64-1.82-3.46-2.36-5.47l10.08-3.59Z"/><path d="M427.63,44.84h-3.75v-8.79h3.75V19.57h13.16v16.48h6.33v8.79h-6.33v28.12c0,1.41,.26,2.46,.78,3.14,.52,.69,1.45,1.04,2.77,1.04,1.51,0,2.79-.08,3.83-.23l-.78,10.2c-1.72,.52-4.23,.78-7.54,.78-1.54,0-2.92-.18-4.16-.55-1.24-.36-2.28-.85-3.12-1.46-.85-.61-1.58-1.39-2.19-2.32-.61-.94-1.09-1.89-1.45-2.87s-.62-2.12-.82-3.42c-.2-1.3-.33-2.51-.39-3.63-.07-1.12-.1-2.4-.1-3.83v-24.96Z"/><path d="M452.2,36.05h13.09v4.41c2-3.25,4.35-4.88,7.03-4.88,.75,0,1.94,.13,3.55,.39l-.78,11.09c-2.4-.26-3.84-.39-4.34-.39-1.8,0-3.16,.55-4.08,1.66-.93,1.11-1.39,2.69-1.39,4.75v34.22h-13.09V36.05Z"/><path d="M498.87,82.03c-.76,2.37-1.99,4.03-3.71,4.98s-3.85,1.43-6.41,1.43c-1.88,0-3.52-.37-4.92-1.09s-2.51-1.71-3.3-2.95c-.79-1.24-1.38-2.56-1.76-3.98-.38-1.42-.57-2.91-.57-4.47,0-1.77,.18-3.41,.55-4.92,.37-1.51,.83-2.84,1.39-4,.56-1.16,1.34-2.27,2.34-3.34,1-1.07,1.98-1.97,2.93-2.71s2.17-1.51,3.65-2.3c1.48-.79,2.81-1.46,3.98-1.99,1.17-.53,2.64-1.17,4.41-1.89v-4.3c0-1.8-.22-3.14-.66-4.02-.44-.88-1.2-1.33-2.27-1.33-.73,0-1.32,.15-1.78,.45-.46,.3-.78,.75-.96,1.35-.18,.6-.3,1.14-.35,1.62-.05,.48-.08,1.13-.08,1.93v2.89h-12.77c0-5.86,1.47-10.36,4.41-13.5,2.94-3.14,7.21-4.71,12.81-4.71,3.91,0,7.33,1.42,10.27,4.26,2.94,2.84,4.41,6.21,4.41,10.12v24.22c0,4.19,.56,8.71,1.68,13.55h-12.03l-1.29-5.27Zm-1.41-18.79c-4.3,3.46-6.45,7.29-6.45,11.48,0,1.04,.2,1.93,.61,2.68s1.09,1.11,2.05,1.11c.55,0,1.09-.18,1.62-.53s.92-.66,1.15-.92c.23-.26,.59-.69,1.05-1.29l-.04-12.54Z"/><path d="M517.86,44.84h-3.75v-8.79h3.75V19.57h13.16v16.48h6.33v8.79h-6.33v28.12c0,1.41,.26,2.46,.78,3.14,.52,.69,1.45,1.04,2.77,1.04,1.51,0,2.79-.08,3.83-.23l-.78,10.2c-1.72,.52-4.23,.78-7.54,.78-1.54,0-2.92-.18-4.16-.55-1.24-.36-2.28-.85-3.12-1.46-.85-.61-1.58-1.39-2.19-2.32-.61-.94-1.09-1.89-1.45-2.87s-.62-2.12-.82-3.42c-.2-1.3-.33-2.51-.39-3.63-.07-1.12-.1-2.4-.1-3.83v-24.96Z"/><path d="M542.46,19.29h13.16v12.3h-13.16v-12.3Zm0,16.76h13.16v51.25h-13.16V36.05Z"/><path d="M560.97,52.38c0-2.71,.31-5.12,.94-7.25,.62-2.12,1.59-3.92,2.89-5.39,1.3-1.47,2.95-2.6,4.94-3.38s4.36-1.17,7.09-1.17,5.1,.38,7.11,1.15c2.01,.77,3.67,1.89,5,3.36,1.33,1.47,2.32,3.27,2.97,5.39,.65,2.12,.98,4.55,.98,7.29v21.68c0,2.14-.43,4.08-1.29,5.84s-2.02,3.27-3.48,4.53c-1.46,1.26-3.16,2.25-5.1,2.95s-4,1.05-6.19,1.05c-2.06,0-4.04-.33-5.96-.98s-3.6-1.59-5.06-2.83c-1.46-1.24-2.63-2.75-3.52-4.53-.88-1.78-1.33-3.79-1.33-6.04v-21.68Zm18.87-3.4c0-2.58-1-3.87-3.01-3.87-1.8,0-2.7,1.29-2.7,3.87v25.23c0,.47,.02,.96,.06,1.46s.14,.97,.31,1.39c.17,.42,.44,.76,.8,1.04s.87,.41,1.52,.41c2.01,0,3.01-1.43,3.01-4.3v-25.23Z"/><path d="M598.13,36.05h13.16v3.87c1.25-1.43,2.75-2.58,4.51-3.44s3.59-1.29,5.49-1.29c1.43,0,2.71,.34,3.83,1.02,1.12,.68,2.06,1.54,2.83,2.6,.77,1.05,1.35,2.24,1.76,3.55,.4,1.32,.61,2.6,.61,3.85v41.09h-13.16V48.51c0-2.27-.73-3.4-2.19-3.4-.31,0-.64,.08-1,.23s-.66,.35-.92,.59l-.82,.78c-.16,.16-.27,.28-.35,.37-.08,.09-.27,.32-.59,.68v39.53h-13.16V36.05Z"/></g><g><path class="c" d="M80.48,16.99h14.22c4.79,0,8.72,.43,11.8,1.29,3.07,.86,5.49,2.21,7.27,4.04,1.77,1.84,3,4.19,3.69,7.07,.69,2.88,1.04,6.33,1.04,10.37v23.05c0,2.6-.09,5.01-.27,7.23-.18,2.21-.56,4.23-1.13,6.04-.57,1.81-1.39,3.41-2.44,4.8-1.05,1.39-2.46,2.57-4.2,3.52-1.75,.95-3.88,1.67-6.41,2.17-2.53,.5-5.53,.74-9.02,.74h-14.53V16.99Zm14.53,60.35c1.69,0,3.12-.04,4.3-.12s2.13-.33,2.87-.76,1.28-1.09,1.6-1.99c.33-.9,.49-2.18,.49-3.85V32.77c0-1.15-.16-2.1-.49-2.85-.33-.75-.85-1.35-1.58-1.78-.73-.43-1.66-.73-2.79-.9-1.13-.17-2.52-.25-4.16-.25h-.55v50.35h.31Z"/><path class="c" d="M124.09,19.29h13.16v12.3h-13.16v-12.3Zm0,16.76h13.16v51.25h-13.16V36.05Z"/><path class="c" d="M178.91,35.15l-1.09,9.41c-2.58,0-4.44,.57-5.59,1.72,1.09,1.95,1.64,4.91,1.64,8.87,0,2.32-.35,4.52-1.04,6.6-.69,2.08-1.68,3.93-2.97,5.55-1.29,1.62-2.94,2.89-4.96,3.83-2.02,.94-4.25,1.41-6.7,1.41-1.07,0-2.47-.2-4.22-.59l-.2,.43c-.16,.31-.31,.64-.47,1s-.23,.58-.23,.68c0,.6,.51,1.06,1.52,1.39,1.02,.33,2.56,.64,4.65,.96,.21,.03,.55,.08,1.02,.16,1.88,.26,3.16,.46,3.87,.59,.7,.13,1.93,.39,3.69,.78s3.04,.81,3.85,1.27c.81,.46,1.75,1.05,2.83,1.78,1.08,.73,1.85,1.61,2.3,2.64,.46,1.03,.68,2.19,.68,3.5,0,2.16-.32,4.06-.96,5.68-.64,1.63-1.48,2.93-2.54,3.91s-2.36,1.76-3.93,2.36c-1.56,.6-3.15,1.01-4.77,1.23-1.62,.22-3.41,.33-5.39,.33-12.53,0-18.79-3.06-18.79-9.18,0-1.8,.49-3.59,1.48-5.37,.99-1.78,2.28-3.25,3.87-4.39-1.07-.55-2.1-1.19-3.09-1.93-.99-.74-1.48-1.45-1.48-2.13,0-1.48,1.73-4.43,5.2-8.83-2.66-4.84-3.98-9.71-3.98-14.61,0-2.5,.29-4.85,.88-7.05,.59-2.2,1.48-4.21,2.68-6.04,1.2-1.82,2.82-3.27,4.86-4.34,2.04-1.07,4.41-1.6,7.09-1.6,4.01,0,7.03,1.08,9.06,3.24,1.9-2.16,5.09-3.24,9.57-3.24h1.64Zm-25.59,49.06c-1.17,1.85-1.76,3.48-1.76,4.88,0,1.54,2.89,2.3,8.67,2.3h.23c2.97,.03,4.45-.86,4.45-2.66,0-.62-.17-1.19-.51-1.7-.34-.51-.84-.92-1.5-1.23s-1.32-.57-1.97-.78c-.65-.21-1.45-.36-2.38-.47-.94-.1-1.69-.18-2.25-.23-.56-.05-1.24-.09-2.05-.12h-.94Zm5-21.6c2.13,0,3.2-3.02,3.2-9.06s-1-9.3-3.01-9.3c-.5,0-.93,.13-1.31,.39-.38,.26-.68,.66-.9,1.19-.22,.53-.4,1.08-.55,1.64-.14,.56-.25,1.26-.31,2.11-.07,.85-.1,1.58-.12,2.19-.01,.61-.02,1.37-.02,2.29,0,5.7,1,8.55,3.01,8.55Z"/><path class="c" d="M181.93,19.29h13.16v12.3h-13.16v-12.3Zm0,16.76h13.16v51.25h-13.16V36.05Z"/><path class="c" d="M202.81,44.84h-3.75v-8.79h3.75V19.57h13.16v16.48h6.33v8.79h-6.33v28.12c0,1.41,.26,2.46,.78,3.14,.52,.69,1.45,1.04,2.77,1.04,1.51,0,2.79-.08,3.83-.23l-.78,10.2c-1.72,.52-4.23,.78-7.54,.78-1.54,0-2.92-.18-4.16-.55-1.24-.36-2.28-.85-3.12-1.46-.85-.61-1.58-1.39-2.19-2.32-.61-.94-1.09-1.89-1.45-2.87s-.62-2.12-.82-3.42c-.2-1.3-.33-2.51-.39-3.63-.07-1.12-.1-2.4-.1-3.83v-24.96Z"/><path class="c" d="M247.39,82.03c-.76,2.37-1.99,4.03-3.71,4.98s-3.85,1.43-6.41,1.43c-1.88,0-3.52-.37-4.92-1.09s-2.51-1.71-3.3-2.95c-.79-1.24-1.38-2.56-1.76-3.98-.38-1.42-.57-2.91-.57-4.47,0-1.77,.18-3.41,.55-4.92,.36-1.51,.83-2.84,1.39-4,.56-1.16,1.34-2.27,2.34-3.34,1-1.07,1.98-1.97,2.93-2.71,.95-.74,2.17-1.51,3.65-2.3,1.48-.79,2.81-1.46,3.98-1.99,1.17-.53,2.64-1.17,4.41-1.89v-4.3c0-1.8-.22-3.14-.66-4.02-.44-.88-1.2-1.33-2.27-1.33-.73,0-1.32,.15-1.78,.45-.46,.3-.78,.75-.96,1.35-.18,.6-.3,1.14-.35,1.62-.05,.48-.08,1.13-.08,1.93v2.89h-12.77c0-5.86,1.47-10.36,4.41-13.5,2.94-3.14,7.21-4.71,12.81-4.71,3.91,0,7.33,1.42,10.27,4.26,2.94,2.84,4.41,6.21,4.41,10.12v24.22c0,4.19,.56,8.71,1.68,13.55h-12.03l-1.29-5.27Zm-1.41-18.79c-4.3,3.46-6.45,7.29-6.45,11.48,0,1.04,.2,1.93,.61,2.68,.4,.74,1.09,1.11,2.05,1.11,.55,0,1.09-.18,1.62-.53,.53-.35,.92-.66,1.15-.92,.23-.26,.59-.69,1.05-1.29l-.04-12.54Z"/><path class="c" d="M265.19,16.99h13.16V87.3h-13.16V16.99Z"/><path class="c" d="M296.72,19.29h13.16v12.3h-13.16v-12.3Zm0,16.76h13.16v51.25h-13.16V36.05Z"/><path class="c" d="M315.72,16.99h13.16V87.3h-13.16V16.99Z"/><path class="c" d="M334.72,16.99h13.16V87.3h-13.16V16.99Z"/><path class="c" d="M353.52,36.05h13.16v38.16c0,2.87,.6,4.3,1.8,4.3s2.54-.96,4.1-2.89V36.05h13.16v51.25h-13.16v-4.41c-1.33,1.62-2.88,2.94-4.65,3.98s-3.57,1.56-5.39,1.56c-2.68,0-4.86-1.14-6.52-3.42-1.67-2.28-2.5-4.81-2.5-7.6V36.05Z"/><path class="c" d="M400.68,71.4l.62,1.84c.21,.6,.46,1.22,.76,1.88,.3,.65,.66,1.25,1.07,1.8,.42,.55,.88,1,1.41,1.35,.52,.35,1.12,.53,1.8,.53,1.64,0,2.46-.96,2.46-2.89,0-1.02-.27-1.99-.8-2.93-.54-.94-1.2-1.84-1.99-2.7-.79-.86-1.65-1.67-2.56-2.44-.91-.77-1.73-1.48-2.46-2.13l-2.15-1.84c-1.41-1.2-2.66-2.38-3.77-3.55-1.11-1.17-2.04-2.36-2.81-3.57-.77-1.21-1.36-2.46-1.76-3.75-.4-1.29-.61-2.65-.61-4.08,0-2.27,.46-4.25,1.39-5.96,.92-1.71,2.15-3.14,3.67-4.3,1.52-1.16,3.28-2.02,5.27-2.6,1.99-.57,4.04-.86,6.15-.86,1.98,0,3.81,.4,5.49,1.21,1.68,.81,3.19,1.88,4.53,3.2,1.34,1.33,2.49,2.85,3.46,4.57,.96,1.72,1.71,3.48,2.23,5.27l-9.45,3.24-.78-1.91c-.68-1.64-1.49-2.99-2.44-4.06-.95-1.07-2.09-1.67-3.42-1.8-.91,0-1.62,.33-2.13,.98-.51,.65-.76,1.39-.76,2.23,0,1.17,.63,2.46,1.89,3.85,1.26,1.39,3,3.03,5.21,4.9l2.42,2.15c1.22,1.09,2.39,2.23,3.5,3.42,1.11,1.19,2.08,2.42,2.93,3.71,.85,1.29,1.52,2.6,2.01,3.95,.49,1.34,.74,2.71,.74,4.12,0,2.03-.39,3.92-1.17,5.66-.78,1.75-1.85,3.25-3.2,4.51-1.36,1.26-2.94,2.25-4.75,2.97-1.81,.72-3.73,1.07-5.76,1.07s-3.84-.33-5.59-.98c-1.75-.65-3.32-1.57-4.73-2.75-1.41-1.18-2.62-2.6-3.65-4.24-1.03-1.64-1.82-3.46-2.36-5.47l10.08-3.59Z"/><path class="c" d="M427.63,44.84h-3.75v-8.79h3.75V19.57h13.16v16.48h6.33v8.79h-6.33v28.12c0,1.41,.26,2.46,.78,3.14,.52,.69,1.45,1.04,2.77,1.04,1.51,0,2.79-.08,3.83-.23l-.78,10.2c-1.72,.52-4.23,.78-7.54,.78-1.54,0-2.92-.18-4.16-.55-1.24-.36-2.28-.85-3.12-1.46-.85-.61-1.58-1.39-2.19-2.32-.61-.94-1.09-1.89-1.45-2.87s-.62-2.12-.82-3.42c-.2-1.3-.33-2.51-.39-3.63-.07-1.12-.1-2.4-.1-3.83v-24.96Z"/><path class="c" d="M452.2,36.05h13.09v4.41c2-3.25,4.35-4.88,7.03-4.88,.75,0,1.94,.13,3.55,.39l-.78,11.09c-2.4-.26-3.84-.39-4.34-.39-1.8,0-3.16,.55-4.08,1.66-.93,1.11-1.39,2.69-1.39,4.75v34.22h-13.09V36.05Z"/><path class="c" d="M498.87,82.03c-.76,2.37-1.99,4.03-3.71,4.98s-3.85,1.43-6.41,1.43c-1.88,0-3.52-.37-4.92-1.09s-2.51-1.71-3.3-2.95c-.79-1.24-1.38-2.56-1.76-3.98-.38-1.42-.57-2.91-.57-4.47,0-1.77,.18-3.41,.55-4.92,.37-1.51,.83-2.84,1.39-4,.56-1.16,1.34-2.27,2.34-3.34,1-1.07,1.98-1.97,2.93-2.71s2.17-1.51,3.65-2.3c1.48-.79,2.81-1.46,3.98-1.99,1.17-.53,2.64-1.17,4.41-1.89v-4.3c0-1.8-.22-3.14-.66-4.02-.44-.88-1.2-1.33-2.27-1.33-.73,0-1.32,.15-1.78,.45-.46,.3-.78,.75-.96,1.35-.18,.6-.3,1.14-.35,1.62-.05,.48-.08,1.13-.08,1.93v2.89h-12.77c0-5.86,1.47-10.36,4.41-13.5,2.94-3.14,7.21-4.71,12.81-4.71,3.91,0,7.33,1.42,10.27,4.26,2.94,2.84,4.41,6.21,4.41,10.12v24.22c0,4.19,.56,8.71,1.68,13.55h-12.03l-1.29-5.27Zm-1.41-18.79c-4.3,3.46-6.45,7.29-6.45,11.48,0,1.04,.2,1.93,.61,2.68s1.09,1.11,2.05,1.11c.55,0,1.09-.18,1.62-.53s.92-.66,1.15-.92c.23-.26,.59-.69,1.05-1.29l-.04-12.54Z"/><path class="c" d="M517.86,44.84h-3.75v-8.79h3.75V19.57h13.16v16.48h6.33v8.79h-6.33v28.12c0,1.41,.26,2.46,.78,3.14,.52,.69,1.45,1.04,2.77,1.04,1.51,0,2.79-.08,3.83-.23l-.78,10.2c-1.72,.52-4.23,.78-7.54,.78-1.54,0-2.92-.18-4.16-.55-1.24-.36-2.28-.85-3.12-1.46-.85-.61-1.58-1.39-2.19-2.32-.61-.94-1.09-1.89-1.45-2.87s-.62-2.12-.82-3.42c-.2-1.3-.33-2.51-.39-3.63-.07-1.12-.1-2.4-.1-3.83v-24.96Z"/><path class="c" d="M542.46,19.29h13.16v12.3h-13.16v-12.3Zm0,16.76h13.16v51.25h-13.16V36.05Z"/><path class="c" d="M560.97,52.38c0-2.71,.31-5.12,.94-7.25,.62-2.12,1.59-3.92,2.89-5.39,1.3-1.47,2.95-2.6,4.94-3.38s4.36-1.17,7.09-1.17,5.1,.38,7.11,1.15c2.01,.77,3.67,1.89,5,3.36,1.33,1.47,2.32,3.27,2.97,5.39,.65,2.12,.98,4.55,.98,7.29v21.68c0,2.14-.43,4.08-1.29,5.84s-2.02,3.27-3.48,4.53c-1.46,1.26-3.16,2.25-5.1,2.95s-4,1.05-6.19,1.05c-2.06,0-4.04-.33-5.96-.98s-3.6-1.59-5.06-2.83c-1.46-1.24-2.63-2.75-3.52-4.53-.88-1.78-1.33-3.79-1.33-6.04v-21.68Zm18.87-3.4c0-2.58-1-3.87-3.01-3.87-1.8,0-2.7,1.29-2.7,3.87v25.23c0,.47,.02,.96,.06,1.46s.14,.97,.31,1.39c.17,.42,.44,.76,.8,1.04s.87,.41,1.52,.41c2.01,0,3.01-1.43,3.01-4.3v-25.23Z"/><path class="c" d="M598.13,36.05h13.16v3.87c1.25-1.43,2.75-2.58,4.51-3.44s3.59-1.29,5.49-1.29c1.43,0,2.71,.34,3.83,1.02,1.12,.68,2.06,1.54,2.83,2.6,.77,1.05,1.35,2.24,1.76,3.55,.4,1.32,.61,2.6,.61,3.85v41.09h-13.16V48.51c0-2.27-.73-3.4-2.19-3.4-.31,0-.64,.08-1,.23s-.66,.35-.92,.59l-.82,.78c-.16,.16-.27,.28-.35,.37-.08,.09-.27,.32-.59,.68v39.53h-13.16V36.05Z"/></g></g></svg>